M48
; DRILL file {KiCad 7.0.2} date Sat Jun 10 17:52:23 2023
; FORMAT={-:-/ absolute / metric / decimal}
; #@! TF.CreationDate,2023-06-10T17:52:23+02:00
; #@! TF.GenerationSoftware,Kicad,Pcbnew,7.0.2
; #@! TF.FileFunction,Plated,1,2,PTH
FMAT,2
METRIC
; #@! TA.AperFunction,Plated,PTH,ViaDrill
T1C0.400
; #@! TA.AperFunction,Plated,PTH,ViaDrill
T2C0.600
; #@! TA.AperFunction,Plated,PTH,ComponentDrill
T3C1.020
; #@! TA.AperFunction,Plated,PTH,ComponentDrill
T4C1.300
%
G90
G05
T1
X113.792Y-103.632
X147.066Y-110.744
X148.082Y-110.744
X148.844Y-111.506
X150.241Y-112.942
X151.13Y-113.792
X153.416Y-93.726
X153.67Y-123.444
X154.432Y-94.742
X154.94Y-95.504
X159.258Y-105.664
X167.894Y-86.614
T2
X114.808Y-89.408
X114.808Y-90.678
X114.808Y-116.078
X116.078Y-89.408
X116.078Y-90.678
X116.078Y-116.078
X116.84Y-101.854
X116.84Y-103.378
X117.348Y-89.408
X117.348Y-90.678
X117.348Y-116.078
X118.11Y-104.394
X118.618Y-89.408
X118.618Y-90.678
X118.618Y-116.078
X119.38Y-104.394
X119.888Y-89.408
X119.888Y-116.078
X120.65Y-104.394
X121.412Y-105.41
X121.412Y-106.68
X121.412Y-107.95
X121.412Y-109.22
X124.206Y-120.904
X134.62Y-84.074
X134.62Y-115.062
X134.62Y-116.332
X134.62Y-117.602
X134.62Y-118.872
X134.62Y-120.142
X134.62Y-121.412
X134.62Y-122.682
X135.382Y-93.472
X135.89Y-115.062
X135.89Y-116.332
X135.89Y-122.682
X137.16Y-115.062
X137.16Y-116.332
X137.16Y-122.682
X137.414Y-80.772
X137.414Y-91.44
X138.43Y-115.062
X138.43Y-116.332
X138.43Y-122.682
X138.938Y-80.772
X139.7Y-115.062
X139.7Y-116.332
X139.7Y-117.602
X139.7Y-118.872
X139.7Y-120.142
X139.7Y-121.412
X139.7Y-122.682
X145.288Y-91.948
X145.796Y-93.218
X149.098Y-118.872
X149.098Y-120.142
X149.098Y-121.412
X149.352Y-83.312
X150.876Y-83.312
X152.4Y-79.756
X152.4Y-81.534
X152.4Y-83.312
X152.654Y-105.156
X153.67Y-76.708
X154.178Y-105.156
X155.702Y-105.156
X156.21Y-98.298
X156.972Y-104.394
X156.972Y-105.664
X156.972Y-106.934
X156.972Y-108.204
X157.226Y-99.314
X158.242Y-100.33
X159.258Y-101.346
X159.512Y-119.634
X160.274Y-102.362
X161.036Y-119.634
X162.56Y-119.634
X164.084Y-119.634
X165.354Y-81.28
X165.608Y-119.634
X166.624Y-81.28
X167.894Y-81.28
T3
X109.22Y-78.74
X109.22Y-81.28
X109.22Y-83.82
X109.22Y-86.36
X109.22Y-88.9
X109.22Y-91.44
X109.22Y-93.98
X109.22Y-96.52
X109.22Y-99.06
X109.22Y-101.6
X109.22Y-104.14
X109.22Y-106.68
X109.22Y-109.22
X109.22Y-111.76
X109.22Y-114.3
X109.22Y-116.84
X109.22Y-119.38
X109.22Y-121.92
X109.22Y-124.46
X111.76Y-78.74
X111.76Y-81.28
X111.76Y-83.82
X111.76Y-86.36
X111.76Y-88.9
X111.76Y-91.44
X111.76Y-93.98
X111.76Y-96.52
X111.76Y-99.06
X111.76Y-101.6
X111.76Y-104.14
X111.76Y-106.68
X111.76Y-109.22
X111.76Y-111.76
X111.76Y-114.3
X111.76Y-116.84
X111.76Y-119.38
X111.76Y-121.92
X111.76Y-124.46
X170.18Y-78.74
X170.18Y-81.28
X170.18Y-83.82
X170.18Y-86.36
X170.18Y-88.9
X170.18Y-91.44
X170.18Y-93.98
X170.18Y-96.52
X170.18Y-99.06
X170.18Y-101.6
X170.18Y-104.14
X170.18Y-106.68
X170.18Y-109.22
X170.18Y-111.76
X170.18Y-114.3
X170.18Y-116.84
X170.18Y-119.38
X170.18Y-121.92
X170.18Y-124.46
X172.72Y-78.74
X172.72Y-81.28
X172.72Y-83.82
X172.72Y-86.36
X172.72Y-88.9
X172.72Y-91.44
X172.72Y-93.98
X172.72Y-96.52
X172.72Y-99.06
X172.72Y-101.6
X172.72Y-104.14
X172.72Y-106.68
X172.72Y-109.22
X172.72Y-111.76
X172.72Y-114.3
X172.72Y-116.84
X172.72Y-119.38
X172.72Y-121.92
X172.72Y-124.46
T4
X131.866Y-119.08
X136.866Y-119.08
X145.074Y-80.818
X150.074Y-80.818
T0
M30
