%TF.GenerationSoftware,KiCad,Pcbnew,7.0.2*%
%TF.CreationDate,2023-06-10T17:52:00+02:00*%
%TF.ProjectId,USBCPD_PCB,55534243-5044-45f5-9043-422e6b696361,rev?*%
%TF.SameCoordinates,Original*%
%TF.FileFunction,Soldermask,Bot*%
%TF.FilePolarity,Negative*%
%FSLAX46Y46*%
G04 Gerber Fmt 4.6, Leading zero omitted, Abs format (unit mm)*
G04 Created by KiCad (PCBNEW 7.0.2) date 2023-06-10 17:52:00*
%MOMM*%
%LPD*%
G01*
G04 APERTURE LIST*
%ADD10C,1.950000*%
%ADD11R,1.530000X1.530000*%
%ADD12C,1.530000*%
G04 APERTURE END LIST*
D10*
%TO.C,J2*%
X145074000Y-80818000D03*
X150074000Y-80818000D03*
%TD*%
%TO.C,J1*%
X136866000Y-119080000D03*
X131866000Y-119080000D03*
%TD*%
D11*
%TO.C,U1*%
X109220000Y-78740000D03*
D12*
X111760000Y-78740000D03*
X109220000Y-81280000D03*
X111760000Y-81280000D03*
X109220000Y-83820000D03*
X111760000Y-83820000D03*
X109220000Y-86360000D03*
X111760000Y-86360000D03*
X109220000Y-88900000D03*
X111760000Y-88900000D03*
X109220000Y-91440000D03*
X111760000Y-91440000D03*
X109220000Y-93980000D03*
X111760000Y-93980000D03*
X109220000Y-96520000D03*
X111760000Y-96520000D03*
X109220000Y-99060000D03*
X111760000Y-99060000D03*
X109220000Y-101600000D03*
X111760000Y-101600000D03*
X109220000Y-104140000D03*
X111760000Y-104140000D03*
X109220000Y-106680000D03*
X111760000Y-106680000D03*
X109220000Y-109220000D03*
X111760000Y-109220000D03*
X109220000Y-111760000D03*
X111760000Y-111760000D03*
X109220000Y-114300000D03*
X111760000Y-114300000D03*
X109220000Y-116840000D03*
X111760000Y-116840000D03*
X109220000Y-119380000D03*
X111760000Y-119380000D03*
X109220000Y-121920000D03*
X111760000Y-121920000D03*
X109220000Y-124460000D03*
X111760000Y-124460000D03*
D11*
X170180000Y-78740000D03*
D12*
X172720000Y-78740000D03*
X170180000Y-81280000D03*
X172720000Y-81280000D03*
X170180000Y-83820000D03*
X172720000Y-83820000D03*
X170180000Y-86360000D03*
X172720000Y-86360000D03*
X170180000Y-88900000D03*
X172720000Y-88900000D03*
X170180000Y-91440000D03*
X172720000Y-91440000D03*
X170180000Y-93980000D03*
X172720000Y-93980000D03*
X170180000Y-96520000D03*
X172720000Y-96520000D03*
X170180000Y-99060000D03*
X172720000Y-99060000D03*
X170180000Y-101600000D03*
X172720000Y-101600000D03*
X170180000Y-104140000D03*
X172720000Y-104140000D03*
X170180000Y-106680000D03*
X172720000Y-106680000D03*
X170180000Y-109220000D03*
X172720000Y-109220000D03*
X170180000Y-111760000D03*
X172720000Y-111760000D03*
X170180000Y-114300000D03*
X172720000Y-114300000D03*
X170180000Y-116840000D03*
X172720000Y-116840000D03*
X170180000Y-119380000D03*
X172720000Y-119380000D03*
X170180000Y-121920000D03*
X172720000Y-121920000D03*
X170180000Y-124460000D03*
X172720000Y-124460000D03*
%TD*%
M02*
