%TF.GenerationSoftware,KiCad,Pcbnew,7.0.2*%
%TF.CreationDate,2023-06-10T17:52:00+02:00*%
%TF.ProjectId,USBCPD_PCB,55534243-5044-45f5-9043-422e6b696361,rev?*%
%TF.SameCoordinates,Original*%
%TF.FileFunction,Soldermask,Top*%
%TF.FilePolarity,Negative*%
%FSLAX46Y46*%
G04 Gerber Fmt 4.6, Leading zero omitted, Abs format (unit mm)*
G04 Created by KiCad (PCBNEW 7.0.2) date 2023-06-10 17:52:00*
%MOMM*%
%LPD*%
G01*
G04 APERTURE LIST*
G04 Aperture macros list*
%AMRoundRect*
0 Rectangle with rounded corners*
0 $1 Rounding radius*
0 $2 $3 $4 $5 $6 $7 $8 $9 X,Y pos of 4 corners*
0 Add a 4 corners polygon primitive as box body*
4,1,4,$2,$3,$4,$5,$6,$7,$8,$9,$2,$3,0*
0 Add four circle primitives for the rounded corners*
1,1,$1+$1,$2,$3*
1,1,$1+$1,$4,$5*
1,1,$1+$1,$6,$7*
1,1,$1+$1,$8,$9*
0 Add four rect primitives between the rounded corners*
20,1,$1+$1,$2,$3,$4,$5,0*
20,1,$1+$1,$4,$5,$6,$7,0*
20,1,$1+$1,$6,$7,$8,$9,0*
20,1,$1+$1,$8,$9,$2,$3,0*%
%AMFreePoly0*
4,1,19,0.500000,-0.750000,0.000000,-0.750000,0.000000,-0.744911,-0.071157,-0.744911,-0.207708,-0.704816,-0.327430,-0.627875,-0.420627,-0.520320,-0.479746,-0.390866,-0.500000,-0.250000,-0.500000,0.250000,-0.479746,0.390866,-0.420627,0.520320,-0.327430,0.627875,-0.207708,0.704816,-0.071157,0.744911,0.000000,0.744911,0.000000,0.750000,0.500000,0.750000,0.500000,-0.750000,0.500000,-0.750000,
$1*%
%AMFreePoly1*
4,1,19,0.000000,0.744911,0.071157,0.744911,0.207708,0.704816,0.327430,0.627875,0.420627,0.520320,0.479746,0.390866,0.500000,0.250000,0.500000,-0.250000,0.479746,-0.390866,0.420627,-0.520320,0.327430,-0.627875,0.207708,-0.704816,0.071157,-0.744911,0.000000,-0.744911,0.000000,-0.750000,-0.500000,-0.750000,-0.500000,0.750000,0.000000,0.750000,0.000000,0.744911,0.000000,0.744911,
$1*%
G04 Aperture macros list end*
%ADD10R,1.100000X0.500000*%
%ADD11R,0.500000X1.100000*%
%ADD12R,2.000000X2.000000*%
%ADD13R,0.800000X0.800000*%
%ADD14R,0.950000X0.950000*%
%ADD15R,5.000000X3.400000*%
%ADD16C,1.950000*%
%ADD17R,1.500000X2.500000*%
%ADD18R,7.000000X7.000000*%
%ADD19R,1.528000X0.650000*%
%ADD20R,0.650000X1.528000*%
%ADD21R,2.150000X2.200000*%
%ADD22R,1.120000X1.220000*%
%ADD23R,6.500000X2.500000*%
%ADD24R,0.820000X2.720000*%
%ADD25R,4.050000X2.150000*%
%ADD26R,1.270000X0.610000*%
%ADD27R,0.710000X0.610000*%
%ADD28R,3.810000X3.910000*%
%ADD29R,0.310000X0.255000*%
%ADD30RoundRect,0.237500X-0.250000X-0.237500X0.250000X-0.237500X0.250000X0.237500X-0.250000X0.237500X0*%
%ADD31RoundRect,0.155000X-0.212500X-0.155000X0.212500X-0.155000X0.212500X0.155000X-0.212500X0.155000X0*%
%ADD32C,1.000000*%
%ADD33RoundRect,0.237500X-0.237500X0.250000X-0.237500X-0.250000X0.237500X-0.250000X0.237500X0.250000X0*%
%ADD34R,1.530000X1.530000*%
%ADD35C,1.530000*%
%ADD36RoundRect,0.237500X-0.237500X0.300000X-0.237500X-0.300000X0.237500X-0.300000X0.237500X0.300000X0*%
%ADD37RoundRect,0.155000X0.155000X-0.212500X0.155000X0.212500X-0.155000X0.212500X-0.155000X-0.212500X0*%
%ADD38RoundRect,0.237500X0.237500X-0.300000X0.237500X0.300000X-0.237500X0.300000X-0.237500X-0.300000X0*%
%ADD39RoundRect,0.237500X0.237500X-0.250000X0.237500X0.250000X-0.237500X0.250000X-0.237500X-0.250000X0*%
%ADD40RoundRect,0.237500X-0.300000X-0.237500X0.300000X-0.237500X0.300000X0.237500X-0.300000X0.237500X0*%
%ADD41RoundRect,0.237500X0.250000X0.237500X-0.250000X0.237500X-0.250000X-0.237500X0.250000X-0.237500X0*%
%ADD42RoundRect,0.155000X-0.155000X0.212500X-0.155000X-0.212500X0.155000X-0.212500X0.155000X0.212500X0*%
%ADD43FreePoly0,270.000000*%
%ADD44FreePoly1,270.000000*%
%ADD45RoundRect,0.155000X0.212500X0.155000X-0.212500X0.155000X-0.212500X-0.155000X0.212500X-0.155000X0*%
%ADD46RoundRect,0.237500X0.300000X0.237500X-0.300000X0.237500X-0.300000X-0.237500X0.300000X-0.237500X0*%
G04 APERTURE END LIST*
D10*
%TO.C,Z4*%
X144626000Y-96266000D03*
X142326000Y-96266000D03*
%TD*%
D11*
%TO.C,Z3*%
X150214000Y-90170000D03*
X150214000Y-92470000D03*
%TD*%
D10*
%TO.C,Z2*%
X149198000Y-114808000D03*
X151498000Y-114808000D03*
%TD*%
D11*
%TO.C,Z1*%
X143864000Y-120784000D03*
X143864000Y-118484000D03*
%TD*%
D12*
%TO.C,S1*%
X164592000Y-98758000D03*
X164592000Y-92758000D03*
%TD*%
D13*
%TO.C,LED3*%
X164146000Y-102616000D03*
X165746000Y-102616000D03*
%TD*%
D14*
%TO.C,LED2*%
X164108000Y-79248000D03*
X165608000Y-79248000D03*
%TD*%
D13*
%TO.C,LED1*%
X114554000Y-109144000D03*
X114554000Y-110744000D03*
%TD*%
D15*
%TO.C,L1*%
X141832000Y-109352000D03*
X141832000Y-100452000D03*
%TD*%
D16*
%TO.C,J2*%
X145074000Y-80818000D03*
X150074000Y-80818000D03*
%TD*%
%TO.C,J1*%
X136866000Y-119080000D03*
X131866000Y-119080000D03*
%TD*%
D17*
%TO.C,IC4*%
X164960000Y-108567000D03*
X160360000Y-108567000D03*
D18*
X162660000Y-114797000D03*
%TD*%
D19*
%TO.C,IC3*%
X142423000Y-90297000D03*
X142423000Y-91567000D03*
X142423000Y-92837000D03*
X142423000Y-94107000D03*
X147845000Y-94107000D03*
X147845000Y-92837000D03*
X147845000Y-91567000D03*
X147845000Y-90297000D03*
%TD*%
%TO.C,IC2*%
X151655000Y-120777000D03*
X151655000Y-119507000D03*
X151655000Y-118237000D03*
X151655000Y-116967000D03*
X146233000Y-116967000D03*
X146233000Y-118237000D03*
X146233000Y-119507000D03*
X146233000Y-120777000D03*
%TD*%
D20*
%TO.C,IC1*%
X136271000Y-83483000D03*
X137541000Y-83483000D03*
X138811000Y-83483000D03*
X140081000Y-83483000D03*
X140081000Y-78061000D03*
X138811000Y-78061000D03*
X137541000Y-78061000D03*
X136271000Y-78061000D03*
%TD*%
D21*
%TO.C,D2*%
X120242000Y-102276000D03*
X120242000Y-97876000D03*
%TD*%
D22*
%TO.C,D1*%
X126160000Y-104902000D03*
X122960000Y-104902000D03*
%TD*%
D23*
%TO.C,C8*%
X130456000Y-86868000D03*
X117956000Y-86868000D03*
%TD*%
D24*
%TO.C,C7*%
X123264000Y-99060000D03*
X126364000Y-99060000D03*
%TD*%
%TO.C,C6*%
X123264000Y-102108000D03*
X126364000Y-102108000D03*
%TD*%
%TO.C,C5*%
X123010000Y-107696000D03*
X126110000Y-107696000D03*
%TD*%
%TO.C,C3*%
X123010000Y-110744000D03*
X126110000Y-110744000D03*
%TD*%
D25*
%TO.C,C2*%
X125204000Y-118364000D03*
X116604000Y-118364000D03*
%TD*%
D26*
%TO.C,Q3*%
X134016000Y-103505000D03*
X134016000Y-102235000D03*
X134016000Y-100965000D03*
X134016000Y-99695000D03*
D27*
X128396000Y-99695000D03*
X128396000Y-100965000D03*
X128396000Y-102235000D03*
X128396000Y-103505000D03*
D28*
X130656000Y-101600000D03*
D29*
X128906000Y-99517000D03*
X128906000Y-103683000D03*
%TD*%
D30*
%TO.C,R1*%
X142447000Y-116840000D03*
X144272000Y-116840000D03*
%TD*%
%TO.C,R13*%
X163945500Y-82550000D03*
X165770500Y-82550000D03*
%TD*%
D31*
%TO.C,C13*%
X142494000Y-88900000D03*
X143629000Y-88900000D03*
%TD*%
D32*
%TO.C,TP6*%
X134112000Y-113538000D03*
%TD*%
D30*
%TO.C,R10*%
X163945500Y-77216000D03*
X165770500Y-77216000D03*
%TD*%
D32*
%TO.C,TP10*%
X153924000Y-97028000D03*
%TD*%
D30*
%TO.C,R11*%
X164071500Y-104902000D03*
X165896500Y-104902000D03*
%TD*%
D33*
%TO.C,R12*%
X152246000Y-90424000D03*
X152246000Y-92249000D03*
%TD*%
D30*
%TO.C,R5*%
X163945500Y-86360000D03*
X165770500Y-86360000D03*
%TD*%
D34*
%TO.C,U1*%
X109220000Y-78740000D03*
D35*
X111760000Y-78740000D03*
X109220000Y-81280000D03*
X111760000Y-81280000D03*
X109220000Y-83820000D03*
X111760000Y-83820000D03*
X109220000Y-86360000D03*
X111760000Y-86360000D03*
X109220000Y-88900000D03*
X111760000Y-88900000D03*
X109220000Y-91440000D03*
X111760000Y-91440000D03*
X109220000Y-93980000D03*
X111760000Y-93980000D03*
X109220000Y-96520000D03*
X111760000Y-96520000D03*
X109220000Y-99060000D03*
X111760000Y-99060000D03*
X109220000Y-101600000D03*
X111760000Y-101600000D03*
X109220000Y-104140000D03*
X111760000Y-104140000D03*
X109220000Y-106680000D03*
X111760000Y-106680000D03*
X109220000Y-109220000D03*
X111760000Y-109220000D03*
X109220000Y-111760000D03*
X111760000Y-111760000D03*
X109220000Y-114300000D03*
X111760000Y-114300000D03*
X109220000Y-116840000D03*
X111760000Y-116840000D03*
X109220000Y-119380000D03*
X111760000Y-119380000D03*
X109220000Y-121920000D03*
X111760000Y-121920000D03*
X109220000Y-124460000D03*
X111760000Y-124460000D03*
D34*
X170180000Y-78740000D03*
D35*
X172720000Y-78740000D03*
X170180000Y-81280000D03*
X172720000Y-81280000D03*
X170180000Y-83820000D03*
X172720000Y-83820000D03*
X170180000Y-86360000D03*
X172720000Y-86360000D03*
X170180000Y-88900000D03*
X172720000Y-88900000D03*
X170180000Y-91440000D03*
X172720000Y-91440000D03*
X170180000Y-93980000D03*
X172720000Y-93980000D03*
X170180000Y-96520000D03*
X172720000Y-96520000D03*
X170180000Y-99060000D03*
X172720000Y-99060000D03*
X170180000Y-101600000D03*
X172720000Y-101600000D03*
X170180000Y-104140000D03*
X172720000Y-104140000D03*
X170180000Y-106680000D03*
X172720000Y-106680000D03*
X170180000Y-109220000D03*
X172720000Y-109220000D03*
X170180000Y-111760000D03*
X172720000Y-111760000D03*
X170180000Y-114300000D03*
X172720000Y-114300000D03*
X170180000Y-116840000D03*
X172720000Y-116840000D03*
X170180000Y-119380000D03*
X172720000Y-119380000D03*
X170180000Y-121920000D03*
X172720000Y-121920000D03*
X170180000Y-124460000D03*
X172720000Y-124460000D03*
%TD*%
D32*
%TO.C,TP3*%
X155194000Y-115062000D03*
%TD*%
%TO.C,TP1*%
X156972000Y-113284000D03*
%TD*%
D36*
%TO.C,C11*%
X154532000Y-117094000D03*
X154532000Y-118819000D03*
%TD*%
D30*
%TO.C,R2*%
X142447000Y-115316000D03*
X144272000Y-115316000D03*
%TD*%
D32*
%TO.C,TP9*%
X140208000Y-96012000D03*
%TD*%
D37*
%TO.C,C12*%
X153262000Y-118229000D03*
X153262000Y-117094000D03*
%TD*%
D38*
%TO.C,C15*%
X139546000Y-94080500D03*
X139546000Y-92355500D03*
%TD*%
D39*
%TO.C,R3*%
X145796000Y-115363000D03*
X145796000Y-113538000D03*
%TD*%
D26*
%TO.C,Q4*%
X155098000Y-103505000D03*
X155098000Y-102235000D03*
X155098000Y-100965000D03*
X155098000Y-99695000D03*
D27*
X149478000Y-99695000D03*
X149478000Y-100965000D03*
X149478000Y-102235000D03*
X149478000Y-103505000D03*
D28*
X151738000Y-101600000D03*
D29*
X149988000Y-99517000D03*
X149988000Y-103683000D03*
%TD*%
D30*
%TO.C,R15*%
X146404000Y-96266000D03*
X148229000Y-96266000D03*
%TD*%
D32*
%TO.C,TP8*%
X139954000Y-86106000D03*
%TD*%
D40*
%TO.C,C14*%
X142494000Y-87630000D03*
X144219000Y-87630000D03*
%TD*%
D41*
%TO.C,R14*%
X165770500Y-84328000D03*
X163945500Y-84328000D03*
%TD*%
D39*
%TO.C,R8*%
X163830000Y-89916000D03*
X163830000Y-88091000D03*
%TD*%
D32*
%TO.C,TP5*%
X137414000Y-86106000D03*
%TD*%
D38*
%TO.C,C1*%
X167132000Y-108712000D03*
X167132000Y-106987000D03*
%TD*%
D36*
%TO.C,C4*%
X157988000Y-109474000D03*
X157988000Y-111199000D03*
%TD*%
D42*
%TO.C,C16*%
X140816000Y-92396500D03*
X140816000Y-93531500D03*
%TD*%
D26*
%TO.C,Q2*%
X155098000Y-110617000D03*
X155098000Y-109347000D03*
X155098000Y-108077000D03*
X155098000Y-106807000D03*
D27*
X149478000Y-106807000D03*
X149478000Y-108077000D03*
X149478000Y-109347000D03*
X149478000Y-110617000D03*
D28*
X151738000Y-108712000D03*
D29*
X149988000Y-106629000D03*
X149988000Y-110795000D03*
%TD*%
D43*
%TO.C,JP1*%
X166370000Y-88250000D03*
D44*
X166370000Y-89550000D03*
%TD*%
D32*
%TO.C,TP4*%
X137922000Y-95758000D03*
%TD*%
D45*
%TO.C,C9*%
X151697500Y-122174000D03*
X150562500Y-122174000D03*
%TD*%
D46*
%TO.C,C10*%
X151992500Y-123444000D03*
X150267500Y-123444000D03*
%TD*%
D26*
%TO.C,Q1*%
X134016000Y-110617000D03*
X134016000Y-109347000D03*
X134016000Y-108077000D03*
X134016000Y-106807000D03*
D27*
X128396000Y-106807000D03*
X128396000Y-108077000D03*
X128396000Y-109347000D03*
X128396000Y-110617000D03*
D28*
X130656000Y-108712000D03*
D29*
X128906000Y-106629000D03*
X128906000Y-110795000D03*
%TD*%
D33*
%TO.C,R9*%
X114300000Y-105109000D03*
X114300000Y-106934000D03*
%TD*%
D32*
%TO.C,TP2*%
X129032000Y-113538000D03*
%TD*%
D41*
%TO.C,R7*%
X152039000Y-96266000D03*
X150214000Y-96266000D03*
%TD*%
D39*
%TO.C,R4*%
X147420000Y-115363000D03*
X147420000Y-113538000D03*
%TD*%
D41*
%TO.C,R6*%
X152039000Y-94742000D03*
X150214000Y-94742000D03*
%TD*%
D32*
%TO.C,TP7*%
X153416000Y-113538000D03*
%TD*%
M02*
