%TF.GenerationSoftware,KiCad,Pcbnew,7.0.2*%
%TF.CreationDate,2023-06-10T17:52:28+02:00*%
%TF.ProjectId,USBCPD_PCB,55534243-5044-45f5-9043-422e6b696361,rev?*%
%TF.SameCoordinates,Original*%
%TF.FileFunction,Drillmap*%
%TF.FilePolarity,Positive*%
%FSLAX45Y45*%
G04 Gerber Fmt 4.5, Leading zero omitted, Abs format (unit mm)*
G04 Created by KiCad (PCBNEW 7.0.2) date 2023-06-10 17:52:28*
%MOMM*%
%LPD*%
G01*
G04 APERTURE LIST*
%ADD10C,0.100000*%
%ADD11C,0.200000*%
G04 APERTURE END LIST*
D10*
X17576800Y-7518400D02*
X17576800Y-12649200D01*
X10617200Y-12649200D02*
X10617200Y-7518400D01*
X17576800Y-12649200D02*
X10617200Y-12649200D01*
X10617200Y-7518400D02*
X17576800Y-7518400D01*
D11*
X10859819Y-12966724D02*
X10859819Y-12766724D01*
X10859819Y-12766724D02*
X10907438Y-12766724D01*
X10907438Y-12766724D02*
X10936010Y-12776248D01*
X10936010Y-12776248D02*
X10955057Y-12795295D01*
X10955057Y-12795295D02*
X10964581Y-12814343D01*
X10964581Y-12814343D02*
X10974105Y-12852438D01*
X10974105Y-12852438D02*
X10974105Y-12881009D01*
X10974105Y-12881009D02*
X10964581Y-12919105D01*
X10964581Y-12919105D02*
X10955057Y-12938152D01*
X10955057Y-12938152D02*
X10936010Y-12957200D01*
X10936010Y-12957200D02*
X10907438Y-12966724D01*
X10907438Y-12966724D02*
X10859819Y-12966724D01*
X11059819Y-12966724D02*
X11059819Y-12833390D01*
X11059819Y-12871486D02*
X11069343Y-12852438D01*
X11069343Y-12852438D02*
X11078867Y-12842914D01*
X11078867Y-12842914D02*
X11097914Y-12833390D01*
X11097914Y-12833390D02*
X11116962Y-12833390D01*
X11183629Y-12966724D02*
X11183629Y-12833390D01*
X11183629Y-12766724D02*
X11174105Y-12776248D01*
X11174105Y-12776248D02*
X11183629Y-12785771D01*
X11183629Y-12785771D02*
X11193152Y-12776248D01*
X11193152Y-12776248D02*
X11183629Y-12766724D01*
X11183629Y-12766724D02*
X11183629Y-12785771D01*
X11307438Y-12966724D02*
X11288390Y-12957200D01*
X11288390Y-12957200D02*
X11278867Y-12938152D01*
X11278867Y-12938152D02*
X11278867Y-12766724D01*
X11412200Y-12966724D02*
X11393152Y-12957200D01*
X11393152Y-12957200D02*
X11383628Y-12938152D01*
X11383628Y-12938152D02*
X11383628Y-12766724D01*
X11640771Y-12966724D02*
X11640771Y-12766724D01*
X11640771Y-12766724D02*
X11707438Y-12909581D01*
X11707438Y-12909581D02*
X11774105Y-12766724D01*
X11774105Y-12766724D02*
X11774105Y-12966724D01*
X11955057Y-12966724D02*
X11955057Y-12861962D01*
X11955057Y-12861962D02*
X11945533Y-12842914D01*
X11945533Y-12842914D02*
X11926486Y-12833390D01*
X11926486Y-12833390D02*
X11888390Y-12833390D01*
X11888390Y-12833390D02*
X11869343Y-12842914D01*
X11955057Y-12957200D02*
X11936009Y-12966724D01*
X11936009Y-12966724D02*
X11888390Y-12966724D01*
X11888390Y-12966724D02*
X11869343Y-12957200D01*
X11869343Y-12957200D02*
X11859819Y-12938152D01*
X11859819Y-12938152D02*
X11859819Y-12919105D01*
X11859819Y-12919105D02*
X11869343Y-12900057D01*
X11869343Y-12900057D02*
X11888390Y-12890533D01*
X11888390Y-12890533D02*
X11936009Y-12890533D01*
X11936009Y-12890533D02*
X11955057Y-12881009D01*
X12050295Y-12833390D02*
X12050295Y-13033390D01*
X12050295Y-12842914D02*
X12069343Y-12833390D01*
X12069343Y-12833390D02*
X12107438Y-12833390D01*
X12107438Y-12833390D02*
X12126486Y-12842914D01*
X12126486Y-12842914D02*
X12136009Y-12852438D01*
X12136009Y-12852438D02*
X12145533Y-12871486D01*
X12145533Y-12871486D02*
X12145533Y-12928628D01*
X12145533Y-12928628D02*
X12136009Y-12947676D01*
X12136009Y-12947676D02*
X12126486Y-12957200D01*
X12126486Y-12957200D02*
X12107438Y-12966724D01*
X12107438Y-12966724D02*
X12069343Y-12966724D01*
X12069343Y-12966724D02*
X12050295Y-12957200D01*
X12231248Y-12947676D02*
X12240771Y-12957200D01*
X12240771Y-12957200D02*
X12231248Y-12966724D01*
X12231248Y-12966724D02*
X12221724Y-12957200D01*
X12221724Y-12957200D02*
X12231248Y-12947676D01*
X12231248Y-12947676D02*
X12231248Y-12966724D01*
X12231248Y-12842914D02*
X12240771Y-12852438D01*
X12240771Y-12852438D02*
X12231248Y-12861962D01*
X12231248Y-12861962D02*
X12221724Y-12852438D01*
X12221724Y-12852438D02*
X12231248Y-12842914D01*
X12231248Y-12842914D02*
X12231248Y-12861962D01*
M02*
