%TF.GenerationSoftware,KiCad,Pcbnew,7.0.2*%
%TF.CreationDate,2023-06-10T17:52:00+02:00*%
%TF.ProjectId,USBCPD_PCB,55534243-5044-45f5-9043-422e6b696361,rev?*%
%TF.SameCoordinates,Original*%
%TF.FileFunction,Copper,L2,Bot*%
%TF.FilePolarity,Positive*%
%FSLAX46Y46*%
G04 Gerber Fmt 4.6, Leading zero omitted, Abs format (unit mm)*
G04 Created by KiCad (PCBNEW 7.0.2) date 2023-06-10 17:52:00*
%MOMM*%
%LPD*%
G01*
G04 APERTURE LIST*
%TA.AperFunction,ComponentPad*%
%ADD10C,1.950000*%
%TD*%
%TA.AperFunction,ComponentPad*%
%ADD11R,1.530000X1.530000*%
%TD*%
%TA.AperFunction,ComponentPad*%
%ADD12C,1.530000*%
%TD*%
%TA.AperFunction,ViaPad*%
%ADD13C,0.700000*%
%TD*%
%TA.AperFunction,ViaPad*%
%ADD14C,1.000000*%
%TD*%
%TA.AperFunction,Conductor*%
%ADD15C,0.500000*%
%TD*%
%TA.AperFunction,Conductor*%
%ADD16C,0.250000*%
%TD*%
G04 APERTURE END LIST*
D10*
%TO.P,J2,1,1*%
%TO.N,Net-(IC1-IN-_1)*%
X145074000Y-80818000D03*
%TO.P,J2,2,2*%
%TO.N,GND*%
X150074000Y-80818000D03*
%TD*%
%TO.P,J1,1,1*%
%TO.N,GND*%
X136866000Y-119080000D03*
%TO.P,J1,2,2*%
%TO.N,VBUS*%
X131866000Y-119080000D03*
%TD*%
D11*
%TO.P,U1,CN7_1,PC10*%
%TO.N,unconnected-(U1A-PC10-PadCN7_1)*%
X109220000Y-78740000D03*
D12*
%TO.P,U1,CN7_2,PC11*%
%TO.N,unconnected-(U1A-PC11-PadCN7_2)*%
X111760000Y-78740000D03*
%TO.P,U1,CN7_3,PC12*%
%TO.N,unconnected-(U1A-PC12-PadCN7_3)*%
X109220000Y-81280000D03*
%TO.P,U1,CN7_4,PD2*%
%TO.N,unconnected-(U1A-PD2-PadCN7_4)*%
X111760000Y-81280000D03*
%TO.P,U1,CN7_5,VDD*%
%TO.N,unconnected-(U1A-VDD-PadCN7_5)*%
X109220000Y-83820000D03*
%TO.P,U1,CN7_6,E5V*%
%TO.N,unconnected-(U1A-E5V-PadCN7_6)*%
X111760000Y-83820000D03*
%TO.P,U1,CN7_7,PB8-BOOT0*%
%TO.N,unconnected-(U1A-PB8-BOOT0-PadCN7_7)*%
X109220000Y-86360000D03*
%TO.P,U1,CN7_8,GND*%
%TO.N,GND*%
X111760000Y-86360000D03*
%TO.P,U1,CN7_9,NC*%
%TO.N,unconnected-(U1A-NC-PadCN7_9)*%
X109220000Y-88900000D03*
%TO.P,U1,CN7_10,NC*%
%TO.N,unconnected-(U1A-NC-PadCN7_10)*%
X111760000Y-88900000D03*
%TO.P,U1,CN7_11,NC*%
%TO.N,unconnected-(U1A-NC-PadCN7_11)*%
X109220000Y-91440000D03*
%TO.P,U1,CN7_12,IOREF*%
%TO.N,unconnected-(U1A-IOREF-PadCN7_12)*%
X111760000Y-91440000D03*
%TO.P,U1,CN7_13,PA13*%
%TO.N,unconnected-(U1A-PA13-PadCN7_13)*%
X109220000Y-93980000D03*
%TO.P,U1,CN7_14,NRST*%
%TO.N,unconnected-(U1A-NRST-PadCN7_14)*%
X111760000Y-93980000D03*
%TO.P,U1,CN7_15,PA14*%
%TO.N,unconnected-(U1A-PA14-PadCN7_15)*%
X109220000Y-96520000D03*
%TO.P,U1,CN7_16,+3V3*%
%TO.N,+3.3V*%
X111760000Y-96520000D03*
%TO.P,U1,CN7_17,PA15*%
%TO.N,unconnected-(U1A-PA15-PadCN7_17)*%
X109220000Y-99060000D03*
%TO.P,U1,CN7_18,+5V*%
%TO.N,unconnected-(U1A-+5V-PadCN7_18)*%
X111760000Y-99060000D03*
%TO.P,U1,CN7_19,GND*%
%TO.N,GND*%
X109220000Y-101600000D03*
%TO.P,U1,CN7_20,GND*%
X111760000Y-101600000D03*
%TO.P,U1,CN7_21,PB7*%
%TO.N,unconnected-(U1A-PB7-PadCN7_21)*%
X109220000Y-104140000D03*
%TO.P,U1,CN7_22,GND*%
%TO.N,GND*%
X111760000Y-104140000D03*
%TO.P,U1,CN7_23,PC13*%
%TO.N,unconnected-(U1A-PC13-PadCN7_23)*%
X109220000Y-106680000D03*
%TO.P,U1,CN7_24,VIN*%
%TO.N,unconnected-(U1A-VIN-PadCN7_24)*%
X111760000Y-106680000D03*
%TO.P,U1,CN7_25,PC14*%
%TO.N,unconnected-(U1A-PC14-PadCN7_25)*%
X109220000Y-109220000D03*
%TO.P,U1,CN7_26,NC*%
%TO.N,unconnected-(U1A-NC-PadCN7_26)*%
X111760000Y-109220000D03*
%TO.P,U1,CN7_27,PC15*%
%TO.N,unconnected-(U1A-PC15-PadCN7_27)*%
X109220000Y-111760000D03*
%TO.P,U1,CN7_28,PA0*%
%TO.N,unconnected-(U1A-PA0-PadCN7_28)*%
X111760000Y-111760000D03*
%TO.P,U1,CN7_29,PF0*%
%TO.N,unconnected-(U1A-PF0-PadCN7_29)*%
X109220000Y-114300000D03*
%TO.P,U1,CN7_30,PA1*%
%TO.N,unconnected-(U1A-PA1-PadCN7_30)*%
X111760000Y-114300000D03*
%TO.P,U1,CN7_31,PF1*%
%TO.N,unconnected-(U1A-PF1-PadCN7_31)*%
X109220000Y-116840000D03*
%TO.P,U1,CN7_32,PA4*%
%TO.N,unconnected-(U1A-PA4-PadCN7_32)*%
X111760000Y-116840000D03*
%TO.P,U1,CN7_33,VBAT*%
%TO.N,unconnected-(U1A-VBAT-PadCN7_33)*%
X109220000Y-119380000D03*
%TO.P,U1,CN7_34,PB0*%
%TO.N,unconnected-(U1A-PB0-PadCN7_34)*%
X111760000Y-119380000D03*
%TO.P,U1,CN7_35,PC2*%
%TO.N,unconnected-(U1A-PC2-PadCN7_35)*%
X109220000Y-121920000D03*
%TO.P,U1,CN7_36,PC1/PB9*%
%TO.N,unconnected-(U1A-PC1{slash}PB9-PadCN7_36)*%
X111760000Y-121920000D03*
%TO.P,U1,CN7_37,PC3*%
%TO.N,unconnected-(U1A-PC3-PadCN7_37)*%
X109220000Y-124460000D03*
%TO.P,U1,CN7_38,PC0/PA15*%
%TO.N,unconnected-(U1A-PC0{slash}PA15-PadCN7_38)*%
X111760000Y-124460000D03*
D11*
%TO.P,U1,CN10_1,PC9*%
%TO.N,unconnected-(U1B-PC9-PadCN10_1)*%
X170180000Y-78740000D03*
D12*
%TO.P,U1,CN10_2,PC8*%
%TO.N,unconnected-(U1B-PC8-PadCN10_2)*%
X172720000Y-78740000D03*
%TO.P,U1,CN10_3,PB8*%
%TO.N,unconnected-(U1B-PB8-PadCN10_3)*%
X170180000Y-81280000D03*
%TO.P,U1,CN10_4,PC6*%
%TO.N,unconnected-(U1B-PC6-PadCN10_4)*%
X172720000Y-81280000D03*
%TO.P,U1,CN10_5,PB9*%
%TO.N,unconnected-(U1B-PB9-PadCN10_5)*%
X170180000Y-83820000D03*
%TO.P,U1,CN10_6,PC5*%
%TO.N,unconnected-(U1B-PC5-PadCN10_6)*%
X172720000Y-83820000D03*
%TO.P,U1,CN10_7,AVDD*%
%TO.N,unconnected-(U1B-AVDD-PadCN10_7)*%
X170180000Y-86360000D03*
%TO.P,U1,CN10_8,5V_USB_CHGR*%
%TO.N,unconnected-(U1B-5V_USB_CHGR-PadCN10_8)*%
X172720000Y-86360000D03*
%TO.P,U1,CN10_9,GND*%
%TO.N,GND*%
X170180000Y-88900000D03*
%TO.P,U1,CN10_10,NC*%
%TO.N,unconnected-(U1B-NC-PadCN10_10)*%
X172720000Y-88900000D03*
%TO.P,U1,CN10_11,PA5*%
%TO.N,unconnected-(U1B-PA5-PadCN10_11)*%
X170180000Y-91440000D03*
%TO.P,U1,CN10_12,PA12*%
%TO.N,unconnected-(U1B-PA12-PadCN10_12)*%
X172720000Y-91440000D03*
%TO.P,U1,CN10_13,PA6*%
%TO.N,unconnected-(U1B-PA6-PadCN10_13)*%
X170180000Y-93980000D03*
%TO.P,U1,CN10_14,PA11*%
%TO.N,unconnected-(U1B-PA11-PadCN10_14)*%
X172720000Y-93980000D03*
%TO.P,U1,CN10_15,PA7*%
%TO.N,unconnected-(U1B-PA7-PadCN10_15)*%
X170180000Y-96520000D03*
%TO.P,U1,CN10_16,PB12*%
%TO.N,PB12_LED*%
X172720000Y-96520000D03*
%TO.P,U1,CN10_17,PB6*%
%TO.N,unconnected-(U1B-PB6-PadCN10_17)*%
X170180000Y-99060000D03*
%TO.P,U1,CN10_18,PB11*%
%TO.N,PB11_BTN*%
X172720000Y-99060000D03*
%TO.P,U1,CN10_19,PC7*%
%TO.N,unconnected-(U1B-PC7-PadCN10_19)*%
X170180000Y-101600000D03*
%TO.P,U1,CN10_20,GND*%
%TO.N,GND*%
X172720000Y-101600000D03*
%TO.P,U1,CN10_21,PA9*%
%TO.N,PA9_PWM*%
X170180000Y-104140000D03*
%TO.P,U1,CN10_22,PB2*%
%TO.N,unconnected-(U1B-PB2-PadCN10_22)*%
X172720000Y-104140000D03*
%TO.P,U1,CN10_23,PA8*%
%TO.N,PA8_PWM*%
X170180000Y-106680000D03*
%TO.P,U1,CN10_24,PB1*%
%TO.N,unconnected-(U1B-PB1-PadCN10_24)*%
X172720000Y-106680000D03*
%TO.P,U1,CN10_25,PB10*%
%TO.N,unconnected-(U1B-PB10-PadCN10_25)*%
X170180000Y-109220000D03*
%TO.P,U1,CN10_26,PB15*%
%TO.N,unconnected-(U1B-PB15-PadCN10_26)*%
X172720000Y-109220000D03*
%TO.P,U1,CN10_27,PB4*%
%TO.N,unconnected-(U1B-PB4-PadCN10_27)*%
X170180000Y-111760000D03*
%TO.P,U1,CN10_28,PB14*%
%TO.N,PB14_PWM*%
X172720000Y-111760000D03*
%TO.P,U1,CN10_29,PB5*%
%TO.N,unconnected-(U1B-PB5-PadCN10_29)*%
X170180000Y-114300000D03*
%TO.P,U1,CN10_30,PB13*%
%TO.N,PB13_PWM*%
X172720000Y-114300000D03*
%TO.P,U1,CN10_31,PB3*%
%TO.N,PB3_ADC_Iout*%
X170180000Y-116840000D03*
%TO.P,U1,CN10_32,AGND*%
%TO.N,unconnected-(U1B-AGND-PadCN10_32)*%
X172720000Y-116840000D03*
%TO.P,U1,CN10_33,PA10*%
%TO.N,PA10_ADC_Vout*%
X170180000Y-119380000D03*
%TO.P,U1,CN10_34,PC4*%
%TO.N,unconnected-(U1B-PC4-PadCN10_34)*%
X172720000Y-119380000D03*
%TO.P,U1,CN10_35,PC4/PA2*%
%TO.N,unconnected-(U1B-PC4{slash}PA2-PadCN10_35)*%
X170180000Y-121920000D03*
%TO.P,U1,CN10_36,NC*%
%TO.N,unconnected-(U1B-NC-PadCN10_36)*%
X172720000Y-121920000D03*
%TO.P,U1,CN10_37,PC5/PA3*%
%TO.N,unconnected-(U1B-PC5{slash}PA3-PadCN10_37)*%
X170180000Y-124460000D03*
%TO.P,U1,CN10_38,NC*%
%TO.N,unconnected-(U1B-NC-PadCN10_38)*%
X172720000Y-124460000D03*
%TD*%
D13*
%TO.N,VBUS*%
X113792000Y-103632000D03*
X153670000Y-123444000D03*
D14*
X124206000Y-120904000D03*
%TO.N,GND*%
X134620000Y-122682000D03*
X159258000Y-101346000D03*
X118618000Y-116078000D03*
X116078000Y-116078000D03*
X137160000Y-115062000D03*
X134620000Y-115062000D03*
X156210000Y-98298000D03*
X139700000Y-118872000D03*
X152400000Y-83312000D03*
X116078000Y-90678000D03*
X134620000Y-120142000D03*
X161036000Y-119634000D03*
X139700000Y-115062000D03*
X138430000Y-122682000D03*
X137414000Y-91440000D03*
X158242000Y-100330000D03*
X118110000Y-104394000D03*
X152400000Y-79756000D03*
X137160000Y-122682000D03*
X121412000Y-105410000D03*
X150876000Y-83312000D03*
X139700000Y-120142000D03*
X135382000Y-93472000D03*
X119380000Y-104394000D03*
X137414000Y-80772000D03*
X116840000Y-101854000D03*
X165354000Y-81280000D03*
X138430000Y-116332000D03*
X116078000Y-89408000D03*
X119888000Y-116078000D03*
X167894000Y-81280000D03*
X121412000Y-106680000D03*
X134620000Y-117602000D03*
X156972000Y-108204000D03*
X149098000Y-118872000D03*
X114808000Y-116078000D03*
X118618000Y-89408000D03*
X117348000Y-116078000D03*
X152654000Y-105156000D03*
X139700000Y-117602000D03*
X138430000Y-115062000D03*
X156972000Y-106934000D03*
X135890000Y-115062000D03*
X139700000Y-121412000D03*
X166624000Y-81280000D03*
X149098000Y-120142000D03*
X160274000Y-102362000D03*
X121412000Y-107950000D03*
X149352000Y-83312000D03*
X156972000Y-105664000D03*
X145796000Y-93218000D03*
X134620000Y-116332000D03*
X156972000Y-104394000D03*
X164084000Y-119634000D03*
X116840000Y-103378000D03*
X154178000Y-105156000D03*
X159512000Y-119634000D03*
X149098000Y-121412000D03*
X121412000Y-109220000D03*
X114808000Y-90678000D03*
X117348000Y-90678000D03*
X162560000Y-119634000D03*
X165608000Y-119634000D03*
X118618000Y-90678000D03*
X114808000Y-89408000D03*
X157226000Y-99314000D03*
X145288000Y-91948000D03*
X137160000Y-116332000D03*
X139700000Y-116332000D03*
X139700000Y-122682000D03*
X134620000Y-118872000D03*
X120650000Y-104394000D03*
X119888000Y-89408000D03*
X117348000Y-89408000D03*
X135890000Y-122682000D03*
X138938000Y-80772000D03*
X134620000Y-121412000D03*
X152400000Y-81534000D03*
X135890000Y-116332000D03*
X155702000Y-105156000D03*
D13*
%TO.N,+12V*%
X153416000Y-93726000D03*
X159258000Y-105664000D03*
D14*
%TO.N,+BATT*%
X153670000Y-76708000D03*
X134620000Y-84074000D03*
D13*
%TO.N,Q1_S*%
X148082000Y-110744000D03*
X151130000Y-113792000D03*
X148844000Y-111506000D03*
X150241000Y-112942500D03*
X147066000Y-110744000D03*
%TO.N,PB3_ADC_Iout*%
X167894000Y-86614000D03*
%TO.N,PB14_PWM*%
X154432000Y-94742000D03*
%TO.N,PB13_PWM*%
X154940000Y-95504000D03*
%TD*%
D15*
%TO.N,VBUS*%
X153670000Y-123444000D02*
X151638000Y-125476000D01*
D16*
X113792000Y-103632000D02*
X113792000Y-119888000D01*
D15*
X151638000Y-125476000D02*
X135382000Y-125476000D01*
D16*
X113792000Y-119888000D02*
X114808000Y-120904000D01*
D15*
X131866000Y-121960000D02*
X131866000Y-119080000D01*
X135382000Y-125476000D02*
X131866000Y-121960000D01*
D16*
X114808000Y-120904000D02*
X124206000Y-120904000D01*
D15*
%TO.N,GND*%
X136866000Y-119080000D02*
X139614000Y-116332000D01*
X155702000Y-103124000D02*
X156972000Y-104394000D01*
X139700000Y-116246000D02*
X152822000Y-103124000D01*
X139614000Y-116332000D02*
X139700000Y-116332000D01*
X120650000Y-104394000D02*
X120650000Y-92710000D01*
X152822000Y-103124000D02*
X155702000Y-103124000D01*
X141484000Y-89408000D02*
X150074000Y-80818000D01*
X117348000Y-89408000D02*
X141484000Y-89408000D01*
X134620000Y-116332000D02*
X134118000Y-116332000D01*
X131324000Y-113538000D02*
X129540000Y-113538000D01*
X135388000Y-117602000D02*
X134620000Y-117602000D01*
X134620000Y-116834000D02*
X134620000Y-116332000D01*
X134620000Y-116834000D02*
X134620000Y-116834000D01*
X156210000Y-98298000D02*
X155956000Y-98044000D01*
X120650000Y-92710000D02*
X117348000Y-89408000D01*
X150074000Y-100376000D02*
X150074000Y-80818000D01*
X129540000Y-113538000D02*
X121412000Y-105410000D01*
X139700000Y-116332000D02*
X139700000Y-116246000D01*
X134118000Y-116332000D02*
X131324000Y-113538000D01*
X155956000Y-86700000D02*
X150074000Y-80818000D01*
X134620000Y-117602000D02*
X134620000Y-116834000D01*
X136866000Y-119080000D02*
X135388000Y-117602000D01*
X155956000Y-98044000D02*
X155956000Y-86700000D01*
X152822000Y-103124000D02*
X150074000Y-100376000D01*
%TO.N,+12V*%
X153416000Y-93726000D02*
X153416000Y-99033950D01*
X159258000Y-104875950D02*
X159258000Y-105664000D01*
X153416000Y-99033950D02*
X159258000Y-104875950D01*
%TO.N,+BATT*%
X134620000Y-84074000D02*
X134620000Y-81026000D01*
X138938000Y-76708000D02*
X149098000Y-76708000D01*
X149098000Y-76708000D02*
X153670000Y-76708000D01*
X134620000Y-81026000D02*
X134874000Y-80772000D01*
X134874000Y-80772000D02*
X138938000Y-76708000D01*
%TO.N,Q1_S*%
X148082000Y-110744000D02*
X148844000Y-111506000D01*
X148082000Y-110744000D02*
X147066000Y-110744000D01*
X150241000Y-112903000D02*
X148844000Y-111506000D01*
X151130000Y-113792000D02*
X150280500Y-112942500D01*
X150241000Y-112942500D02*
X150241000Y-112903000D01*
%TO.N,PB3_ADC_Iout*%
X171450000Y-115570000D02*
X170180000Y-116840000D01*
X168910000Y-87630000D02*
X170683270Y-87630000D01*
X170683270Y-87630000D02*
X171450000Y-88396730D01*
X171450000Y-88396730D02*
X171450000Y-115570000D01*
X167894000Y-86614000D02*
X168910000Y-87630000D01*
%TO.N,PB14_PWM*%
X160274000Y-111506000D02*
X169418000Y-120650000D01*
X154140000Y-95034000D02*
X154140000Y-98768000D01*
X174690000Y-119442000D02*
X174690000Y-113730000D01*
X160274000Y-104902000D02*
X160274000Y-111506000D01*
X169418000Y-120650000D02*
X173482000Y-120650000D01*
X173482000Y-120650000D02*
X174690000Y-119442000D01*
X174690000Y-113730000D02*
X172720000Y-111760000D01*
X154432000Y-94742000D02*
X154140000Y-95034000D01*
X154140000Y-98768000D02*
X160274000Y-104902000D01*
%TO.N,PB13_PWM*%
X173990000Y-115570000D02*
X172720000Y-114300000D01*
X173168270Y-118110000D02*
X173990000Y-117288270D01*
X168402000Y-118110000D02*
X173168270Y-118110000D01*
X154940000Y-95504000D02*
X154940000Y-98552000D01*
X161036000Y-110744000D02*
X168402000Y-118110000D01*
X154940000Y-98552000D02*
X161036000Y-104648000D01*
X161036000Y-104648000D02*
X161036000Y-110744000D01*
X173990000Y-117288270D02*
X173990000Y-115570000D01*
%TD*%
%TA.AperFunction,Conductor*%
%TO.N,GND*%
G36*
X138774260Y-75965685D02*
G01*
X138820015Y-76018489D01*
X138829959Y-76087647D01*
X138800934Y-76151203D01*
X138742156Y-76188977D01*
X138736581Y-76190474D01*
X138734146Y-76191067D01*
X138698333Y-76211203D01*
X138686967Y-76216849D01*
X138649280Y-76233219D01*
X138635360Y-76244544D01*
X138617883Y-76256438D01*
X138602239Y-76265234D01*
X138573179Y-76294293D01*
X138563757Y-76302797D01*
X138531889Y-76328723D01*
X138521543Y-76343381D01*
X138507922Y-76359551D01*
X134458109Y-80409366D01*
X134458106Y-80409369D01*
X134238881Y-80628593D01*
X134235838Y-80631533D01*
X134188956Y-80675319D01*
X134167605Y-80710427D01*
X134160466Y-80720916D01*
X134135638Y-80753658D01*
X134129054Y-80770354D01*
X134119654Y-80789280D01*
X134110329Y-80804616D01*
X134110328Y-80804618D01*
X134102065Y-80834105D01*
X134099242Y-80844181D01*
X134095197Y-80856207D01*
X134080123Y-80894434D01*
X134078288Y-80912285D01*
X134074342Y-80933048D01*
X134069500Y-80950332D01*
X134069500Y-80991417D01*
X134068850Y-81004098D01*
X134064647Y-81044975D01*
X134067696Y-81062658D01*
X134069499Y-81083724D01*
X134069499Y-83038362D01*
X134066592Y-83065055D01*
X134064293Y-83075484D01*
X134058773Y-83246802D01*
X134057480Y-83261104D01*
X134044477Y-83348269D01*
X134039890Y-83367905D01*
X134017383Y-83437955D01*
X134013081Y-83449381D01*
X133961290Y-83568743D01*
X133961269Y-83568792D01*
X133882485Y-83750273D01*
X133878059Y-83761024D01*
X133875842Y-83772762D01*
X133871040Y-83790693D01*
X133834631Y-83894745D01*
X133814434Y-84073999D01*
X133834631Y-84253251D01*
X133834631Y-84253253D01*
X133834632Y-84253255D01*
X133894211Y-84423522D01*
X133894212Y-84423523D01*
X133990185Y-84576264D01*
X134117735Y-84703814D01*
X134117737Y-84703815D01*
X134117738Y-84703816D01*
X134270478Y-84799789D01*
X134440745Y-84859368D01*
X134575186Y-84874515D01*
X134619999Y-84879565D01*
X134619999Y-84879564D01*
X134620000Y-84879565D01*
X134799255Y-84859368D01*
X134969522Y-84799789D01*
X135122262Y-84703816D01*
X135249816Y-84576262D01*
X135345789Y-84423522D01*
X135405368Y-84253255D01*
X135425565Y-84074000D01*
X135405368Y-83894745D01*
X135379213Y-83819999D01*
X169109345Y-83819999D01*
X169129917Y-84028875D01*
X169190843Y-84229721D01*
X169277006Y-84390919D01*
X169289783Y-84414824D01*
X169422933Y-84577067D01*
X169585176Y-84710217D01*
X169770278Y-84809156D01*
X169971126Y-84870083D01*
X170180000Y-84890655D01*
X170388874Y-84870083D01*
X170589722Y-84809156D01*
X170774824Y-84710217D01*
X170937067Y-84577067D01*
X171070217Y-84414824D01*
X171169156Y-84229722D01*
X171230083Y-84028874D01*
X171250655Y-83820000D01*
X171649345Y-83820000D01*
X171669917Y-84028875D01*
X171730843Y-84229721D01*
X171817005Y-84390919D01*
X171829783Y-84414824D01*
X171962933Y-84577067D01*
X172125176Y-84710217D01*
X172310278Y-84809156D01*
X172511126Y-84870083D01*
X172720000Y-84890655D01*
X172928874Y-84870083D01*
X173129722Y-84809156D01*
X173314824Y-84710217D01*
X173477067Y-84577067D01*
X173610217Y-84414824D01*
X173709156Y-84229722D01*
X173770083Y-84028874D01*
X173790655Y-83820000D01*
X173770083Y-83611126D01*
X173709156Y-83410278D01*
X173610217Y-83225176D01*
X173477067Y-83062933D01*
X173314824Y-82929783D01*
X173290919Y-82917005D01*
X173129721Y-82830843D01*
X172928875Y-82769917D01*
X172720000Y-82749345D01*
X172511124Y-82769917D01*
X172310278Y-82830843D01*
X172125177Y-82929782D01*
X171962933Y-83062933D01*
X171829782Y-83225177D01*
X171730843Y-83410278D01*
X171669917Y-83611124D01*
X171649345Y-83820000D01*
X171250655Y-83820000D01*
X171230083Y-83611126D01*
X171169156Y-83410278D01*
X171070217Y-83225176D01*
X170937067Y-83062933D01*
X170774824Y-82929783D01*
X170750919Y-82917005D01*
X170589721Y-82830843D01*
X170388875Y-82769917D01*
X170284437Y-82759630D01*
X170180000Y-82749345D01*
X170179999Y-82749345D01*
X169971124Y-82769917D01*
X169770278Y-82830843D01*
X169585177Y-82929782D01*
X169422933Y-83062933D01*
X169289782Y-83225177D01*
X169190843Y-83410278D01*
X169129917Y-83611124D01*
X169109345Y-83819999D01*
X135379213Y-83819999D01*
X135364795Y-83778797D01*
X135360956Y-83765478D01*
X135359938Y-83761024D01*
X135357442Y-83750108D01*
X135278729Y-83568791D01*
X135226916Y-83449381D01*
X135222614Y-83437955D01*
X135200108Y-83367905D01*
X135195521Y-83348272D01*
X135182517Y-83261106D01*
X135181224Y-83246801D01*
X135180527Y-83225176D01*
X135175706Y-83075485D01*
X135175629Y-83073354D01*
X135174532Y-83068538D01*
X135173597Y-83064432D01*
X135170500Y-83036893D01*
X135170500Y-81305386D01*
X135190185Y-81238347D01*
X135206819Y-81217705D01*
X135209758Y-81214766D01*
X135209759Y-81214766D01*
X135606525Y-80818000D01*
X143793627Y-80818000D01*
X143813079Y-81040331D01*
X143870844Y-81255914D01*
X143913803Y-81348040D01*
X143965165Y-81458186D01*
X144093178Y-81641007D01*
X144250993Y-81798822D01*
X144433814Y-81926835D01*
X144636087Y-82021156D01*
X144851666Y-82078920D01*
X145074000Y-82098372D01*
X145296334Y-82078920D01*
X145511913Y-82021156D01*
X145714186Y-81926835D01*
X145897007Y-81798822D01*
X146054822Y-81641007D01*
X146182835Y-81458186D01*
X146277156Y-81255913D01*
X146334920Y-81040334D01*
X146354372Y-80818000D01*
X146354372Y-80817999D01*
X148893966Y-80817999D01*
X148914057Y-81034831D01*
X148973651Y-81244278D01*
X149070712Y-81439204D01*
X149082987Y-81455459D01*
X149471452Y-81066993D01*
X149481188Y-81096956D01*
X149569186Y-81235619D01*
X149688903Y-81348040D01*
X149823510Y-81422041D01*
X149438831Y-81806719D01*
X149548013Y-81874322D01*
X149751068Y-81952986D01*
X149965122Y-81993000D01*
X150182878Y-81993000D01*
X150396931Y-81952986D01*
X150599988Y-81874322D01*
X150709166Y-81806720D01*
X150709166Y-81806719D01*
X150321534Y-81419086D01*
X150389629Y-81392126D01*
X150522492Y-81295595D01*
X150627175Y-81169055D01*
X150675631Y-81066079D01*
X151065011Y-81455459D01*
X151065012Y-81455459D01*
X151077285Y-81439208D01*
X151156561Y-81279999D01*
X169109345Y-81279999D01*
X169129917Y-81488875D01*
X169190843Y-81689721D01*
X169190844Y-81689722D01*
X169289783Y-81874824D01*
X169422933Y-82037067D01*
X169585176Y-82170217D01*
X169770278Y-82269156D01*
X169971126Y-82330083D01*
X170180000Y-82350655D01*
X170388874Y-82330083D01*
X170589722Y-82269156D01*
X170774824Y-82170217D01*
X170937067Y-82037067D01*
X171070217Y-81874824D01*
X171169156Y-81689722D01*
X171230083Y-81488874D01*
X171250655Y-81280000D01*
X171250655Y-81279999D01*
X171649345Y-81279999D01*
X171669917Y-81488875D01*
X171730843Y-81689721D01*
X171730844Y-81689722D01*
X171829783Y-81874824D01*
X171962933Y-82037067D01*
X172125176Y-82170217D01*
X172310278Y-82269156D01*
X172511126Y-82330083D01*
X172720000Y-82350655D01*
X172928874Y-82330083D01*
X173129722Y-82269156D01*
X173314824Y-82170217D01*
X173477067Y-82037067D01*
X173610217Y-81874824D01*
X173709156Y-81689722D01*
X173770083Y-81488874D01*
X173790655Y-81280000D01*
X173770083Y-81071126D01*
X173709156Y-80870278D01*
X173610217Y-80685176D01*
X173477067Y-80522933D01*
X173314824Y-80389783D01*
X173290919Y-80377005D01*
X173129721Y-80290843D01*
X172928875Y-80229917D01*
X172720000Y-80209345D01*
X172511124Y-80229917D01*
X172310278Y-80290843D01*
X172125177Y-80389782D01*
X171962933Y-80522933D01*
X171829782Y-80685177D01*
X171730843Y-80870278D01*
X171669917Y-81071124D01*
X171649345Y-81279999D01*
X171250655Y-81279999D01*
X171230083Y-81071126D01*
X171169156Y-80870278D01*
X171070217Y-80685176D01*
X170937067Y-80522933D01*
X170774824Y-80389783D01*
X170750919Y-80377005D01*
X170589721Y-80290843D01*
X170388875Y-80229917D01*
X170284436Y-80219630D01*
X170180000Y-80209345D01*
X170179999Y-80209345D01*
X169971124Y-80229917D01*
X169770278Y-80290843D01*
X169585177Y-80389782D01*
X169422933Y-80522933D01*
X169289782Y-80685177D01*
X169190843Y-80870278D01*
X169129917Y-81071124D01*
X169109345Y-81279999D01*
X151156561Y-81279999D01*
X151174348Y-81244278D01*
X151233942Y-81034831D01*
X151254033Y-80817999D01*
X151233942Y-80601168D01*
X151174348Y-80391721D01*
X151077287Y-80196794D01*
X151065011Y-80180539D01*
X150676546Y-80569004D01*
X150666812Y-80539044D01*
X150578814Y-80400381D01*
X150459097Y-80287960D01*
X150324489Y-80213958D01*
X150709167Y-79829279D01*
X150599986Y-79761677D01*
X150396931Y-79683013D01*
X150182878Y-79643000D01*
X149965122Y-79643000D01*
X149751068Y-79683013D01*
X149548010Y-79761678D01*
X149438832Y-79829278D01*
X149438831Y-79829279D01*
X149826465Y-80216913D01*
X149758371Y-80243874D01*
X149625508Y-80340405D01*
X149520825Y-80466945D01*
X149472368Y-80569920D01*
X149082987Y-80180539D01*
X149070712Y-80196794D01*
X148973651Y-80391721D01*
X148914057Y-80601168D01*
X148893966Y-80817999D01*
X146354372Y-80817999D01*
X146334920Y-80595666D01*
X146277156Y-80380087D01*
X146182835Y-80177814D01*
X146054822Y-79994993D01*
X145897007Y-79837178D01*
X145714186Y-79709165D01*
X145544881Y-79630217D01*
X145511914Y-79614844D01*
X145296331Y-79557079D01*
X145173153Y-79546302D01*
X169114500Y-79546302D01*
X169114501Y-79549864D01*
X169114912Y-79553407D01*
X169117415Y-79574991D01*
X169162795Y-79677767D01*
X169242232Y-79757204D01*
X169242233Y-79757204D01*
X169242235Y-79757206D01*
X169345009Y-79802585D01*
X169370135Y-79805500D01*
X170989864Y-79805499D01*
X171014991Y-79802585D01*
X171117765Y-79757206D01*
X171197206Y-79677765D01*
X171242585Y-79574991D01*
X171245500Y-79549865D01*
X171245499Y-78740000D01*
X171649345Y-78740000D01*
X171669917Y-78948875D01*
X171730843Y-79149721D01*
X171730844Y-79149722D01*
X171829783Y-79334824D01*
X171962933Y-79497067D01*
X172125176Y-79630217D01*
X172310278Y-79729156D01*
X172511126Y-79790083D01*
X172720000Y-79810655D01*
X172928874Y-79790083D01*
X173129722Y-79729156D01*
X173314824Y-79630217D01*
X173477067Y-79497067D01*
X173610217Y-79334824D01*
X173709156Y-79149722D01*
X173770083Y-78948874D01*
X173790655Y-78740000D01*
X173770083Y-78531126D01*
X173709156Y-78330278D01*
X173610217Y-78145176D01*
X173477067Y-77982933D01*
X173314824Y-77849783D01*
X173225868Y-77802235D01*
X173129721Y-77750843D01*
X172928875Y-77689917D01*
X172720000Y-77669345D01*
X172511124Y-77689917D01*
X172310278Y-77750843D01*
X172125177Y-77849782D01*
X171962933Y-77982933D01*
X171829782Y-78145177D01*
X171730843Y-78330278D01*
X171669917Y-78531124D01*
X171649345Y-78740000D01*
X171245499Y-78740000D01*
X171245499Y-77930136D01*
X171242585Y-77905009D01*
X171197206Y-77802235D01*
X171197204Y-77802233D01*
X171197204Y-77802232D01*
X171117767Y-77722795D01*
X171014990Y-77677414D01*
X170993414Y-77674911D01*
X170993401Y-77674910D01*
X170989865Y-77674500D01*
X170986290Y-77674500D01*
X169373714Y-77674500D01*
X169373696Y-77674500D01*
X169370136Y-77674501D01*
X169366592Y-77674911D01*
X169366592Y-77674912D01*
X169345008Y-77677415D01*
X169242232Y-77722795D01*
X169162795Y-77802232D01*
X169117414Y-77905009D01*
X169114911Y-77926585D01*
X169114911Y-77926592D01*
X169114500Y-77930135D01*
X169114500Y-77933708D01*
X169114500Y-77933709D01*
X169114500Y-79546285D01*
X169114500Y-79546302D01*
X145173153Y-79546302D01*
X145074000Y-79537627D01*
X144851668Y-79557079D01*
X144636085Y-79614844D01*
X144489897Y-79683013D01*
X144433814Y-79709165D01*
X144262274Y-79829279D01*
X144250989Y-79837181D01*
X144093181Y-79994989D01*
X143965164Y-80177816D01*
X143870844Y-80380085D01*
X143813079Y-80595668D01*
X143793627Y-80818000D01*
X135606525Y-80818000D01*
X139129706Y-77294819D01*
X139191029Y-77261334D01*
X139217387Y-77258500D01*
X149022335Y-77258500D01*
X152634365Y-77258500D01*
X152661063Y-77261408D01*
X152671486Y-77263706D01*
X152842806Y-77269224D01*
X152857099Y-77270516D01*
X152944266Y-77283520D01*
X152963899Y-77288106D01*
X153033965Y-77310617D01*
X153045393Y-77314921D01*
X153164741Y-77366707D01*
X153346271Y-77445512D01*
X153357025Y-77449939D01*
X153368756Y-77452154D01*
X153386695Y-77456959D01*
X153490745Y-77493368D01*
X153669999Y-77513565D01*
X153669999Y-77513564D01*
X153670000Y-77513565D01*
X153849255Y-77493368D01*
X154019522Y-77433789D01*
X154172262Y-77337816D01*
X154299816Y-77210262D01*
X154395789Y-77057522D01*
X154455368Y-76887255D01*
X154475565Y-76708000D01*
X154455368Y-76528745D01*
X154395789Y-76358478D01*
X154299816Y-76205738D01*
X154299815Y-76205737D01*
X154299814Y-76205735D01*
X154251760Y-76157681D01*
X154218275Y-76096358D01*
X154223259Y-76026666D01*
X154265131Y-75970733D01*
X154330595Y-75946316D01*
X154339441Y-75946000D01*
X174882000Y-75946000D01*
X174949039Y-75965685D01*
X174994794Y-76018489D01*
X175006000Y-76070000D01*
X175006000Y-112968112D01*
X174986315Y-113035151D01*
X174933511Y-113080906D01*
X174864353Y-113090850D01*
X174800797Y-113061825D01*
X174794319Y-113055793D01*
X174223731Y-112485206D01*
X174204348Y-112460081D01*
X174202495Y-112456909D01*
X174114119Y-112354824D01*
X174027425Y-112254681D01*
X174012397Y-112233047D01*
X173997284Y-112205429D01*
X173945287Y-112110408D01*
X173935296Y-112086512D01*
X173891180Y-111939373D01*
X173889690Y-111933960D01*
X173858866Y-111811199D01*
X173832732Y-111707113D01*
X173832366Y-111705756D01*
X173829053Y-111693753D01*
X173828655Y-111692397D01*
X173828751Y-111692746D01*
X173828337Y-111691445D01*
X173824556Y-111679813D01*
X173824108Y-111678506D01*
X173719274Y-111378234D01*
X173719018Y-111377532D01*
X173716428Y-111370422D01*
X173716423Y-111370410D01*
X173716379Y-111370288D01*
X173715978Y-111369232D01*
X173715602Y-111368336D01*
X173714246Y-111365055D01*
X173714127Y-111364763D01*
X173710205Y-111353739D01*
X173709156Y-111350278D01*
X173610217Y-111165176D01*
X173477067Y-111002933D01*
X173314824Y-110869783D01*
X173236919Y-110828142D01*
X173129721Y-110770843D01*
X172928875Y-110709917D01*
X172720000Y-110689345D01*
X172511124Y-110709917D01*
X172310282Y-110770842D01*
X172310278Y-110770843D01*
X172310278Y-110770844D01*
X172182951Y-110838901D01*
X172114550Y-110853142D01*
X172049306Y-110828142D01*
X172007936Y-110771836D01*
X172000500Y-110729542D01*
X172000500Y-110250457D01*
X172020185Y-110183418D01*
X172072989Y-110137663D01*
X172142147Y-110127719D01*
X172182950Y-110141098D01*
X172310278Y-110209156D01*
X172511126Y-110270083D01*
X172720000Y-110290655D01*
X172928874Y-110270083D01*
X173129722Y-110209156D01*
X173314824Y-110110217D01*
X173477067Y-109977067D01*
X173610217Y-109814824D01*
X173709156Y-109629722D01*
X173770083Y-109428874D01*
X173790655Y-109220000D01*
X173770083Y-109011126D01*
X173709156Y-108810278D01*
X173610217Y-108625176D01*
X173477067Y-108462933D01*
X173314824Y-108329783D01*
X173177873Y-108256581D01*
X173129721Y-108230843D01*
X172928875Y-108169917D01*
X172720000Y-108149345D01*
X172511124Y-108169917D01*
X172310282Y-108230842D01*
X172310278Y-108230843D01*
X172310278Y-108230844D01*
X172182951Y-108298901D01*
X172114550Y-108313142D01*
X172049306Y-108288142D01*
X172007936Y-108231836D01*
X172000500Y-108189542D01*
X172000500Y-107710457D01*
X172020185Y-107643418D01*
X172072989Y-107597663D01*
X172142147Y-107587719D01*
X172182950Y-107601098D01*
X172310278Y-107669156D01*
X172511126Y-107730083D01*
X172720000Y-107750655D01*
X172928874Y-107730083D01*
X173129722Y-107669156D01*
X173314824Y-107570217D01*
X173477067Y-107437067D01*
X173610217Y-107274824D01*
X173709156Y-107089722D01*
X173770083Y-106888874D01*
X173790655Y-106680000D01*
X173770083Y-106471126D01*
X173709156Y-106270278D01*
X173610217Y-106085176D01*
X173477067Y-105922933D01*
X173314824Y-105789783D01*
X173177873Y-105716581D01*
X173129721Y-105690843D01*
X172928875Y-105629917D01*
X172720000Y-105609345D01*
X172511124Y-105629917D01*
X172310282Y-105690842D01*
X172310278Y-105690843D01*
X172310278Y-105690844D01*
X172182951Y-105758901D01*
X172114550Y-105773142D01*
X172049306Y-105748142D01*
X172007936Y-105691836D01*
X172000500Y-105649542D01*
X172000500Y-105170457D01*
X172020185Y-105103418D01*
X172072989Y-105057663D01*
X172142147Y-105047719D01*
X172182950Y-105061098D01*
X172310278Y-105129156D01*
X172511126Y-105190083D01*
X172720000Y-105210655D01*
X172928874Y-105190083D01*
X173129722Y-105129156D01*
X173314824Y-105030217D01*
X173477067Y-104897067D01*
X173610217Y-104734824D01*
X173709156Y-104549722D01*
X173770083Y-104348874D01*
X173790655Y-104140000D01*
X173770083Y-103931126D01*
X173709156Y-103730278D01*
X173610217Y-103545176D01*
X173477067Y-103382933D01*
X173314824Y-103249783D01*
X173216955Y-103197471D01*
X173129721Y-103150843D01*
X172928875Y-103089917D01*
X172720000Y-103069345D01*
X172511124Y-103089917D01*
X172310282Y-103150842D01*
X172310278Y-103150843D01*
X172310278Y-103150844D01*
X172182951Y-103218901D01*
X172114550Y-103233142D01*
X172049306Y-103208142D01*
X172007936Y-103151836D01*
X172000500Y-103109542D01*
X172000500Y-102516501D01*
X172020185Y-102449462D01*
X172072989Y-102403707D01*
X172142147Y-102393763D01*
X172182953Y-102407143D01*
X172348924Y-102495857D01*
X172530825Y-102551036D01*
X172720000Y-102569668D01*
X172909170Y-102551037D01*
X173091077Y-102495855D01*
X173202660Y-102436213D01*
X172861365Y-102094918D01*
X172865161Y-102094373D01*
X172998562Y-102033451D01*
X173109395Y-101937413D01*
X173188682Y-101814040D01*
X173211133Y-101737580D01*
X173556212Y-102082660D01*
X173556213Y-102082660D01*
X173615855Y-101971077D01*
X173671037Y-101789170D01*
X173689668Y-101600000D01*
X173671037Y-101410829D01*
X173615855Y-101228921D01*
X173556212Y-101117339D01*
X173211132Y-101462418D01*
X173188682Y-101385960D01*
X173109395Y-101262587D01*
X172998562Y-101166549D01*
X172865161Y-101105627D01*
X172861365Y-101105081D01*
X173202660Y-100763786D01*
X173202660Y-100763785D01*
X173091075Y-100704142D01*
X172909174Y-100648963D01*
X172720000Y-100630331D01*
X172530825Y-100648963D01*
X172348924Y-100704142D01*
X172182953Y-100792856D01*
X172114550Y-100807098D01*
X172049306Y-100782098D01*
X172007936Y-100725793D01*
X172000500Y-100683498D01*
X172000500Y-100090457D01*
X172020185Y-100023418D01*
X172072989Y-99977663D01*
X172142147Y-99967719D01*
X172182950Y-99981098D01*
X172310278Y-100049156D01*
X172511126Y-100110083D01*
X172720000Y-100130655D01*
X172928874Y-100110083D01*
X173129722Y-100049156D01*
X173314824Y-99950217D01*
X173477067Y-99817067D01*
X173610217Y-99654824D01*
X173709156Y-99469722D01*
X173770083Y-99268874D01*
X173790655Y-99060000D01*
X173770083Y-98851126D01*
X173709156Y-98650278D01*
X173610217Y-98465176D01*
X173477067Y-98302933D01*
X173314824Y-98169783D01*
X173177873Y-98096581D01*
X173129721Y-98070843D01*
X172928875Y-98009917D01*
X172720000Y-97989345D01*
X172511124Y-98009917D01*
X172310282Y-98070842D01*
X172310278Y-98070843D01*
X172310278Y-98070844D01*
X172182951Y-98138901D01*
X172114550Y-98153142D01*
X172049306Y-98128142D01*
X172007936Y-98071836D01*
X172000500Y-98029542D01*
X172000500Y-97550457D01*
X172020185Y-97483418D01*
X172072989Y-97437663D01*
X172142147Y-97427719D01*
X172182950Y-97441098D01*
X172310278Y-97509156D01*
X172511126Y-97570083D01*
X172720000Y-97590655D01*
X172928874Y-97570083D01*
X173129722Y-97509156D01*
X173314824Y-97410217D01*
X173477067Y-97277067D01*
X173610217Y-97114824D01*
X173709156Y-96929722D01*
X173770083Y-96728874D01*
X173790655Y-96520000D01*
X173770083Y-96311126D01*
X173709156Y-96110278D01*
X173610217Y-95925176D01*
X173477067Y-95762933D01*
X173314824Y-95629783D01*
X173177873Y-95556581D01*
X173129721Y-95530843D01*
X172928875Y-95469917D01*
X172720000Y-95449345D01*
X172511124Y-95469917D01*
X172310282Y-95530842D01*
X172310278Y-95530843D01*
X172310278Y-95530844D01*
X172182951Y-95598901D01*
X172114550Y-95613142D01*
X172049306Y-95588142D01*
X172007936Y-95531836D01*
X172000500Y-95489542D01*
X172000500Y-95010457D01*
X172020185Y-94943418D01*
X172072989Y-94897663D01*
X172142147Y-94887719D01*
X172182950Y-94901098D01*
X172310278Y-94969156D01*
X172511126Y-95030083D01*
X172720000Y-95050655D01*
X172928874Y-95030083D01*
X173129722Y-94969156D01*
X173314824Y-94870217D01*
X173477067Y-94737067D01*
X173610217Y-94574824D01*
X173709156Y-94389722D01*
X173770083Y-94188874D01*
X173790655Y-93980000D01*
X173770083Y-93771126D01*
X173709156Y-93570278D01*
X173610217Y-93385176D01*
X173477067Y-93222933D01*
X173314824Y-93089783D01*
X173177873Y-93016581D01*
X173129721Y-92990843D01*
X172928875Y-92929917D01*
X172720000Y-92909345D01*
X172511124Y-92929917D01*
X172310282Y-92990842D01*
X172310278Y-92990843D01*
X172310278Y-92990844D01*
X172182951Y-93058901D01*
X172114550Y-93073142D01*
X172049306Y-93048142D01*
X172007936Y-92991836D01*
X172000500Y-92949542D01*
X172000500Y-92470457D01*
X172020185Y-92403418D01*
X172072989Y-92357663D01*
X172142147Y-92347719D01*
X172182950Y-92361098D01*
X172310278Y-92429156D01*
X172511126Y-92490083D01*
X172720000Y-92510655D01*
X172928874Y-92490083D01*
X173129722Y-92429156D01*
X173314824Y-92330217D01*
X173477067Y-92197067D01*
X173610217Y-92034824D01*
X173709156Y-91849722D01*
X173770083Y-91648874D01*
X173790655Y-91440000D01*
X173770083Y-91231126D01*
X173709156Y-91030278D01*
X173610217Y-90845176D01*
X173477067Y-90682933D01*
X173314824Y-90549783D01*
X173177873Y-90476581D01*
X173129721Y-90450843D01*
X172928875Y-90389917D01*
X172824436Y-90379631D01*
X172720000Y-90369345D01*
X172719999Y-90369345D01*
X172511124Y-90389917D01*
X172310282Y-90450842D01*
X172310278Y-90450843D01*
X172310278Y-90450844D01*
X172182951Y-90518901D01*
X172114550Y-90533142D01*
X172049306Y-90508142D01*
X172007936Y-90451836D01*
X172000500Y-90409542D01*
X172000500Y-89930457D01*
X172020185Y-89863418D01*
X172072989Y-89817663D01*
X172142147Y-89807719D01*
X172182950Y-89821098D01*
X172310278Y-89889156D01*
X172511126Y-89950083D01*
X172720000Y-89970655D01*
X172928874Y-89950083D01*
X173129722Y-89889156D01*
X173314824Y-89790217D01*
X173477067Y-89657067D01*
X173610217Y-89494824D01*
X173709156Y-89309722D01*
X173770083Y-89108874D01*
X173790655Y-88900000D01*
X173770083Y-88691126D01*
X173709156Y-88490278D01*
X173610217Y-88305176D01*
X173477067Y-88142933D01*
X173314824Y-88009783D01*
X173234126Y-87966649D01*
X173129721Y-87910843D01*
X172928875Y-87849917D01*
X172824436Y-87839631D01*
X172720000Y-87829345D01*
X172719999Y-87829345D01*
X172511124Y-87849917D01*
X172310278Y-87910843D01*
X172125177Y-88009782D01*
X172056286Y-88066319D01*
X171991976Y-88093631D01*
X171923109Y-88081840D01*
X171889941Y-88058146D01*
X171863713Y-88031918D01*
X171855205Y-88022491D01*
X171845952Y-88011117D01*
X171829278Y-87990622D01*
X171829277Y-87990621D01*
X171814615Y-87980271D01*
X171798444Y-87966649D01*
X171080676Y-87248881D01*
X171077762Y-87245867D01*
X171033950Y-87198956D01*
X171033948Y-87198954D01*
X171022317Y-87186501D01*
X171025501Y-87183527D01*
X170999456Y-87154922D01*
X170987814Y-87086029D01*
X171015095Y-87021989D01*
X171070217Y-86954824D01*
X171169156Y-86769722D01*
X171230083Y-86568874D01*
X171250655Y-86360000D01*
X171649345Y-86360000D01*
X171669917Y-86568875D01*
X171730843Y-86769721D01*
X171789710Y-86879853D01*
X171829783Y-86954824D01*
X171962933Y-87117067D01*
X172125176Y-87250217D01*
X172310278Y-87349156D01*
X172511126Y-87410083D01*
X172720000Y-87430655D01*
X172928874Y-87410083D01*
X173129722Y-87349156D01*
X173314824Y-87250217D01*
X173477067Y-87117067D01*
X173610217Y-86954824D01*
X173709156Y-86769722D01*
X173770083Y-86568874D01*
X173790655Y-86360000D01*
X173770083Y-86151126D01*
X173709156Y-85950278D01*
X173610217Y-85765176D01*
X173477067Y-85602933D01*
X173314824Y-85469783D01*
X173166180Y-85390331D01*
X173129721Y-85370843D01*
X172928875Y-85309917D01*
X172720000Y-85289345D01*
X172511124Y-85309917D01*
X172310278Y-85370843D01*
X172125177Y-85469782D01*
X171962933Y-85602933D01*
X171829782Y-85765177D01*
X171730843Y-85950278D01*
X171669917Y-86151124D01*
X171649345Y-86360000D01*
X171250655Y-86360000D01*
X171230083Y-86151126D01*
X171169156Y-85950278D01*
X171070217Y-85765176D01*
X170937067Y-85602933D01*
X170774824Y-85469783D01*
X170626180Y-85390331D01*
X170589721Y-85370843D01*
X170388875Y-85309917D01*
X170284436Y-85299631D01*
X170180000Y-85289345D01*
X170179999Y-85289345D01*
X169971124Y-85309917D01*
X169770278Y-85370843D01*
X169585177Y-85469782D01*
X169422933Y-85602933D01*
X169289782Y-85765177D01*
X169190843Y-85950278D01*
X169129917Y-86151124D01*
X169109345Y-86360000D01*
X169129917Y-86568875D01*
X169190843Y-86769721D01*
X169213148Y-86811450D01*
X169227390Y-86879853D01*
X169202390Y-86945097D01*
X169146084Y-86986467D01*
X169076351Y-86990829D01*
X169016109Y-86957584D01*
X168808570Y-86750045D01*
X168789966Y-86726235D01*
X168786915Y-86721157D01*
X168759299Y-86690043D01*
X168698095Y-86621086D01*
X168687519Y-86607344D01*
X168643783Y-86541448D01*
X168638972Y-86533579D01*
X168593429Y-86452455D01*
X168587678Y-86442646D01*
X168587673Y-86442639D01*
X168587629Y-86442563D01*
X168587175Y-86441821D01*
X168581122Y-86432326D01*
X168581105Y-86432300D01*
X168581019Y-86432165D01*
X168512590Y-86329070D01*
X168511353Y-86327309D01*
X168500182Y-86311724D01*
X168498876Y-86309996D01*
X168499184Y-86310427D01*
X168497815Y-86308741D01*
X168485547Y-86293934D01*
X168484124Y-86292303D01*
X168391358Y-86187815D01*
X168384927Y-86179615D01*
X168378084Y-86172863D01*
X168372535Y-86166782D01*
X168372505Y-86166750D01*
X168372434Y-86166672D01*
X168371672Y-86165860D01*
X168370949Y-86165138D01*
X168360858Y-86154935D01*
X168352727Y-86149605D01*
X168338482Y-86138717D01*
X168266241Y-86074718D01*
X168266240Y-86074717D01*
X168166916Y-86022587D01*
X168126364Y-86001303D01*
X167972985Y-85963500D01*
X167815015Y-85963500D01*
X167661635Y-86001303D01*
X167521761Y-86074716D01*
X167403515Y-86179471D01*
X167313780Y-86309476D01*
X167257763Y-86457181D01*
X167238721Y-86613999D01*
X167257763Y-86770818D01*
X167313780Y-86918523D01*
X167403515Y-87048528D01*
X167429816Y-87071828D01*
X167445543Y-87088611D01*
X167452976Y-87098187D01*
X167573934Y-87205547D01*
X167575600Y-87206949D01*
X167590427Y-87219184D01*
X167592138Y-87220525D01*
X167591724Y-87220182D01*
X167593477Y-87221459D01*
X167609087Y-87232601D01*
X167610876Y-87233811D01*
X167712326Y-87301122D01*
X167721721Y-87307112D01*
X167721736Y-87307120D01*
X167721821Y-87307175D01*
X167722563Y-87307629D01*
X167732455Y-87313429D01*
X167813624Y-87358998D01*
X167821437Y-87363776D01*
X167887344Y-87407519D01*
X167901086Y-87418095D01*
X167988074Y-87495303D01*
X168001157Y-87506915D01*
X168004767Y-87509101D01*
X168006645Y-87510238D01*
X168030106Y-87528631D01*
X168512592Y-88011117D01*
X168515534Y-88014161D01*
X168559320Y-88061044D01*
X168594434Y-88082397D01*
X168604914Y-88089530D01*
X168637658Y-88114361D01*
X168654354Y-88120945D01*
X168673281Y-88130345D01*
X168688618Y-88139672D01*
X168688620Y-88139672D01*
X168688621Y-88139673D01*
X168728181Y-88150757D01*
X168740213Y-88154803D01*
X168778436Y-88169876D01*
X168796285Y-88171711D01*
X168817046Y-88175656D01*
X168834335Y-88180500D01*
X168875418Y-88180500D01*
X168888098Y-88181149D01*
X168928972Y-88185352D01*
X168946656Y-88182303D01*
X168967725Y-88180500D01*
X169263498Y-88180500D01*
X169330537Y-88200185D01*
X169376292Y-88252989D01*
X169386236Y-88322147D01*
X169372856Y-88362953D01*
X169284142Y-88528924D01*
X169228963Y-88710825D01*
X169210331Y-88900000D01*
X169228963Y-89089174D01*
X169284142Y-89271075D01*
X169343785Y-89382660D01*
X169688866Y-89037578D01*
X169711318Y-89114040D01*
X169790605Y-89237413D01*
X169901438Y-89333451D01*
X170034839Y-89394373D01*
X170038632Y-89394918D01*
X169697339Y-89736212D01*
X169808921Y-89795855D01*
X169990829Y-89851037D01*
X170180000Y-89869668D01*
X170369174Y-89851036D01*
X170551075Y-89795857D01*
X170717047Y-89707143D01*
X170785449Y-89692901D01*
X170850693Y-89717901D01*
X170892064Y-89774206D01*
X170899500Y-89816501D01*
X170899500Y-90409542D01*
X170879815Y-90476581D01*
X170827011Y-90522336D01*
X170757853Y-90532280D01*
X170717049Y-90518901D01*
X170589722Y-90450844D01*
X170589719Y-90450843D01*
X170589717Y-90450842D01*
X170388875Y-90389917D01*
X170180000Y-90369345D01*
X169971124Y-90389917D01*
X169770278Y-90450843D01*
X169585177Y-90549782D01*
X169422933Y-90682933D01*
X169289782Y-90845177D01*
X169190843Y-91030278D01*
X169129917Y-91231124D01*
X169109345Y-91440000D01*
X169129917Y-91648875D01*
X169190843Y-91849721D01*
X169190844Y-91849722D01*
X169289783Y-92034824D01*
X169422933Y-92197067D01*
X169585176Y-92330217D01*
X169770278Y-92429156D01*
X169971126Y-92490083D01*
X170180000Y-92510655D01*
X170388874Y-92490083D01*
X170589722Y-92429156D01*
X170717048Y-92361098D01*
X170785449Y-92346857D01*
X170850693Y-92371857D01*
X170892064Y-92428162D01*
X170899500Y-92470457D01*
X170899500Y-92949542D01*
X170879815Y-93016581D01*
X170827011Y-93062336D01*
X170757853Y-93072280D01*
X170717049Y-93058901D01*
X170589722Y-92990844D01*
X170589719Y-92990843D01*
X170589717Y-92990842D01*
X170388875Y-92929917D01*
X170180000Y-92909345D01*
X169971124Y-92929917D01*
X169770278Y-92990843D01*
X169585177Y-93089782D01*
X169422933Y-93222933D01*
X169289782Y-93385177D01*
X169190843Y-93570278D01*
X169129917Y-93771124D01*
X169109345Y-93980000D01*
X169129917Y-94188875D01*
X169190843Y-94389721D01*
X169225186Y-94453972D01*
X169289783Y-94574824D01*
X169422933Y-94737067D01*
X169585176Y-94870217D01*
X169770278Y-94969156D01*
X169971126Y-95030083D01*
X170180000Y-95050655D01*
X170388874Y-95030083D01*
X170589722Y-94969156D01*
X170717048Y-94901098D01*
X170785449Y-94886857D01*
X170850693Y-94911857D01*
X170892064Y-94968162D01*
X170899500Y-95010457D01*
X170899500Y-95489542D01*
X170879815Y-95556581D01*
X170827011Y-95602336D01*
X170757853Y-95612280D01*
X170717049Y-95598901D01*
X170589722Y-95530844D01*
X170589719Y-95530843D01*
X170589717Y-95530842D01*
X170388875Y-95469917D01*
X170180000Y-95449345D01*
X169971124Y-95469917D01*
X169770278Y-95530843D01*
X169585177Y-95629782D01*
X169422933Y-95762933D01*
X169289782Y-95925177D01*
X169190843Y-96110278D01*
X169129917Y-96311124D01*
X169109345Y-96520000D01*
X169129917Y-96728875D01*
X169190843Y-96929721D01*
X169190844Y-96929722D01*
X169289783Y-97114824D01*
X169422933Y-97277067D01*
X169585176Y-97410217D01*
X169770278Y-97509156D01*
X169971126Y-97570083D01*
X170180000Y-97590655D01*
X170388874Y-97570083D01*
X170589722Y-97509156D01*
X170717048Y-97441098D01*
X170785449Y-97426857D01*
X170850693Y-97451857D01*
X170892064Y-97508162D01*
X170899500Y-97550457D01*
X170899500Y-98029542D01*
X170879815Y-98096581D01*
X170827011Y-98142336D01*
X170757853Y-98152280D01*
X170717049Y-98138901D01*
X170589722Y-98070844D01*
X170589719Y-98070843D01*
X170589717Y-98070842D01*
X170388875Y-98009917D01*
X170180000Y-97989345D01*
X169971124Y-98009917D01*
X169770278Y-98070843D01*
X169585177Y-98169782D01*
X169422933Y-98302933D01*
X169289782Y-98465177D01*
X169190843Y-98650278D01*
X169129917Y-98851124D01*
X169109345Y-99059999D01*
X169129917Y-99268875D01*
X169190843Y-99469721D01*
X169190844Y-99469722D01*
X169289783Y-99654824D01*
X169422933Y-99817067D01*
X169585176Y-99950217D01*
X169770278Y-100049156D01*
X169971126Y-100110083D01*
X170180000Y-100130655D01*
X170388874Y-100110083D01*
X170589722Y-100049156D01*
X170717048Y-99981098D01*
X170785449Y-99966857D01*
X170850693Y-99991857D01*
X170892064Y-100048162D01*
X170899500Y-100090457D01*
X170899500Y-100569542D01*
X170879815Y-100636581D01*
X170827011Y-100682336D01*
X170757853Y-100692280D01*
X170717049Y-100678901D01*
X170589722Y-100610844D01*
X170589719Y-100610843D01*
X170589717Y-100610842D01*
X170388875Y-100549917D01*
X170284436Y-100539631D01*
X170180000Y-100529345D01*
X170179999Y-100529345D01*
X169971124Y-100549917D01*
X169770278Y-100610843D01*
X169585177Y-100709782D01*
X169422933Y-100842933D01*
X169289782Y-101005177D01*
X169190843Y-101190278D01*
X169129917Y-101391124D01*
X169109345Y-101600000D01*
X169129917Y-101808875D01*
X169190843Y-102009721D01*
X169277006Y-102170919D01*
X169289783Y-102194824D01*
X169422933Y-102357067D01*
X169585176Y-102490217D01*
X169770278Y-102589156D01*
X169971126Y-102650083D01*
X170180000Y-102670655D01*
X170388874Y-102650083D01*
X170589722Y-102589156D01*
X170717048Y-102521098D01*
X170785449Y-102506857D01*
X170850693Y-102531857D01*
X170892064Y-102588162D01*
X170899500Y-102630457D01*
X170899500Y-103109542D01*
X170879815Y-103176581D01*
X170827011Y-103222336D01*
X170757853Y-103232280D01*
X170717049Y-103218901D01*
X170589722Y-103150844D01*
X170589719Y-103150843D01*
X170589717Y-103150842D01*
X170388875Y-103089917D01*
X170284437Y-103079631D01*
X170180000Y-103069345D01*
X170179999Y-103069345D01*
X169971124Y-103089917D01*
X169770278Y-103150843D01*
X169585177Y-103249782D01*
X169422933Y-103382933D01*
X169289782Y-103545177D01*
X169190843Y-103730278D01*
X169129917Y-103931124D01*
X169109345Y-104140000D01*
X169129917Y-104348875D01*
X169190843Y-104549721D01*
X169247271Y-104655289D01*
X169289783Y-104734824D01*
X169422933Y-104897067D01*
X169585176Y-105030217D01*
X169770278Y-105129156D01*
X169971126Y-105190083D01*
X170180000Y-105210655D01*
X170388874Y-105190083D01*
X170589722Y-105129156D01*
X170717048Y-105061098D01*
X170785449Y-105046857D01*
X170850693Y-105071857D01*
X170892064Y-105128162D01*
X170899500Y-105170457D01*
X170899500Y-105649542D01*
X170879815Y-105716581D01*
X170827011Y-105762336D01*
X170757853Y-105772280D01*
X170717049Y-105758901D01*
X170589722Y-105690844D01*
X170589719Y-105690843D01*
X170589717Y-105690842D01*
X170388875Y-105629917D01*
X170284436Y-105619631D01*
X170180000Y-105609345D01*
X170179999Y-105609345D01*
X169971124Y-105629917D01*
X169770278Y-105690843D01*
X169585177Y-105789782D01*
X169422933Y-105922933D01*
X169289782Y-106085177D01*
X169190843Y-106270278D01*
X169129917Y-106471124D01*
X169109345Y-106679999D01*
X169129917Y-106888875D01*
X169190843Y-107089721D01*
X169190844Y-107089722D01*
X169289783Y-107274824D01*
X169422933Y-107437067D01*
X169585176Y-107570217D01*
X169770278Y-107669156D01*
X169971126Y-107730083D01*
X170180000Y-107750655D01*
X170388874Y-107730083D01*
X170589722Y-107669156D01*
X170717048Y-107601098D01*
X170785449Y-107586857D01*
X170850693Y-107611857D01*
X170892064Y-107668162D01*
X170899500Y-107710457D01*
X170899500Y-108189542D01*
X170879815Y-108256581D01*
X170827011Y-108302336D01*
X170757853Y-108312280D01*
X170717049Y-108298901D01*
X170589722Y-108230844D01*
X170589719Y-108230843D01*
X170589717Y-108230842D01*
X170388875Y-108169917D01*
X170284437Y-108159631D01*
X170180000Y-108149345D01*
X170179999Y-108149345D01*
X169971124Y-108169917D01*
X169770278Y-108230843D01*
X169585177Y-108329782D01*
X169422933Y-108462933D01*
X169289782Y-108625177D01*
X169190843Y-108810278D01*
X169129917Y-109011124D01*
X169109345Y-109219999D01*
X169129917Y-109428875D01*
X169190843Y-109629721D01*
X169190844Y-109629722D01*
X169289783Y-109814824D01*
X169422933Y-109977067D01*
X169585176Y-110110217D01*
X169770278Y-110209156D01*
X169971126Y-110270083D01*
X170180000Y-110290655D01*
X170388874Y-110270083D01*
X170589722Y-110209156D01*
X170717048Y-110141098D01*
X170785449Y-110126857D01*
X170850693Y-110151857D01*
X170892064Y-110208162D01*
X170899500Y-110250457D01*
X170899500Y-110729542D01*
X170879815Y-110796581D01*
X170827011Y-110842336D01*
X170757853Y-110852280D01*
X170717049Y-110838901D01*
X170589722Y-110770844D01*
X170589719Y-110770843D01*
X170589717Y-110770842D01*
X170388875Y-110709917D01*
X170284436Y-110699631D01*
X170180000Y-110689345D01*
X170179999Y-110689345D01*
X169971124Y-110709917D01*
X169770278Y-110770843D01*
X169585177Y-110869782D01*
X169422933Y-111002933D01*
X169289782Y-111165177D01*
X169190843Y-111350278D01*
X169129917Y-111551124D01*
X169109345Y-111760000D01*
X169129917Y-111968875D01*
X169190843Y-112169721D01*
X169224692Y-112233047D01*
X169289783Y-112354824D01*
X169422933Y-112517067D01*
X169585176Y-112650217D01*
X169770278Y-112749156D01*
X169971126Y-112810083D01*
X170180000Y-112830655D01*
X170388874Y-112810083D01*
X170589722Y-112749156D01*
X170717048Y-112681098D01*
X170785449Y-112666857D01*
X170850693Y-112691857D01*
X170892064Y-112748162D01*
X170899500Y-112790457D01*
X170899500Y-113269542D01*
X170879815Y-113336581D01*
X170827011Y-113382336D01*
X170757853Y-113392280D01*
X170717049Y-113378901D01*
X170589722Y-113310844D01*
X170589719Y-113310843D01*
X170589717Y-113310842D01*
X170388875Y-113249917D01*
X170284437Y-113239631D01*
X170180000Y-113229345D01*
X170179999Y-113229345D01*
X169971124Y-113249917D01*
X169770278Y-113310843D01*
X169585177Y-113409782D01*
X169422933Y-113542933D01*
X169289782Y-113705177D01*
X169190843Y-113890278D01*
X169129917Y-114091124D01*
X169109345Y-114299999D01*
X169129917Y-114508875D01*
X169190843Y-114709721D01*
X169190844Y-114709722D01*
X169289783Y-114894824D01*
X169422933Y-115057067D01*
X169585176Y-115190217D01*
X169770278Y-115289156D01*
X169971126Y-115350083D01*
X170180000Y-115370655D01*
X170388874Y-115350083D01*
X170589722Y-115289156D01*
X170589725Y-115289154D01*
X170595294Y-115287465D01*
X170665161Y-115286841D01*
X170724274Y-115324088D01*
X170753865Y-115387382D01*
X170744540Y-115456627D01*
X170712450Y-115499875D01*
X170674681Y-115532572D01*
X170653046Y-115547601D01*
X170530418Y-115614704D01*
X170506506Y-115624701D01*
X170359361Y-115668820D01*
X170353945Y-115670311D01*
X170127110Y-115727266D01*
X170125771Y-115727627D01*
X170113748Y-115730945D01*
X170112374Y-115731348D01*
X170112751Y-115731244D01*
X170111450Y-115731658D01*
X170099815Y-115735440D01*
X170098494Y-115735893D01*
X169798196Y-115840739D01*
X169790258Y-115843634D01*
X169790197Y-115843656D01*
X169790129Y-115843682D01*
X169789061Y-115844087D01*
X169788245Y-115844432D01*
X169784740Y-115845879D01*
X169773726Y-115849797D01*
X169770279Y-115850842D01*
X169585177Y-115949782D01*
X169422933Y-116082933D01*
X169289782Y-116245177D01*
X169190843Y-116430278D01*
X169129917Y-116631124D01*
X169109345Y-116839999D01*
X169129917Y-117048875D01*
X169190843Y-117249721D01*
X169258901Y-117377047D01*
X169273143Y-117445449D01*
X169248143Y-117510693D01*
X169191838Y-117552064D01*
X169149543Y-117559500D01*
X168681386Y-117559500D01*
X168614347Y-117539815D01*
X168593705Y-117523181D01*
X161622819Y-110552294D01*
X161589334Y-110490971D01*
X161586500Y-110464613D01*
X161586500Y-104659522D01*
X161586572Y-104655289D01*
X161588762Y-104591174D01*
X161579035Y-104551262D01*
X161576665Y-104538794D01*
X161571070Y-104498080D01*
X161563920Y-104481620D01*
X161557180Y-104461578D01*
X161552933Y-104444148D01*
X161532792Y-104408327D01*
X161527149Y-104396964D01*
X161510780Y-104359280D01*
X161499456Y-104345360D01*
X161487559Y-104327880D01*
X161478765Y-104312240D01*
X161449713Y-104283188D01*
X161441205Y-104273761D01*
X161415277Y-104241891D01*
X161400615Y-104231541D01*
X161384444Y-104217919D01*
X155526819Y-98360294D01*
X155493334Y-98298971D01*
X155490500Y-98272613D01*
X155490500Y-96246901D01*
X155494183Y-96216905D01*
X155495615Y-96211160D01*
X155503569Y-96077593D01*
X155505808Y-96060395D01*
X155521480Y-95982865D01*
X155523637Y-95973917D01*
X155548799Y-95884341D01*
X155551669Y-95873343D01*
X155551873Y-95872497D01*
X155554328Y-95861414D01*
X155554330Y-95861400D01*
X155554369Y-95861229D01*
X155578885Y-95739935D01*
X155579251Y-95737831D01*
X155582384Y-95718834D01*
X155582684Y-95716675D01*
X155582595Y-95717212D01*
X155582817Y-95715067D01*
X155584608Y-95695965D01*
X155584757Y-95693787D01*
X155594223Y-95534522D01*
X155594616Y-95525895D01*
X155594653Y-95524719D01*
X155594650Y-95523764D01*
X155594686Y-95515686D01*
X155595375Y-95504809D01*
X155595277Y-95504005D01*
X155595278Y-95504000D01*
X155576237Y-95347182D01*
X155520220Y-95199477D01*
X155430483Y-95069470D01*
X155312240Y-94964717D01*
X155172365Y-94891304D01*
X155159032Y-94884306D01*
X155160209Y-94882062D01*
X155118425Y-94857730D01*
X155086640Y-94795509D01*
X155085390Y-94757548D01*
X155087278Y-94741999D01*
X155084965Y-94722958D01*
X155068237Y-94585182D01*
X155012220Y-94437477D01*
X154922483Y-94307470D01*
X154804240Y-94202717D01*
X154777865Y-94188874D01*
X154664364Y-94129303D01*
X154510985Y-94091500D01*
X154353015Y-94091500D01*
X154201669Y-94128802D01*
X154131867Y-94125732D01*
X154074805Y-94085412D01*
X154048600Y-94020643D01*
X154050456Y-93983837D01*
X154054286Y-93964891D01*
X154054885Y-93961934D01*
X154055251Y-93959831D01*
X154058384Y-93940834D01*
X154058684Y-93938675D01*
X154058595Y-93939212D01*
X154058817Y-93937067D01*
X154060608Y-93917965D01*
X154060757Y-93915787D01*
X154070223Y-93756522D01*
X154070616Y-93747895D01*
X154070653Y-93746719D01*
X154070650Y-93745764D01*
X154070686Y-93737686D01*
X154071375Y-93726809D01*
X154071277Y-93726005D01*
X154071278Y-93726000D01*
X154052237Y-93569182D01*
X153996220Y-93421477D01*
X153906483Y-93291470D01*
X153788240Y-93186717D01*
X153774994Y-93179764D01*
X153648364Y-93113303D01*
X153494985Y-93075500D01*
X153337015Y-93075500D01*
X153183635Y-93113303D01*
X153043761Y-93186716D01*
X152925515Y-93291471D01*
X152835780Y-93421476D01*
X152779763Y-93569181D01*
X152760721Y-93726002D01*
X152761277Y-93730579D01*
X152761239Y-93747517D01*
X152771391Y-93917965D01*
X152771576Y-93920111D01*
X152773404Y-93939212D01*
X152773665Y-93941367D01*
X152773615Y-93940834D01*
X152773953Y-93942989D01*
X152777118Y-93961953D01*
X152777529Y-93964081D01*
X152801668Y-94083410D01*
X152801669Y-94083411D01*
X152804097Y-94094380D01*
X152804298Y-94095215D01*
X152807197Y-94106333D01*
X152832368Y-94195945D01*
X152834517Y-94204858D01*
X152850190Y-94282393D01*
X152852429Y-94299589D01*
X152857798Y-94389721D01*
X152860385Y-94433159D01*
X152861917Y-94439391D01*
X152865500Y-94468986D01*
X152865500Y-99022426D01*
X152865428Y-99026659D01*
X152863237Y-99090776D01*
X152872963Y-99130683D01*
X152875334Y-99143157D01*
X152880930Y-99183872D01*
X152888079Y-99200330D01*
X152894819Y-99220371D01*
X152899067Y-99237803D01*
X152919206Y-99273622D01*
X152924852Y-99284989D01*
X152941220Y-99322670D01*
X152949009Y-99332244D01*
X152952542Y-99336587D01*
X152964437Y-99354066D01*
X152973232Y-99369707D01*
X153002285Y-99398760D01*
X153010793Y-99408187D01*
X153036721Y-99440057D01*
X153051378Y-99450403D01*
X153067552Y-99464027D01*
X158648333Y-105044808D01*
X158681818Y-105106131D01*
X158682194Y-105157057D01*
X158676522Y-105185117D01*
X158674360Y-105194083D01*
X158649196Y-105283667D01*
X158646304Y-105294761D01*
X158646295Y-105294796D01*
X158646278Y-105294866D01*
X158646083Y-105295677D01*
X158643673Y-105306568D01*
X158643667Y-105306594D01*
X158643633Y-105306750D01*
X158619114Y-105428065D01*
X158618743Y-105430189D01*
X158615615Y-105449164D01*
X158615317Y-105451308D01*
X158615404Y-105450786D01*
X158615182Y-105452931D01*
X158613391Y-105472033D01*
X158613242Y-105474211D01*
X158603776Y-105633477D01*
X158603383Y-105642104D01*
X158603346Y-105643280D01*
X158603349Y-105644235D01*
X158603313Y-105652321D01*
X158602624Y-105663195D01*
X158621763Y-105820818D01*
X158677780Y-105968523D01*
X158767515Y-106098528D01*
X158767516Y-106098529D01*
X158767517Y-106098530D01*
X158885760Y-106203283D01*
X159025635Y-106276696D01*
X159179015Y-106314500D01*
X159336985Y-106314500D01*
X159490365Y-106276696D01*
X159541873Y-106249661D01*
X159610381Y-106235936D01*
X159675435Y-106261428D01*
X159716380Y-106318043D01*
X159723500Y-106359458D01*
X159723500Y-111494476D01*
X159723428Y-111498709D01*
X159721237Y-111562826D01*
X159730963Y-111602733D01*
X159733334Y-111615207D01*
X159738930Y-111655922D01*
X159746079Y-111672380D01*
X159752819Y-111692421D01*
X159757067Y-111709853D01*
X159777206Y-111745672D01*
X159782852Y-111757039D01*
X159799220Y-111794720D01*
X159807009Y-111804294D01*
X159810542Y-111808637D01*
X159822437Y-111826116D01*
X159831232Y-111841757D01*
X159860285Y-111870810D01*
X159868793Y-111880237D01*
X159894721Y-111912107D01*
X159909378Y-111922453D01*
X159925552Y-111936077D01*
X169020592Y-121031117D01*
X169023534Y-121034161D01*
X169067320Y-121081044D01*
X169102434Y-121102397D01*
X169112914Y-121109530D01*
X169145658Y-121134361D01*
X169162354Y-121140945D01*
X169181281Y-121150345D01*
X169196618Y-121159672D01*
X169205888Y-121162269D01*
X169265129Y-121199308D01*
X169294943Y-121262498D01*
X169285861Y-121331775D01*
X169281793Y-121340124D01*
X169190842Y-121510282D01*
X169129917Y-121711124D01*
X169109345Y-121919999D01*
X169129917Y-122128875D01*
X169190843Y-122329721D01*
X169215822Y-122376453D01*
X169289783Y-122514824D01*
X169422933Y-122677067D01*
X169585176Y-122810217D01*
X169770278Y-122909156D01*
X169971126Y-122970083D01*
X170180000Y-122990655D01*
X170388874Y-122970083D01*
X170589722Y-122909156D01*
X170774824Y-122810217D01*
X170937067Y-122677067D01*
X171070217Y-122514824D01*
X171169156Y-122329722D01*
X171230083Y-122128874D01*
X171250655Y-121920000D01*
X171230083Y-121711126D01*
X171169156Y-121510278D01*
X171101098Y-121382950D01*
X171086857Y-121314551D01*
X171111857Y-121249307D01*
X171168162Y-121207936D01*
X171210457Y-121200500D01*
X171689543Y-121200500D01*
X171756582Y-121220185D01*
X171802337Y-121272989D01*
X171812281Y-121342147D01*
X171798901Y-121382953D01*
X171730843Y-121510278D01*
X171669917Y-121711124D01*
X171649345Y-121919999D01*
X171669917Y-122128875D01*
X171730843Y-122329721D01*
X171755822Y-122376453D01*
X171829783Y-122514824D01*
X171962933Y-122677067D01*
X172125176Y-122810217D01*
X172310278Y-122909156D01*
X172511126Y-122970083D01*
X172720000Y-122990655D01*
X172928874Y-122970083D01*
X173129722Y-122909156D01*
X173314824Y-122810217D01*
X173477067Y-122677067D01*
X173610217Y-122514824D01*
X173709156Y-122329722D01*
X173770083Y-122128874D01*
X173790655Y-121920000D01*
X173770083Y-121711126D01*
X173709156Y-121510278D01*
X173709156Y-121510277D01*
X173619496Y-121342535D01*
X173605254Y-121274132D01*
X173630254Y-121208888D01*
X173672449Y-121177884D01*
X173670990Y-121175289D01*
X173685848Y-121166933D01*
X173685852Y-121166933D01*
X173721695Y-121146778D01*
X173733015Y-121141157D01*
X173770720Y-121124780D01*
X173784635Y-121113458D01*
X173802111Y-121101563D01*
X173817759Y-121092766D01*
X173846813Y-121063710D01*
X173856230Y-121055211D01*
X173888108Y-121029278D01*
X173898461Y-121014610D01*
X173912073Y-120998450D01*
X174794321Y-120116202D01*
X174855642Y-120082719D01*
X174925334Y-120087703D01*
X174981267Y-120129575D01*
X175005684Y-120195039D01*
X175006000Y-120203885D01*
X175006000Y-125606000D01*
X174986315Y-125673039D01*
X174933511Y-125718794D01*
X174882000Y-125730000D01*
X173039844Y-125730000D01*
X172972805Y-125710315D01*
X172927050Y-125657511D01*
X172917106Y-125588353D01*
X172946131Y-125524797D01*
X173003848Y-125487340D01*
X173063471Y-125469252D01*
X173129722Y-125449156D01*
X173314824Y-125350217D01*
X173477067Y-125217067D01*
X173610217Y-125054824D01*
X173709156Y-124869722D01*
X173770083Y-124668874D01*
X173790655Y-124460000D01*
X173770083Y-124251126D01*
X173709156Y-124050278D01*
X173610217Y-123865176D01*
X173477067Y-123702933D01*
X173314824Y-123569783D01*
X173279977Y-123551157D01*
X173129721Y-123470843D01*
X172928875Y-123409917D01*
X172720000Y-123389345D01*
X172511124Y-123409917D01*
X172310278Y-123470843D01*
X172125177Y-123569782D01*
X171962933Y-123702933D01*
X171829782Y-123865177D01*
X171730843Y-124050278D01*
X171669917Y-124251124D01*
X171649345Y-124460000D01*
X171669917Y-124668875D01*
X171730843Y-124869721D01*
X171730844Y-124869722D01*
X171829783Y-125054824D01*
X171962933Y-125217067D01*
X172125176Y-125350217D01*
X172310278Y-125449156D01*
X172436152Y-125487340D01*
X172494590Y-125525637D01*
X172523047Y-125589450D01*
X172512486Y-125658517D01*
X172466261Y-125710910D01*
X172400156Y-125730000D01*
X170499844Y-125730000D01*
X170432805Y-125710315D01*
X170387050Y-125657511D01*
X170377106Y-125588353D01*
X170406131Y-125524797D01*
X170463848Y-125487340D01*
X170523471Y-125469252D01*
X170589722Y-125449156D01*
X170774824Y-125350217D01*
X170937067Y-125217067D01*
X171070217Y-125054824D01*
X171169156Y-124869722D01*
X171230083Y-124668874D01*
X171250655Y-124460000D01*
X171230083Y-124251126D01*
X171169156Y-124050278D01*
X171070217Y-123865176D01*
X170937067Y-123702933D01*
X170774824Y-123569783D01*
X170739977Y-123551157D01*
X170589721Y-123470843D01*
X170388875Y-123409917D01*
X170284436Y-123399631D01*
X170180000Y-123389345D01*
X170179999Y-123389345D01*
X169971124Y-123409917D01*
X169770278Y-123470843D01*
X169585177Y-123569782D01*
X169422933Y-123702933D01*
X169289782Y-123865177D01*
X169190843Y-124050278D01*
X169129917Y-124251124D01*
X169109345Y-124459999D01*
X169129917Y-124668875D01*
X169190843Y-124869721D01*
X169190844Y-124869722D01*
X169289783Y-125054824D01*
X169422933Y-125217067D01*
X169585176Y-125350217D01*
X169770277Y-125449155D01*
X169770278Y-125449156D01*
X169896152Y-125487340D01*
X169954590Y-125525637D01*
X169983047Y-125589450D01*
X169972486Y-125658517D01*
X169926261Y-125710910D01*
X169860156Y-125730000D01*
X152461886Y-125730000D01*
X152394847Y-125710315D01*
X152349092Y-125657511D01*
X152339148Y-125588353D01*
X152368173Y-125524797D01*
X152374205Y-125518319D01*
X152837702Y-125054822D01*
X153533957Y-124358566D01*
X153557770Y-124339962D01*
X153562843Y-124336914D01*
X153562845Y-124336912D01*
X153562847Y-124336911D01*
X153597991Y-124305716D01*
X153662916Y-124248089D01*
X153676641Y-124237525D01*
X153742571Y-124193767D01*
X153750395Y-124188983D01*
X153831543Y-124143428D01*
X153841434Y-124137629D01*
X153842176Y-124137175D01*
X153851670Y-124131123D01*
X153851695Y-124131105D01*
X153851831Y-124131020D01*
X153938764Y-124073317D01*
X153954910Y-124062602D01*
X153954927Y-124062590D01*
X153956683Y-124061357D01*
X153972274Y-124050182D01*
X153974007Y-124048873D01*
X153973571Y-124049184D01*
X153975257Y-124047815D01*
X153990064Y-124035547D01*
X153991695Y-124034124D01*
X154111022Y-123928187D01*
X154117563Y-123922213D01*
X154118373Y-123921450D01*
X154119048Y-123920771D01*
X154133590Y-123906375D01*
X154148465Y-123889175D01*
X154160483Y-123878530D01*
X154250220Y-123748523D01*
X154306237Y-123600818D01*
X154325278Y-123444000D01*
X154306237Y-123287182D01*
X154250220Y-123139477D01*
X154166236Y-123017805D01*
X154160484Y-123009471D01*
X154153147Y-123002971D01*
X154042240Y-122904717D01*
X154028994Y-122897765D01*
X153902364Y-122831303D01*
X153748985Y-122793500D01*
X153591015Y-122793500D01*
X153437633Y-122831303D01*
X153297760Y-122904716D01*
X153197200Y-122993803D01*
X153191012Y-122998937D01*
X153185181Y-123003463D01*
X153179243Y-123009396D01*
X153172650Y-123017802D01*
X153078444Y-123123940D01*
X153078391Y-123124003D01*
X153077034Y-123125615D01*
X153064770Y-123140482D01*
X153063437Y-123142184D01*
X153063787Y-123141760D01*
X153062497Y-123143530D01*
X153051402Y-123159079D01*
X153050203Y-123160853D01*
X152982864Y-123262345D01*
X152976901Y-123271696D01*
X152976876Y-123271738D01*
X152976817Y-123271831D01*
X152976385Y-123272537D01*
X152970580Y-123282435D01*
X152925002Y-123363618D01*
X152920211Y-123371452D01*
X152876477Y-123437344D01*
X152865904Y-123451083D01*
X152777084Y-123551157D01*
X152773753Y-123556658D01*
X152755367Y-123580106D01*
X151446294Y-124889181D01*
X151384971Y-124922666D01*
X151358613Y-124925500D01*
X135661387Y-124925500D01*
X135594348Y-124905815D01*
X135573706Y-124889181D01*
X132452819Y-121768294D01*
X132419334Y-121706971D01*
X132416500Y-121680613D01*
X132416500Y-121079999D01*
X132421059Y-121046686D01*
X132421273Y-121045917D01*
X132433676Y-120904000D01*
X132451968Y-120694695D01*
X132458520Y-120664357D01*
X132523140Y-120480619D01*
X132535289Y-120455522D01*
X132652071Y-120270713D01*
X132653754Y-120268125D01*
X132827410Y-120008099D01*
X132828443Y-120006472D01*
X132837401Y-119992089D01*
X132838375Y-119990445D01*
X132838129Y-119990838D01*
X132839047Y-119989172D01*
X132847142Y-119974183D01*
X132848023Y-119972460D01*
X132966628Y-119736033D01*
X132969862Y-119729587D01*
X132972546Y-119725093D01*
X132974830Y-119720192D01*
X132974835Y-119720186D01*
X132977456Y-119714563D01*
X132978978Y-119711420D01*
X133034206Y-119601349D01*
X133038963Y-119591420D01*
X133038987Y-119591370D01*
X133039334Y-119590611D01*
X133039701Y-119589741D01*
X133040046Y-119588958D01*
X133048073Y-119569933D01*
X133055119Y-119548014D01*
X133069156Y-119517913D01*
X133126920Y-119302334D01*
X133146372Y-119080000D01*
X135685966Y-119080000D01*
X135706057Y-119296831D01*
X135765651Y-119506278D01*
X135862712Y-119701204D01*
X135874987Y-119717459D01*
X136263452Y-119328993D01*
X136273188Y-119358956D01*
X136361186Y-119497619D01*
X136480903Y-119610040D01*
X136615510Y-119684041D01*
X136230831Y-120068719D01*
X136340013Y-120136322D01*
X136543068Y-120214986D01*
X136757122Y-120255000D01*
X136974878Y-120255000D01*
X137188931Y-120214986D01*
X137391988Y-120136322D01*
X137501166Y-120068720D01*
X137501166Y-120068719D01*
X137113534Y-119681086D01*
X137181629Y-119654126D01*
X137314492Y-119557595D01*
X137419175Y-119431055D01*
X137467631Y-119328079D01*
X137857011Y-119717459D01*
X137857012Y-119717459D01*
X137869285Y-119701208D01*
X137966348Y-119506278D01*
X138025942Y-119296831D01*
X138046033Y-119080000D01*
X138025942Y-118863168D01*
X137966348Y-118653721D01*
X137869287Y-118458794D01*
X137857011Y-118442539D01*
X137468546Y-118831004D01*
X137458812Y-118801044D01*
X137370814Y-118662381D01*
X137251097Y-118549960D01*
X137116489Y-118475958D01*
X137501167Y-118091279D01*
X137391986Y-118023677D01*
X137188931Y-117945013D01*
X136974878Y-117905000D01*
X136757122Y-117905000D01*
X136543068Y-117945013D01*
X136340010Y-118023678D01*
X136230832Y-118091278D01*
X136230831Y-118091279D01*
X136618465Y-118478913D01*
X136550371Y-118505874D01*
X136417508Y-118602405D01*
X136312825Y-118728945D01*
X136264368Y-118831920D01*
X135874987Y-118442539D01*
X135862712Y-118458794D01*
X135765651Y-118653721D01*
X135706057Y-118863168D01*
X135685966Y-119080000D01*
X133146372Y-119080000D01*
X133126920Y-118857666D01*
X133069156Y-118642087D01*
X132974835Y-118439814D01*
X132846822Y-118256993D01*
X132689007Y-118099178D01*
X132506186Y-117971165D01*
X132390661Y-117917295D01*
X132303914Y-117876844D01*
X132088331Y-117819079D01*
X131866000Y-117799627D01*
X131643668Y-117819079D01*
X131428085Y-117876844D01*
X131281897Y-117945013D01*
X131225814Y-117971165D01*
X131054274Y-118091279D01*
X131042989Y-118099181D01*
X130885181Y-118256989D01*
X130885178Y-118256992D01*
X130885178Y-118256993D01*
X130791455Y-118390844D01*
X130757164Y-118439816D01*
X130662844Y-118642085D01*
X130605079Y-118857668D01*
X130585627Y-119080000D01*
X130605079Y-119302331D01*
X130605080Y-119302334D01*
X130662844Y-119517913D01*
X130681348Y-119557595D01*
X130687314Y-119570389D01*
X130694092Y-119588492D01*
X130697792Y-119601347D01*
X130753029Y-119711441D01*
X130754574Y-119714633D01*
X130759430Y-119725045D01*
X130762107Y-119729533D01*
X130884856Y-119974183D01*
X130885752Y-119975868D01*
X130893869Y-119990838D01*
X130894832Y-119992524D01*
X130894597Y-119992089D01*
X130895600Y-119993725D01*
X130904588Y-120008099D01*
X130905638Y-120009699D01*
X131078242Y-120268125D01*
X131079948Y-120270751D01*
X131196707Y-120455522D01*
X131208858Y-120480622D01*
X131273477Y-120664357D01*
X131280030Y-120694701D01*
X131310726Y-121045917D01*
X131311275Y-121047966D01*
X131315500Y-121080058D01*
X131315500Y-121948476D01*
X131315428Y-121952709D01*
X131313237Y-122016826D01*
X131322963Y-122056733D01*
X131325334Y-122069207D01*
X131330930Y-122109922D01*
X131338079Y-122126380D01*
X131344819Y-122146421D01*
X131349067Y-122163853D01*
X131369206Y-122199672D01*
X131374852Y-122211039D01*
X131391220Y-122248720D01*
X131399009Y-122258294D01*
X131402542Y-122262637D01*
X131414437Y-122280116D01*
X131423232Y-122295757D01*
X131452285Y-122324810D01*
X131460793Y-122334237D01*
X131486721Y-122366107D01*
X131501378Y-122376453D01*
X131517552Y-122390077D01*
X134645794Y-125518319D01*
X134679279Y-125579642D01*
X134674295Y-125649334D01*
X134632423Y-125705267D01*
X134566959Y-125729684D01*
X134558113Y-125730000D01*
X112079844Y-125730000D01*
X112012805Y-125710315D01*
X111967050Y-125657511D01*
X111957106Y-125588353D01*
X111986131Y-125524797D01*
X112043848Y-125487340D01*
X112103471Y-125469252D01*
X112169722Y-125449156D01*
X112354824Y-125350217D01*
X112517067Y-125217067D01*
X112650217Y-125054824D01*
X112749156Y-124869722D01*
X112810083Y-124668874D01*
X112830655Y-124460000D01*
X112810083Y-124251126D01*
X112749156Y-124050278D01*
X112650217Y-123865176D01*
X112517067Y-123702933D01*
X112354824Y-123569783D01*
X112319977Y-123551157D01*
X112169721Y-123470843D01*
X111968875Y-123409917D01*
X111760000Y-123389345D01*
X111551124Y-123409917D01*
X111350278Y-123470843D01*
X111165177Y-123569782D01*
X111002933Y-123702933D01*
X110869782Y-123865177D01*
X110770843Y-124050278D01*
X110709917Y-124251124D01*
X110689345Y-124460000D01*
X110709917Y-124668875D01*
X110770843Y-124869721D01*
X110770844Y-124869722D01*
X110869783Y-125054824D01*
X111002933Y-125217067D01*
X111165176Y-125350217D01*
X111350278Y-125449155D01*
X111350278Y-125449156D01*
X111476152Y-125487340D01*
X111534590Y-125525637D01*
X111563047Y-125589450D01*
X111552486Y-125658517D01*
X111506261Y-125710910D01*
X111440156Y-125730000D01*
X109539844Y-125730000D01*
X109472805Y-125710315D01*
X109427050Y-125657511D01*
X109417106Y-125588353D01*
X109446131Y-125524797D01*
X109503848Y-125487340D01*
X109563471Y-125469252D01*
X109629722Y-125449156D01*
X109814824Y-125350217D01*
X109977067Y-125217067D01*
X110110217Y-125054824D01*
X110209156Y-124869722D01*
X110270083Y-124668874D01*
X110290655Y-124460000D01*
X110270083Y-124251126D01*
X110209156Y-124050278D01*
X110110217Y-123865176D01*
X109977067Y-123702933D01*
X109814824Y-123569783D01*
X109779977Y-123551157D01*
X109629721Y-123470843D01*
X109428875Y-123409917D01*
X109324436Y-123399631D01*
X109220000Y-123389345D01*
X109219999Y-123389345D01*
X109011124Y-123409917D01*
X108810278Y-123470843D01*
X108625177Y-123569782D01*
X108462933Y-123702933D01*
X108329782Y-123865177D01*
X108230843Y-124050278D01*
X108169917Y-124251124D01*
X108149345Y-124459999D01*
X108169917Y-124668875D01*
X108230843Y-124869721D01*
X108230844Y-124869722D01*
X108329783Y-125054824D01*
X108462933Y-125217067D01*
X108625176Y-125350217D01*
X108810277Y-125449155D01*
X108810278Y-125449156D01*
X108936152Y-125487340D01*
X108994590Y-125525637D01*
X109023047Y-125589450D01*
X109012486Y-125658517D01*
X108966261Y-125710910D01*
X108900156Y-125730000D01*
X107058000Y-125730000D01*
X106990961Y-125710315D01*
X106945206Y-125657511D01*
X106934000Y-125606000D01*
X106934000Y-121920000D01*
X108149345Y-121920000D01*
X108169917Y-122128875D01*
X108230843Y-122329721D01*
X108255822Y-122376453D01*
X108329783Y-122514824D01*
X108462933Y-122677067D01*
X108625176Y-122810217D01*
X108810278Y-122909156D01*
X109011126Y-122970083D01*
X109220000Y-122990655D01*
X109428874Y-122970083D01*
X109629722Y-122909156D01*
X109814824Y-122810217D01*
X109977067Y-122677067D01*
X110110217Y-122514824D01*
X110209156Y-122329722D01*
X110270083Y-122128874D01*
X110290655Y-121920000D01*
X110689345Y-121920000D01*
X110709917Y-122128875D01*
X110770843Y-122329721D01*
X110795822Y-122376453D01*
X110869783Y-122514824D01*
X111002933Y-122677067D01*
X111165176Y-122810217D01*
X111350278Y-122909156D01*
X111551126Y-122970083D01*
X111760000Y-122990655D01*
X111968874Y-122970083D01*
X112169722Y-122909156D01*
X112354824Y-122810217D01*
X112517067Y-122677067D01*
X112650217Y-122514824D01*
X112749156Y-122329722D01*
X112810083Y-122128874D01*
X112830655Y-121920000D01*
X112810083Y-121711126D01*
X112749156Y-121510278D01*
X112650217Y-121325176D01*
X112517067Y-121162933D01*
X112354824Y-121029783D01*
X112296193Y-120998444D01*
X112169721Y-120930843D01*
X111968875Y-120869917D01*
X111760000Y-120849345D01*
X111551124Y-120869917D01*
X111350278Y-120930843D01*
X111165177Y-121029782D01*
X111002933Y-121162933D01*
X110869782Y-121325177D01*
X110770843Y-121510278D01*
X110709917Y-121711124D01*
X110689345Y-121920000D01*
X110290655Y-121920000D01*
X110270083Y-121711126D01*
X110209156Y-121510278D01*
X110110217Y-121325176D01*
X109977067Y-121162933D01*
X109814824Y-121029783D01*
X109756193Y-120998444D01*
X109629721Y-120930843D01*
X109428875Y-120869917D01*
X109324437Y-120859631D01*
X109220000Y-120849345D01*
X109219999Y-120849345D01*
X109011124Y-120869917D01*
X108810278Y-120930843D01*
X108625177Y-121029782D01*
X108462933Y-121162933D01*
X108329782Y-121325177D01*
X108230843Y-121510278D01*
X108169917Y-121711124D01*
X108149345Y-121920000D01*
X106934000Y-121920000D01*
X106934000Y-119380000D01*
X108149345Y-119380000D01*
X108169917Y-119588875D01*
X108230843Y-119789721D01*
X108317006Y-119950919D01*
X108329783Y-119974824D01*
X108462933Y-120137067D01*
X108625176Y-120270217D01*
X108810278Y-120369156D01*
X109011126Y-120430083D01*
X109220000Y-120450655D01*
X109428874Y-120430083D01*
X109629722Y-120369156D01*
X109814824Y-120270217D01*
X109977067Y-120137067D01*
X110110217Y-119974824D01*
X110209156Y-119789722D01*
X110270083Y-119588874D01*
X110290655Y-119380000D01*
X110290655Y-119379999D01*
X110689345Y-119379999D01*
X110709917Y-119588875D01*
X110770843Y-119789721D01*
X110857006Y-119950919D01*
X110869783Y-119974824D01*
X111002933Y-120137067D01*
X111165176Y-120270217D01*
X111350278Y-120369156D01*
X111551126Y-120430083D01*
X111760000Y-120450655D01*
X111968874Y-120430083D01*
X112169722Y-120369156D01*
X112354824Y-120270217D01*
X112517067Y-120137067D01*
X112650217Y-119974824D01*
X112749156Y-119789722D01*
X112810083Y-119588874D01*
X112830655Y-119380000D01*
X112810083Y-119171126D01*
X112749156Y-118970278D01*
X112650217Y-118785176D01*
X112517067Y-118622933D01*
X112354824Y-118489783D01*
X112266437Y-118442539D01*
X112169721Y-118390843D01*
X111968875Y-118329917D01*
X111760000Y-118309345D01*
X111551124Y-118329917D01*
X111350278Y-118390843D01*
X111165177Y-118489782D01*
X111002933Y-118622933D01*
X110869782Y-118785177D01*
X110770843Y-118970278D01*
X110709917Y-119171124D01*
X110689345Y-119379999D01*
X110290655Y-119379999D01*
X110270083Y-119171126D01*
X110209156Y-118970278D01*
X110110217Y-118785176D01*
X109977067Y-118622933D01*
X109814824Y-118489783D01*
X109726437Y-118442539D01*
X109629721Y-118390843D01*
X109428875Y-118329917D01*
X109220000Y-118309345D01*
X109011124Y-118329917D01*
X108810278Y-118390843D01*
X108625177Y-118489782D01*
X108462933Y-118622933D01*
X108329782Y-118785177D01*
X108230843Y-118970278D01*
X108169917Y-119171124D01*
X108149345Y-119380000D01*
X106934000Y-119380000D01*
X106934000Y-116839999D01*
X108149345Y-116839999D01*
X108169917Y-117048875D01*
X108230843Y-117249721D01*
X108317006Y-117410919D01*
X108329783Y-117434824D01*
X108462933Y-117597067D01*
X108625176Y-117730217D01*
X108810278Y-117829156D01*
X109011126Y-117890083D01*
X109220000Y-117910655D01*
X109428874Y-117890083D01*
X109629722Y-117829156D01*
X109814824Y-117730217D01*
X109977067Y-117597067D01*
X110110217Y-117434824D01*
X110209156Y-117249722D01*
X110270083Y-117048874D01*
X110290655Y-116840000D01*
X110290655Y-116839999D01*
X110689345Y-116839999D01*
X110709917Y-117048875D01*
X110770843Y-117249721D01*
X110857005Y-117410919D01*
X110869783Y-117434824D01*
X111002933Y-117597067D01*
X111165176Y-117730217D01*
X111350278Y-117829156D01*
X111551126Y-117890083D01*
X111760000Y-117910655D01*
X111968874Y-117890083D01*
X112169722Y-117829156D01*
X112354824Y-117730217D01*
X112517067Y-117597067D01*
X112650217Y-117434824D01*
X112749156Y-117249722D01*
X112810083Y-117048874D01*
X112830655Y-116840000D01*
X112810083Y-116631126D01*
X112749156Y-116430278D01*
X112650217Y-116245176D01*
X112517067Y-116082933D01*
X112354824Y-115949783D01*
X112300376Y-115920680D01*
X112169721Y-115850843D01*
X111968875Y-115789917D01*
X111760000Y-115769345D01*
X111551124Y-115789917D01*
X111350278Y-115850843D01*
X111165177Y-115949782D01*
X111002933Y-116082933D01*
X110869782Y-116245177D01*
X110770843Y-116430278D01*
X110709917Y-116631124D01*
X110689345Y-116839999D01*
X110290655Y-116839999D01*
X110270083Y-116631126D01*
X110209156Y-116430278D01*
X110110217Y-116245176D01*
X109977067Y-116082933D01*
X109814824Y-115949783D01*
X109760376Y-115920680D01*
X109629721Y-115850843D01*
X109428875Y-115789917D01*
X109220000Y-115769345D01*
X109011124Y-115789917D01*
X108810278Y-115850843D01*
X108625177Y-115949782D01*
X108462933Y-116082933D01*
X108329782Y-116245177D01*
X108230843Y-116430278D01*
X108169917Y-116631124D01*
X108149345Y-116839999D01*
X106934000Y-116839999D01*
X106934000Y-114300000D01*
X108149345Y-114300000D01*
X108169917Y-114508875D01*
X108230843Y-114709721D01*
X108230844Y-114709722D01*
X108329783Y-114894824D01*
X108462933Y-115057067D01*
X108625176Y-115190217D01*
X108810278Y-115289156D01*
X109011126Y-115350083D01*
X109220000Y-115370655D01*
X109428874Y-115350083D01*
X109629722Y-115289156D01*
X109814824Y-115190217D01*
X109977067Y-115057067D01*
X110110217Y-114894824D01*
X110209156Y-114709722D01*
X110270083Y-114508874D01*
X110290655Y-114300000D01*
X110689345Y-114300000D01*
X110709917Y-114508875D01*
X110770843Y-114709721D01*
X110770844Y-114709722D01*
X110869783Y-114894824D01*
X111002933Y-115057067D01*
X111165176Y-115190217D01*
X111350278Y-115289156D01*
X111551126Y-115350083D01*
X111760000Y-115370655D01*
X111968874Y-115350083D01*
X112169722Y-115289156D01*
X112354824Y-115190217D01*
X112517067Y-115057067D01*
X112650217Y-114894824D01*
X112749156Y-114709722D01*
X112810083Y-114508874D01*
X112830655Y-114300000D01*
X112810083Y-114091126D01*
X112749156Y-113890278D01*
X112650217Y-113705176D01*
X112517067Y-113542933D01*
X112354824Y-113409783D01*
X112313598Y-113387747D01*
X112169721Y-113310843D01*
X111968875Y-113249917D01*
X111760000Y-113229345D01*
X111551124Y-113249917D01*
X111350278Y-113310843D01*
X111165177Y-113409782D01*
X111002933Y-113542933D01*
X110869782Y-113705177D01*
X110770843Y-113890278D01*
X110709917Y-114091124D01*
X110689345Y-114300000D01*
X110290655Y-114300000D01*
X110270083Y-114091126D01*
X110209156Y-113890278D01*
X110110217Y-113705176D01*
X109977067Y-113542933D01*
X109814824Y-113409783D01*
X109773598Y-113387747D01*
X109629721Y-113310843D01*
X109428875Y-113249917D01*
X109324437Y-113239631D01*
X109220000Y-113229345D01*
X109219999Y-113229345D01*
X109011124Y-113249917D01*
X108810278Y-113310843D01*
X108625177Y-113409782D01*
X108462933Y-113542933D01*
X108329782Y-113705177D01*
X108230843Y-113890278D01*
X108169917Y-114091124D01*
X108149345Y-114300000D01*
X106934000Y-114300000D01*
X106934000Y-111760000D01*
X108149345Y-111760000D01*
X108169917Y-111968875D01*
X108230843Y-112169721D01*
X108264692Y-112233047D01*
X108329783Y-112354824D01*
X108462933Y-112517067D01*
X108625176Y-112650217D01*
X108810278Y-112749156D01*
X109011126Y-112810083D01*
X109220000Y-112830655D01*
X109428874Y-112810083D01*
X109629722Y-112749156D01*
X109814824Y-112650217D01*
X109977067Y-112517067D01*
X110110217Y-112354824D01*
X110209156Y-112169722D01*
X110270083Y-111968874D01*
X110290655Y-111760000D01*
X110689345Y-111760000D01*
X110709917Y-111968875D01*
X110770843Y-112169721D01*
X110804692Y-112233047D01*
X110869783Y-112354824D01*
X111002933Y-112517067D01*
X111165176Y-112650217D01*
X111350278Y-112749156D01*
X111551126Y-112810083D01*
X111760000Y-112830655D01*
X111968874Y-112810083D01*
X112169722Y-112749156D01*
X112354824Y-112650217D01*
X112517067Y-112517067D01*
X112650217Y-112354824D01*
X112749156Y-112169722D01*
X112810083Y-111968874D01*
X112830655Y-111760000D01*
X112810083Y-111551126D01*
X112749156Y-111350278D01*
X112650217Y-111165176D01*
X112517067Y-111002933D01*
X112354824Y-110869783D01*
X112276919Y-110828142D01*
X112169721Y-110770843D01*
X111968875Y-110709917D01*
X111760000Y-110689345D01*
X111551124Y-110709917D01*
X111350278Y-110770843D01*
X111165177Y-110869782D01*
X111002933Y-111002933D01*
X110869782Y-111165177D01*
X110770843Y-111350278D01*
X110709917Y-111551124D01*
X110689345Y-111760000D01*
X110290655Y-111760000D01*
X110270083Y-111551126D01*
X110209156Y-111350278D01*
X110110217Y-111165176D01*
X109977067Y-111002933D01*
X109814824Y-110869783D01*
X109736919Y-110828142D01*
X109629721Y-110770843D01*
X109428875Y-110709917D01*
X109324436Y-110699631D01*
X109220000Y-110689345D01*
X109219999Y-110689345D01*
X109011124Y-110709917D01*
X108810278Y-110770843D01*
X108625177Y-110869782D01*
X108462933Y-111002933D01*
X108329782Y-111165177D01*
X108230843Y-111350278D01*
X108169917Y-111551124D01*
X108149345Y-111760000D01*
X106934000Y-111760000D01*
X106934000Y-109219999D01*
X108149345Y-109219999D01*
X108169917Y-109428875D01*
X108230843Y-109629721D01*
X108230844Y-109629722D01*
X108329783Y-109814824D01*
X108462933Y-109977067D01*
X108625176Y-110110217D01*
X108810278Y-110209156D01*
X109011126Y-110270083D01*
X109220000Y-110290655D01*
X109428874Y-110270083D01*
X109629722Y-110209156D01*
X109814824Y-110110217D01*
X109977067Y-109977067D01*
X110110217Y-109814824D01*
X110209156Y-109629722D01*
X110270083Y-109428874D01*
X110290655Y-109220000D01*
X110290655Y-109219999D01*
X110689345Y-109219999D01*
X110709917Y-109428875D01*
X110770843Y-109629721D01*
X110770844Y-109629722D01*
X110869783Y-109814824D01*
X111002933Y-109977067D01*
X111165176Y-110110217D01*
X111350278Y-110209156D01*
X111551126Y-110270083D01*
X111760000Y-110290655D01*
X111968874Y-110270083D01*
X112169722Y-110209156D01*
X112354824Y-110110217D01*
X112517067Y-109977067D01*
X112650217Y-109814824D01*
X112749156Y-109629722D01*
X112810083Y-109428874D01*
X112830655Y-109220000D01*
X112810083Y-109011126D01*
X112749156Y-108810278D01*
X112650217Y-108625176D01*
X112517067Y-108462933D01*
X112354824Y-108329783D01*
X112217873Y-108256581D01*
X112169721Y-108230843D01*
X111968875Y-108169917D01*
X111760000Y-108149345D01*
X111551124Y-108169917D01*
X111350278Y-108230843D01*
X111165177Y-108329782D01*
X111002933Y-108462933D01*
X110869782Y-108625177D01*
X110770843Y-108810278D01*
X110709917Y-109011124D01*
X110689345Y-109219999D01*
X110290655Y-109219999D01*
X110270083Y-109011126D01*
X110209156Y-108810278D01*
X110110217Y-108625176D01*
X109977067Y-108462933D01*
X109814824Y-108329783D01*
X109677873Y-108256581D01*
X109629721Y-108230843D01*
X109428875Y-108169917D01*
X109324437Y-108159631D01*
X109220000Y-108149345D01*
X109219999Y-108149345D01*
X109011124Y-108169917D01*
X108810278Y-108230843D01*
X108625177Y-108329782D01*
X108462933Y-108462933D01*
X108329782Y-108625177D01*
X108230843Y-108810278D01*
X108169917Y-109011124D01*
X108149345Y-109219999D01*
X106934000Y-109219999D01*
X106934000Y-106680000D01*
X108149345Y-106680000D01*
X108169917Y-106888875D01*
X108230843Y-107089721D01*
X108230844Y-107089722D01*
X108329783Y-107274824D01*
X108462933Y-107437067D01*
X108625176Y-107570217D01*
X108810278Y-107669156D01*
X109011126Y-107730083D01*
X109220000Y-107750655D01*
X109428874Y-107730083D01*
X109629722Y-107669156D01*
X109814824Y-107570217D01*
X109977067Y-107437067D01*
X110110217Y-107274824D01*
X110209156Y-107089722D01*
X110270083Y-106888874D01*
X110290655Y-106680000D01*
X110689345Y-106680000D01*
X110709917Y-106888875D01*
X110770843Y-107089721D01*
X110770844Y-107089722D01*
X110869783Y-107274824D01*
X111002933Y-107437067D01*
X111165176Y-107570217D01*
X111350278Y-107669156D01*
X111551126Y-107730083D01*
X111760000Y-107750655D01*
X111968874Y-107730083D01*
X112169722Y-107669156D01*
X112354824Y-107570217D01*
X112517067Y-107437067D01*
X112650217Y-107274824D01*
X112749156Y-107089722D01*
X112810083Y-106888874D01*
X112830655Y-106680000D01*
X112810083Y-106471126D01*
X112749156Y-106270278D01*
X112650217Y-106085176D01*
X112517067Y-105922933D01*
X112354824Y-105789783D01*
X112217873Y-105716581D01*
X112169721Y-105690843D01*
X111968875Y-105629917D01*
X111760000Y-105609345D01*
X111551124Y-105629917D01*
X111350278Y-105690843D01*
X111165177Y-105789782D01*
X111002933Y-105922933D01*
X110869782Y-106085177D01*
X110770843Y-106270278D01*
X110709917Y-106471124D01*
X110689345Y-106680000D01*
X110290655Y-106680000D01*
X110270083Y-106471126D01*
X110209156Y-106270278D01*
X110110217Y-106085176D01*
X109977067Y-105922933D01*
X109814824Y-105789783D01*
X109677873Y-105716581D01*
X109629721Y-105690843D01*
X109428875Y-105629917D01*
X109324436Y-105619631D01*
X109220000Y-105609345D01*
X109219999Y-105609345D01*
X109011124Y-105629917D01*
X108810278Y-105690843D01*
X108625177Y-105789782D01*
X108462933Y-105922933D01*
X108329782Y-106085177D01*
X108230843Y-106270278D01*
X108169917Y-106471124D01*
X108149345Y-106680000D01*
X106934000Y-106680000D01*
X106934000Y-104139999D01*
X108149345Y-104139999D01*
X108169917Y-104348875D01*
X108230843Y-104549721D01*
X108287271Y-104655289D01*
X108329783Y-104734824D01*
X108462933Y-104897067D01*
X108625176Y-105030217D01*
X108810278Y-105129156D01*
X109011126Y-105190083D01*
X109220000Y-105210655D01*
X109428874Y-105190083D01*
X109629722Y-105129156D01*
X109814824Y-105030217D01*
X109977067Y-104897067D01*
X110110217Y-104734824D01*
X110209156Y-104549722D01*
X110270083Y-104348874D01*
X110290655Y-104140000D01*
X110790331Y-104140000D01*
X110808963Y-104329174D01*
X110864142Y-104511075D01*
X110923785Y-104622660D01*
X110923786Y-104622660D01*
X111268866Y-104277579D01*
X111291318Y-104354040D01*
X111370605Y-104477413D01*
X111481438Y-104573451D01*
X111614839Y-104634373D01*
X111618633Y-104634918D01*
X111277339Y-104976212D01*
X111388921Y-105035855D01*
X111570829Y-105091037D01*
X111760000Y-105109668D01*
X111949170Y-105091037D01*
X112131077Y-105035855D01*
X112242660Y-104976213D01*
X112242660Y-104976212D01*
X111901366Y-104634918D01*
X111905161Y-104634373D01*
X112038562Y-104573451D01*
X112149395Y-104477413D01*
X112228682Y-104354040D01*
X112251133Y-104277579D01*
X112596212Y-104622660D01*
X112596213Y-104622659D01*
X112655855Y-104511077D01*
X112711037Y-104329170D01*
X112729668Y-104140000D01*
X112711037Y-103950829D01*
X112655855Y-103768921D01*
X112596212Y-103657339D01*
X112251132Y-104002418D01*
X112228682Y-103925960D01*
X112149395Y-103802587D01*
X112038562Y-103706549D01*
X111905161Y-103645627D01*
X111901366Y-103645081D01*
X111914448Y-103631999D01*
X113136721Y-103631999D01*
X113155763Y-103788820D01*
X113188521Y-103875196D01*
X113192478Y-103887540D01*
X113197846Y-103907893D01*
X113257104Y-104032887D01*
X113262127Y-104042992D01*
X113262136Y-104043009D01*
X113262178Y-104043093D01*
X113262582Y-104043869D01*
X113268055Y-104053918D01*
X113316791Y-104139542D01*
X113319932Y-104145428D01*
X113337476Y-104180554D01*
X113346336Y-104203935D01*
X113351339Y-104222649D01*
X113355283Y-104246606D01*
X113361433Y-104340931D01*
X113361433Y-104340934D01*
X113361434Y-104340936D01*
X113362792Y-104346365D01*
X113366500Y-104376460D01*
X113366500Y-119955393D01*
X113373962Y-119978359D01*
X113378502Y-119997270D01*
X113382281Y-120021126D01*
X113382281Y-120021127D01*
X113382282Y-120021128D01*
X113393242Y-120042638D01*
X113400689Y-120060616D01*
X113408150Y-120083580D01*
X113408151Y-120083581D01*
X113422344Y-120103116D01*
X113432505Y-120119696D01*
X113443472Y-120141220D01*
X113443473Y-120141221D01*
X113467446Y-120165194D01*
X114459472Y-121157220D01*
X114554780Y-121252528D01*
X114572532Y-121261573D01*
X114576295Y-121263490D01*
X114592882Y-121273654D01*
X114612419Y-121287849D01*
X114627344Y-121292698D01*
X114635379Y-121295309D01*
X114653359Y-121302756D01*
X114674874Y-121313719D01*
X114698719Y-121317495D01*
X114717642Y-121322037D01*
X114740607Y-121329500D01*
X114774512Y-121329500D01*
X123155660Y-121329500D01*
X123189132Y-121334103D01*
X123189651Y-121334249D01*
X123337709Y-121347392D01*
X123368443Y-121354127D01*
X123414533Y-121370586D01*
X123439717Y-121382950D01*
X123512289Y-121429438D01*
X123514724Y-121431038D01*
X123645814Y-121519422D01*
X123647495Y-121520498D01*
X123662306Y-121529792D01*
X123664007Y-121530806D01*
X123663586Y-121530541D01*
X123665294Y-121531488D01*
X123680496Y-121539733D01*
X123682225Y-121540621D01*
X123839595Y-121619835D01*
X123849807Y-121625598D01*
X123856474Y-121629787D01*
X123856475Y-121629787D01*
X123856478Y-121629789D01*
X123859351Y-121630794D01*
X123872200Y-121636115D01*
X123875890Y-121637891D01*
X123876654Y-121638242D01*
X123877509Y-121638604D01*
X123878356Y-121638979D01*
X123893261Y-121645290D01*
X123893287Y-121645294D01*
X123893292Y-121645297D01*
X123900454Y-121646649D01*
X123918384Y-121651450D01*
X124026745Y-121689368D01*
X124116372Y-121699466D01*
X124205999Y-121709565D01*
X124205999Y-121709564D01*
X124206000Y-121709565D01*
X124385255Y-121689368D01*
X124555522Y-121629789D01*
X124708262Y-121533816D01*
X124835816Y-121406262D01*
X124931789Y-121253522D01*
X124991368Y-121083255D01*
X125011565Y-120904000D01*
X124991368Y-120724745D01*
X124931789Y-120554478D01*
X124835816Y-120401738D01*
X124835815Y-120401737D01*
X124835814Y-120401735D01*
X124708264Y-120274185D01*
X124596382Y-120203885D01*
X124555522Y-120178211D01*
X124385255Y-120118632D01*
X124385253Y-120118631D01*
X124385251Y-120118631D01*
X124206000Y-120098434D01*
X124026747Y-120118631D01*
X123869490Y-120173657D01*
X123863140Y-120175689D01*
X123862175Y-120175969D01*
X123858696Y-120177434D01*
X123856476Y-120178210D01*
X123849816Y-120182395D01*
X123839617Y-120188149D01*
X123680482Y-120268271D01*
X123678758Y-120269191D01*
X123663576Y-120277462D01*
X123661877Y-120278438D01*
X123662325Y-120278194D01*
X123660655Y-120279226D01*
X123645827Y-120288567D01*
X123644174Y-120289662D01*
X123514716Y-120376963D01*
X123512282Y-120378562D01*
X123439711Y-120425049D01*
X123414528Y-120437412D01*
X123368449Y-120453867D01*
X123337713Y-120460604D01*
X123189647Y-120473750D01*
X123187816Y-120474243D01*
X123155605Y-120478500D01*
X115035610Y-120478500D01*
X114968571Y-120458815D01*
X114947929Y-120442181D01*
X114253819Y-119748070D01*
X114220334Y-119686747D01*
X114217500Y-119660389D01*
X114217500Y-110744000D01*
X146410721Y-110744000D01*
X146429763Y-110900818D01*
X146485780Y-111048523D01*
X146575515Y-111178528D01*
X146575516Y-111178529D01*
X146575517Y-111178530D01*
X146693760Y-111283283D01*
X146833635Y-111356696D01*
X146987015Y-111394500D01*
X147059187Y-111394500D01*
X147074684Y-111395471D01*
X147096522Y-111398223D01*
X147257965Y-111388608D01*
X147260111Y-111388423D01*
X147279212Y-111386595D01*
X147281367Y-111386334D01*
X147280834Y-111386384D01*
X147282989Y-111386046D01*
X147301953Y-111382881D01*
X147304081Y-111382470D01*
X147423411Y-111358330D01*
X147434497Y-111355874D01*
X147435343Y-111355670D01*
X147446344Y-111352799D01*
X147446369Y-111352791D01*
X147446527Y-111352751D01*
X147516650Y-111333050D01*
X147535941Y-111327631D01*
X147544842Y-111325484D01*
X147549422Y-111324558D01*
X147598546Y-111324553D01*
X147603131Y-111325479D01*
X147612079Y-111327637D01*
X147630800Y-111332896D01*
X147701654Y-111352800D01*
X147709779Y-111354919D01*
X147712655Y-111355670D01*
X147713501Y-111355874D01*
X147724507Y-111358312D01*
X147724779Y-111358373D01*
X147753836Y-111364242D01*
X147795840Y-111372732D01*
X147839789Y-111390943D01*
X147846613Y-111395472D01*
X147900327Y-111431123D01*
X147909721Y-111437112D01*
X147909736Y-111437120D01*
X147909821Y-111437175D01*
X147910563Y-111437629D01*
X147920455Y-111443429D01*
X148001624Y-111488998D01*
X148009429Y-111493771D01*
X148039514Y-111513738D01*
X148074258Y-111548482D01*
X148094217Y-111578554D01*
X148099024Y-111586417D01*
X148144570Y-111667543D01*
X148146100Y-111670152D01*
X148150307Y-111677331D01*
X148150327Y-111677363D01*
X148150369Y-111677434D01*
X148150823Y-111678176D01*
X148156874Y-111687668D01*
X148156978Y-111687831D01*
X148225405Y-111790925D01*
X148226630Y-111792668D01*
X148237773Y-111808220D01*
X148239080Y-111809950D01*
X148238769Y-111809515D01*
X148240137Y-111811199D01*
X148252449Y-111826063D01*
X148253881Y-111827705D01*
X148346638Y-111932180D01*
X148353072Y-111940386D01*
X148359889Y-111947108D01*
X148365689Y-111953459D01*
X148365784Y-111953563D01*
X148366603Y-111954436D01*
X148367220Y-111955044D01*
X148386344Y-111974361D01*
X148386151Y-111974551D01*
X148402696Y-111989827D01*
X148402974Y-111990185D01*
X148402976Y-111990187D01*
X148511493Y-112086505D01*
X148523934Y-112097547D01*
X148525600Y-112098949D01*
X148540427Y-112111184D01*
X148542138Y-112112525D01*
X148541724Y-112112182D01*
X148543477Y-112113459D01*
X148559087Y-112124601D01*
X148560876Y-112125811D01*
X148662326Y-112193122D01*
X148671721Y-112199112D01*
X148671736Y-112199120D01*
X148671821Y-112199175D01*
X148672563Y-112199629D01*
X148682455Y-112205429D01*
X148763624Y-112250998D01*
X148771437Y-112255776D01*
X148837344Y-112299519D01*
X148851086Y-112310095D01*
X148951155Y-112398914D01*
X148956647Y-112402239D01*
X148980106Y-112420631D01*
X149347027Y-112787552D01*
X149366689Y-112813156D01*
X149368113Y-112815620D01*
X149449477Y-112910463D01*
X149462369Y-112928545D01*
X149496054Y-112986073D01*
X149501457Y-112996381D01*
X149529124Y-113055793D01*
X149539384Y-113077823D01*
X149540028Y-113079146D01*
X149545801Y-113090791D01*
X149546479Y-113092102D01*
X149546301Y-113091744D01*
X149546991Y-113093005D01*
X149553199Y-113104180D01*
X149553927Y-113105442D01*
X149615098Y-113209890D01*
X149615108Y-113209907D01*
X149615793Y-113211076D01*
X149616524Y-113212205D01*
X149616539Y-113212230D01*
X149627235Y-113228758D01*
X149630589Y-113233941D01*
X149631797Y-113235637D01*
X149632630Y-113236702D01*
X149632649Y-113236727D01*
X149645208Y-113252776D01*
X149648760Y-113257316D01*
X149742411Y-113366484D01*
X149750333Y-113376763D01*
X149750862Y-113377530D01*
X149759500Y-113386146D01*
X149760905Y-113387724D01*
X149760912Y-113387732D01*
X149760926Y-113387747D01*
X149761509Y-113388378D01*
X149762156Y-113389038D01*
X149762784Y-113389697D01*
X149778578Y-113405784D01*
X149801027Y-113426162D01*
X149804157Y-113430056D01*
X149925116Y-113533823D01*
X149925154Y-113533854D01*
X149926182Y-113534736D01*
X149947747Y-113551619D01*
X149949447Y-113552831D01*
X149962506Y-113561285D01*
X149971256Y-113566950D01*
X149971271Y-113566959D01*
X149972423Y-113567705D01*
X149973630Y-113568411D01*
X149973632Y-113568413D01*
X150079306Y-113630292D01*
X150080585Y-113631011D01*
X150091840Y-113637242D01*
X150093123Y-113637924D01*
X150092811Y-113637751D01*
X150094124Y-113638410D01*
X150105680Y-113644116D01*
X150106977Y-113644729D01*
X150187106Y-113682034D01*
X150197417Y-113687438D01*
X150254947Y-113721125D01*
X150273029Y-113734017D01*
X150298912Y-113756222D01*
X150310913Y-113768023D01*
X150325903Y-113784912D01*
X150336478Y-113798652D01*
X150380227Y-113864569D01*
X150385013Y-113872397D01*
X150430570Y-113953543D01*
X150432766Y-113957290D01*
X150436307Y-113963331D01*
X150436327Y-113963363D01*
X150436369Y-113963434D01*
X150436823Y-113964176D01*
X150442874Y-113973668D01*
X150442978Y-113973831D01*
X150511405Y-114076925D01*
X150512630Y-114078668D01*
X150523773Y-114094220D01*
X150525080Y-114095950D01*
X150524769Y-114095515D01*
X150526137Y-114097199D01*
X150538449Y-114112063D01*
X150539881Y-114113705D01*
X150632638Y-114218180D01*
X150639072Y-114226386D01*
X150645889Y-114233108D01*
X150651689Y-114239459D01*
X150651784Y-114239563D01*
X150652603Y-114240436D01*
X150653220Y-114241044D01*
X150663117Y-114251040D01*
X150663134Y-114251051D01*
X150663136Y-114251053D01*
X150671115Y-114256285D01*
X150671257Y-114256378D01*
X150685488Y-114267257D01*
X150722447Y-114299999D01*
X150757760Y-114331283D01*
X150897635Y-114404696D01*
X151051015Y-114442500D01*
X151208985Y-114442500D01*
X151362365Y-114404696D01*
X151502240Y-114331283D01*
X151620483Y-114226530D01*
X151710220Y-114096523D01*
X151766237Y-113948818D01*
X151785278Y-113792000D01*
X151766237Y-113635182D01*
X151710220Y-113487477D01*
X151620483Y-113357470D01*
X151594185Y-113334172D01*
X151578462Y-113317393D01*
X151571027Y-113307815D01*
X151527907Y-113269542D01*
X151450064Y-113200449D01*
X151449999Y-113200395D01*
X151448396Y-113199045D01*
X151433551Y-113186797D01*
X151431839Y-113185456D01*
X151432259Y-113185803D01*
X151430515Y-113184533D01*
X151414911Y-113173396D01*
X151413106Y-113172175D01*
X151311663Y-113104871D01*
X151302184Y-113098830D01*
X151302101Y-113098777D01*
X151301370Y-113098330D01*
X151291551Y-113092574D01*
X151291533Y-113092563D01*
X151291387Y-113092478D01*
X151219987Y-113052396D01*
X151210384Y-113047005D01*
X151202554Y-113042217D01*
X151136652Y-112998478D01*
X151122909Y-112987901D01*
X151083280Y-112952727D01*
X151074193Y-112943785D01*
X151051730Y-112919284D01*
X151043662Y-112909528D01*
X151038251Y-112902259D01*
X150990215Y-112837726D01*
X150986322Y-112832186D01*
X150933817Y-112752912D01*
X150929056Y-112745936D01*
X150929025Y-112745893D01*
X150928978Y-112745823D01*
X150928320Y-112744887D01*
X150923726Y-112738553D01*
X150850760Y-112640531D01*
X150849796Y-112639285D01*
X150841212Y-112628360D01*
X150840237Y-112627165D01*
X150840451Y-112627439D01*
X150839406Y-112626224D01*
X150830125Y-112615578D01*
X150829045Y-112614384D01*
X150737376Y-112514417D01*
X150733233Y-112509214D01*
X150726967Y-112503063D01*
X150721900Y-112497536D01*
X150717461Y-112492795D01*
X150716842Y-112492147D01*
X150716295Y-112491608D01*
X150698946Y-112474230D01*
X150699644Y-112473533D01*
X150694785Y-112468973D01*
X150694429Y-112469362D01*
X150684302Y-112460077D01*
X150567918Y-112353372D01*
X150567831Y-112353296D01*
X150566713Y-112352310D01*
X150556058Y-112343047D01*
X150554837Y-112342026D01*
X150555137Y-112342286D01*
X150553884Y-112341289D01*
X150542957Y-112332731D01*
X150541716Y-112331795D01*
X150444828Y-112259688D01*
X150439420Y-112255776D01*
X150438086Y-112254811D01*
X150438063Y-112254795D01*
X150437972Y-112254729D01*
X150437064Y-112254091D01*
X150430466Y-112249601D01*
X150351326Y-112197186D01*
X150345770Y-112193282D01*
X150273968Y-112139835D01*
X150264211Y-112131767D01*
X150161193Y-112037317D01*
X150160868Y-112037019D01*
X150153682Y-112032556D01*
X150131426Y-112014902D01*
X149758572Y-111642047D01*
X149739967Y-111618235D01*
X149736916Y-111613158D01*
X149692242Y-111562826D01*
X149648086Y-111513077D01*
X149637522Y-111499350D01*
X149593774Y-111433435D01*
X149588972Y-111425579D01*
X149573614Y-111398223D01*
X149543429Y-111344455D01*
X149537629Y-111334563D01*
X149537175Y-111333821D01*
X149531122Y-111324326D01*
X149531105Y-111324300D01*
X149531019Y-111324165D01*
X149462590Y-111221070D01*
X149461353Y-111219309D01*
X149450182Y-111203724D01*
X149448876Y-111201996D01*
X149449184Y-111202427D01*
X149447815Y-111200741D01*
X149435547Y-111185934D01*
X149434124Y-111184303D01*
X149341358Y-111079815D01*
X149334927Y-111071615D01*
X149328084Y-111064863D01*
X149322535Y-111058782D01*
X149322505Y-111058750D01*
X149322434Y-111058672D01*
X149321672Y-111057860D01*
X149320949Y-111057138D01*
X149301608Y-111037584D01*
X149301799Y-111037394D01*
X149285280Y-111022142D01*
X149285024Y-111021812D01*
X149229018Y-110972102D01*
X149164064Y-110914449D01*
X149163999Y-110914395D01*
X149162396Y-110913045D01*
X149147551Y-110900797D01*
X149145839Y-110899456D01*
X149146259Y-110899803D01*
X149144515Y-110898533D01*
X149128911Y-110887396D01*
X149127106Y-110886175D01*
X149025663Y-110818871D01*
X149016184Y-110812830D01*
X149016101Y-110812777D01*
X149015370Y-110812330D01*
X149005551Y-110806574D01*
X149005533Y-110806563D01*
X149005387Y-110806478D01*
X148924393Y-110761010D01*
X148916551Y-110756215D01*
X148913502Y-110754191D01*
X148886482Y-110736258D01*
X148851738Y-110701514D01*
X148831779Y-110671442D01*
X148826972Y-110663579D01*
X148781429Y-110582455D01*
X148775678Y-110572646D01*
X148775673Y-110572639D01*
X148775629Y-110572563D01*
X148775175Y-110571821D01*
X148769122Y-110562326D01*
X148769105Y-110562300D01*
X148769019Y-110562165D01*
X148700590Y-110459070D01*
X148699353Y-110457309D01*
X148688182Y-110441724D01*
X148686876Y-110439996D01*
X148687184Y-110440427D01*
X148685815Y-110438741D01*
X148673547Y-110423934D01*
X148672124Y-110422303D01*
X148579358Y-110317815D01*
X148572927Y-110309615D01*
X148566084Y-110302863D01*
X148560535Y-110296782D01*
X148560505Y-110296750D01*
X148560434Y-110296672D01*
X148559672Y-110295860D01*
X148558949Y-110295138D01*
X148548858Y-110284935D01*
X148540727Y-110279605D01*
X148526482Y-110268717D01*
X148454241Y-110204718D01*
X148454240Y-110204717D01*
X148372102Y-110161607D01*
X148314364Y-110131303D01*
X148160985Y-110093500D01*
X148088820Y-110093500D01*
X148073322Y-110092528D01*
X148051477Y-110089776D01*
X148051476Y-110089776D01*
X147890029Y-110099391D01*
X147887880Y-110099576D01*
X147868774Y-110101405D01*
X147866610Y-110101667D01*
X147867160Y-110101615D01*
X147865017Y-110101951D01*
X147846047Y-110105117D01*
X147843919Y-110105528D01*
X147724567Y-110129673D01*
X147713812Y-110132052D01*
X147713782Y-110132059D01*
X147713677Y-110132083D01*
X147712866Y-110132278D01*
X147701667Y-110135196D01*
X147612098Y-110160355D01*
X147612070Y-110160364D01*
X147603117Y-110162522D01*
X147598553Y-110163444D01*
X147549434Y-110163441D01*
X147544887Y-110162522D01*
X147535919Y-110160360D01*
X147446336Y-110135197D01*
X147435607Y-110132394D01*
X147435600Y-110132392D01*
X147435518Y-110132371D01*
X147434695Y-110132172D01*
X147423424Y-110129671D01*
X147301952Y-110105117D01*
X147301945Y-110105115D01*
X147301931Y-110105113D01*
X147299813Y-110104743D01*
X147280744Y-110101602D01*
X147278567Y-110101299D01*
X147279126Y-110101392D01*
X147276997Y-110101172D01*
X147257968Y-110099391D01*
X147255801Y-110099243D01*
X147096518Y-110089775D01*
X147087488Y-110089369D01*
X147086305Y-110089333D01*
X147085433Y-110089339D01*
X147071529Y-110089273D01*
X147063700Y-110090902D01*
X147038451Y-110093500D01*
X146987015Y-110093500D01*
X146833635Y-110131303D01*
X146693761Y-110204716D01*
X146575515Y-110309471D01*
X146485780Y-110439476D01*
X146429763Y-110587181D01*
X146410721Y-110744000D01*
X114217500Y-110744000D01*
X114217500Y-104376357D01*
X114221352Y-104345691D01*
X114222565Y-104340936D01*
X114222566Y-104340934D01*
X114228714Y-104246600D01*
X114232658Y-104222649D01*
X114237663Y-104203924D01*
X114246521Y-104180551D01*
X114264066Y-104145423D01*
X114267207Y-104139539D01*
X114315943Y-104053918D01*
X114321416Y-104043869D01*
X114321820Y-104043093D01*
X114326893Y-104032889D01*
X114386151Y-103907895D01*
X114389044Y-103901611D01*
X114389093Y-103901505D01*
X114389473Y-103900652D01*
X114389851Y-103899739D01*
X114394909Y-103887631D01*
X114394912Y-103887612D01*
X114394914Y-103887609D01*
X114397028Y-103876455D01*
X114402916Y-103855582D01*
X114406557Y-103845979D01*
X114428237Y-103788818D01*
X114447278Y-103632000D01*
X114428237Y-103475182D01*
X114372220Y-103327477D01*
X114297276Y-103218901D01*
X114282484Y-103197471D01*
X114230972Y-103151836D01*
X114164240Y-103092717D01*
X114119709Y-103069345D01*
X114024364Y-103019303D01*
X113870985Y-102981500D01*
X113713015Y-102981500D01*
X113559635Y-103019303D01*
X113419761Y-103092716D01*
X113301515Y-103197471D01*
X113211780Y-103327476D01*
X113155763Y-103475181D01*
X113136721Y-103631999D01*
X111914448Y-103631999D01*
X112242660Y-103303786D01*
X112242660Y-103303785D01*
X112131075Y-103244142D01*
X111949174Y-103188963D01*
X111759999Y-103170331D01*
X111570825Y-103188963D01*
X111388928Y-103244141D01*
X111277339Y-103303786D01*
X111618634Y-103645081D01*
X111614839Y-103645627D01*
X111481438Y-103706549D01*
X111370605Y-103802587D01*
X111291318Y-103925960D01*
X111268866Y-104002419D01*
X110923786Y-103657339D01*
X110864141Y-103768928D01*
X110808963Y-103950825D01*
X110790331Y-104140000D01*
X110290655Y-104140000D01*
X110270083Y-103931126D01*
X110209156Y-103730278D01*
X110110217Y-103545176D01*
X109977067Y-103382933D01*
X109814824Y-103249783D01*
X109716955Y-103197471D01*
X109629721Y-103150843D01*
X109428875Y-103089917D01*
X109324437Y-103079631D01*
X109220000Y-103069345D01*
X109219999Y-103069345D01*
X109011124Y-103089917D01*
X108810278Y-103150843D01*
X108625177Y-103249782D01*
X108462933Y-103382933D01*
X108329782Y-103545177D01*
X108230843Y-103730278D01*
X108169917Y-103931124D01*
X108149345Y-104139999D01*
X106934000Y-104139999D01*
X106934000Y-101600000D01*
X108250331Y-101600000D01*
X108268963Y-101789174D01*
X108324142Y-101971075D01*
X108383785Y-102082660D01*
X108383786Y-102082660D01*
X108728866Y-101737579D01*
X108751318Y-101814040D01*
X108830605Y-101937413D01*
X108941438Y-102033451D01*
X109074839Y-102094373D01*
X109078633Y-102094918D01*
X108737339Y-102436212D01*
X108848921Y-102495855D01*
X109030829Y-102551037D01*
X109219999Y-102569668D01*
X109409170Y-102551037D01*
X109591077Y-102495855D01*
X109702660Y-102436213D01*
X109702660Y-102436212D01*
X109361366Y-102094918D01*
X109365161Y-102094373D01*
X109498562Y-102033451D01*
X109609395Y-101937413D01*
X109688682Y-101814040D01*
X109711133Y-101737580D01*
X110056212Y-102082660D01*
X110056213Y-102082660D01*
X110115855Y-101971077D01*
X110171037Y-101789170D01*
X110189668Y-101600000D01*
X110790331Y-101600000D01*
X110808963Y-101789174D01*
X110864142Y-101971075D01*
X110923785Y-102082660D01*
X110923786Y-102082660D01*
X111268866Y-101737579D01*
X111291318Y-101814040D01*
X111370605Y-101937413D01*
X111481438Y-102033451D01*
X111614839Y-102094373D01*
X111618633Y-102094918D01*
X111277339Y-102436212D01*
X111388921Y-102495855D01*
X111570829Y-102551037D01*
X111760000Y-102569668D01*
X111949170Y-102551037D01*
X112131077Y-102495855D01*
X112242660Y-102436213D01*
X112242660Y-102436212D01*
X111901366Y-102094918D01*
X111905161Y-102094373D01*
X112038562Y-102033451D01*
X112149395Y-101937413D01*
X112228682Y-101814040D01*
X112251133Y-101737580D01*
X112596212Y-102082660D01*
X112596213Y-102082660D01*
X112655855Y-101971077D01*
X112711037Y-101789170D01*
X112729668Y-101600000D01*
X112711037Y-101410829D01*
X112655855Y-101228921D01*
X112596212Y-101117339D01*
X112251132Y-101462418D01*
X112228682Y-101385960D01*
X112149395Y-101262587D01*
X112038562Y-101166549D01*
X111905161Y-101105627D01*
X111901365Y-101105081D01*
X112242660Y-100763786D01*
X112242660Y-100763785D01*
X112131075Y-100704142D01*
X111949174Y-100648963D01*
X111759999Y-100630331D01*
X111570825Y-100648963D01*
X111388928Y-100704141D01*
X111277339Y-100763786D01*
X111618634Y-101105081D01*
X111614839Y-101105627D01*
X111481438Y-101166549D01*
X111370605Y-101262587D01*
X111291318Y-101385960D01*
X111268866Y-101462419D01*
X110923786Y-101117339D01*
X110864141Y-101228928D01*
X110808963Y-101410825D01*
X110790331Y-101600000D01*
X110189668Y-101600000D01*
X110171037Y-101410829D01*
X110115855Y-101228921D01*
X110056212Y-101117339D01*
X109711132Y-101462418D01*
X109688682Y-101385960D01*
X109609395Y-101262587D01*
X109498562Y-101166549D01*
X109365161Y-101105627D01*
X109361365Y-101105081D01*
X109702660Y-100763786D01*
X109702660Y-100763785D01*
X109591075Y-100704142D01*
X109409174Y-100648963D01*
X109219999Y-100630331D01*
X109030825Y-100648963D01*
X108848928Y-100704141D01*
X108737339Y-100763786D01*
X109078634Y-101105081D01*
X109074839Y-101105627D01*
X108941438Y-101166549D01*
X108830605Y-101262587D01*
X108751318Y-101385960D01*
X108728866Y-101462419D01*
X108383786Y-101117339D01*
X108324141Y-101228928D01*
X108268963Y-101410825D01*
X108250331Y-101600000D01*
X106934000Y-101600000D01*
X106934000Y-99060000D01*
X108149345Y-99060000D01*
X108169917Y-99268875D01*
X108230843Y-99469721D01*
X108230844Y-99469722D01*
X108329783Y-99654824D01*
X108462933Y-99817067D01*
X108625176Y-99950217D01*
X108810278Y-100049156D01*
X109011126Y-100110083D01*
X109220000Y-100130655D01*
X109428874Y-100110083D01*
X109629722Y-100049156D01*
X109814824Y-99950217D01*
X109977067Y-99817067D01*
X110110217Y-99654824D01*
X110209156Y-99469722D01*
X110270083Y-99268874D01*
X110290655Y-99060000D01*
X110290655Y-99059999D01*
X110689345Y-99059999D01*
X110709917Y-99268875D01*
X110770843Y-99469721D01*
X110770844Y-99469722D01*
X110869783Y-99654824D01*
X111002933Y-99817067D01*
X111165176Y-99950217D01*
X111350278Y-100049156D01*
X111551126Y-100110083D01*
X111760000Y-100130655D01*
X111968874Y-100110083D01*
X112169722Y-100049156D01*
X112354824Y-99950217D01*
X112517067Y-99817067D01*
X112650217Y-99654824D01*
X112749156Y-99469722D01*
X112810083Y-99268874D01*
X112830655Y-99060000D01*
X112810083Y-98851126D01*
X112749156Y-98650278D01*
X112650217Y-98465176D01*
X112517067Y-98302933D01*
X112354824Y-98169783D01*
X112217873Y-98096581D01*
X112169721Y-98070843D01*
X111968875Y-98009917D01*
X111760000Y-97989345D01*
X111551124Y-98009917D01*
X111350278Y-98070843D01*
X111165177Y-98169782D01*
X111002933Y-98302933D01*
X110869782Y-98465177D01*
X110770843Y-98650278D01*
X110709917Y-98851124D01*
X110689345Y-99059999D01*
X110290655Y-99059999D01*
X110270083Y-98851126D01*
X110209156Y-98650278D01*
X110110217Y-98465176D01*
X109977067Y-98302933D01*
X109814824Y-98169783D01*
X109677873Y-98096581D01*
X109629721Y-98070843D01*
X109428875Y-98009917D01*
X109220000Y-97989345D01*
X109011124Y-98009917D01*
X108810278Y-98070843D01*
X108625177Y-98169782D01*
X108462933Y-98302933D01*
X108329782Y-98465177D01*
X108230843Y-98650278D01*
X108169917Y-98851124D01*
X108149345Y-99060000D01*
X106934000Y-99060000D01*
X106934000Y-96519999D01*
X108149345Y-96519999D01*
X108169917Y-96728875D01*
X108230843Y-96929721D01*
X108230844Y-96929722D01*
X108329783Y-97114824D01*
X108462933Y-97277067D01*
X108625176Y-97410217D01*
X108810278Y-97509156D01*
X109011126Y-97570083D01*
X109220000Y-97590655D01*
X109428874Y-97570083D01*
X109629722Y-97509156D01*
X109814824Y-97410217D01*
X109977067Y-97277067D01*
X110110217Y-97114824D01*
X110209156Y-96929722D01*
X110270083Y-96728874D01*
X110290655Y-96520000D01*
X110290655Y-96519999D01*
X110689345Y-96519999D01*
X110709917Y-96728875D01*
X110770843Y-96929721D01*
X110770844Y-96929722D01*
X110869783Y-97114824D01*
X111002933Y-97277067D01*
X111165176Y-97410217D01*
X111350278Y-97509156D01*
X111551126Y-97570083D01*
X111760000Y-97590655D01*
X111968874Y-97570083D01*
X112169722Y-97509156D01*
X112354824Y-97410217D01*
X112517067Y-97277067D01*
X112650217Y-97114824D01*
X112749156Y-96929722D01*
X112810083Y-96728874D01*
X112830655Y-96520000D01*
X112810083Y-96311126D01*
X112749156Y-96110278D01*
X112650217Y-95925176D01*
X112517067Y-95762933D01*
X112354824Y-95629783D01*
X112217873Y-95556581D01*
X112169721Y-95530843D01*
X111968875Y-95469917D01*
X111760000Y-95449345D01*
X111551124Y-95469917D01*
X111350278Y-95530843D01*
X111165177Y-95629782D01*
X111002933Y-95762933D01*
X110869782Y-95925177D01*
X110770843Y-96110278D01*
X110709917Y-96311124D01*
X110689345Y-96519999D01*
X110290655Y-96519999D01*
X110270083Y-96311126D01*
X110209156Y-96110278D01*
X110110217Y-95925176D01*
X109977067Y-95762933D01*
X109814824Y-95629783D01*
X109677873Y-95556581D01*
X109629721Y-95530843D01*
X109428875Y-95469917D01*
X109220000Y-95449345D01*
X109011124Y-95469917D01*
X108810278Y-95530843D01*
X108625177Y-95629782D01*
X108462933Y-95762933D01*
X108329782Y-95925177D01*
X108230843Y-96110278D01*
X108169917Y-96311124D01*
X108149345Y-96519999D01*
X106934000Y-96519999D01*
X106934000Y-93980000D01*
X108149345Y-93980000D01*
X108169917Y-94188875D01*
X108230843Y-94389721D01*
X108265186Y-94453972D01*
X108329783Y-94574824D01*
X108462933Y-94737067D01*
X108625176Y-94870217D01*
X108810278Y-94969156D01*
X109011126Y-95030083D01*
X109220000Y-95050655D01*
X109428874Y-95030083D01*
X109629722Y-94969156D01*
X109814824Y-94870217D01*
X109977067Y-94737067D01*
X110110217Y-94574824D01*
X110209156Y-94389722D01*
X110270083Y-94188874D01*
X110290655Y-93980000D01*
X110689345Y-93980000D01*
X110709917Y-94188875D01*
X110770843Y-94389721D01*
X110805186Y-94453972D01*
X110869783Y-94574824D01*
X111002933Y-94737067D01*
X111165176Y-94870217D01*
X111350278Y-94969156D01*
X111551126Y-95030083D01*
X111760000Y-95050655D01*
X111968874Y-95030083D01*
X112169722Y-94969156D01*
X112354824Y-94870217D01*
X112517067Y-94737067D01*
X112650217Y-94574824D01*
X112749156Y-94389722D01*
X112810083Y-94188874D01*
X112830655Y-93980000D01*
X112810083Y-93771126D01*
X112749156Y-93570278D01*
X112650217Y-93385176D01*
X112517067Y-93222933D01*
X112354824Y-93089783D01*
X112217873Y-93016581D01*
X112169721Y-92990843D01*
X111968875Y-92929917D01*
X111760000Y-92909345D01*
X111551124Y-92929917D01*
X111350278Y-92990843D01*
X111165177Y-93089782D01*
X111002933Y-93222933D01*
X110869782Y-93385177D01*
X110770843Y-93570278D01*
X110709917Y-93771124D01*
X110689345Y-93980000D01*
X110290655Y-93980000D01*
X110270083Y-93771126D01*
X110209156Y-93570278D01*
X110110217Y-93385176D01*
X109977067Y-93222933D01*
X109814824Y-93089783D01*
X109677873Y-93016581D01*
X109629721Y-92990843D01*
X109428875Y-92929917D01*
X109220000Y-92909345D01*
X109011124Y-92929917D01*
X108810278Y-92990843D01*
X108625177Y-93089782D01*
X108462933Y-93222933D01*
X108329782Y-93385177D01*
X108230843Y-93570278D01*
X108169917Y-93771124D01*
X108149345Y-93980000D01*
X106934000Y-93980000D01*
X106934000Y-91440000D01*
X108149345Y-91440000D01*
X108169917Y-91648875D01*
X108230843Y-91849721D01*
X108230844Y-91849722D01*
X108329783Y-92034824D01*
X108462933Y-92197067D01*
X108625176Y-92330217D01*
X108810278Y-92429156D01*
X109011126Y-92490083D01*
X109220000Y-92510655D01*
X109428874Y-92490083D01*
X109629722Y-92429156D01*
X109814824Y-92330217D01*
X109977067Y-92197067D01*
X110110217Y-92034824D01*
X110209156Y-91849722D01*
X110270083Y-91648874D01*
X110290655Y-91440000D01*
X110689345Y-91440000D01*
X110709917Y-91648875D01*
X110770843Y-91849721D01*
X110770844Y-91849722D01*
X110869783Y-92034824D01*
X111002933Y-92197067D01*
X111165176Y-92330217D01*
X111350278Y-92429156D01*
X111551126Y-92490083D01*
X111760000Y-92510655D01*
X111968874Y-92490083D01*
X112169722Y-92429156D01*
X112354824Y-92330217D01*
X112517067Y-92197067D01*
X112650217Y-92034824D01*
X112749156Y-91849722D01*
X112810083Y-91648874D01*
X112830655Y-91440000D01*
X112810083Y-91231126D01*
X112749156Y-91030278D01*
X112650217Y-90845176D01*
X112517067Y-90682933D01*
X112354824Y-90549783D01*
X112217873Y-90476581D01*
X112169721Y-90450843D01*
X111968875Y-90389917D01*
X111864436Y-90379631D01*
X111760000Y-90369345D01*
X111759999Y-90369345D01*
X111551124Y-90389917D01*
X111350278Y-90450843D01*
X111165177Y-90549782D01*
X111002933Y-90682933D01*
X110869782Y-90845177D01*
X110770843Y-91030278D01*
X110709917Y-91231124D01*
X110689345Y-91440000D01*
X110290655Y-91440000D01*
X110270083Y-91231126D01*
X110209156Y-91030278D01*
X110110217Y-90845176D01*
X109977067Y-90682933D01*
X109814824Y-90549783D01*
X109677873Y-90476581D01*
X109629721Y-90450843D01*
X109428875Y-90389917D01*
X109220000Y-90369345D01*
X109011124Y-90389917D01*
X108810278Y-90450843D01*
X108625177Y-90549782D01*
X108462933Y-90682933D01*
X108329782Y-90845177D01*
X108230843Y-91030278D01*
X108169917Y-91231124D01*
X108149345Y-91440000D01*
X106934000Y-91440000D01*
X106934000Y-88899999D01*
X108149345Y-88899999D01*
X108169917Y-89108875D01*
X108230843Y-89309721D01*
X108317006Y-89470919D01*
X108329783Y-89494824D01*
X108462933Y-89657067D01*
X108625176Y-89790217D01*
X108810278Y-89889156D01*
X109011126Y-89950083D01*
X109220000Y-89970655D01*
X109428874Y-89950083D01*
X109629722Y-89889156D01*
X109814824Y-89790217D01*
X109977067Y-89657067D01*
X110110217Y-89494824D01*
X110209156Y-89309722D01*
X110270083Y-89108874D01*
X110290655Y-88900000D01*
X110290655Y-88899999D01*
X110689345Y-88899999D01*
X110709917Y-89108875D01*
X110770843Y-89309721D01*
X110857005Y-89470919D01*
X110869783Y-89494824D01*
X111002933Y-89657067D01*
X111165176Y-89790217D01*
X111350278Y-89889156D01*
X111551126Y-89950083D01*
X111760000Y-89970655D01*
X111968874Y-89950083D01*
X112169722Y-89889156D01*
X112354824Y-89790217D01*
X112517067Y-89657067D01*
X112650217Y-89494824D01*
X112749156Y-89309722D01*
X112810083Y-89108874D01*
X112830655Y-88900000D01*
X112810083Y-88691126D01*
X112749156Y-88490278D01*
X112650217Y-88305176D01*
X112517067Y-88142933D01*
X112354824Y-88009783D01*
X112274126Y-87966649D01*
X112169721Y-87910843D01*
X111968875Y-87849917D01*
X111864436Y-87839631D01*
X111760000Y-87829345D01*
X111759999Y-87829345D01*
X111551124Y-87849917D01*
X111350278Y-87910843D01*
X111165177Y-88009782D01*
X111002933Y-88142933D01*
X110869782Y-88305177D01*
X110770843Y-88490278D01*
X110709917Y-88691124D01*
X110689345Y-88899999D01*
X110290655Y-88899999D01*
X110270083Y-88691126D01*
X110209156Y-88490278D01*
X110110217Y-88305176D01*
X109977067Y-88142933D01*
X109814824Y-88009783D01*
X109734126Y-87966649D01*
X109629721Y-87910843D01*
X109428875Y-87849917D01*
X109324437Y-87839631D01*
X109220000Y-87829345D01*
X109219999Y-87829345D01*
X109011124Y-87849917D01*
X108810278Y-87910843D01*
X108625177Y-88009782D01*
X108462933Y-88142933D01*
X108329782Y-88305177D01*
X108230843Y-88490278D01*
X108169917Y-88691124D01*
X108149345Y-88899999D01*
X106934000Y-88899999D01*
X106934000Y-86360000D01*
X108149345Y-86360000D01*
X108169917Y-86568875D01*
X108230843Y-86769721D01*
X108289710Y-86879853D01*
X108329783Y-86954824D01*
X108462933Y-87117067D01*
X108625176Y-87250217D01*
X108810278Y-87349156D01*
X109011126Y-87410083D01*
X109220000Y-87430655D01*
X109428874Y-87410083D01*
X109629722Y-87349156D01*
X109814824Y-87250217D01*
X109977067Y-87117067D01*
X110110217Y-86954824D01*
X110209156Y-86769722D01*
X110270083Y-86568874D01*
X110290655Y-86360000D01*
X110790331Y-86360000D01*
X110808963Y-86549174D01*
X110864142Y-86731075D01*
X110923785Y-86842660D01*
X110923786Y-86842660D01*
X111268866Y-86497579D01*
X111291318Y-86574040D01*
X111370605Y-86697413D01*
X111481438Y-86793451D01*
X111614839Y-86854373D01*
X111618633Y-86854918D01*
X111277339Y-87196212D01*
X111388921Y-87255855D01*
X111570829Y-87311037D01*
X111760000Y-87329668D01*
X111949170Y-87311037D01*
X112131077Y-87255855D01*
X112242660Y-87196213D01*
X112242660Y-87196212D01*
X111901366Y-86854918D01*
X111905161Y-86854373D01*
X112038562Y-86793451D01*
X112149395Y-86697413D01*
X112228682Y-86574040D01*
X112251133Y-86497580D01*
X112596213Y-86842660D01*
X112655855Y-86731077D01*
X112711037Y-86549170D01*
X112729668Y-86360000D01*
X112711037Y-86170829D01*
X112655855Y-85988921D01*
X112596212Y-85877338D01*
X112251132Y-86222416D01*
X112228682Y-86145960D01*
X112149395Y-86022587D01*
X112038562Y-85926549D01*
X111905161Y-85865627D01*
X111901366Y-85865081D01*
X112242660Y-85523786D01*
X112242660Y-85523785D01*
X112131075Y-85464142D01*
X111949174Y-85408963D01*
X111760000Y-85390331D01*
X111570825Y-85408963D01*
X111388928Y-85464141D01*
X111277339Y-85523786D01*
X111618634Y-85865081D01*
X111614839Y-85865627D01*
X111481438Y-85926549D01*
X111370605Y-86022587D01*
X111291318Y-86145960D01*
X111268867Y-86222419D01*
X110923786Y-85877339D01*
X110864141Y-85988928D01*
X110808963Y-86170825D01*
X110790331Y-86360000D01*
X110290655Y-86360000D01*
X110270083Y-86151126D01*
X110209156Y-85950278D01*
X110110217Y-85765176D01*
X109977067Y-85602933D01*
X109814824Y-85469783D01*
X109666180Y-85390331D01*
X109629721Y-85370843D01*
X109428875Y-85309917D01*
X109324436Y-85299631D01*
X109220000Y-85289345D01*
X109219999Y-85289345D01*
X109011124Y-85309917D01*
X108810278Y-85370843D01*
X108625177Y-85469782D01*
X108462933Y-85602933D01*
X108329782Y-85765177D01*
X108230843Y-85950278D01*
X108169917Y-86151124D01*
X108149345Y-86360000D01*
X106934000Y-86360000D01*
X106934000Y-83819999D01*
X108149345Y-83819999D01*
X108169917Y-84028875D01*
X108230843Y-84229721D01*
X108317006Y-84390919D01*
X108329783Y-84414824D01*
X108462933Y-84577067D01*
X108625176Y-84710217D01*
X108810278Y-84809156D01*
X109011126Y-84870083D01*
X109220000Y-84890655D01*
X109428874Y-84870083D01*
X109629722Y-84809156D01*
X109814824Y-84710217D01*
X109977067Y-84577067D01*
X110110217Y-84414824D01*
X110209156Y-84229722D01*
X110270083Y-84028874D01*
X110290655Y-83820000D01*
X110689345Y-83820000D01*
X110709917Y-84028875D01*
X110770843Y-84229721D01*
X110857006Y-84390919D01*
X110869783Y-84414824D01*
X111002933Y-84577067D01*
X111165176Y-84710217D01*
X111350278Y-84809156D01*
X111551126Y-84870083D01*
X111760000Y-84890655D01*
X111968874Y-84870083D01*
X112169722Y-84809156D01*
X112354824Y-84710217D01*
X112517067Y-84577067D01*
X112650217Y-84414824D01*
X112749156Y-84229722D01*
X112810083Y-84028874D01*
X112830655Y-83820000D01*
X112810083Y-83611126D01*
X112749156Y-83410278D01*
X112650217Y-83225176D01*
X112517067Y-83062933D01*
X112354824Y-82929783D01*
X112330919Y-82917006D01*
X112169721Y-82830843D01*
X111968875Y-82769917D01*
X111760000Y-82749345D01*
X111551124Y-82769917D01*
X111350278Y-82830843D01*
X111165177Y-82929782D01*
X111002933Y-83062933D01*
X110869782Y-83225177D01*
X110770843Y-83410278D01*
X110709917Y-83611124D01*
X110689345Y-83820000D01*
X110290655Y-83820000D01*
X110270083Y-83611126D01*
X110209156Y-83410278D01*
X110110217Y-83225176D01*
X109977067Y-83062933D01*
X109814824Y-82929783D01*
X109790919Y-82917006D01*
X109629721Y-82830843D01*
X109428875Y-82769917D01*
X109324437Y-82759631D01*
X109220000Y-82749345D01*
X109219999Y-82749345D01*
X109011124Y-82769917D01*
X108810278Y-82830843D01*
X108625177Y-82929782D01*
X108462933Y-83062933D01*
X108329782Y-83225177D01*
X108230843Y-83410278D01*
X108169917Y-83611124D01*
X108149345Y-83819999D01*
X106934000Y-83819999D01*
X106934000Y-81280000D01*
X108149345Y-81280000D01*
X108169917Y-81488875D01*
X108230843Y-81689721D01*
X108230844Y-81689722D01*
X108329783Y-81874824D01*
X108462933Y-82037067D01*
X108625176Y-82170217D01*
X108810278Y-82269156D01*
X109011126Y-82330083D01*
X109220000Y-82350655D01*
X109428874Y-82330083D01*
X109629722Y-82269156D01*
X109814824Y-82170217D01*
X109977067Y-82037067D01*
X110110217Y-81874824D01*
X110209156Y-81689722D01*
X110270083Y-81488874D01*
X110290655Y-81280000D01*
X110689345Y-81280000D01*
X110709917Y-81488875D01*
X110770843Y-81689721D01*
X110770844Y-81689722D01*
X110869783Y-81874824D01*
X111002933Y-82037067D01*
X111165176Y-82170217D01*
X111350278Y-82269156D01*
X111551126Y-82330083D01*
X111760000Y-82350655D01*
X111968874Y-82330083D01*
X112169722Y-82269156D01*
X112354824Y-82170217D01*
X112517067Y-82037067D01*
X112650217Y-81874824D01*
X112749156Y-81689722D01*
X112810083Y-81488874D01*
X112830655Y-81280000D01*
X112810083Y-81071126D01*
X112749156Y-80870278D01*
X112650217Y-80685176D01*
X112517067Y-80522933D01*
X112354824Y-80389783D01*
X112330919Y-80377006D01*
X112169721Y-80290843D01*
X111968875Y-80229917D01*
X111760000Y-80209345D01*
X111551124Y-80229917D01*
X111350278Y-80290843D01*
X111165177Y-80389782D01*
X111002933Y-80522933D01*
X110869782Y-80685177D01*
X110770843Y-80870278D01*
X110709917Y-81071124D01*
X110689345Y-81280000D01*
X110290655Y-81280000D01*
X110270083Y-81071126D01*
X110209156Y-80870278D01*
X110110217Y-80685176D01*
X109977067Y-80522933D01*
X109814824Y-80389783D01*
X109790919Y-80377005D01*
X109629721Y-80290843D01*
X109428875Y-80229917D01*
X109324436Y-80219631D01*
X109220000Y-80209345D01*
X109219999Y-80209345D01*
X109011124Y-80229917D01*
X108810278Y-80290843D01*
X108625177Y-80389782D01*
X108462933Y-80522933D01*
X108329782Y-80685177D01*
X108230843Y-80870278D01*
X108169917Y-81071124D01*
X108149345Y-81280000D01*
X106934000Y-81280000D01*
X106934000Y-79546302D01*
X108154500Y-79546302D01*
X108154501Y-79549864D01*
X108154912Y-79553407D01*
X108157415Y-79574991D01*
X108202795Y-79677767D01*
X108282232Y-79757204D01*
X108282233Y-79757204D01*
X108282235Y-79757206D01*
X108385009Y-79802585D01*
X108410135Y-79805500D01*
X110029864Y-79805499D01*
X110054991Y-79802585D01*
X110157765Y-79757206D01*
X110237206Y-79677765D01*
X110282585Y-79574991D01*
X110285500Y-79549865D01*
X110285499Y-78739999D01*
X110689345Y-78739999D01*
X110709917Y-78948875D01*
X110770843Y-79149721D01*
X110770844Y-79149722D01*
X110869783Y-79334824D01*
X111002933Y-79497067D01*
X111165176Y-79630217D01*
X111350278Y-79729156D01*
X111551126Y-79790083D01*
X111760000Y-79810655D01*
X111968874Y-79790083D01*
X112169722Y-79729156D01*
X112354824Y-79630217D01*
X112517067Y-79497067D01*
X112650217Y-79334824D01*
X112749156Y-79149722D01*
X112810083Y-78948874D01*
X112830655Y-78740000D01*
X112810083Y-78531126D01*
X112749156Y-78330278D01*
X112650217Y-78145176D01*
X112517067Y-77982933D01*
X112354824Y-77849783D01*
X112265868Y-77802235D01*
X112169721Y-77750843D01*
X111968875Y-77689917D01*
X111760000Y-77669345D01*
X111551124Y-77689917D01*
X111350278Y-77750843D01*
X111165177Y-77849782D01*
X111002933Y-77982933D01*
X110869782Y-78145177D01*
X110770843Y-78330278D01*
X110709917Y-78531124D01*
X110689345Y-78739999D01*
X110285499Y-78739999D01*
X110285499Y-77930136D01*
X110282585Y-77905009D01*
X110237206Y-77802235D01*
X110237204Y-77802233D01*
X110237204Y-77802232D01*
X110157767Y-77722795D01*
X110054990Y-77677414D01*
X110033414Y-77674911D01*
X110033401Y-77674910D01*
X110029865Y-77674500D01*
X110026290Y-77674500D01*
X108413714Y-77674500D01*
X108413696Y-77674500D01*
X108410136Y-77674501D01*
X108406592Y-77674911D01*
X108406592Y-77674912D01*
X108385008Y-77677415D01*
X108282232Y-77722795D01*
X108202795Y-77802232D01*
X108157414Y-77905009D01*
X108154911Y-77926585D01*
X108154911Y-77926592D01*
X108154500Y-77930135D01*
X108154500Y-77933708D01*
X108154500Y-77933709D01*
X108154500Y-79546285D01*
X108154500Y-79546302D01*
X106934000Y-79546302D01*
X106934000Y-76070000D01*
X106953685Y-76002961D01*
X107006489Y-75957206D01*
X107058000Y-75946000D01*
X138707221Y-75946000D01*
X138774260Y-75965685D01*
G37*
%TD.AperFunction*%
%TD*%
%TA.AperFunction,Conductor*%
%TO.N,VBUS*%
G36*
X153430810Y-123204789D02*
G01*
X153431292Y-123205242D01*
X153670707Y-123443293D01*
X153908756Y-123682706D01*
X153912159Y-123690988D01*
X153908708Y-123699252D01*
X153908226Y-123699705D01*
X153787268Y-123807065D01*
X153785971Y-123808063D01*
X153682731Y-123876584D01*
X153681989Y-123877038D01*
X153587107Y-123930305D01*
X153587092Y-123930313D01*
X153586923Y-123930409D01*
X153586770Y-123930510D01*
X153586743Y-123930527D01*
X153482979Y-123999396D01*
X153482966Y-123999405D01*
X153482633Y-123999627D01*
X153482330Y-123999895D01*
X153482322Y-123999902D01*
X153360047Y-124108432D01*
X153351584Y-124111361D01*
X153344007Y-124107955D01*
X153006044Y-123769992D01*
X153002617Y-123761719D01*
X153005567Y-123753952D01*
X153068803Y-123682706D01*
X153114372Y-123631365D01*
X153183589Y-123527075D01*
X153236971Y-123431989D01*
X153237403Y-123431283D01*
X153305941Y-123328017D01*
X153306924Y-123326739D01*
X153414296Y-123205770D01*
X153422347Y-123201860D01*
X153430810Y-123204789D01*
G37*
%TD.AperFunction*%
%TD*%
%TA.AperFunction,Conductor*%
%TO.N,VBUS*%
G36*
X113796478Y-103632868D02*
G01*
X114104036Y-103761214D01*
X114110351Y-103767563D01*
X114110328Y-103776518D01*
X114110102Y-103777024D01*
X114050844Y-103902018D01*
X114050440Y-103902794D01*
X113996037Y-103998371D01*
X113996028Y-103998386D01*
X113995955Y-103998516D01*
X113995889Y-103998646D01*
X113995881Y-103998663D01*
X113953767Y-104082985D01*
X113926611Y-104184565D01*
X113917713Y-104321061D01*
X113913755Y-104329094D01*
X113906038Y-104332000D01*
X113677962Y-104332000D01*
X113669689Y-104328573D01*
X113666287Y-104321061D01*
X113665018Y-104301602D01*
X113657388Y-104184565D01*
X113630231Y-104082985D01*
X113588043Y-103998516D01*
X113533558Y-103902794D01*
X113533154Y-103902018D01*
X113473897Y-103777024D01*
X113473449Y-103768080D01*
X113479457Y-103761440D01*
X113479939Y-103761224D01*
X113787494Y-103632879D01*
X113796449Y-103632857D01*
X113796478Y-103632868D01*
G37*
%TD.AperFunction*%
%TD*%
%TA.AperFunction,Conductor*%
%TO.N,VBUS*%
G36*
X132755178Y-119448296D02*
G01*
X132761503Y-119454633D01*
X132761494Y-119463588D01*
X132761147Y-119464347D01*
X132574084Y-119837181D01*
X132573356Y-119838432D01*
X132396698Y-120102955D01*
X132396620Y-120103076D01*
X132251068Y-120333414D01*
X132152346Y-120614119D01*
X132116933Y-121019319D01*
X132112798Y-121027262D01*
X132105277Y-121030000D01*
X131626722Y-121030000D01*
X131618449Y-121026573D01*
X131615066Y-121019319D01*
X131579653Y-120614122D01*
X131480929Y-120333413D01*
X131335300Y-120102955D01*
X131335217Y-120102828D01*
X131158642Y-119838432D01*
X131157914Y-119837181D01*
X130970852Y-119464347D01*
X130970205Y-119455415D01*
X130976063Y-119448642D01*
X130976793Y-119448307D01*
X131861514Y-119080862D01*
X131870463Y-119080854D01*
X132755178Y-119448296D01*
G37*
%TD.AperFunction*%
%TD*%
%TA.AperFunction,Conductor*%
%TO.N,VBUS*%
G36*
X124019139Y-120452902D02*
G01*
X124019490Y-120453666D01*
X124205127Y-120899502D01*
X124205144Y-120908456D01*
X124205127Y-120908496D01*
X124019490Y-121354333D01*
X124013146Y-121360654D01*
X124004192Y-121360637D01*
X124003428Y-121360286D01*
X123817877Y-121266866D01*
X123816597Y-121266117D01*
X123681338Y-121174923D01*
X123681228Y-121174852D01*
X123563325Y-121099326D01*
X123419448Y-121047948D01*
X123216665Y-121029946D01*
X123208728Y-121025801D01*
X123206000Y-121018292D01*
X123206000Y-120789707D01*
X123209427Y-120781434D01*
X123216664Y-120778053D01*
X123419451Y-120760050D01*
X123563324Y-120708672D01*
X123681338Y-120633076D01*
X123681458Y-120632996D01*
X123737103Y-120595477D01*
X123816611Y-120541872D01*
X123817862Y-120541140D01*
X124003430Y-120447712D01*
X124012358Y-120447053D01*
X124019139Y-120452902D01*
G37*
%TD.AperFunction*%
%TD*%
%TA.AperFunction,Conductor*%
%TO.N,+12V*%
G36*
X153753618Y-93725964D02*
G01*
X153761881Y-93729415D01*
X153765284Y-93737697D01*
X153765263Y-93738360D01*
X153755648Y-93899803D01*
X153755437Y-93901425D01*
X153730885Y-94022883D01*
X153730681Y-94023729D01*
X153701259Y-94128474D01*
X153701252Y-94128500D01*
X153701200Y-94128688D01*
X153701156Y-94128901D01*
X153701156Y-94128905D01*
X153676480Y-94250976D01*
X153676478Y-94250987D01*
X153676400Y-94251376D01*
X153676376Y-94251772D01*
X153676375Y-94251783D01*
X153666655Y-94414996D01*
X153662743Y-94423050D01*
X153654976Y-94426000D01*
X153177024Y-94426000D01*
X153168751Y-94422573D01*
X153165345Y-94414996D01*
X153155624Y-94251783D01*
X153155600Y-94251376D01*
X153130799Y-94128688D01*
X153101314Y-94023718D01*
X153101113Y-94022883D01*
X153076562Y-93901425D01*
X153076351Y-93899803D01*
X153066736Y-93738360D01*
X153069665Y-93729897D01*
X153077719Y-93725985D01*
X153078360Y-93725964D01*
X153416000Y-93725000D01*
X153753618Y-93725964D01*
G37*
%TD.AperFunction*%
%TD*%
%TA.AperFunction,Conductor*%
%TO.N,+12V*%
G36*
X159505249Y-104967427D02*
G01*
X159508655Y-104975004D01*
X159518375Y-105138215D01*
X159518376Y-105138224D01*
X159518400Y-105138623D01*
X159518478Y-105139012D01*
X159518480Y-105139022D01*
X159540884Y-105249854D01*
X159543200Y-105261311D01*
X159543254Y-105261504D01*
X159543259Y-105261524D01*
X159572682Y-105366269D01*
X159572886Y-105367115D01*
X159597437Y-105488573D01*
X159597648Y-105490195D01*
X159607263Y-105651639D01*
X159604334Y-105660102D01*
X159596280Y-105664014D01*
X159595617Y-105664035D01*
X159258000Y-105665000D01*
X158920382Y-105664035D01*
X158912118Y-105660584D01*
X158908715Y-105652302D01*
X158908736Y-105651639D01*
X158918351Y-105490195D01*
X158918562Y-105488573D01*
X158943117Y-105367097D01*
X158943312Y-105366286D01*
X158972800Y-105261311D01*
X158997600Y-105138623D01*
X159007344Y-104975004D01*
X159011257Y-104966950D01*
X159019024Y-104964000D01*
X159496976Y-104964000D01*
X159505249Y-104967427D01*
G37*
%TD.AperFunction*%
%TD*%
%TA.AperFunction,Conductor*%
%TO.N,+BATT*%
G36*
X134866944Y-83077427D02*
G01*
X134870364Y-83085322D01*
X134876685Y-83281534D01*
X134876731Y-83281847D01*
X134876733Y-83281861D01*
X134898534Y-83428000D01*
X134898535Y-83428000D01*
X134938235Y-83551565D01*
X134938347Y-83551823D01*
X134938350Y-83551831D01*
X134998474Y-83690395D01*
X135077210Y-83871763D01*
X135077361Y-83880716D01*
X135071137Y-83887154D01*
X135070975Y-83887223D01*
X134624497Y-84073127D01*
X134615543Y-84073144D01*
X134615503Y-84073127D01*
X134169024Y-83887223D01*
X134162703Y-83880879D01*
X134162720Y-83871925D01*
X134162754Y-83871844D01*
X134241524Y-83690395D01*
X134301763Y-83551565D01*
X134341464Y-83428000D01*
X134363314Y-83281534D01*
X134369635Y-83085322D01*
X134373327Y-83077165D01*
X134381329Y-83074000D01*
X134858671Y-83074000D01*
X134866944Y-83077427D01*
G37*
%TD.AperFunction*%
%TD*%
%TA.AperFunction,Conductor*%
%TO.N,+BATT*%
G36*
X153483154Y-76256862D02*
G01*
X153483223Y-76257024D01*
X153669127Y-76703502D01*
X153669144Y-76712456D01*
X153669127Y-76712496D01*
X153483223Y-77158975D01*
X153476879Y-77165296D01*
X153467925Y-77165279D01*
X153467763Y-77165210D01*
X153286395Y-77086474D01*
X153147831Y-77026350D01*
X153147823Y-77026347D01*
X153147565Y-77026235D01*
X153147294Y-77026148D01*
X153147289Y-77026146D01*
X153024000Y-76986535D01*
X152877861Y-76964733D01*
X152877847Y-76964731D01*
X152877534Y-76964685D01*
X152877208Y-76964674D01*
X152877203Y-76964674D01*
X152681323Y-76958364D01*
X152673165Y-76954672D01*
X152670000Y-76946670D01*
X152670000Y-76469329D01*
X152673427Y-76461056D01*
X152681322Y-76457635D01*
X152877534Y-76451314D01*
X153024000Y-76429464D01*
X153147565Y-76389763D01*
X153286395Y-76329524D01*
X153467764Y-76250788D01*
X153476716Y-76250638D01*
X153483154Y-76256862D01*
G37*
%TD.AperFunction*%
%TD*%
%TA.AperFunction,Conductor*%
%TO.N,Q1_S*%
G36*
X148337252Y-110505289D02*
G01*
X148337705Y-110505772D01*
X148445065Y-110626730D01*
X148446063Y-110628027D01*
X148514584Y-110731266D01*
X148515038Y-110732008D01*
X148568305Y-110826891D01*
X148568313Y-110826904D01*
X148568409Y-110827075D01*
X148568517Y-110827238D01*
X148568527Y-110827254D01*
X148637396Y-110931018D01*
X148637401Y-110931024D01*
X148637627Y-110931365D01*
X148637901Y-110931673D01*
X148637902Y-110931675D01*
X148746432Y-111053952D01*
X148749361Y-111062415D01*
X148745955Y-111069992D01*
X148407992Y-111407955D01*
X148399719Y-111411382D01*
X148391952Y-111408432D01*
X148269675Y-111299902D01*
X148269673Y-111299901D01*
X148269365Y-111299627D01*
X148269024Y-111299401D01*
X148269018Y-111299396D01*
X148165254Y-111230527D01*
X148165238Y-111230517D01*
X148165075Y-111230409D01*
X148164904Y-111230313D01*
X148164891Y-111230305D01*
X148070008Y-111177038D01*
X148069266Y-111176584D01*
X147966027Y-111108063D01*
X147964730Y-111107065D01*
X147843772Y-110999705D01*
X147839860Y-110991651D01*
X147842789Y-110983188D01*
X147843192Y-110982757D01*
X148081293Y-110743293D01*
X148320710Y-110505239D01*
X148328988Y-110501839D01*
X148337252Y-110505289D01*
G37*
%TD.AperFunction*%
%TD*%
%TA.AperFunction,Conductor*%
%TO.N,Q1_S*%
G36*
X148534047Y-110841567D02*
G01*
X148656322Y-110950096D01*
X148656633Y-110950372D01*
X148656975Y-110950599D01*
X148656979Y-110950602D01*
X148760743Y-111019470D01*
X148760751Y-111019475D01*
X148760923Y-111019589D01*
X148855995Y-111072964D01*
X148856726Y-111073411D01*
X148959974Y-111141936D01*
X148961266Y-111142930D01*
X149082227Y-111250294D01*
X149086139Y-111258347D01*
X149083210Y-111266810D01*
X149082757Y-111267292D01*
X148844707Y-111506707D01*
X148605292Y-111744757D01*
X148597010Y-111748160D01*
X148588746Y-111744709D01*
X148588309Y-111744244D01*
X148480930Y-111623266D01*
X148479934Y-111621971D01*
X148411414Y-111518731D01*
X148410960Y-111517989D01*
X148357692Y-111423107D01*
X148357589Y-111422923D01*
X148288372Y-111318633D01*
X148288096Y-111318322D01*
X148179567Y-111196047D01*
X148176638Y-111187584D01*
X148180043Y-111180008D01*
X148518008Y-110842043D01*
X148526280Y-110838617D01*
X148534047Y-110841567D01*
G37*
%TD.AperFunction*%
%TD*%
%TA.AperFunction,Conductor*%
%TO.N,Q1_S*%
G36*
X148078102Y-110397665D02*
G01*
X148082014Y-110405719D01*
X148082035Y-110406382D01*
X148083000Y-110744000D01*
X148082035Y-111081617D01*
X148078584Y-111089881D01*
X148070302Y-111093284D01*
X148069639Y-111093263D01*
X147908195Y-111083648D01*
X147906573Y-111083437D01*
X147785115Y-111058886D01*
X147784269Y-111058682D01*
X147679524Y-111029259D01*
X147679504Y-111029254D01*
X147679311Y-111029200D01*
X147667854Y-111026884D01*
X147557022Y-111004480D01*
X147557012Y-111004478D01*
X147556623Y-111004400D01*
X147556224Y-111004376D01*
X147556215Y-111004375D01*
X147393004Y-110994655D01*
X147384950Y-110990743D01*
X147382000Y-110982976D01*
X147382000Y-110505023D01*
X147385427Y-110496750D01*
X147393002Y-110493344D01*
X147556623Y-110483600D01*
X147679311Y-110458800D01*
X147784286Y-110429312D01*
X147785097Y-110429117D01*
X147906577Y-110404561D01*
X147908191Y-110404351D01*
X148069639Y-110394736D01*
X148078102Y-110397665D01*
G37*
%TD.AperFunction*%
%TD*%
%TA.AperFunction,Conductor*%
%TO.N,Q1_S*%
G36*
X147078355Y-110394735D02*
G01*
X147239805Y-110404351D01*
X147241423Y-110404561D01*
X147362895Y-110429115D01*
X147363718Y-110429314D01*
X147468688Y-110458800D01*
X147591376Y-110483600D01*
X147754997Y-110493344D01*
X147763050Y-110497256D01*
X147766000Y-110505023D01*
X147766000Y-110982976D01*
X147762573Y-110991249D01*
X147754996Y-110994655D01*
X147591783Y-111004375D01*
X147591772Y-111004376D01*
X147591376Y-111004400D01*
X147590987Y-111004478D01*
X147590976Y-111004480D01*
X147468905Y-111029156D01*
X147468901Y-111029156D01*
X147468688Y-111029200D01*
X147468500Y-111029252D01*
X147468474Y-111029259D01*
X147363729Y-111058682D01*
X147362883Y-111058886D01*
X147241425Y-111083437D01*
X147239803Y-111083648D01*
X147078360Y-111093263D01*
X147069897Y-111090334D01*
X147065985Y-111082280D01*
X147065964Y-111081638D01*
X147065000Y-110744000D01*
X147065964Y-110406380D01*
X147069415Y-110398118D01*
X147077697Y-110394715D01*
X147078355Y-110394735D01*
G37*
%TD.AperFunction*%
%TD*%
%TA.AperFunction,Conductor*%
%TO.N,Q1_S*%
G36*
X149099252Y-111267289D02*
G01*
X149099705Y-111267772D01*
X149207065Y-111388730D01*
X149208063Y-111390027D01*
X149276584Y-111493266D01*
X149277038Y-111494008D01*
X149330305Y-111588891D01*
X149330313Y-111588904D01*
X149330409Y-111589075D01*
X149330517Y-111589238D01*
X149330527Y-111589254D01*
X149399396Y-111693018D01*
X149399401Y-111693024D01*
X149399627Y-111693365D01*
X149399901Y-111693673D01*
X149399902Y-111693675D01*
X149508432Y-111815952D01*
X149511361Y-111824415D01*
X149507955Y-111831992D01*
X149169992Y-112169955D01*
X149161719Y-112173382D01*
X149153952Y-112170432D01*
X149031675Y-112061902D01*
X149031673Y-112061901D01*
X149031365Y-112061627D01*
X149031024Y-112061401D01*
X149031018Y-112061396D01*
X148927254Y-111992527D01*
X148927238Y-111992517D01*
X148927075Y-111992409D01*
X148926904Y-111992313D01*
X148926891Y-111992305D01*
X148832008Y-111939038D01*
X148831266Y-111938584D01*
X148728027Y-111870063D01*
X148726730Y-111869065D01*
X148605772Y-111761705D01*
X148601860Y-111753651D01*
X148604789Y-111745188D01*
X148605192Y-111744757D01*
X148843293Y-111505293D01*
X149082710Y-111267239D01*
X149090988Y-111263839D01*
X149099252Y-111267289D01*
G37*
%TD.AperFunction*%
%TD*%
%TA.AperFunction,Conductor*%
%TO.N,Q1_S*%
G36*
X149954738Y-112262498D02*
G01*
X150035642Y-112336673D01*
X150073939Y-112371786D01*
X150172811Y-112445382D01*
X150172950Y-112445474D01*
X150261889Y-112504381D01*
X150262414Y-112504750D01*
X150360543Y-112577793D01*
X150361464Y-112578554D01*
X150479506Y-112686779D01*
X150483288Y-112694896D01*
X150480223Y-112703310D01*
X150479896Y-112703652D01*
X150241707Y-112943207D01*
X150002442Y-113181108D01*
X149994160Y-113184511D01*
X149985896Y-113181060D01*
X149985313Y-113180429D01*
X149880630Y-113058402D01*
X149879422Y-113056706D01*
X149816828Y-112949810D01*
X149816328Y-112948857D01*
X149769883Y-112849121D01*
X149768217Y-112846276D01*
X149706489Y-112740857D01*
X149599984Y-112616707D01*
X149597198Y-112608197D01*
X149600590Y-112600817D01*
X149938559Y-112262848D01*
X149946831Y-112259422D01*
X149954738Y-112262498D01*
G37*
%TD.AperFunction*%
%TD*%
%TA.AperFunction,Conductor*%
%TO.N,Q1_S*%
G36*
X150820047Y-113127567D02*
G01*
X150942322Y-113236096D01*
X150942633Y-113236372D01*
X150942975Y-113236599D01*
X150942979Y-113236602D01*
X151046743Y-113305470D01*
X151046751Y-113305475D01*
X151046923Y-113305589D01*
X151141995Y-113358964D01*
X151142726Y-113359411D01*
X151245974Y-113427936D01*
X151247266Y-113428930D01*
X151368227Y-113536294D01*
X151372139Y-113544347D01*
X151369210Y-113552810D01*
X151368757Y-113553292D01*
X151130707Y-113792707D01*
X150891292Y-114030757D01*
X150883010Y-114034160D01*
X150874746Y-114030709D01*
X150874309Y-114030244D01*
X150766930Y-113909266D01*
X150765934Y-113907971D01*
X150697414Y-113804731D01*
X150696960Y-113803989D01*
X150643692Y-113709107D01*
X150643589Y-113708923D01*
X150574372Y-113604633D01*
X150574096Y-113604322D01*
X150465567Y-113482047D01*
X150462638Y-113473584D01*
X150466043Y-113466008D01*
X150804008Y-113128043D01*
X150812280Y-113124617D01*
X150820047Y-113127567D01*
G37*
%TD.AperFunction*%
%TD*%
%TA.AperFunction,Conductor*%
%TO.N,Q1_S*%
G36*
X150496393Y-112703651D02*
G01*
X150496720Y-112703993D01*
X150604944Y-112822033D01*
X150605705Y-112822954D01*
X150678748Y-112921083D01*
X150679117Y-112921608D01*
X150738024Y-113010547D01*
X150738117Y-113010687D01*
X150811713Y-113109559D01*
X150811914Y-113109778D01*
X150921001Y-113228761D01*
X150924066Y-113237175D01*
X150920650Y-113244941D01*
X150582683Y-113582908D01*
X150574410Y-113586335D01*
X150566792Y-113583515D01*
X150442640Y-113477009D01*
X150334627Y-113413761D01*
X150334620Y-113413757D01*
X150334377Y-113413615D01*
X150234648Y-113367173D01*
X150233677Y-113366664D01*
X150126794Y-113304077D01*
X150125094Y-113302865D01*
X150003069Y-113198185D01*
X149999022Y-113190199D01*
X150001808Y-113181688D01*
X150002363Y-113181085D01*
X150240293Y-112941793D01*
X150479848Y-112703602D01*
X150488129Y-112700200D01*
X150496393Y-112703651D01*
G37*
%TD.AperFunction*%
%TD*%
%TA.AperFunction,Conductor*%
%TO.N,PB3_ADC_Iout*%
G36*
X171092795Y-115589049D02*
G01*
X171430950Y-115927204D01*
X171434377Y-115935477D01*
X171431523Y-115943135D01*
X171226423Y-116180049D01*
X171115626Y-116382523D01*
X171055799Y-116582060D01*
X171055787Y-116582101D01*
X171055755Y-116582210D01*
X171055729Y-116582309D01*
X171055718Y-116582353D01*
X170996429Y-116818486D01*
X170996127Y-116819493D01*
X170890845Y-117121074D01*
X170884883Y-117127756D01*
X170875943Y-117128264D01*
X170875335Y-117128033D01*
X170183788Y-116842562D01*
X170177448Y-116836237D01*
X170177437Y-116836211D01*
X169891966Y-116144664D01*
X169891977Y-116135710D01*
X169898317Y-116129385D01*
X169898890Y-116129167D01*
X170200509Y-116023868D01*
X170201506Y-116023569D01*
X170437788Y-115964243D01*
X170637475Y-115904371D01*
X170839950Y-115793575D01*
X171076864Y-115588475D01*
X171085362Y-115585652D01*
X171092795Y-115589049D01*
G37*
%TD.AperFunction*%
%TD*%
%TA.AperFunction,Conductor*%
%TO.N,PB3_ADC_Iout*%
G36*
X168149252Y-86375289D02*
G01*
X168149705Y-86375772D01*
X168257065Y-86496730D01*
X168258063Y-86498027D01*
X168326584Y-86601266D01*
X168327038Y-86602008D01*
X168380305Y-86696891D01*
X168380313Y-86696904D01*
X168380409Y-86697075D01*
X168380517Y-86697238D01*
X168380527Y-86697254D01*
X168449396Y-86801018D01*
X168449401Y-86801024D01*
X168449627Y-86801365D01*
X168449901Y-86801673D01*
X168449902Y-86801675D01*
X168558432Y-86923952D01*
X168561361Y-86932415D01*
X168557955Y-86939992D01*
X168219992Y-87277955D01*
X168211719Y-87281382D01*
X168203952Y-87278432D01*
X168081675Y-87169902D01*
X168081673Y-87169901D01*
X168081365Y-87169627D01*
X168081024Y-87169401D01*
X168081018Y-87169396D01*
X167977254Y-87100527D01*
X167977238Y-87100517D01*
X167977075Y-87100409D01*
X167976904Y-87100313D01*
X167976891Y-87100305D01*
X167882008Y-87047038D01*
X167881266Y-87046584D01*
X167778027Y-86978063D01*
X167776730Y-86977065D01*
X167655772Y-86869705D01*
X167651860Y-86861651D01*
X167654789Y-86853188D01*
X167655192Y-86852757D01*
X167893293Y-86613293D01*
X168132710Y-86375239D01*
X168140988Y-86371839D01*
X168149252Y-86375289D01*
G37*
%TD.AperFunction*%
%TD*%
%TA.AperFunction,Conductor*%
%TO.N,PB14_PWM*%
G36*
X173424289Y-111471977D02*
G01*
X173430614Y-111478317D01*
X173430845Y-111478925D01*
X173536127Y-111780504D01*
X173536429Y-111781511D01*
X173595718Y-112017644D01*
X173595727Y-112017677D01*
X173595755Y-112017788D01*
X173595791Y-112017908D01*
X173595799Y-112017937D01*
X173655626Y-112217474D01*
X173655627Y-112217475D01*
X173766424Y-112419950D01*
X173893053Y-112566222D01*
X173971523Y-112656864D01*
X173974347Y-112665362D01*
X173970950Y-112672795D01*
X173632795Y-113010950D01*
X173624522Y-113014377D01*
X173616864Y-113011523D01*
X173526222Y-112933053D01*
X173379950Y-112806424D01*
X173345009Y-112787303D01*
X173177474Y-112695626D01*
X172977937Y-112635799D01*
X172977908Y-112635791D01*
X172977788Y-112635755D01*
X172977677Y-112635727D01*
X172977644Y-112635718D01*
X172741511Y-112576429D01*
X172740504Y-112576127D01*
X172438925Y-112470845D01*
X172432243Y-112464883D01*
X172431735Y-112455943D01*
X172431959Y-112455351D01*
X172717437Y-111763787D01*
X172723762Y-111757448D01*
X173415336Y-111471966D01*
X173424289Y-111471977D01*
G37*
%TD.AperFunction*%
%TD*%
%TA.AperFunction,Conductor*%
%TO.N,PB14_PWM*%
G36*
X154119074Y-94612349D02*
G01*
X154429821Y-94740104D01*
X154433662Y-94742669D01*
X154670356Y-94980320D01*
X154673766Y-94988600D01*
X154670322Y-94996866D01*
X154669450Y-94997652D01*
X154590273Y-95062069D01*
X154588898Y-95063032D01*
X154510528Y-95109940D01*
X154510518Y-95109946D01*
X154510360Y-95110041D01*
X154510225Y-95110134D01*
X154510200Y-95110151D01*
X154447080Y-95154084D01*
X154405167Y-95216994D01*
X154391459Y-95311038D01*
X154386874Y-95318730D01*
X154379881Y-95321050D01*
X153902288Y-95321050D01*
X153894015Y-95317623D01*
X153890588Y-95309350D01*
X153890602Y-95308777D01*
X153898995Y-95137699D01*
X153899228Y-95135883D01*
X153904619Y-95110041D01*
X153925646Y-95009256D01*
X153926267Y-95007225D01*
X153969873Y-94900858D01*
X153970229Y-94900076D01*
X154031108Y-94778701D01*
X154031203Y-94778497D01*
X154088924Y-94651456D01*
X154103976Y-94618330D01*
X154110517Y-94612217D01*
X154119074Y-94612349D01*
G37*
%TD.AperFunction*%
%TD*%
%TA.AperFunction,Conductor*%
%TO.N,PB13_PWM*%
G36*
X173424289Y-114011977D02*
G01*
X173430614Y-114018317D01*
X173430845Y-114018925D01*
X173536127Y-114320504D01*
X173536429Y-114321511D01*
X173595718Y-114557644D01*
X173595727Y-114557677D01*
X173595755Y-114557788D01*
X173595791Y-114557908D01*
X173595799Y-114557937D01*
X173655626Y-114757474D01*
X173655627Y-114757475D01*
X173766424Y-114959950D01*
X173893053Y-115106222D01*
X173971523Y-115196864D01*
X173974347Y-115205362D01*
X173970950Y-115212795D01*
X173632795Y-115550950D01*
X173624522Y-115554377D01*
X173616864Y-115551523D01*
X173526222Y-115473053D01*
X173379950Y-115346424D01*
X173345009Y-115327304D01*
X173177474Y-115235626D01*
X172977937Y-115175799D01*
X172977908Y-115175791D01*
X172977788Y-115175755D01*
X172977677Y-115175727D01*
X172977644Y-115175718D01*
X172741511Y-115116429D01*
X172740504Y-115116127D01*
X172438925Y-115010845D01*
X172432243Y-115004883D01*
X172431735Y-114995943D01*
X172431959Y-114995351D01*
X172717437Y-114303787D01*
X172723762Y-114297448D01*
X173415336Y-114011966D01*
X173424289Y-114011977D01*
G37*
%TD.AperFunction*%
%TD*%
%TA.AperFunction,Conductor*%
%TO.N,PB13_PWM*%
G36*
X155277618Y-95503964D02*
G01*
X155285881Y-95507415D01*
X155289284Y-95515697D01*
X155289263Y-95516360D01*
X155279648Y-95677803D01*
X155279437Y-95679425D01*
X155254885Y-95800883D01*
X155254681Y-95801729D01*
X155225259Y-95906474D01*
X155225252Y-95906500D01*
X155225200Y-95906688D01*
X155225156Y-95906901D01*
X155225156Y-95906905D01*
X155200480Y-96028976D01*
X155200478Y-96028987D01*
X155200400Y-96029376D01*
X155200376Y-96029772D01*
X155200375Y-96029783D01*
X155190655Y-96192996D01*
X155186743Y-96201050D01*
X155178976Y-96204000D01*
X154701024Y-96204000D01*
X154692751Y-96200573D01*
X154689345Y-96192996D01*
X154679624Y-96029783D01*
X154679600Y-96029376D01*
X154654799Y-95906688D01*
X154625314Y-95801718D01*
X154625113Y-95800883D01*
X154600562Y-95679425D01*
X154600351Y-95677803D01*
X154590736Y-95516360D01*
X154593665Y-95507897D01*
X154601719Y-95503985D01*
X154602360Y-95503964D01*
X154940000Y-95503000D01*
X155277618Y-95503964D01*
G37*
%TD.AperFunction*%
%TD*%
M02*
