%TF.GenerationSoftware,KiCad,Pcbnew,7.0.2*%
%TF.CreationDate,2023-06-10T17:52:28+02:00*%
%TF.ProjectId,USBCPD_PCB,55534243-5044-45f5-9043-422e6b696361,rev?*%
%TF.SameCoordinates,Original*%
%TF.FileFunction,Drillmap*%
%TF.FilePolarity,Positive*%
%FSLAX45Y45*%
G04 Gerber Fmt 4.5, Leading zero omitted, Abs format (unit mm)*
G04 Created by KiCad (PCBNEW 7.0.2) date 2023-06-10 17:52:28*
%MOMM*%
%LPD*%
G01*
G04 APERTURE LIST*
%ADD10C,0.100000*%
%ADD11C,0.200000*%
%ADD12C,0.040000*%
%ADD13C,0.060000*%
%ADD14C,0.102000*%
%ADD15C,0.130000*%
G04 APERTURE END LIST*
D10*
X17576800Y-7518400D02*
X17576800Y-12649200D01*
X10617200Y-12649200D02*
X10617200Y-7518400D01*
X17576800Y-12649200D02*
X10617200Y-12649200D01*
X10617200Y-7518400D02*
X17576800Y-7518400D01*
D11*
D12*
X11359200Y-10343200D02*
X11399200Y-10383200D01*
X11399200Y-10343200D02*
X11359200Y-10383200D01*
X14686600Y-11054400D02*
X14726600Y-11094400D01*
X14726600Y-11054400D02*
X14686600Y-11094400D01*
X14788200Y-11054400D02*
X14828200Y-11094400D01*
X14828200Y-11054400D02*
X14788200Y-11094400D01*
X14864400Y-11130600D02*
X14904400Y-11170600D01*
X14904400Y-11130600D02*
X14864400Y-11170600D01*
X15004100Y-11274250D02*
X15044100Y-11314250D01*
X15044100Y-11274250D02*
X15004100Y-11314250D01*
X15093000Y-11359200D02*
X15133000Y-11399200D01*
X15133000Y-11359200D02*
X15093000Y-11399200D01*
X15321600Y-9352600D02*
X15361600Y-9392600D01*
X15361600Y-9352600D02*
X15321600Y-9392600D01*
X15347000Y-12324400D02*
X15387000Y-12364400D01*
X15387000Y-12324400D02*
X15347000Y-12364400D01*
X15423200Y-9454200D02*
X15463200Y-9494200D01*
X15463200Y-9454200D02*
X15423200Y-9494200D01*
X15474000Y-9530400D02*
X15514000Y-9570400D01*
X15514000Y-9530400D02*
X15474000Y-9570400D01*
X15905800Y-10546400D02*
X15945800Y-10586400D01*
X15945800Y-10546400D02*
X15905800Y-10586400D01*
X16769400Y-8641400D02*
X16809400Y-8681400D01*
X16809400Y-8641400D02*
X16769400Y-8681400D01*
D13*
X11510800Y-8940800D02*
G75*
G03*
X11510800Y-8940800I-30000J0D01*
G01*
X11510800Y-9067800D02*
G75*
G03*
X11510800Y-9067800I-30000J0D01*
G01*
X11510800Y-11607800D02*
G75*
G03*
X11510800Y-11607800I-30000J0D01*
G01*
X11637800Y-8940800D02*
G75*
G03*
X11637800Y-8940800I-30000J0D01*
G01*
X11637800Y-9067800D02*
G75*
G03*
X11637800Y-9067800I-30000J0D01*
G01*
X11637800Y-11607800D02*
G75*
G03*
X11637800Y-11607800I-30000J0D01*
G01*
X11714000Y-10185400D02*
G75*
G03*
X11714000Y-10185400I-30000J0D01*
G01*
X11714000Y-10337800D02*
G75*
G03*
X11714000Y-10337800I-30000J0D01*
G01*
X11764800Y-8940800D02*
G75*
G03*
X11764800Y-8940800I-30000J0D01*
G01*
X11764800Y-9067800D02*
G75*
G03*
X11764800Y-9067800I-30000J0D01*
G01*
X11764800Y-11607800D02*
G75*
G03*
X11764800Y-11607800I-30000J0D01*
G01*
X11841000Y-10439400D02*
G75*
G03*
X11841000Y-10439400I-30000J0D01*
G01*
X11891800Y-8940800D02*
G75*
G03*
X11891800Y-8940800I-30000J0D01*
G01*
X11891800Y-9067800D02*
G75*
G03*
X11891800Y-9067800I-30000J0D01*
G01*
X11891800Y-11607800D02*
G75*
G03*
X11891800Y-11607800I-30000J0D01*
G01*
X11968000Y-10439400D02*
G75*
G03*
X11968000Y-10439400I-30000J0D01*
G01*
X12018800Y-8940800D02*
G75*
G03*
X12018800Y-8940800I-30000J0D01*
G01*
X12018800Y-11607800D02*
G75*
G03*
X12018800Y-11607800I-30000J0D01*
G01*
X12095000Y-10439400D02*
G75*
G03*
X12095000Y-10439400I-30000J0D01*
G01*
X12171200Y-10541000D02*
G75*
G03*
X12171200Y-10541000I-30000J0D01*
G01*
X12171200Y-10668000D02*
G75*
G03*
X12171200Y-10668000I-30000J0D01*
G01*
X12171200Y-10795000D02*
G75*
G03*
X12171200Y-10795000I-30000J0D01*
G01*
X12171200Y-10922000D02*
G75*
G03*
X12171200Y-10922000I-30000J0D01*
G01*
X12450600Y-12090400D02*
G75*
G03*
X12450600Y-12090400I-30000J0D01*
G01*
X13492000Y-8407400D02*
G75*
G03*
X13492000Y-8407400I-30000J0D01*
G01*
X13492000Y-11506200D02*
G75*
G03*
X13492000Y-11506200I-30000J0D01*
G01*
X13492000Y-11633200D02*
G75*
G03*
X13492000Y-11633200I-30000J0D01*
G01*
X13492000Y-11760200D02*
G75*
G03*
X13492000Y-11760200I-30000J0D01*
G01*
X13492000Y-11887200D02*
G75*
G03*
X13492000Y-11887200I-30000J0D01*
G01*
X13492000Y-12014200D02*
G75*
G03*
X13492000Y-12014200I-30000J0D01*
G01*
X13492000Y-12141200D02*
G75*
G03*
X13492000Y-12141200I-30000J0D01*
G01*
X13492000Y-12268200D02*
G75*
G03*
X13492000Y-12268200I-30000J0D01*
G01*
X13568200Y-9347200D02*
G75*
G03*
X13568200Y-9347200I-30000J0D01*
G01*
X13619000Y-11506200D02*
G75*
G03*
X13619000Y-11506200I-30000J0D01*
G01*
X13619000Y-11633200D02*
G75*
G03*
X13619000Y-11633200I-30000J0D01*
G01*
X13619000Y-12268200D02*
G75*
G03*
X13619000Y-12268200I-30000J0D01*
G01*
X13746000Y-11506200D02*
G75*
G03*
X13746000Y-11506200I-30000J0D01*
G01*
X13746000Y-11633200D02*
G75*
G03*
X13746000Y-11633200I-30000J0D01*
G01*
X13746000Y-12268200D02*
G75*
G03*
X13746000Y-12268200I-30000J0D01*
G01*
X13771400Y-8077200D02*
G75*
G03*
X13771400Y-8077200I-30000J0D01*
G01*
X13771400Y-9144000D02*
G75*
G03*
X13771400Y-9144000I-30000J0D01*
G01*
X13873000Y-11506200D02*
G75*
G03*
X13873000Y-11506200I-30000J0D01*
G01*
X13873000Y-11633200D02*
G75*
G03*
X13873000Y-11633200I-30000J0D01*
G01*
X13873000Y-12268200D02*
G75*
G03*
X13873000Y-12268200I-30000J0D01*
G01*
X13923800Y-8077200D02*
G75*
G03*
X13923800Y-8077200I-30000J0D01*
G01*
X14000000Y-11506200D02*
G75*
G03*
X14000000Y-11506200I-30000J0D01*
G01*
X14000000Y-11633200D02*
G75*
G03*
X14000000Y-11633200I-30000J0D01*
G01*
X14000000Y-11760200D02*
G75*
G03*
X14000000Y-11760200I-30000J0D01*
G01*
X14000000Y-11887200D02*
G75*
G03*
X14000000Y-11887200I-30000J0D01*
G01*
X14000000Y-12014200D02*
G75*
G03*
X14000000Y-12014200I-30000J0D01*
G01*
X14000000Y-12141200D02*
G75*
G03*
X14000000Y-12141200I-30000J0D01*
G01*
X14000000Y-12268200D02*
G75*
G03*
X14000000Y-12268200I-30000J0D01*
G01*
X14558800Y-9194800D02*
G75*
G03*
X14558800Y-9194800I-30000J0D01*
G01*
X14609600Y-9321800D02*
G75*
G03*
X14609600Y-9321800I-30000J0D01*
G01*
X14939800Y-11887200D02*
G75*
G03*
X14939800Y-11887200I-30000J0D01*
G01*
X14939800Y-12014200D02*
G75*
G03*
X14939800Y-12014200I-30000J0D01*
G01*
X14939800Y-12141200D02*
G75*
G03*
X14939800Y-12141200I-30000J0D01*
G01*
X14965200Y-8331200D02*
G75*
G03*
X14965200Y-8331200I-30000J0D01*
G01*
X15117600Y-8331200D02*
G75*
G03*
X15117600Y-8331200I-30000J0D01*
G01*
X15270000Y-7975600D02*
G75*
G03*
X15270000Y-7975600I-30000J0D01*
G01*
X15270000Y-8153400D02*
G75*
G03*
X15270000Y-8153400I-30000J0D01*
G01*
X15270000Y-8331200D02*
G75*
G03*
X15270000Y-8331200I-30000J0D01*
G01*
X15295400Y-10515600D02*
G75*
G03*
X15295400Y-10515600I-30000J0D01*
G01*
X15397000Y-7670800D02*
G75*
G03*
X15397000Y-7670800I-30000J0D01*
G01*
X15447800Y-10515600D02*
G75*
G03*
X15447800Y-10515600I-30000J0D01*
G01*
X15600200Y-10515600D02*
G75*
G03*
X15600200Y-10515600I-30000J0D01*
G01*
X15651000Y-9829800D02*
G75*
G03*
X15651000Y-9829800I-30000J0D01*
G01*
X15727200Y-10439400D02*
G75*
G03*
X15727200Y-10439400I-30000J0D01*
G01*
X15727200Y-10566400D02*
G75*
G03*
X15727200Y-10566400I-30000J0D01*
G01*
X15727200Y-10693400D02*
G75*
G03*
X15727200Y-10693400I-30000J0D01*
G01*
X15727200Y-10820400D02*
G75*
G03*
X15727200Y-10820400I-30000J0D01*
G01*
X15752600Y-9931400D02*
G75*
G03*
X15752600Y-9931400I-30000J0D01*
G01*
X15854200Y-10033000D02*
G75*
G03*
X15854200Y-10033000I-30000J0D01*
G01*
X15955800Y-10134600D02*
G75*
G03*
X15955800Y-10134600I-30000J0D01*
G01*
X15981200Y-11963400D02*
G75*
G03*
X15981200Y-11963400I-30000J0D01*
G01*
X16057400Y-10236200D02*
G75*
G03*
X16057400Y-10236200I-30000J0D01*
G01*
X16133600Y-11963400D02*
G75*
G03*
X16133600Y-11963400I-30000J0D01*
G01*
X16286000Y-11963400D02*
G75*
G03*
X16286000Y-11963400I-30000J0D01*
G01*
X16438400Y-11963400D02*
G75*
G03*
X16438400Y-11963400I-30000J0D01*
G01*
X16565400Y-8128000D02*
G75*
G03*
X16565400Y-8128000I-30000J0D01*
G01*
X16590800Y-11963400D02*
G75*
G03*
X16590800Y-11963400I-30000J0D01*
G01*
X16692400Y-8128000D02*
G75*
G03*
X16692400Y-8128000I-30000J0D01*
G01*
X16819400Y-8128000D02*
G75*
G03*
X16819400Y-8128000I-30000J0D01*
G01*
D14*
X10922000Y-7823000D02*
X10922000Y-7925000D01*
X10871000Y-7874000D02*
X10973000Y-7874000D01*
X10922000Y-8077000D02*
X10922000Y-8179000D01*
X10871000Y-8128000D02*
X10973000Y-8128000D01*
X10922000Y-8331000D02*
X10922000Y-8433000D01*
X10871000Y-8382000D02*
X10973000Y-8382000D01*
X10922000Y-8585000D02*
X10922000Y-8687000D01*
X10871000Y-8636000D02*
X10973000Y-8636000D01*
X10922000Y-8839000D02*
X10922000Y-8941000D01*
X10871000Y-8890000D02*
X10973000Y-8890000D01*
X10922000Y-9093000D02*
X10922000Y-9195000D01*
X10871000Y-9144000D02*
X10973000Y-9144000D01*
X10922000Y-9347000D02*
X10922000Y-9449000D01*
X10871000Y-9398000D02*
X10973000Y-9398000D01*
X10922000Y-9601000D02*
X10922000Y-9703000D01*
X10871000Y-9652000D02*
X10973000Y-9652000D01*
X10922000Y-9855000D02*
X10922000Y-9957000D01*
X10871000Y-9906000D02*
X10973000Y-9906000D01*
X10922000Y-10109000D02*
X10922000Y-10211000D01*
X10871000Y-10160000D02*
X10973000Y-10160000D01*
X10922000Y-10363000D02*
X10922000Y-10465000D01*
X10871000Y-10414000D02*
X10973000Y-10414000D01*
X10922000Y-10617000D02*
X10922000Y-10719000D01*
X10871000Y-10668000D02*
X10973000Y-10668000D01*
X10922000Y-10871000D02*
X10922000Y-10973000D01*
X10871000Y-10922000D02*
X10973000Y-10922000D01*
X10922000Y-11125000D02*
X10922000Y-11227000D01*
X10871000Y-11176000D02*
X10973000Y-11176000D01*
X10922000Y-11379000D02*
X10922000Y-11481000D01*
X10871000Y-11430000D02*
X10973000Y-11430000D01*
X10922000Y-11633000D02*
X10922000Y-11735000D01*
X10871000Y-11684000D02*
X10973000Y-11684000D01*
X10922000Y-11887000D02*
X10922000Y-11989000D01*
X10871000Y-11938000D02*
X10973000Y-11938000D01*
X10922000Y-12141000D02*
X10922000Y-12243000D01*
X10871000Y-12192000D02*
X10973000Y-12192000D01*
X10922000Y-12395000D02*
X10922000Y-12497000D01*
X10871000Y-12446000D02*
X10973000Y-12446000D01*
X11176000Y-7823000D02*
X11176000Y-7925000D01*
X11125000Y-7874000D02*
X11227000Y-7874000D01*
X11176000Y-8077000D02*
X11176000Y-8179000D01*
X11125000Y-8128000D02*
X11227000Y-8128000D01*
X11176000Y-8331000D02*
X11176000Y-8433000D01*
X11125000Y-8382000D02*
X11227000Y-8382000D01*
X11176000Y-8585000D02*
X11176000Y-8687000D01*
X11125000Y-8636000D02*
X11227000Y-8636000D01*
X11176000Y-8839000D02*
X11176000Y-8941000D01*
X11125000Y-8890000D02*
X11227000Y-8890000D01*
X11176000Y-9093000D02*
X11176000Y-9195000D01*
X11125000Y-9144000D02*
X11227000Y-9144000D01*
X11176000Y-9347000D02*
X11176000Y-9449000D01*
X11125000Y-9398000D02*
X11227000Y-9398000D01*
X11176000Y-9601000D02*
X11176000Y-9703000D01*
X11125000Y-9652000D02*
X11227000Y-9652000D01*
X11176000Y-9855000D02*
X11176000Y-9957000D01*
X11125000Y-9906000D02*
X11227000Y-9906000D01*
X11176000Y-10109000D02*
X11176000Y-10211000D01*
X11125000Y-10160000D02*
X11227000Y-10160000D01*
X11176000Y-10363000D02*
X11176000Y-10465000D01*
X11125000Y-10414000D02*
X11227000Y-10414000D01*
X11176000Y-10617000D02*
X11176000Y-10719000D01*
X11125000Y-10668000D02*
X11227000Y-10668000D01*
X11176000Y-10871000D02*
X11176000Y-10973000D01*
X11125000Y-10922000D02*
X11227000Y-10922000D01*
X11176000Y-11125000D02*
X11176000Y-11227000D01*
X11125000Y-11176000D02*
X11227000Y-11176000D01*
X11176000Y-11379000D02*
X11176000Y-11481000D01*
X11125000Y-11430000D02*
X11227000Y-11430000D01*
X11176000Y-11633000D02*
X11176000Y-11735000D01*
X11125000Y-11684000D02*
X11227000Y-11684000D01*
X11176000Y-11887000D02*
X11176000Y-11989000D01*
X11125000Y-11938000D02*
X11227000Y-11938000D01*
X11176000Y-12141000D02*
X11176000Y-12243000D01*
X11125000Y-12192000D02*
X11227000Y-12192000D01*
X11176000Y-12395000D02*
X11176000Y-12497000D01*
X11125000Y-12446000D02*
X11227000Y-12446000D01*
X17018000Y-7823000D02*
X17018000Y-7925000D01*
X16967000Y-7874000D02*
X17069000Y-7874000D01*
X17018000Y-8077000D02*
X17018000Y-8179000D01*
X16967000Y-8128000D02*
X17069000Y-8128000D01*
X17018000Y-8331000D02*
X17018000Y-8433000D01*
X16967000Y-8382000D02*
X17069000Y-8382000D01*
X17018000Y-8585000D02*
X17018000Y-8687000D01*
X16967000Y-8636000D02*
X17069000Y-8636000D01*
X17018000Y-8839000D02*
X17018000Y-8941000D01*
X16967000Y-8890000D02*
X17069000Y-8890000D01*
X17018000Y-9093000D02*
X17018000Y-9195000D01*
X16967000Y-9144000D02*
X17069000Y-9144000D01*
X17018000Y-9347000D02*
X17018000Y-9449000D01*
X16967000Y-9398000D02*
X17069000Y-9398000D01*
X17018000Y-9601000D02*
X17018000Y-9703000D01*
X16967000Y-9652000D02*
X17069000Y-9652000D01*
X17018000Y-9855000D02*
X17018000Y-9957000D01*
X16967000Y-9906000D02*
X17069000Y-9906000D01*
X17018000Y-10109000D02*
X17018000Y-10211000D01*
X16967000Y-10160000D02*
X17069000Y-10160000D01*
X17018000Y-10363000D02*
X17018000Y-10465000D01*
X16967000Y-10414000D02*
X17069000Y-10414000D01*
X17018000Y-10617000D02*
X17018000Y-10719000D01*
X16967000Y-10668000D02*
X17069000Y-10668000D01*
X17018000Y-10871000D02*
X17018000Y-10973000D01*
X16967000Y-10922000D02*
X17069000Y-10922000D01*
X17018000Y-11125000D02*
X17018000Y-11227000D01*
X16967000Y-11176000D02*
X17069000Y-11176000D01*
X17018000Y-11379000D02*
X17018000Y-11481000D01*
X16967000Y-11430000D02*
X17069000Y-11430000D01*
X17018000Y-11633000D02*
X17018000Y-11735000D01*
X16967000Y-11684000D02*
X17069000Y-11684000D01*
X17018000Y-11887000D02*
X17018000Y-11989000D01*
X16967000Y-11938000D02*
X17069000Y-11938000D01*
X17018000Y-12141000D02*
X17018000Y-12243000D01*
X16967000Y-12192000D02*
X17069000Y-12192000D01*
X17018000Y-12395000D02*
X17018000Y-12497000D01*
X16967000Y-12446000D02*
X17069000Y-12446000D01*
X17272000Y-7823000D02*
X17272000Y-7925000D01*
X17221000Y-7874000D02*
X17323000Y-7874000D01*
X17272000Y-8077000D02*
X17272000Y-8179000D01*
X17221000Y-8128000D02*
X17323000Y-8128000D01*
X17272000Y-8331000D02*
X17272000Y-8433000D01*
X17221000Y-8382000D02*
X17323000Y-8382000D01*
X17272000Y-8585000D02*
X17272000Y-8687000D01*
X17221000Y-8636000D02*
X17323000Y-8636000D01*
X17272000Y-8839000D02*
X17272000Y-8941000D01*
X17221000Y-8890000D02*
X17323000Y-8890000D01*
X17272000Y-9093000D02*
X17272000Y-9195000D01*
X17221000Y-9144000D02*
X17323000Y-9144000D01*
X17272000Y-9347000D02*
X17272000Y-9449000D01*
X17221000Y-9398000D02*
X17323000Y-9398000D01*
X17272000Y-9601000D02*
X17272000Y-9703000D01*
X17221000Y-9652000D02*
X17323000Y-9652000D01*
X17272000Y-9855000D02*
X17272000Y-9957000D01*
X17221000Y-9906000D02*
X17323000Y-9906000D01*
X17272000Y-10109000D02*
X17272000Y-10211000D01*
X17221000Y-10160000D02*
X17323000Y-10160000D01*
X17272000Y-10363000D02*
X17272000Y-10465000D01*
X17221000Y-10414000D02*
X17323000Y-10414000D01*
X17272000Y-10617000D02*
X17272000Y-10719000D01*
X17221000Y-10668000D02*
X17323000Y-10668000D01*
X17272000Y-10871000D02*
X17272000Y-10973000D01*
X17221000Y-10922000D02*
X17323000Y-10922000D01*
X17272000Y-11125000D02*
X17272000Y-11227000D01*
X17221000Y-11176000D02*
X17323000Y-11176000D01*
X17272000Y-11379000D02*
X17272000Y-11481000D01*
X17221000Y-11430000D02*
X17323000Y-11430000D01*
X17272000Y-11633000D02*
X17272000Y-11735000D01*
X17221000Y-11684000D02*
X17323000Y-11684000D01*
X17272000Y-11887000D02*
X17272000Y-11989000D01*
X17221000Y-11938000D02*
X17323000Y-11938000D01*
X17272000Y-12141000D02*
X17272000Y-12243000D01*
X17221000Y-12192000D02*
X17323000Y-12192000D01*
X17272000Y-12395000D02*
X17272000Y-12497000D01*
X17221000Y-12446000D02*
X17323000Y-12446000D01*
D15*
X13232562Y-11953962D02*
X13232562Y-11862038D01*
X13140638Y-11862038D01*
X13140638Y-11953962D01*
X13232562Y-11953962D01*
X13732562Y-11953962D02*
X13732562Y-11862038D01*
X13640638Y-11862038D01*
X13640638Y-11953962D01*
X13732562Y-11953962D01*
X14553362Y-8127762D02*
X14553362Y-8035838D01*
X14461438Y-8035838D01*
X14461438Y-8127762D01*
X14553362Y-8127762D01*
X15053362Y-8127762D02*
X15053362Y-8035838D01*
X14961438Y-8035838D01*
X14961438Y-8127762D01*
X15053362Y-8127762D01*
D11*
X10859819Y-12966724D02*
X10859819Y-12766724D01*
X10859819Y-12766724D02*
X10907438Y-12766724D01*
X10907438Y-12766724D02*
X10936010Y-12776248D01*
X10936010Y-12776248D02*
X10955057Y-12795295D01*
X10955057Y-12795295D02*
X10964581Y-12814343D01*
X10964581Y-12814343D02*
X10974105Y-12852438D01*
X10974105Y-12852438D02*
X10974105Y-12881009D01*
X10974105Y-12881009D02*
X10964581Y-12919105D01*
X10964581Y-12919105D02*
X10955057Y-12938152D01*
X10955057Y-12938152D02*
X10936010Y-12957200D01*
X10936010Y-12957200D02*
X10907438Y-12966724D01*
X10907438Y-12966724D02*
X10859819Y-12966724D01*
X11059819Y-12966724D02*
X11059819Y-12833390D01*
X11059819Y-12871486D02*
X11069343Y-12852438D01*
X11069343Y-12852438D02*
X11078867Y-12842914D01*
X11078867Y-12842914D02*
X11097914Y-12833390D01*
X11097914Y-12833390D02*
X11116962Y-12833390D01*
X11183629Y-12966724D02*
X11183629Y-12833390D01*
X11183629Y-12766724D02*
X11174105Y-12776248D01*
X11174105Y-12776248D02*
X11183629Y-12785771D01*
X11183629Y-12785771D02*
X11193152Y-12776248D01*
X11193152Y-12776248D02*
X11183629Y-12766724D01*
X11183629Y-12766724D02*
X11183629Y-12785771D01*
X11307438Y-12966724D02*
X11288390Y-12957200D01*
X11288390Y-12957200D02*
X11278867Y-12938152D01*
X11278867Y-12938152D02*
X11278867Y-12766724D01*
X11412200Y-12966724D02*
X11393152Y-12957200D01*
X11393152Y-12957200D02*
X11383628Y-12938152D01*
X11383628Y-12938152D02*
X11383628Y-12766724D01*
X11640771Y-12966724D02*
X11640771Y-12766724D01*
X11640771Y-12766724D02*
X11707438Y-12909581D01*
X11707438Y-12909581D02*
X11774105Y-12766724D01*
X11774105Y-12766724D02*
X11774105Y-12966724D01*
X11955057Y-12966724D02*
X11955057Y-12861962D01*
X11955057Y-12861962D02*
X11945533Y-12842914D01*
X11945533Y-12842914D02*
X11926486Y-12833390D01*
X11926486Y-12833390D02*
X11888390Y-12833390D01*
X11888390Y-12833390D02*
X11869343Y-12842914D01*
X11955057Y-12957200D02*
X11936009Y-12966724D01*
X11936009Y-12966724D02*
X11888390Y-12966724D01*
X11888390Y-12966724D02*
X11869343Y-12957200D01*
X11869343Y-12957200D02*
X11859819Y-12938152D01*
X11859819Y-12938152D02*
X11859819Y-12919105D01*
X11859819Y-12919105D02*
X11869343Y-12900057D01*
X11869343Y-12900057D02*
X11888390Y-12890533D01*
X11888390Y-12890533D02*
X11936009Y-12890533D01*
X11936009Y-12890533D02*
X11955057Y-12881009D01*
X12050295Y-12833390D02*
X12050295Y-13033390D01*
X12050295Y-12842914D02*
X12069343Y-12833390D01*
X12069343Y-12833390D02*
X12107438Y-12833390D01*
X12107438Y-12833390D02*
X12126486Y-12842914D01*
X12126486Y-12842914D02*
X12136009Y-12852438D01*
X12136009Y-12852438D02*
X12145533Y-12871486D01*
X12145533Y-12871486D02*
X12145533Y-12928628D01*
X12145533Y-12928628D02*
X12136009Y-12947676D01*
X12136009Y-12947676D02*
X12126486Y-12957200D01*
X12126486Y-12957200D02*
X12107438Y-12966724D01*
X12107438Y-12966724D02*
X12069343Y-12966724D01*
X12069343Y-12966724D02*
X12050295Y-12957200D01*
X12231248Y-12947676D02*
X12240771Y-12957200D01*
X12240771Y-12957200D02*
X12231248Y-12966724D01*
X12231248Y-12966724D02*
X12221724Y-12957200D01*
X12221724Y-12957200D02*
X12231248Y-12947676D01*
X12231248Y-12947676D02*
X12231248Y-12966724D01*
X12231248Y-12842914D02*
X12240771Y-12852438D01*
X12240771Y-12852438D02*
X12231248Y-12861962D01*
X12231248Y-12861962D02*
X12221724Y-12852438D01*
X12221724Y-12852438D02*
X12231248Y-12842914D01*
X12231248Y-12842914D02*
X12231248Y-12861962D01*
D12*
X10572200Y-13274200D02*
X10612200Y-13314200D01*
X10612200Y-13274200D02*
X10572200Y-13314200D01*
D11*
X10897914Y-13186724D02*
X10916962Y-13186724D01*
X10916962Y-13186724D02*
X10936010Y-13196248D01*
X10936010Y-13196248D02*
X10945533Y-13205771D01*
X10945533Y-13205771D02*
X10955057Y-13224819D01*
X10955057Y-13224819D02*
X10964581Y-13262914D01*
X10964581Y-13262914D02*
X10964581Y-13310533D01*
X10964581Y-13310533D02*
X10955057Y-13348628D01*
X10955057Y-13348628D02*
X10945533Y-13367676D01*
X10945533Y-13367676D02*
X10936010Y-13377200D01*
X10936010Y-13377200D02*
X10916962Y-13386724D01*
X10916962Y-13386724D02*
X10897914Y-13386724D01*
X10897914Y-13386724D02*
X10878867Y-13377200D01*
X10878867Y-13377200D02*
X10869343Y-13367676D01*
X10869343Y-13367676D02*
X10859819Y-13348628D01*
X10859819Y-13348628D02*
X10850295Y-13310533D01*
X10850295Y-13310533D02*
X10850295Y-13262914D01*
X10850295Y-13262914D02*
X10859819Y-13224819D01*
X10859819Y-13224819D02*
X10869343Y-13205771D01*
X10869343Y-13205771D02*
X10878867Y-13196248D01*
X10878867Y-13196248D02*
X10897914Y-13186724D01*
X11050295Y-13367676D02*
X11059819Y-13377200D01*
X11059819Y-13377200D02*
X11050295Y-13386724D01*
X11050295Y-13386724D02*
X11040771Y-13377200D01*
X11040771Y-13377200D02*
X11050295Y-13367676D01*
X11050295Y-13367676D02*
X11050295Y-13386724D01*
X11231248Y-13253390D02*
X11231248Y-13386724D01*
X11183629Y-13177200D02*
X11136010Y-13320057D01*
X11136010Y-13320057D02*
X11259819Y-13320057D01*
X11374105Y-13186724D02*
X11393152Y-13186724D01*
X11393152Y-13186724D02*
X11412200Y-13196248D01*
X11412200Y-13196248D02*
X11421724Y-13205771D01*
X11421724Y-13205771D02*
X11431248Y-13224819D01*
X11431248Y-13224819D02*
X11440771Y-13262914D01*
X11440771Y-13262914D02*
X11440771Y-13310533D01*
X11440771Y-13310533D02*
X11431248Y-13348628D01*
X11431248Y-13348628D02*
X11421724Y-13367676D01*
X11421724Y-13367676D02*
X11412200Y-13377200D01*
X11412200Y-13377200D02*
X11393152Y-13386724D01*
X11393152Y-13386724D02*
X11374105Y-13386724D01*
X11374105Y-13386724D02*
X11355057Y-13377200D01*
X11355057Y-13377200D02*
X11345533Y-13367676D01*
X11345533Y-13367676D02*
X11336009Y-13348628D01*
X11336009Y-13348628D02*
X11326486Y-13310533D01*
X11326486Y-13310533D02*
X11326486Y-13262914D01*
X11326486Y-13262914D02*
X11336009Y-13224819D01*
X11336009Y-13224819D02*
X11345533Y-13205771D01*
X11345533Y-13205771D02*
X11355057Y-13196248D01*
X11355057Y-13196248D02*
X11374105Y-13186724D01*
X11564581Y-13186724D02*
X11583629Y-13186724D01*
X11583629Y-13186724D02*
X11602676Y-13196248D01*
X11602676Y-13196248D02*
X11612200Y-13205771D01*
X11612200Y-13205771D02*
X11621724Y-13224819D01*
X11621724Y-13224819D02*
X11631248Y-13262914D01*
X11631248Y-13262914D02*
X11631248Y-13310533D01*
X11631248Y-13310533D02*
X11621724Y-13348628D01*
X11621724Y-13348628D02*
X11612200Y-13367676D01*
X11612200Y-13367676D02*
X11602676Y-13377200D01*
X11602676Y-13377200D02*
X11583629Y-13386724D01*
X11583629Y-13386724D02*
X11564581Y-13386724D01*
X11564581Y-13386724D02*
X11545533Y-13377200D01*
X11545533Y-13377200D02*
X11536009Y-13367676D01*
X11536009Y-13367676D02*
X11526486Y-13348628D01*
X11526486Y-13348628D02*
X11516962Y-13310533D01*
X11516962Y-13310533D02*
X11516962Y-13262914D01*
X11516962Y-13262914D02*
X11526486Y-13224819D01*
X11526486Y-13224819D02*
X11536009Y-13205771D01*
X11536009Y-13205771D02*
X11545533Y-13196248D01*
X11545533Y-13196248D02*
X11564581Y-13186724D01*
X11716962Y-13386724D02*
X11716962Y-13253390D01*
X11716962Y-13272438D02*
X11726486Y-13262914D01*
X11726486Y-13262914D02*
X11745533Y-13253390D01*
X11745533Y-13253390D02*
X11774105Y-13253390D01*
X11774105Y-13253390D02*
X11793152Y-13262914D01*
X11793152Y-13262914D02*
X11802676Y-13281962D01*
X11802676Y-13281962D02*
X11802676Y-13386724D01*
X11802676Y-13281962D02*
X11812200Y-13262914D01*
X11812200Y-13262914D02*
X11831248Y-13253390D01*
X11831248Y-13253390D02*
X11859819Y-13253390D01*
X11859819Y-13253390D02*
X11878867Y-13262914D01*
X11878867Y-13262914D02*
X11888390Y-13281962D01*
X11888390Y-13281962D02*
X11888390Y-13386724D01*
X11983629Y-13386724D02*
X11983629Y-13253390D01*
X11983629Y-13272438D02*
X11993152Y-13262914D01*
X11993152Y-13262914D02*
X12012200Y-13253390D01*
X12012200Y-13253390D02*
X12040771Y-13253390D01*
X12040771Y-13253390D02*
X12059819Y-13262914D01*
X12059819Y-13262914D02*
X12069343Y-13281962D01*
X12069343Y-13281962D02*
X12069343Y-13386724D01*
X12069343Y-13281962D02*
X12078867Y-13262914D01*
X12078867Y-13262914D02*
X12097914Y-13253390D01*
X12097914Y-13253390D02*
X12126486Y-13253390D01*
X12126486Y-13253390D02*
X12145533Y-13262914D01*
X12145533Y-13262914D02*
X12155057Y-13281962D01*
X12155057Y-13281962D02*
X12155057Y-13386724D01*
X12545533Y-13177200D02*
X12374105Y-13434343D01*
X12802676Y-13186724D02*
X12821724Y-13186724D01*
X12821724Y-13186724D02*
X12840772Y-13196248D01*
X12840772Y-13196248D02*
X12850295Y-13205771D01*
X12850295Y-13205771D02*
X12859819Y-13224819D01*
X12859819Y-13224819D02*
X12869343Y-13262914D01*
X12869343Y-13262914D02*
X12869343Y-13310533D01*
X12869343Y-13310533D02*
X12859819Y-13348628D01*
X12859819Y-13348628D02*
X12850295Y-13367676D01*
X12850295Y-13367676D02*
X12840772Y-13377200D01*
X12840772Y-13377200D02*
X12821724Y-13386724D01*
X12821724Y-13386724D02*
X12802676Y-13386724D01*
X12802676Y-13386724D02*
X12783629Y-13377200D01*
X12783629Y-13377200D02*
X12774105Y-13367676D01*
X12774105Y-13367676D02*
X12764581Y-13348628D01*
X12764581Y-13348628D02*
X12755057Y-13310533D01*
X12755057Y-13310533D02*
X12755057Y-13262914D01*
X12755057Y-13262914D02*
X12764581Y-13224819D01*
X12764581Y-13224819D02*
X12774105Y-13205771D01*
X12774105Y-13205771D02*
X12783629Y-13196248D01*
X12783629Y-13196248D02*
X12802676Y-13186724D01*
X12955057Y-13367676D02*
X12964581Y-13377200D01*
X12964581Y-13377200D02*
X12955057Y-13386724D01*
X12955057Y-13386724D02*
X12945533Y-13377200D01*
X12945533Y-13377200D02*
X12955057Y-13367676D01*
X12955057Y-13367676D02*
X12955057Y-13386724D01*
X13088391Y-13186724D02*
X13107438Y-13186724D01*
X13107438Y-13186724D02*
X13126486Y-13196248D01*
X13126486Y-13196248D02*
X13136010Y-13205771D01*
X13136010Y-13205771D02*
X13145533Y-13224819D01*
X13145533Y-13224819D02*
X13155057Y-13262914D01*
X13155057Y-13262914D02*
X13155057Y-13310533D01*
X13155057Y-13310533D02*
X13145533Y-13348628D01*
X13145533Y-13348628D02*
X13136010Y-13367676D01*
X13136010Y-13367676D02*
X13126486Y-13377200D01*
X13126486Y-13377200D02*
X13107438Y-13386724D01*
X13107438Y-13386724D02*
X13088391Y-13386724D01*
X13088391Y-13386724D02*
X13069343Y-13377200D01*
X13069343Y-13377200D02*
X13059819Y-13367676D01*
X13059819Y-13367676D02*
X13050295Y-13348628D01*
X13050295Y-13348628D02*
X13040772Y-13310533D01*
X13040772Y-13310533D02*
X13040772Y-13262914D01*
X13040772Y-13262914D02*
X13050295Y-13224819D01*
X13050295Y-13224819D02*
X13059819Y-13205771D01*
X13059819Y-13205771D02*
X13069343Y-13196248D01*
X13069343Y-13196248D02*
X13088391Y-13186724D01*
X13345533Y-13386724D02*
X13231248Y-13386724D01*
X13288391Y-13386724D02*
X13288391Y-13186724D01*
X13288391Y-13186724D02*
X13269343Y-13215295D01*
X13269343Y-13215295D02*
X13250295Y-13234343D01*
X13250295Y-13234343D02*
X13231248Y-13243867D01*
X13526486Y-13186724D02*
X13431248Y-13186724D01*
X13431248Y-13186724D02*
X13421724Y-13281962D01*
X13421724Y-13281962D02*
X13431248Y-13272438D01*
X13431248Y-13272438D02*
X13450295Y-13262914D01*
X13450295Y-13262914D02*
X13497914Y-13262914D01*
X13497914Y-13262914D02*
X13516962Y-13272438D01*
X13516962Y-13272438D02*
X13526486Y-13281962D01*
X13526486Y-13281962D02*
X13536010Y-13301009D01*
X13536010Y-13301009D02*
X13536010Y-13348628D01*
X13536010Y-13348628D02*
X13526486Y-13367676D01*
X13526486Y-13367676D02*
X13516962Y-13377200D01*
X13516962Y-13377200D02*
X13497914Y-13386724D01*
X13497914Y-13386724D02*
X13450295Y-13386724D01*
X13450295Y-13386724D02*
X13431248Y-13377200D01*
X13431248Y-13377200D02*
X13421724Y-13367676D01*
X13602676Y-13186724D02*
X13736010Y-13186724D01*
X13736010Y-13186724D02*
X13650295Y-13386724D01*
X13802676Y-13186724D02*
X13802676Y-13224819D01*
X13878867Y-13186724D02*
X13878867Y-13224819D01*
X14174105Y-13462914D02*
X14164581Y-13453390D01*
X14164581Y-13453390D02*
X14145534Y-13424819D01*
X14145534Y-13424819D02*
X14136010Y-13405771D01*
X14136010Y-13405771D02*
X14126486Y-13377200D01*
X14126486Y-13377200D02*
X14116962Y-13329581D01*
X14116962Y-13329581D02*
X14116962Y-13291486D01*
X14116962Y-13291486D02*
X14126486Y-13243867D01*
X14126486Y-13243867D02*
X14136010Y-13215295D01*
X14136010Y-13215295D02*
X14145534Y-13196248D01*
X14145534Y-13196248D02*
X14164581Y-13167676D01*
X14164581Y-13167676D02*
X14174105Y-13158152D01*
X14355057Y-13386724D02*
X14240772Y-13386724D01*
X14297914Y-13386724D02*
X14297914Y-13186724D01*
X14297914Y-13186724D02*
X14278867Y-13215295D01*
X14278867Y-13215295D02*
X14259819Y-13234343D01*
X14259819Y-13234343D02*
X14240772Y-13243867D01*
X14431248Y-13205771D02*
X14440772Y-13196248D01*
X14440772Y-13196248D02*
X14459819Y-13186724D01*
X14459819Y-13186724D02*
X14507438Y-13186724D01*
X14507438Y-13186724D02*
X14526486Y-13196248D01*
X14526486Y-13196248D02*
X14536010Y-13205771D01*
X14536010Y-13205771D02*
X14545534Y-13224819D01*
X14545534Y-13224819D02*
X14545534Y-13243867D01*
X14545534Y-13243867D02*
X14536010Y-13272438D01*
X14536010Y-13272438D02*
X14421724Y-13386724D01*
X14421724Y-13386724D02*
X14545534Y-13386724D01*
X14783629Y-13386724D02*
X14783629Y-13186724D01*
X14869343Y-13386724D02*
X14869343Y-13281962D01*
X14869343Y-13281962D02*
X14859819Y-13262914D01*
X14859819Y-13262914D02*
X14840772Y-13253390D01*
X14840772Y-13253390D02*
X14812200Y-13253390D01*
X14812200Y-13253390D02*
X14793153Y-13262914D01*
X14793153Y-13262914D02*
X14783629Y-13272438D01*
X14993153Y-13386724D02*
X14974105Y-13377200D01*
X14974105Y-13377200D02*
X14964581Y-13367676D01*
X14964581Y-13367676D02*
X14955057Y-13348628D01*
X14955057Y-13348628D02*
X14955057Y-13291486D01*
X14955057Y-13291486D02*
X14964581Y-13272438D01*
X14964581Y-13272438D02*
X14974105Y-13262914D01*
X14974105Y-13262914D02*
X14993153Y-13253390D01*
X14993153Y-13253390D02*
X15021724Y-13253390D01*
X15021724Y-13253390D02*
X15040772Y-13262914D01*
X15040772Y-13262914D02*
X15050296Y-13272438D01*
X15050296Y-13272438D02*
X15059819Y-13291486D01*
X15059819Y-13291486D02*
X15059819Y-13348628D01*
X15059819Y-13348628D02*
X15050296Y-13367676D01*
X15050296Y-13367676D02*
X15040772Y-13377200D01*
X15040772Y-13377200D02*
X15021724Y-13386724D01*
X15021724Y-13386724D02*
X14993153Y-13386724D01*
X15174105Y-13386724D02*
X15155057Y-13377200D01*
X15155057Y-13377200D02*
X15145534Y-13358152D01*
X15145534Y-13358152D02*
X15145534Y-13186724D01*
X15326486Y-13377200D02*
X15307438Y-13386724D01*
X15307438Y-13386724D02*
X15269343Y-13386724D01*
X15269343Y-13386724D02*
X15250296Y-13377200D01*
X15250296Y-13377200D02*
X15240772Y-13358152D01*
X15240772Y-13358152D02*
X15240772Y-13281962D01*
X15240772Y-13281962D02*
X15250296Y-13262914D01*
X15250296Y-13262914D02*
X15269343Y-13253390D01*
X15269343Y-13253390D02*
X15307438Y-13253390D01*
X15307438Y-13253390D02*
X15326486Y-13262914D01*
X15326486Y-13262914D02*
X15336010Y-13281962D01*
X15336010Y-13281962D02*
X15336010Y-13301009D01*
X15336010Y-13301009D02*
X15240772Y-13320057D01*
X15412200Y-13377200D02*
X15431248Y-13386724D01*
X15431248Y-13386724D02*
X15469343Y-13386724D01*
X15469343Y-13386724D02*
X15488391Y-13377200D01*
X15488391Y-13377200D02*
X15497915Y-13358152D01*
X15497915Y-13358152D02*
X15497915Y-13348628D01*
X15497915Y-13348628D02*
X15488391Y-13329581D01*
X15488391Y-13329581D02*
X15469343Y-13320057D01*
X15469343Y-13320057D02*
X15440772Y-13320057D01*
X15440772Y-13320057D02*
X15421724Y-13310533D01*
X15421724Y-13310533D02*
X15412200Y-13291486D01*
X15412200Y-13291486D02*
X15412200Y-13281962D01*
X15412200Y-13281962D02*
X15421724Y-13262914D01*
X15421724Y-13262914D02*
X15440772Y-13253390D01*
X15440772Y-13253390D02*
X15469343Y-13253390D01*
X15469343Y-13253390D02*
X15488391Y-13262914D01*
X15564581Y-13462914D02*
X15574105Y-13453390D01*
X15574105Y-13453390D02*
X15593153Y-13424819D01*
X15593153Y-13424819D02*
X15602677Y-13405771D01*
X15602677Y-13405771D02*
X15612200Y-13377200D01*
X15612200Y-13377200D02*
X15621724Y-13329581D01*
X15621724Y-13329581D02*
X15621724Y-13291486D01*
X15621724Y-13291486D02*
X15612200Y-13243867D01*
X15612200Y-13243867D02*
X15602677Y-13215295D01*
X15602677Y-13215295D02*
X15593153Y-13196248D01*
X15593153Y-13196248D02*
X15574105Y-13167676D01*
X15574105Y-13167676D02*
X15564581Y-13158152D01*
D13*
X10612200Y-13558200D02*
G75*
G03*
X10612200Y-13558200I-30000J0D01*
G01*
D11*
X10897914Y-13450724D02*
X10916962Y-13450724D01*
X10916962Y-13450724D02*
X10936010Y-13460248D01*
X10936010Y-13460248D02*
X10945533Y-13469771D01*
X10945533Y-13469771D02*
X10955057Y-13488819D01*
X10955057Y-13488819D02*
X10964581Y-13526914D01*
X10964581Y-13526914D02*
X10964581Y-13574533D01*
X10964581Y-13574533D02*
X10955057Y-13612628D01*
X10955057Y-13612628D02*
X10945533Y-13631676D01*
X10945533Y-13631676D02*
X10936010Y-13641200D01*
X10936010Y-13641200D02*
X10916962Y-13650724D01*
X10916962Y-13650724D02*
X10897914Y-13650724D01*
X10897914Y-13650724D02*
X10878867Y-13641200D01*
X10878867Y-13641200D02*
X10869343Y-13631676D01*
X10869343Y-13631676D02*
X10859819Y-13612628D01*
X10859819Y-13612628D02*
X10850295Y-13574533D01*
X10850295Y-13574533D02*
X10850295Y-13526914D01*
X10850295Y-13526914D02*
X10859819Y-13488819D01*
X10859819Y-13488819D02*
X10869343Y-13469771D01*
X10869343Y-13469771D02*
X10878867Y-13460248D01*
X10878867Y-13460248D02*
X10897914Y-13450724D01*
X11050295Y-13631676D02*
X11059819Y-13641200D01*
X11059819Y-13641200D02*
X11050295Y-13650724D01*
X11050295Y-13650724D02*
X11040771Y-13641200D01*
X11040771Y-13641200D02*
X11050295Y-13631676D01*
X11050295Y-13631676D02*
X11050295Y-13650724D01*
X11231248Y-13450724D02*
X11193152Y-13450724D01*
X11193152Y-13450724D02*
X11174105Y-13460248D01*
X11174105Y-13460248D02*
X11164581Y-13469771D01*
X11164581Y-13469771D02*
X11145533Y-13498343D01*
X11145533Y-13498343D02*
X11136010Y-13536438D01*
X11136010Y-13536438D02*
X11136010Y-13612628D01*
X11136010Y-13612628D02*
X11145533Y-13631676D01*
X11145533Y-13631676D02*
X11155057Y-13641200D01*
X11155057Y-13641200D02*
X11174105Y-13650724D01*
X11174105Y-13650724D02*
X11212200Y-13650724D01*
X11212200Y-13650724D02*
X11231248Y-13641200D01*
X11231248Y-13641200D02*
X11240771Y-13631676D01*
X11240771Y-13631676D02*
X11250295Y-13612628D01*
X11250295Y-13612628D02*
X11250295Y-13565009D01*
X11250295Y-13565009D02*
X11240771Y-13545962D01*
X11240771Y-13545962D02*
X11231248Y-13536438D01*
X11231248Y-13536438D02*
X11212200Y-13526914D01*
X11212200Y-13526914D02*
X11174105Y-13526914D01*
X11174105Y-13526914D02*
X11155057Y-13536438D01*
X11155057Y-13536438D02*
X11145533Y-13545962D01*
X11145533Y-13545962D02*
X11136010Y-13565009D01*
X11374105Y-13450724D02*
X11393152Y-13450724D01*
X11393152Y-13450724D02*
X11412200Y-13460248D01*
X11412200Y-13460248D02*
X11421724Y-13469771D01*
X11421724Y-13469771D02*
X11431248Y-13488819D01*
X11431248Y-13488819D02*
X11440771Y-13526914D01*
X11440771Y-13526914D02*
X11440771Y-13574533D01*
X11440771Y-13574533D02*
X11431248Y-13612628D01*
X11431248Y-13612628D02*
X11421724Y-13631676D01*
X11421724Y-13631676D02*
X11412200Y-13641200D01*
X11412200Y-13641200D02*
X11393152Y-13650724D01*
X11393152Y-13650724D02*
X11374105Y-13650724D01*
X11374105Y-13650724D02*
X11355057Y-13641200D01*
X11355057Y-13641200D02*
X11345533Y-13631676D01*
X11345533Y-13631676D02*
X11336009Y-13612628D01*
X11336009Y-13612628D02*
X11326486Y-13574533D01*
X11326486Y-13574533D02*
X11326486Y-13526914D01*
X11326486Y-13526914D02*
X11336009Y-13488819D01*
X11336009Y-13488819D02*
X11345533Y-13469771D01*
X11345533Y-13469771D02*
X11355057Y-13460248D01*
X11355057Y-13460248D02*
X11374105Y-13450724D01*
X11564581Y-13450724D02*
X11583629Y-13450724D01*
X11583629Y-13450724D02*
X11602676Y-13460248D01*
X11602676Y-13460248D02*
X11612200Y-13469771D01*
X11612200Y-13469771D02*
X11621724Y-13488819D01*
X11621724Y-13488819D02*
X11631248Y-13526914D01*
X11631248Y-13526914D02*
X11631248Y-13574533D01*
X11631248Y-13574533D02*
X11621724Y-13612628D01*
X11621724Y-13612628D02*
X11612200Y-13631676D01*
X11612200Y-13631676D02*
X11602676Y-13641200D01*
X11602676Y-13641200D02*
X11583629Y-13650724D01*
X11583629Y-13650724D02*
X11564581Y-13650724D01*
X11564581Y-13650724D02*
X11545533Y-13641200D01*
X11545533Y-13641200D02*
X11536009Y-13631676D01*
X11536009Y-13631676D02*
X11526486Y-13612628D01*
X11526486Y-13612628D02*
X11516962Y-13574533D01*
X11516962Y-13574533D02*
X11516962Y-13526914D01*
X11516962Y-13526914D02*
X11526486Y-13488819D01*
X11526486Y-13488819D02*
X11536009Y-13469771D01*
X11536009Y-13469771D02*
X11545533Y-13460248D01*
X11545533Y-13460248D02*
X11564581Y-13450724D01*
X11716962Y-13650724D02*
X11716962Y-13517390D01*
X11716962Y-13536438D02*
X11726486Y-13526914D01*
X11726486Y-13526914D02*
X11745533Y-13517390D01*
X11745533Y-13517390D02*
X11774105Y-13517390D01*
X11774105Y-13517390D02*
X11793152Y-13526914D01*
X11793152Y-13526914D02*
X11802676Y-13545962D01*
X11802676Y-13545962D02*
X11802676Y-13650724D01*
X11802676Y-13545962D02*
X11812200Y-13526914D01*
X11812200Y-13526914D02*
X11831248Y-13517390D01*
X11831248Y-13517390D02*
X11859819Y-13517390D01*
X11859819Y-13517390D02*
X11878867Y-13526914D01*
X11878867Y-13526914D02*
X11888390Y-13545962D01*
X11888390Y-13545962D02*
X11888390Y-13650724D01*
X11983629Y-13650724D02*
X11983629Y-13517390D01*
X11983629Y-13536438D02*
X11993152Y-13526914D01*
X11993152Y-13526914D02*
X12012200Y-13517390D01*
X12012200Y-13517390D02*
X12040771Y-13517390D01*
X12040771Y-13517390D02*
X12059819Y-13526914D01*
X12059819Y-13526914D02*
X12069343Y-13545962D01*
X12069343Y-13545962D02*
X12069343Y-13650724D01*
X12069343Y-13545962D02*
X12078867Y-13526914D01*
X12078867Y-13526914D02*
X12097914Y-13517390D01*
X12097914Y-13517390D02*
X12126486Y-13517390D01*
X12126486Y-13517390D02*
X12145533Y-13526914D01*
X12145533Y-13526914D02*
X12155057Y-13545962D01*
X12155057Y-13545962D02*
X12155057Y-13650724D01*
X12545533Y-13441200D02*
X12374105Y-13698343D01*
X12802676Y-13450724D02*
X12821724Y-13450724D01*
X12821724Y-13450724D02*
X12840772Y-13460248D01*
X12840772Y-13460248D02*
X12850295Y-13469771D01*
X12850295Y-13469771D02*
X12859819Y-13488819D01*
X12859819Y-13488819D02*
X12869343Y-13526914D01*
X12869343Y-13526914D02*
X12869343Y-13574533D01*
X12869343Y-13574533D02*
X12859819Y-13612628D01*
X12859819Y-13612628D02*
X12850295Y-13631676D01*
X12850295Y-13631676D02*
X12840772Y-13641200D01*
X12840772Y-13641200D02*
X12821724Y-13650724D01*
X12821724Y-13650724D02*
X12802676Y-13650724D01*
X12802676Y-13650724D02*
X12783629Y-13641200D01*
X12783629Y-13641200D02*
X12774105Y-13631676D01*
X12774105Y-13631676D02*
X12764581Y-13612628D01*
X12764581Y-13612628D02*
X12755057Y-13574533D01*
X12755057Y-13574533D02*
X12755057Y-13526914D01*
X12755057Y-13526914D02*
X12764581Y-13488819D01*
X12764581Y-13488819D02*
X12774105Y-13469771D01*
X12774105Y-13469771D02*
X12783629Y-13460248D01*
X12783629Y-13460248D02*
X12802676Y-13450724D01*
X12955057Y-13631676D02*
X12964581Y-13641200D01*
X12964581Y-13641200D02*
X12955057Y-13650724D01*
X12955057Y-13650724D02*
X12945533Y-13641200D01*
X12945533Y-13641200D02*
X12955057Y-13631676D01*
X12955057Y-13631676D02*
X12955057Y-13650724D01*
X13088391Y-13450724D02*
X13107438Y-13450724D01*
X13107438Y-13450724D02*
X13126486Y-13460248D01*
X13126486Y-13460248D02*
X13136010Y-13469771D01*
X13136010Y-13469771D02*
X13145533Y-13488819D01*
X13145533Y-13488819D02*
X13155057Y-13526914D01*
X13155057Y-13526914D02*
X13155057Y-13574533D01*
X13155057Y-13574533D02*
X13145533Y-13612628D01*
X13145533Y-13612628D02*
X13136010Y-13631676D01*
X13136010Y-13631676D02*
X13126486Y-13641200D01*
X13126486Y-13641200D02*
X13107438Y-13650724D01*
X13107438Y-13650724D02*
X13088391Y-13650724D01*
X13088391Y-13650724D02*
X13069343Y-13641200D01*
X13069343Y-13641200D02*
X13059819Y-13631676D01*
X13059819Y-13631676D02*
X13050295Y-13612628D01*
X13050295Y-13612628D02*
X13040772Y-13574533D01*
X13040772Y-13574533D02*
X13040772Y-13526914D01*
X13040772Y-13526914D02*
X13050295Y-13488819D01*
X13050295Y-13488819D02*
X13059819Y-13469771D01*
X13059819Y-13469771D02*
X13069343Y-13460248D01*
X13069343Y-13460248D02*
X13088391Y-13450724D01*
X13231248Y-13469771D02*
X13240772Y-13460248D01*
X13240772Y-13460248D02*
X13259819Y-13450724D01*
X13259819Y-13450724D02*
X13307438Y-13450724D01*
X13307438Y-13450724D02*
X13326486Y-13460248D01*
X13326486Y-13460248D02*
X13336010Y-13469771D01*
X13336010Y-13469771D02*
X13345533Y-13488819D01*
X13345533Y-13488819D02*
X13345533Y-13507867D01*
X13345533Y-13507867D02*
X13336010Y-13536438D01*
X13336010Y-13536438D02*
X13221724Y-13650724D01*
X13221724Y-13650724D02*
X13345533Y-13650724D01*
X13412200Y-13450724D02*
X13536010Y-13450724D01*
X13536010Y-13450724D02*
X13469343Y-13526914D01*
X13469343Y-13526914D02*
X13497914Y-13526914D01*
X13497914Y-13526914D02*
X13516962Y-13536438D01*
X13516962Y-13536438D02*
X13526486Y-13545962D01*
X13526486Y-13545962D02*
X13536010Y-13565009D01*
X13536010Y-13565009D02*
X13536010Y-13612628D01*
X13536010Y-13612628D02*
X13526486Y-13631676D01*
X13526486Y-13631676D02*
X13516962Y-13641200D01*
X13516962Y-13641200D02*
X13497914Y-13650724D01*
X13497914Y-13650724D02*
X13440772Y-13650724D01*
X13440772Y-13650724D02*
X13421724Y-13641200D01*
X13421724Y-13641200D02*
X13412200Y-13631676D01*
X13707438Y-13450724D02*
X13669343Y-13450724D01*
X13669343Y-13450724D02*
X13650295Y-13460248D01*
X13650295Y-13460248D02*
X13640772Y-13469771D01*
X13640772Y-13469771D02*
X13621724Y-13498343D01*
X13621724Y-13498343D02*
X13612200Y-13536438D01*
X13612200Y-13536438D02*
X13612200Y-13612628D01*
X13612200Y-13612628D02*
X13621724Y-13631676D01*
X13621724Y-13631676D02*
X13631248Y-13641200D01*
X13631248Y-13641200D02*
X13650295Y-13650724D01*
X13650295Y-13650724D02*
X13688391Y-13650724D01*
X13688391Y-13650724D02*
X13707438Y-13641200D01*
X13707438Y-13641200D02*
X13716962Y-13631676D01*
X13716962Y-13631676D02*
X13726486Y-13612628D01*
X13726486Y-13612628D02*
X13726486Y-13565009D01*
X13726486Y-13565009D02*
X13716962Y-13545962D01*
X13716962Y-13545962D02*
X13707438Y-13536438D01*
X13707438Y-13536438D02*
X13688391Y-13526914D01*
X13688391Y-13526914D02*
X13650295Y-13526914D01*
X13650295Y-13526914D02*
X13631248Y-13536438D01*
X13631248Y-13536438D02*
X13621724Y-13545962D01*
X13621724Y-13545962D02*
X13612200Y-13565009D01*
X13802676Y-13450724D02*
X13802676Y-13488819D01*
X13878867Y-13450724D02*
X13878867Y-13488819D01*
X14174105Y-13726914D02*
X14164581Y-13717390D01*
X14164581Y-13717390D02*
X14145534Y-13688819D01*
X14145534Y-13688819D02*
X14136010Y-13669771D01*
X14136010Y-13669771D02*
X14126486Y-13641200D01*
X14126486Y-13641200D02*
X14116962Y-13593581D01*
X14116962Y-13593581D02*
X14116962Y-13555486D01*
X14116962Y-13555486D02*
X14126486Y-13507867D01*
X14126486Y-13507867D02*
X14136010Y-13479295D01*
X14136010Y-13479295D02*
X14145534Y-13460248D01*
X14145534Y-13460248D02*
X14164581Y-13431676D01*
X14164581Y-13431676D02*
X14174105Y-13422152D01*
X14278867Y-13536438D02*
X14259819Y-13526914D01*
X14259819Y-13526914D02*
X14250295Y-13517390D01*
X14250295Y-13517390D02*
X14240772Y-13498343D01*
X14240772Y-13498343D02*
X14240772Y-13488819D01*
X14240772Y-13488819D02*
X14250295Y-13469771D01*
X14250295Y-13469771D02*
X14259819Y-13460248D01*
X14259819Y-13460248D02*
X14278867Y-13450724D01*
X14278867Y-13450724D02*
X14316962Y-13450724D01*
X14316962Y-13450724D02*
X14336010Y-13460248D01*
X14336010Y-13460248D02*
X14345534Y-13469771D01*
X14345534Y-13469771D02*
X14355057Y-13488819D01*
X14355057Y-13488819D02*
X14355057Y-13498343D01*
X14355057Y-13498343D02*
X14345534Y-13517390D01*
X14345534Y-13517390D02*
X14336010Y-13526914D01*
X14336010Y-13526914D02*
X14316962Y-13536438D01*
X14316962Y-13536438D02*
X14278867Y-13536438D01*
X14278867Y-13536438D02*
X14259819Y-13545962D01*
X14259819Y-13545962D02*
X14250295Y-13555486D01*
X14250295Y-13555486D02*
X14240772Y-13574533D01*
X14240772Y-13574533D02*
X14240772Y-13612628D01*
X14240772Y-13612628D02*
X14250295Y-13631676D01*
X14250295Y-13631676D02*
X14259819Y-13641200D01*
X14259819Y-13641200D02*
X14278867Y-13650724D01*
X14278867Y-13650724D02*
X14316962Y-13650724D01*
X14316962Y-13650724D02*
X14336010Y-13641200D01*
X14336010Y-13641200D02*
X14345534Y-13631676D01*
X14345534Y-13631676D02*
X14355057Y-13612628D01*
X14355057Y-13612628D02*
X14355057Y-13574533D01*
X14355057Y-13574533D02*
X14345534Y-13555486D01*
X14345534Y-13555486D02*
X14336010Y-13545962D01*
X14336010Y-13545962D02*
X14316962Y-13536438D01*
X14421724Y-13450724D02*
X14545534Y-13450724D01*
X14545534Y-13450724D02*
X14478867Y-13526914D01*
X14478867Y-13526914D02*
X14507438Y-13526914D01*
X14507438Y-13526914D02*
X14526486Y-13536438D01*
X14526486Y-13536438D02*
X14536010Y-13545962D01*
X14536010Y-13545962D02*
X14545534Y-13565009D01*
X14545534Y-13565009D02*
X14545534Y-13612628D01*
X14545534Y-13612628D02*
X14536010Y-13631676D01*
X14536010Y-13631676D02*
X14526486Y-13641200D01*
X14526486Y-13641200D02*
X14507438Y-13650724D01*
X14507438Y-13650724D02*
X14450295Y-13650724D01*
X14450295Y-13650724D02*
X14431248Y-13641200D01*
X14431248Y-13641200D02*
X14421724Y-13631676D01*
X14783629Y-13650724D02*
X14783629Y-13450724D01*
X14869343Y-13650724D02*
X14869343Y-13545962D01*
X14869343Y-13545962D02*
X14859819Y-13526914D01*
X14859819Y-13526914D02*
X14840772Y-13517390D01*
X14840772Y-13517390D02*
X14812200Y-13517390D01*
X14812200Y-13517390D02*
X14793153Y-13526914D01*
X14793153Y-13526914D02*
X14783629Y-13536438D01*
X14993153Y-13650724D02*
X14974105Y-13641200D01*
X14974105Y-13641200D02*
X14964581Y-13631676D01*
X14964581Y-13631676D02*
X14955057Y-13612628D01*
X14955057Y-13612628D02*
X14955057Y-13555486D01*
X14955057Y-13555486D02*
X14964581Y-13536438D01*
X14964581Y-13536438D02*
X14974105Y-13526914D01*
X14974105Y-13526914D02*
X14993153Y-13517390D01*
X14993153Y-13517390D02*
X15021724Y-13517390D01*
X15021724Y-13517390D02*
X15040772Y-13526914D01*
X15040772Y-13526914D02*
X15050296Y-13536438D01*
X15050296Y-13536438D02*
X15059819Y-13555486D01*
X15059819Y-13555486D02*
X15059819Y-13612628D01*
X15059819Y-13612628D02*
X15050296Y-13631676D01*
X15050296Y-13631676D02*
X15040772Y-13641200D01*
X15040772Y-13641200D02*
X15021724Y-13650724D01*
X15021724Y-13650724D02*
X14993153Y-13650724D01*
X15174105Y-13650724D02*
X15155057Y-13641200D01*
X15155057Y-13641200D02*
X15145534Y-13622152D01*
X15145534Y-13622152D02*
X15145534Y-13450724D01*
X15326486Y-13641200D02*
X15307438Y-13650724D01*
X15307438Y-13650724D02*
X15269343Y-13650724D01*
X15269343Y-13650724D02*
X15250296Y-13641200D01*
X15250296Y-13641200D02*
X15240772Y-13622152D01*
X15240772Y-13622152D02*
X15240772Y-13545962D01*
X15240772Y-13545962D02*
X15250296Y-13526914D01*
X15250296Y-13526914D02*
X15269343Y-13517390D01*
X15269343Y-13517390D02*
X15307438Y-13517390D01*
X15307438Y-13517390D02*
X15326486Y-13526914D01*
X15326486Y-13526914D02*
X15336010Y-13545962D01*
X15336010Y-13545962D02*
X15336010Y-13565009D01*
X15336010Y-13565009D02*
X15240772Y-13584057D01*
X15412200Y-13641200D02*
X15431248Y-13650724D01*
X15431248Y-13650724D02*
X15469343Y-13650724D01*
X15469343Y-13650724D02*
X15488391Y-13641200D01*
X15488391Y-13641200D02*
X15497915Y-13622152D01*
X15497915Y-13622152D02*
X15497915Y-13612628D01*
X15497915Y-13612628D02*
X15488391Y-13593581D01*
X15488391Y-13593581D02*
X15469343Y-13584057D01*
X15469343Y-13584057D02*
X15440772Y-13584057D01*
X15440772Y-13584057D02*
X15421724Y-13574533D01*
X15421724Y-13574533D02*
X15412200Y-13555486D01*
X15412200Y-13555486D02*
X15412200Y-13545962D01*
X15412200Y-13545962D02*
X15421724Y-13526914D01*
X15421724Y-13526914D02*
X15440772Y-13517390D01*
X15440772Y-13517390D02*
X15469343Y-13517390D01*
X15469343Y-13517390D02*
X15488391Y-13526914D01*
X15564581Y-13726914D02*
X15574105Y-13717390D01*
X15574105Y-13717390D02*
X15593153Y-13688819D01*
X15593153Y-13688819D02*
X15602677Y-13669771D01*
X15602677Y-13669771D02*
X15612200Y-13641200D01*
X15612200Y-13641200D02*
X15621724Y-13593581D01*
X15621724Y-13593581D02*
X15621724Y-13555486D01*
X15621724Y-13555486D02*
X15612200Y-13507867D01*
X15612200Y-13507867D02*
X15602677Y-13479295D01*
X15602677Y-13479295D02*
X15593153Y-13460248D01*
X15593153Y-13460248D02*
X15574105Y-13431676D01*
X15574105Y-13431676D02*
X15564581Y-13422152D01*
D14*
X10561200Y-13771200D02*
X10561200Y-13873200D01*
X10510200Y-13822200D02*
X10612200Y-13822200D01*
D11*
X10964581Y-13914724D02*
X10850295Y-13914724D01*
X10907438Y-13914724D02*
X10907438Y-13714724D01*
X10907438Y-13714724D02*
X10888390Y-13743295D01*
X10888390Y-13743295D02*
X10869343Y-13762343D01*
X10869343Y-13762343D02*
X10850295Y-13771867D01*
X11050295Y-13895676D02*
X11059819Y-13905200D01*
X11059819Y-13905200D02*
X11050295Y-13914724D01*
X11050295Y-13914724D02*
X11040771Y-13905200D01*
X11040771Y-13905200D02*
X11050295Y-13895676D01*
X11050295Y-13895676D02*
X11050295Y-13914724D01*
X11183629Y-13714724D02*
X11202676Y-13714724D01*
X11202676Y-13714724D02*
X11221724Y-13724248D01*
X11221724Y-13724248D02*
X11231248Y-13733771D01*
X11231248Y-13733771D02*
X11240771Y-13752819D01*
X11240771Y-13752819D02*
X11250295Y-13790914D01*
X11250295Y-13790914D02*
X11250295Y-13838533D01*
X11250295Y-13838533D02*
X11240771Y-13876628D01*
X11240771Y-13876628D02*
X11231248Y-13895676D01*
X11231248Y-13895676D02*
X11221724Y-13905200D01*
X11221724Y-13905200D02*
X11202676Y-13914724D01*
X11202676Y-13914724D02*
X11183629Y-13914724D01*
X11183629Y-13914724D02*
X11164581Y-13905200D01*
X11164581Y-13905200D02*
X11155057Y-13895676D01*
X11155057Y-13895676D02*
X11145533Y-13876628D01*
X11145533Y-13876628D02*
X11136010Y-13838533D01*
X11136010Y-13838533D02*
X11136010Y-13790914D01*
X11136010Y-13790914D02*
X11145533Y-13752819D01*
X11145533Y-13752819D02*
X11155057Y-13733771D01*
X11155057Y-13733771D02*
X11164581Y-13724248D01*
X11164581Y-13724248D02*
X11183629Y-13714724D01*
X11326486Y-13733771D02*
X11336009Y-13724248D01*
X11336009Y-13724248D02*
X11355057Y-13714724D01*
X11355057Y-13714724D02*
X11402676Y-13714724D01*
X11402676Y-13714724D02*
X11421724Y-13724248D01*
X11421724Y-13724248D02*
X11431248Y-13733771D01*
X11431248Y-13733771D02*
X11440771Y-13752819D01*
X11440771Y-13752819D02*
X11440771Y-13771867D01*
X11440771Y-13771867D02*
X11431248Y-13800438D01*
X11431248Y-13800438D02*
X11316962Y-13914724D01*
X11316962Y-13914724D02*
X11440771Y-13914724D01*
X11564581Y-13714724D02*
X11583629Y-13714724D01*
X11583629Y-13714724D02*
X11602676Y-13724248D01*
X11602676Y-13724248D02*
X11612200Y-13733771D01*
X11612200Y-13733771D02*
X11621724Y-13752819D01*
X11621724Y-13752819D02*
X11631248Y-13790914D01*
X11631248Y-13790914D02*
X11631248Y-13838533D01*
X11631248Y-13838533D02*
X11621724Y-13876628D01*
X11621724Y-13876628D02*
X11612200Y-13895676D01*
X11612200Y-13895676D02*
X11602676Y-13905200D01*
X11602676Y-13905200D02*
X11583629Y-13914724D01*
X11583629Y-13914724D02*
X11564581Y-13914724D01*
X11564581Y-13914724D02*
X11545533Y-13905200D01*
X11545533Y-13905200D02*
X11536009Y-13895676D01*
X11536009Y-13895676D02*
X11526486Y-13876628D01*
X11526486Y-13876628D02*
X11516962Y-13838533D01*
X11516962Y-13838533D02*
X11516962Y-13790914D01*
X11516962Y-13790914D02*
X11526486Y-13752819D01*
X11526486Y-13752819D02*
X11536009Y-13733771D01*
X11536009Y-13733771D02*
X11545533Y-13724248D01*
X11545533Y-13724248D02*
X11564581Y-13714724D01*
X11716962Y-13914724D02*
X11716962Y-13781390D01*
X11716962Y-13800438D02*
X11726486Y-13790914D01*
X11726486Y-13790914D02*
X11745533Y-13781390D01*
X11745533Y-13781390D02*
X11774105Y-13781390D01*
X11774105Y-13781390D02*
X11793152Y-13790914D01*
X11793152Y-13790914D02*
X11802676Y-13809962D01*
X11802676Y-13809962D02*
X11802676Y-13914724D01*
X11802676Y-13809962D02*
X11812200Y-13790914D01*
X11812200Y-13790914D02*
X11831248Y-13781390D01*
X11831248Y-13781390D02*
X11859819Y-13781390D01*
X11859819Y-13781390D02*
X11878867Y-13790914D01*
X11878867Y-13790914D02*
X11888390Y-13809962D01*
X11888390Y-13809962D02*
X11888390Y-13914724D01*
X11983629Y-13914724D02*
X11983629Y-13781390D01*
X11983629Y-13800438D02*
X11993152Y-13790914D01*
X11993152Y-13790914D02*
X12012200Y-13781390D01*
X12012200Y-13781390D02*
X12040771Y-13781390D01*
X12040771Y-13781390D02*
X12059819Y-13790914D01*
X12059819Y-13790914D02*
X12069343Y-13809962D01*
X12069343Y-13809962D02*
X12069343Y-13914724D01*
X12069343Y-13809962D02*
X12078867Y-13790914D01*
X12078867Y-13790914D02*
X12097914Y-13781390D01*
X12097914Y-13781390D02*
X12126486Y-13781390D01*
X12126486Y-13781390D02*
X12145533Y-13790914D01*
X12145533Y-13790914D02*
X12155057Y-13809962D01*
X12155057Y-13809962D02*
X12155057Y-13914724D01*
X12545533Y-13705200D02*
X12374105Y-13962343D01*
X12802676Y-13714724D02*
X12821724Y-13714724D01*
X12821724Y-13714724D02*
X12840772Y-13724248D01*
X12840772Y-13724248D02*
X12850295Y-13733771D01*
X12850295Y-13733771D02*
X12859819Y-13752819D01*
X12859819Y-13752819D02*
X12869343Y-13790914D01*
X12869343Y-13790914D02*
X12869343Y-13838533D01*
X12869343Y-13838533D02*
X12859819Y-13876628D01*
X12859819Y-13876628D02*
X12850295Y-13895676D01*
X12850295Y-13895676D02*
X12840772Y-13905200D01*
X12840772Y-13905200D02*
X12821724Y-13914724D01*
X12821724Y-13914724D02*
X12802676Y-13914724D01*
X12802676Y-13914724D02*
X12783629Y-13905200D01*
X12783629Y-13905200D02*
X12774105Y-13895676D01*
X12774105Y-13895676D02*
X12764581Y-13876628D01*
X12764581Y-13876628D02*
X12755057Y-13838533D01*
X12755057Y-13838533D02*
X12755057Y-13790914D01*
X12755057Y-13790914D02*
X12764581Y-13752819D01*
X12764581Y-13752819D02*
X12774105Y-13733771D01*
X12774105Y-13733771D02*
X12783629Y-13724248D01*
X12783629Y-13724248D02*
X12802676Y-13714724D01*
X12955057Y-13895676D02*
X12964581Y-13905200D01*
X12964581Y-13905200D02*
X12955057Y-13914724D01*
X12955057Y-13914724D02*
X12945533Y-13905200D01*
X12945533Y-13905200D02*
X12955057Y-13895676D01*
X12955057Y-13895676D02*
X12955057Y-13914724D01*
X13088391Y-13714724D02*
X13107438Y-13714724D01*
X13107438Y-13714724D02*
X13126486Y-13724248D01*
X13126486Y-13724248D02*
X13136010Y-13733771D01*
X13136010Y-13733771D02*
X13145533Y-13752819D01*
X13145533Y-13752819D02*
X13155057Y-13790914D01*
X13155057Y-13790914D02*
X13155057Y-13838533D01*
X13155057Y-13838533D02*
X13145533Y-13876628D01*
X13145533Y-13876628D02*
X13136010Y-13895676D01*
X13136010Y-13895676D02*
X13126486Y-13905200D01*
X13126486Y-13905200D02*
X13107438Y-13914724D01*
X13107438Y-13914724D02*
X13088391Y-13914724D01*
X13088391Y-13914724D02*
X13069343Y-13905200D01*
X13069343Y-13905200D02*
X13059819Y-13895676D01*
X13059819Y-13895676D02*
X13050295Y-13876628D01*
X13050295Y-13876628D02*
X13040772Y-13838533D01*
X13040772Y-13838533D02*
X13040772Y-13790914D01*
X13040772Y-13790914D02*
X13050295Y-13752819D01*
X13050295Y-13752819D02*
X13059819Y-13733771D01*
X13059819Y-13733771D02*
X13069343Y-13724248D01*
X13069343Y-13724248D02*
X13088391Y-13714724D01*
X13326486Y-13781390D02*
X13326486Y-13914724D01*
X13278867Y-13705200D02*
X13231248Y-13848057D01*
X13231248Y-13848057D02*
X13355057Y-13848057D01*
X13469343Y-13714724D02*
X13488391Y-13714724D01*
X13488391Y-13714724D02*
X13507438Y-13724248D01*
X13507438Y-13724248D02*
X13516962Y-13733771D01*
X13516962Y-13733771D02*
X13526486Y-13752819D01*
X13526486Y-13752819D02*
X13536010Y-13790914D01*
X13536010Y-13790914D02*
X13536010Y-13838533D01*
X13536010Y-13838533D02*
X13526486Y-13876628D01*
X13526486Y-13876628D02*
X13516962Y-13895676D01*
X13516962Y-13895676D02*
X13507438Y-13905200D01*
X13507438Y-13905200D02*
X13488391Y-13914724D01*
X13488391Y-13914724D02*
X13469343Y-13914724D01*
X13469343Y-13914724D02*
X13450295Y-13905200D01*
X13450295Y-13905200D02*
X13440772Y-13895676D01*
X13440772Y-13895676D02*
X13431248Y-13876628D01*
X13431248Y-13876628D02*
X13421724Y-13838533D01*
X13421724Y-13838533D02*
X13421724Y-13790914D01*
X13421724Y-13790914D02*
X13431248Y-13752819D01*
X13431248Y-13752819D02*
X13440772Y-13733771D01*
X13440772Y-13733771D02*
X13450295Y-13724248D01*
X13450295Y-13724248D02*
X13469343Y-13714724D01*
X13612200Y-13733771D02*
X13621724Y-13724248D01*
X13621724Y-13724248D02*
X13640772Y-13714724D01*
X13640772Y-13714724D02*
X13688391Y-13714724D01*
X13688391Y-13714724D02*
X13707438Y-13724248D01*
X13707438Y-13724248D02*
X13716962Y-13733771D01*
X13716962Y-13733771D02*
X13726486Y-13752819D01*
X13726486Y-13752819D02*
X13726486Y-13771867D01*
X13726486Y-13771867D02*
X13716962Y-13800438D01*
X13716962Y-13800438D02*
X13602676Y-13914724D01*
X13602676Y-13914724D02*
X13726486Y-13914724D01*
X13802676Y-13714724D02*
X13802676Y-13752819D01*
X13878867Y-13714724D02*
X13878867Y-13752819D01*
X14174105Y-13990914D02*
X14164581Y-13981390D01*
X14164581Y-13981390D02*
X14145534Y-13952819D01*
X14145534Y-13952819D02*
X14136010Y-13933771D01*
X14136010Y-13933771D02*
X14126486Y-13905200D01*
X14126486Y-13905200D02*
X14116962Y-13857581D01*
X14116962Y-13857581D02*
X14116962Y-13819486D01*
X14116962Y-13819486D02*
X14126486Y-13771867D01*
X14126486Y-13771867D02*
X14136010Y-13743295D01*
X14136010Y-13743295D02*
X14145534Y-13724248D01*
X14145534Y-13724248D02*
X14164581Y-13695676D01*
X14164581Y-13695676D02*
X14174105Y-13686152D01*
X14231248Y-13714724D02*
X14364581Y-13714724D01*
X14364581Y-13714724D02*
X14278867Y-13914724D01*
X14526486Y-13714724D02*
X14488391Y-13714724D01*
X14488391Y-13714724D02*
X14469343Y-13724248D01*
X14469343Y-13724248D02*
X14459819Y-13733771D01*
X14459819Y-13733771D02*
X14440772Y-13762343D01*
X14440772Y-13762343D02*
X14431248Y-13800438D01*
X14431248Y-13800438D02*
X14431248Y-13876628D01*
X14431248Y-13876628D02*
X14440772Y-13895676D01*
X14440772Y-13895676D02*
X14450295Y-13905200D01*
X14450295Y-13905200D02*
X14469343Y-13914724D01*
X14469343Y-13914724D02*
X14507438Y-13914724D01*
X14507438Y-13914724D02*
X14526486Y-13905200D01*
X14526486Y-13905200D02*
X14536010Y-13895676D01*
X14536010Y-13895676D02*
X14545534Y-13876628D01*
X14545534Y-13876628D02*
X14545534Y-13829009D01*
X14545534Y-13829009D02*
X14536010Y-13809962D01*
X14536010Y-13809962D02*
X14526486Y-13800438D01*
X14526486Y-13800438D02*
X14507438Y-13790914D01*
X14507438Y-13790914D02*
X14469343Y-13790914D01*
X14469343Y-13790914D02*
X14450295Y-13800438D01*
X14450295Y-13800438D02*
X14440772Y-13809962D01*
X14440772Y-13809962D02*
X14431248Y-13829009D01*
X14783629Y-13914724D02*
X14783629Y-13714724D01*
X14869343Y-13914724D02*
X14869343Y-13809962D01*
X14869343Y-13809962D02*
X14859819Y-13790914D01*
X14859819Y-13790914D02*
X14840772Y-13781390D01*
X14840772Y-13781390D02*
X14812200Y-13781390D01*
X14812200Y-13781390D02*
X14793153Y-13790914D01*
X14793153Y-13790914D02*
X14783629Y-13800438D01*
X14993153Y-13914724D02*
X14974105Y-13905200D01*
X14974105Y-13905200D02*
X14964581Y-13895676D01*
X14964581Y-13895676D02*
X14955057Y-13876628D01*
X14955057Y-13876628D02*
X14955057Y-13819486D01*
X14955057Y-13819486D02*
X14964581Y-13800438D01*
X14964581Y-13800438D02*
X14974105Y-13790914D01*
X14974105Y-13790914D02*
X14993153Y-13781390D01*
X14993153Y-13781390D02*
X15021724Y-13781390D01*
X15021724Y-13781390D02*
X15040772Y-13790914D01*
X15040772Y-13790914D02*
X15050296Y-13800438D01*
X15050296Y-13800438D02*
X15059819Y-13819486D01*
X15059819Y-13819486D02*
X15059819Y-13876628D01*
X15059819Y-13876628D02*
X15050296Y-13895676D01*
X15050296Y-13895676D02*
X15040772Y-13905200D01*
X15040772Y-13905200D02*
X15021724Y-13914724D01*
X15021724Y-13914724D02*
X14993153Y-13914724D01*
X15174105Y-13914724D02*
X15155057Y-13905200D01*
X15155057Y-13905200D02*
X15145534Y-13886152D01*
X15145534Y-13886152D02*
X15145534Y-13714724D01*
X15326486Y-13905200D02*
X15307438Y-13914724D01*
X15307438Y-13914724D02*
X15269343Y-13914724D01*
X15269343Y-13914724D02*
X15250296Y-13905200D01*
X15250296Y-13905200D02*
X15240772Y-13886152D01*
X15240772Y-13886152D02*
X15240772Y-13809962D01*
X15240772Y-13809962D02*
X15250296Y-13790914D01*
X15250296Y-13790914D02*
X15269343Y-13781390D01*
X15269343Y-13781390D02*
X15307438Y-13781390D01*
X15307438Y-13781390D02*
X15326486Y-13790914D01*
X15326486Y-13790914D02*
X15336010Y-13809962D01*
X15336010Y-13809962D02*
X15336010Y-13829009D01*
X15336010Y-13829009D02*
X15240772Y-13848057D01*
X15412200Y-13905200D02*
X15431248Y-13914724D01*
X15431248Y-13914724D02*
X15469343Y-13914724D01*
X15469343Y-13914724D02*
X15488391Y-13905200D01*
X15488391Y-13905200D02*
X15497915Y-13886152D01*
X15497915Y-13886152D02*
X15497915Y-13876628D01*
X15497915Y-13876628D02*
X15488391Y-13857581D01*
X15488391Y-13857581D02*
X15469343Y-13848057D01*
X15469343Y-13848057D02*
X15440772Y-13848057D01*
X15440772Y-13848057D02*
X15421724Y-13838533D01*
X15421724Y-13838533D02*
X15412200Y-13819486D01*
X15412200Y-13819486D02*
X15412200Y-13809962D01*
X15412200Y-13809962D02*
X15421724Y-13790914D01*
X15421724Y-13790914D02*
X15440772Y-13781390D01*
X15440772Y-13781390D02*
X15469343Y-13781390D01*
X15469343Y-13781390D02*
X15488391Y-13790914D01*
X15564581Y-13990914D02*
X15574105Y-13981390D01*
X15574105Y-13981390D02*
X15593153Y-13952819D01*
X15593153Y-13952819D02*
X15602677Y-13933771D01*
X15602677Y-13933771D02*
X15612200Y-13905200D01*
X15612200Y-13905200D02*
X15621724Y-13857581D01*
X15621724Y-13857581D02*
X15621724Y-13819486D01*
X15621724Y-13819486D02*
X15612200Y-13771867D01*
X15612200Y-13771867D02*
X15602677Y-13743295D01*
X15602677Y-13743295D02*
X15593153Y-13724248D01*
X15593153Y-13724248D02*
X15574105Y-13695676D01*
X15574105Y-13695676D02*
X15564581Y-13686152D01*
D15*
X10593162Y-14132162D02*
X10593162Y-14040238D01*
X10501238Y-14040238D01*
X10501238Y-14132162D01*
X10593162Y-14132162D01*
D11*
X10964581Y-14178724D02*
X10850295Y-14178724D01*
X10907438Y-14178724D02*
X10907438Y-13978724D01*
X10907438Y-13978724D02*
X10888390Y-14007295D01*
X10888390Y-14007295D02*
X10869343Y-14026343D01*
X10869343Y-14026343D02*
X10850295Y-14035867D01*
X11050295Y-14159676D02*
X11059819Y-14169200D01*
X11059819Y-14169200D02*
X11050295Y-14178724D01*
X11050295Y-14178724D02*
X11040771Y-14169200D01*
X11040771Y-14169200D02*
X11050295Y-14159676D01*
X11050295Y-14159676D02*
X11050295Y-14178724D01*
X11126486Y-13978724D02*
X11250295Y-13978724D01*
X11250295Y-13978724D02*
X11183629Y-14054914D01*
X11183629Y-14054914D02*
X11212200Y-14054914D01*
X11212200Y-14054914D02*
X11231248Y-14064438D01*
X11231248Y-14064438D02*
X11240771Y-14073962D01*
X11240771Y-14073962D02*
X11250295Y-14093009D01*
X11250295Y-14093009D02*
X11250295Y-14140628D01*
X11250295Y-14140628D02*
X11240771Y-14159676D01*
X11240771Y-14159676D02*
X11231248Y-14169200D01*
X11231248Y-14169200D02*
X11212200Y-14178724D01*
X11212200Y-14178724D02*
X11155057Y-14178724D01*
X11155057Y-14178724D02*
X11136010Y-14169200D01*
X11136010Y-14169200D02*
X11126486Y-14159676D01*
X11374105Y-13978724D02*
X11393152Y-13978724D01*
X11393152Y-13978724D02*
X11412200Y-13988248D01*
X11412200Y-13988248D02*
X11421724Y-13997771D01*
X11421724Y-13997771D02*
X11431248Y-14016819D01*
X11431248Y-14016819D02*
X11440771Y-14054914D01*
X11440771Y-14054914D02*
X11440771Y-14102533D01*
X11440771Y-14102533D02*
X11431248Y-14140628D01*
X11431248Y-14140628D02*
X11421724Y-14159676D01*
X11421724Y-14159676D02*
X11412200Y-14169200D01*
X11412200Y-14169200D02*
X11393152Y-14178724D01*
X11393152Y-14178724D02*
X11374105Y-14178724D01*
X11374105Y-14178724D02*
X11355057Y-14169200D01*
X11355057Y-14169200D02*
X11345533Y-14159676D01*
X11345533Y-14159676D02*
X11336009Y-14140628D01*
X11336009Y-14140628D02*
X11326486Y-14102533D01*
X11326486Y-14102533D02*
X11326486Y-14054914D01*
X11326486Y-14054914D02*
X11336009Y-14016819D01*
X11336009Y-14016819D02*
X11345533Y-13997771D01*
X11345533Y-13997771D02*
X11355057Y-13988248D01*
X11355057Y-13988248D02*
X11374105Y-13978724D01*
X11564581Y-13978724D02*
X11583629Y-13978724D01*
X11583629Y-13978724D02*
X11602676Y-13988248D01*
X11602676Y-13988248D02*
X11612200Y-13997771D01*
X11612200Y-13997771D02*
X11621724Y-14016819D01*
X11621724Y-14016819D02*
X11631248Y-14054914D01*
X11631248Y-14054914D02*
X11631248Y-14102533D01*
X11631248Y-14102533D02*
X11621724Y-14140628D01*
X11621724Y-14140628D02*
X11612200Y-14159676D01*
X11612200Y-14159676D02*
X11602676Y-14169200D01*
X11602676Y-14169200D02*
X11583629Y-14178724D01*
X11583629Y-14178724D02*
X11564581Y-14178724D01*
X11564581Y-14178724D02*
X11545533Y-14169200D01*
X11545533Y-14169200D02*
X11536009Y-14159676D01*
X11536009Y-14159676D02*
X11526486Y-14140628D01*
X11526486Y-14140628D02*
X11516962Y-14102533D01*
X11516962Y-14102533D02*
X11516962Y-14054914D01*
X11516962Y-14054914D02*
X11526486Y-14016819D01*
X11526486Y-14016819D02*
X11536009Y-13997771D01*
X11536009Y-13997771D02*
X11545533Y-13988248D01*
X11545533Y-13988248D02*
X11564581Y-13978724D01*
X11716962Y-14178724D02*
X11716962Y-14045390D01*
X11716962Y-14064438D02*
X11726486Y-14054914D01*
X11726486Y-14054914D02*
X11745533Y-14045390D01*
X11745533Y-14045390D02*
X11774105Y-14045390D01*
X11774105Y-14045390D02*
X11793152Y-14054914D01*
X11793152Y-14054914D02*
X11802676Y-14073962D01*
X11802676Y-14073962D02*
X11802676Y-14178724D01*
X11802676Y-14073962D02*
X11812200Y-14054914D01*
X11812200Y-14054914D02*
X11831248Y-14045390D01*
X11831248Y-14045390D02*
X11859819Y-14045390D01*
X11859819Y-14045390D02*
X11878867Y-14054914D01*
X11878867Y-14054914D02*
X11888390Y-14073962D01*
X11888390Y-14073962D02*
X11888390Y-14178724D01*
X11983629Y-14178724D02*
X11983629Y-14045390D01*
X11983629Y-14064438D02*
X11993152Y-14054914D01*
X11993152Y-14054914D02*
X12012200Y-14045390D01*
X12012200Y-14045390D02*
X12040771Y-14045390D01*
X12040771Y-14045390D02*
X12059819Y-14054914D01*
X12059819Y-14054914D02*
X12069343Y-14073962D01*
X12069343Y-14073962D02*
X12069343Y-14178724D01*
X12069343Y-14073962D02*
X12078867Y-14054914D01*
X12078867Y-14054914D02*
X12097914Y-14045390D01*
X12097914Y-14045390D02*
X12126486Y-14045390D01*
X12126486Y-14045390D02*
X12145533Y-14054914D01*
X12145533Y-14054914D02*
X12155057Y-14073962D01*
X12155057Y-14073962D02*
X12155057Y-14178724D01*
X12545533Y-13969200D02*
X12374105Y-14226343D01*
X12802676Y-13978724D02*
X12821724Y-13978724D01*
X12821724Y-13978724D02*
X12840772Y-13988248D01*
X12840772Y-13988248D02*
X12850295Y-13997771D01*
X12850295Y-13997771D02*
X12859819Y-14016819D01*
X12859819Y-14016819D02*
X12869343Y-14054914D01*
X12869343Y-14054914D02*
X12869343Y-14102533D01*
X12869343Y-14102533D02*
X12859819Y-14140628D01*
X12859819Y-14140628D02*
X12850295Y-14159676D01*
X12850295Y-14159676D02*
X12840772Y-14169200D01*
X12840772Y-14169200D02*
X12821724Y-14178724D01*
X12821724Y-14178724D02*
X12802676Y-14178724D01*
X12802676Y-14178724D02*
X12783629Y-14169200D01*
X12783629Y-14169200D02*
X12774105Y-14159676D01*
X12774105Y-14159676D02*
X12764581Y-14140628D01*
X12764581Y-14140628D02*
X12755057Y-14102533D01*
X12755057Y-14102533D02*
X12755057Y-14054914D01*
X12755057Y-14054914D02*
X12764581Y-14016819D01*
X12764581Y-14016819D02*
X12774105Y-13997771D01*
X12774105Y-13997771D02*
X12783629Y-13988248D01*
X12783629Y-13988248D02*
X12802676Y-13978724D01*
X12955057Y-14159676D02*
X12964581Y-14169200D01*
X12964581Y-14169200D02*
X12955057Y-14178724D01*
X12955057Y-14178724D02*
X12945533Y-14169200D01*
X12945533Y-14169200D02*
X12955057Y-14159676D01*
X12955057Y-14159676D02*
X12955057Y-14178724D01*
X13088391Y-13978724D02*
X13107438Y-13978724D01*
X13107438Y-13978724D02*
X13126486Y-13988248D01*
X13126486Y-13988248D02*
X13136010Y-13997771D01*
X13136010Y-13997771D02*
X13145533Y-14016819D01*
X13145533Y-14016819D02*
X13155057Y-14054914D01*
X13155057Y-14054914D02*
X13155057Y-14102533D01*
X13155057Y-14102533D02*
X13145533Y-14140628D01*
X13145533Y-14140628D02*
X13136010Y-14159676D01*
X13136010Y-14159676D02*
X13126486Y-14169200D01*
X13126486Y-14169200D02*
X13107438Y-14178724D01*
X13107438Y-14178724D02*
X13088391Y-14178724D01*
X13088391Y-14178724D02*
X13069343Y-14169200D01*
X13069343Y-14169200D02*
X13059819Y-14159676D01*
X13059819Y-14159676D02*
X13050295Y-14140628D01*
X13050295Y-14140628D02*
X13040772Y-14102533D01*
X13040772Y-14102533D02*
X13040772Y-14054914D01*
X13040772Y-14054914D02*
X13050295Y-14016819D01*
X13050295Y-14016819D02*
X13059819Y-13997771D01*
X13059819Y-13997771D02*
X13069343Y-13988248D01*
X13069343Y-13988248D02*
X13088391Y-13978724D01*
X13336010Y-13978724D02*
X13240772Y-13978724D01*
X13240772Y-13978724D02*
X13231248Y-14073962D01*
X13231248Y-14073962D02*
X13240772Y-14064438D01*
X13240772Y-14064438D02*
X13259819Y-14054914D01*
X13259819Y-14054914D02*
X13307438Y-14054914D01*
X13307438Y-14054914D02*
X13326486Y-14064438D01*
X13326486Y-14064438D02*
X13336010Y-14073962D01*
X13336010Y-14073962D02*
X13345533Y-14093009D01*
X13345533Y-14093009D02*
X13345533Y-14140628D01*
X13345533Y-14140628D02*
X13336010Y-14159676D01*
X13336010Y-14159676D02*
X13326486Y-14169200D01*
X13326486Y-14169200D02*
X13307438Y-14178724D01*
X13307438Y-14178724D02*
X13259819Y-14178724D01*
X13259819Y-14178724D02*
X13240772Y-14169200D01*
X13240772Y-14169200D02*
X13231248Y-14159676D01*
X13536010Y-14178724D02*
X13421724Y-14178724D01*
X13478867Y-14178724D02*
X13478867Y-13978724D01*
X13478867Y-13978724D02*
X13459819Y-14007295D01*
X13459819Y-14007295D02*
X13440772Y-14026343D01*
X13440772Y-14026343D02*
X13421724Y-14035867D01*
X13612200Y-13997771D02*
X13621724Y-13988248D01*
X13621724Y-13988248D02*
X13640772Y-13978724D01*
X13640772Y-13978724D02*
X13688391Y-13978724D01*
X13688391Y-13978724D02*
X13707438Y-13988248D01*
X13707438Y-13988248D02*
X13716962Y-13997771D01*
X13716962Y-13997771D02*
X13726486Y-14016819D01*
X13726486Y-14016819D02*
X13726486Y-14035867D01*
X13726486Y-14035867D02*
X13716962Y-14064438D01*
X13716962Y-14064438D02*
X13602676Y-14178724D01*
X13602676Y-14178724D02*
X13726486Y-14178724D01*
X13802676Y-13978724D02*
X13802676Y-14016819D01*
X13878867Y-13978724D02*
X13878867Y-14016819D01*
X14174105Y-14254914D02*
X14164581Y-14245390D01*
X14164581Y-14245390D02*
X14145534Y-14216819D01*
X14145534Y-14216819D02*
X14136010Y-14197771D01*
X14136010Y-14197771D02*
X14126486Y-14169200D01*
X14126486Y-14169200D02*
X14116962Y-14121581D01*
X14116962Y-14121581D02*
X14116962Y-14083486D01*
X14116962Y-14083486D02*
X14126486Y-14035867D01*
X14126486Y-14035867D02*
X14136010Y-14007295D01*
X14136010Y-14007295D02*
X14145534Y-13988248D01*
X14145534Y-13988248D02*
X14164581Y-13959676D01*
X14164581Y-13959676D02*
X14174105Y-13950152D01*
X14336010Y-14045390D02*
X14336010Y-14178724D01*
X14288391Y-13969200D02*
X14240772Y-14112057D01*
X14240772Y-14112057D02*
X14364581Y-14112057D01*
X14593153Y-14178724D02*
X14593153Y-13978724D01*
X14678867Y-14178724D02*
X14678867Y-14073962D01*
X14678867Y-14073962D02*
X14669343Y-14054914D01*
X14669343Y-14054914D02*
X14650296Y-14045390D01*
X14650296Y-14045390D02*
X14621724Y-14045390D01*
X14621724Y-14045390D02*
X14602676Y-14054914D01*
X14602676Y-14054914D02*
X14593153Y-14064438D01*
X14802676Y-14178724D02*
X14783629Y-14169200D01*
X14783629Y-14169200D02*
X14774105Y-14159676D01*
X14774105Y-14159676D02*
X14764581Y-14140628D01*
X14764581Y-14140628D02*
X14764581Y-14083486D01*
X14764581Y-14083486D02*
X14774105Y-14064438D01*
X14774105Y-14064438D02*
X14783629Y-14054914D01*
X14783629Y-14054914D02*
X14802676Y-14045390D01*
X14802676Y-14045390D02*
X14831248Y-14045390D01*
X14831248Y-14045390D02*
X14850296Y-14054914D01*
X14850296Y-14054914D02*
X14859819Y-14064438D01*
X14859819Y-14064438D02*
X14869343Y-14083486D01*
X14869343Y-14083486D02*
X14869343Y-14140628D01*
X14869343Y-14140628D02*
X14859819Y-14159676D01*
X14859819Y-14159676D02*
X14850296Y-14169200D01*
X14850296Y-14169200D02*
X14831248Y-14178724D01*
X14831248Y-14178724D02*
X14802676Y-14178724D01*
X14983629Y-14178724D02*
X14964581Y-14169200D01*
X14964581Y-14169200D02*
X14955057Y-14150152D01*
X14955057Y-14150152D02*
X14955057Y-13978724D01*
X15136010Y-14169200D02*
X15116962Y-14178724D01*
X15116962Y-14178724D02*
X15078867Y-14178724D01*
X15078867Y-14178724D02*
X15059819Y-14169200D01*
X15059819Y-14169200D02*
X15050296Y-14150152D01*
X15050296Y-14150152D02*
X15050296Y-14073962D01*
X15050296Y-14073962D02*
X15059819Y-14054914D01*
X15059819Y-14054914D02*
X15078867Y-14045390D01*
X15078867Y-14045390D02*
X15116962Y-14045390D01*
X15116962Y-14045390D02*
X15136010Y-14054914D01*
X15136010Y-14054914D02*
X15145534Y-14073962D01*
X15145534Y-14073962D02*
X15145534Y-14093009D01*
X15145534Y-14093009D02*
X15050296Y-14112057D01*
X15221724Y-14169200D02*
X15240772Y-14178724D01*
X15240772Y-14178724D02*
X15278867Y-14178724D01*
X15278867Y-14178724D02*
X15297915Y-14169200D01*
X15297915Y-14169200D02*
X15307438Y-14150152D01*
X15307438Y-14150152D02*
X15307438Y-14140628D01*
X15307438Y-14140628D02*
X15297915Y-14121581D01*
X15297915Y-14121581D02*
X15278867Y-14112057D01*
X15278867Y-14112057D02*
X15250296Y-14112057D01*
X15250296Y-14112057D02*
X15231248Y-14102533D01*
X15231248Y-14102533D02*
X15221724Y-14083486D01*
X15221724Y-14083486D02*
X15221724Y-14073962D01*
X15221724Y-14073962D02*
X15231248Y-14054914D01*
X15231248Y-14054914D02*
X15250296Y-14045390D01*
X15250296Y-14045390D02*
X15278867Y-14045390D01*
X15278867Y-14045390D02*
X15297915Y-14054914D01*
X15374105Y-14254914D02*
X15383629Y-14245390D01*
X15383629Y-14245390D02*
X15402677Y-14216819D01*
X15402677Y-14216819D02*
X15412200Y-14197771D01*
X15412200Y-14197771D02*
X15421724Y-14169200D01*
X15421724Y-14169200D02*
X15431248Y-14121581D01*
X15431248Y-14121581D02*
X15431248Y-14083486D01*
X15431248Y-14083486D02*
X15421724Y-14035867D01*
X15421724Y-14035867D02*
X15412200Y-14007295D01*
X15412200Y-14007295D02*
X15402677Y-13988248D01*
X15402677Y-13988248D02*
X15383629Y-13959676D01*
X15383629Y-13959676D02*
X15374105Y-13950152D01*
M02*
