%TF.GenerationSoftware,KiCad,Pcbnew,7.0.2*%
%TF.CreationDate,2023-06-10T17:52:00+02:00*%
%TF.ProjectId,USBCPD_PCB,55534243-5044-45f5-9043-422e6b696361,rev?*%
%TF.SameCoordinates,Original*%
%TF.FileFunction,Legend,Top*%
%TF.FilePolarity,Positive*%
%FSLAX46Y46*%
G04 Gerber Fmt 4.6, Leading zero omitted, Abs format (unit mm)*
G04 Created by KiCad (PCBNEW 7.0.2) date 2023-06-10 17:52:00*
%MOMM*%
%LPD*%
G01*
G04 APERTURE LIST*
G04 Aperture macros list*
%AMRoundRect*
0 Rectangle with rounded corners*
0 $1 Rounding radius*
0 $2 $3 $4 $5 $6 $7 $8 $9 X,Y pos of 4 corners*
0 Add a 4 corners polygon primitive as box body*
4,1,4,$2,$3,$4,$5,$6,$7,$8,$9,$2,$3,0*
0 Add four circle primitives for the rounded corners*
1,1,$1+$1,$2,$3*
1,1,$1+$1,$4,$5*
1,1,$1+$1,$6,$7*
1,1,$1+$1,$8,$9*
0 Add four rect primitives between the rounded corners*
20,1,$1+$1,$2,$3,$4,$5,0*
20,1,$1+$1,$4,$5,$6,$7,0*
20,1,$1+$1,$6,$7,$8,$9,0*
20,1,$1+$1,$8,$9,$2,$3,0*%
%AMFreePoly0*
4,1,19,0.500000,-0.750000,0.000000,-0.750000,0.000000,-0.744911,-0.071157,-0.744911,-0.207708,-0.704816,-0.327430,-0.627875,-0.420627,-0.520320,-0.479746,-0.390866,-0.500000,-0.250000,-0.500000,0.250000,-0.479746,0.390866,-0.420627,0.520320,-0.327430,0.627875,-0.207708,0.704816,-0.071157,0.744911,0.000000,0.744911,0.000000,0.750000,0.500000,0.750000,0.500000,-0.750000,0.500000,-0.750000,
$1*%
%AMFreePoly1*
4,1,19,0.000000,0.744911,0.071157,0.744911,0.207708,0.704816,0.327430,0.627875,0.420627,0.520320,0.479746,0.390866,0.500000,0.250000,0.500000,-0.250000,0.479746,-0.390866,0.420627,-0.520320,0.327430,-0.627875,0.207708,-0.704816,0.071157,-0.744911,0.000000,-0.744911,0.000000,-0.750000,-0.500000,-0.750000,-0.500000,0.750000,0.000000,0.750000,0.000000,0.744911,0.000000,0.744911,
$1*%
G04 Aperture macros list end*
%ADD10C,0.150000*%
%ADD11C,0.200000*%
%ADD12C,0.254000*%
%ADD13C,0.100000*%
%ADD14C,0.050000*%
%ADD15C,0.120000*%
%ADD16R,1.100000X0.500000*%
%ADD17R,0.500000X1.100000*%
%ADD18R,2.000000X2.000000*%
%ADD19R,0.800000X0.800000*%
%ADD20R,0.950000X0.950000*%
%ADD21R,5.000000X3.400000*%
%ADD22C,1.950000*%
%ADD23R,1.500000X2.500000*%
%ADD24R,7.000000X7.000000*%
%ADD25R,1.528000X0.650000*%
%ADD26R,0.650000X1.528000*%
%ADD27R,2.150000X2.200000*%
%ADD28R,1.120000X1.220000*%
%ADD29R,6.500000X2.500000*%
%ADD30R,0.820000X2.720000*%
%ADD31R,4.050000X2.150000*%
%ADD32R,1.270000X0.610000*%
%ADD33R,0.710000X0.610000*%
%ADD34R,3.810000X3.910000*%
%ADD35R,0.310000X0.255000*%
%ADD36RoundRect,0.237500X-0.250000X-0.237500X0.250000X-0.237500X0.250000X0.237500X-0.250000X0.237500X0*%
%ADD37RoundRect,0.155000X-0.212500X-0.155000X0.212500X-0.155000X0.212500X0.155000X-0.212500X0.155000X0*%
%ADD38C,1.000000*%
%ADD39RoundRect,0.237500X-0.237500X0.250000X-0.237500X-0.250000X0.237500X-0.250000X0.237500X0.250000X0*%
%ADD40R,1.530000X1.530000*%
%ADD41C,1.530000*%
%ADD42RoundRect,0.237500X-0.237500X0.300000X-0.237500X-0.300000X0.237500X-0.300000X0.237500X0.300000X0*%
%ADD43RoundRect,0.155000X0.155000X-0.212500X0.155000X0.212500X-0.155000X0.212500X-0.155000X-0.212500X0*%
%ADD44RoundRect,0.237500X0.237500X-0.300000X0.237500X0.300000X-0.237500X0.300000X-0.237500X-0.300000X0*%
%ADD45RoundRect,0.237500X0.237500X-0.250000X0.237500X0.250000X-0.237500X0.250000X-0.237500X-0.250000X0*%
%ADD46RoundRect,0.237500X-0.300000X-0.237500X0.300000X-0.237500X0.300000X0.237500X-0.300000X0.237500X0*%
%ADD47RoundRect,0.237500X0.250000X0.237500X-0.250000X0.237500X-0.250000X-0.237500X0.250000X-0.237500X0*%
%ADD48RoundRect,0.155000X-0.155000X0.212500X-0.155000X-0.212500X0.155000X-0.212500X0.155000X0.212500X0*%
%ADD49FreePoly0,270.000000*%
%ADD50FreePoly1,270.000000*%
%ADD51RoundRect,0.155000X0.212500X0.155000X-0.212500X0.155000X-0.212500X-0.155000X0.212500X-0.155000X0*%
%ADD52RoundRect,0.237500X0.300000X0.237500X-0.300000X0.237500X-0.300000X-0.237500X0.300000X-0.237500X0*%
G04 APERTURE END LIST*
D10*
X151368095Y-112653619D02*
X151368095Y-111653619D01*
X151368095Y-111653619D02*
X151749047Y-111653619D01*
X151749047Y-111653619D02*
X151844285Y-111701238D01*
X151844285Y-111701238D02*
X151891904Y-111748857D01*
X151891904Y-111748857D02*
X151939523Y-111844095D01*
X151939523Y-111844095D02*
X151939523Y-111986952D01*
X151939523Y-111986952D02*
X151891904Y-112082190D01*
X151891904Y-112082190D02*
X151844285Y-112129809D01*
X151844285Y-112129809D02*
X151749047Y-112177428D01*
X151749047Y-112177428D02*
X151368095Y-112177428D01*
X152272857Y-111653619D02*
X152510952Y-112653619D01*
X152510952Y-112653619D02*
X152701428Y-111939333D01*
X152701428Y-111939333D02*
X152891904Y-112653619D01*
X152891904Y-112653619D02*
X153130000Y-111653619D01*
X153510952Y-112653619D02*
X153510952Y-111653619D01*
X153510952Y-111653619D02*
X153844285Y-112367904D01*
X153844285Y-112367904D02*
X154177618Y-111653619D01*
X154177618Y-111653619D02*
X154177618Y-112653619D01*
X154606190Y-111748857D02*
X154653809Y-111701238D01*
X154653809Y-111701238D02*
X154749047Y-111653619D01*
X154749047Y-111653619D02*
X154987142Y-111653619D01*
X154987142Y-111653619D02*
X155082380Y-111701238D01*
X155082380Y-111701238D02*
X155129999Y-111748857D01*
X155129999Y-111748857D02*
X155177618Y-111844095D01*
X155177618Y-111844095D02*
X155177618Y-111939333D01*
X155177618Y-111939333D02*
X155129999Y-112082190D01*
X155129999Y-112082190D02*
X154558571Y-112653619D01*
X154558571Y-112653619D02*
X155177618Y-112653619D01*
D11*
X155400285Y-121289619D02*
X154924095Y-121289619D01*
X154924095Y-121289619D02*
X154924095Y-120289619D01*
X155733619Y-120765809D02*
X156066952Y-120765809D01*
X156209809Y-121289619D02*
X155733619Y-121289619D01*
X155733619Y-121289619D02*
X155733619Y-120289619D01*
X155733619Y-120289619D02*
X156209809Y-120289619D01*
X156828857Y-120289619D02*
X157019333Y-120289619D01*
X157019333Y-120289619D02*
X157114571Y-120337238D01*
X157114571Y-120337238D02*
X157209809Y-120432476D01*
X157209809Y-120432476D02*
X157257428Y-120622952D01*
X157257428Y-120622952D02*
X157257428Y-120956285D01*
X157257428Y-120956285D02*
X157209809Y-121146761D01*
X157209809Y-121146761D02*
X157114571Y-121242000D01*
X157114571Y-121242000D02*
X157019333Y-121289619D01*
X157019333Y-121289619D02*
X156828857Y-121289619D01*
X156828857Y-121289619D02*
X156733619Y-121242000D01*
X156733619Y-121242000D02*
X156638381Y-121146761D01*
X156638381Y-121146761D02*
X156590762Y-120956285D01*
X156590762Y-120956285D02*
X156590762Y-120622952D01*
X156590762Y-120622952D02*
X156638381Y-120432476D01*
X156638381Y-120432476D02*
X156733619Y-120337238D01*
X156733619Y-120337238D02*
X156828857Y-120289619D01*
X158447905Y-121289619D02*
X158447905Y-120289619D01*
X158447905Y-120289619D02*
X158828857Y-120289619D01*
X158828857Y-120289619D02*
X158924095Y-120337238D01*
X158924095Y-120337238D02*
X158971714Y-120384857D01*
X158971714Y-120384857D02*
X159019333Y-120480095D01*
X159019333Y-120480095D02*
X159019333Y-120622952D01*
X159019333Y-120622952D02*
X158971714Y-120718190D01*
X158971714Y-120718190D02*
X158924095Y-120765809D01*
X158924095Y-120765809D02*
X158828857Y-120813428D01*
X158828857Y-120813428D02*
X158447905Y-120813428D01*
X160019333Y-121289619D02*
X159686000Y-120813428D01*
X159447905Y-121289619D02*
X159447905Y-120289619D01*
X159447905Y-120289619D02*
X159828857Y-120289619D01*
X159828857Y-120289619D02*
X159924095Y-120337238D01*
X159924095Y-120337238D02*
X159971714Y-120384857D01*
X159971714Y-120384857D02*
X160019333Y-120480095D01*
X160019333Y-120480095D02*
X160019333Y-120622952D01*
X160019333Y-120622952D02*
X159971714Y-120718190D01*
X159971714Y-120718190D02*
X159924095Y-120765809D01*
X159924095Y-120765809D02*
X159828857Y-120813428D01*
X159828857Y-120813428D02*
X159447905Y-120813428D01*
X160638381Y-120813428D02*
X160638381Y-121289619D01*
X160305048Y-120289619D02*
X160638381Y-120813428D01*
X160638381Y-120813428D02*
X160971714Y-120289619D01*
X161257429Y-121242000D02*
X161400286Y-121289619D01*
X161400286Y-121289619D02*
X161638381Y-121289619D01*
X161638381Y-121289619D02*
X161733619Y-121242000D01*
X161733619Y-121242000D02*
X161781238Y-121194380D01*
X161781238Y-121194380D02*
X161828857Y-121099142D01*
X161828857Y-121099142D02*
X161828857Y-121003904D01*
X161828857Y-121003904D02*
X161781238Y-120908666D01*
X161781238Y-120908666D02*
X161733619Y-120861047D01*
X161733619Y-120861047D02*
X161638381Y-120813428D01*
X161638381Y-120813428D02*
X161447905Y-120765809D01*
X161447905Y-120765809D02*
X161352667Y-120718190D01*
X161352667Y-120718190D02*
X161305048Y-120670571D01*
X161305048Y-120670571D02*
X161257429Y-120575333D01*
X161257429Y-120575333D02*
X161257429Y-120480095D01*
X161257429Y-120480095D02*
X161305048Y-120384857D01*
X161305048Y-120384857D02*
X161352667Y-120337238D01*
X161352667Y-120337238D02*
X161447905Y-120289619D01*
X161447905Y-120289619D02*
X161686000Y-120289619D01*
X161686000Y-120289619D02*
X161828857Y-120337238D01*
X162257429Y-121289619D02*
X162257429Y-120289619D01*
X162733619Y-121289619D02*
X162733619Y-120289619D01*
X162733619Y-120289619D02*
X162971714Y-120289619D01*
X162971714Y-120289619D02*
X163114571Y-120337238D01*
X163114571Y-120337238D02*
X163209809Y-120432476D01*
X163209809Y-120432476D02*
X163257428Y-120527714D01*
X163257428Y-120527714D02*
X163305047Y-120718190D01*
X163305047Y-120718190D02*
X163305047Y-120861047D01*
X163305047Y-120861047D02*
X163257428Y-121051523D01*
X163257428Y-121051523D02*
X163209809Y-121146761D01*
X163209809Y-121146761D02*
X163114571Y-121242000D01*
X163114571Y-121242000D02*
X162971714Y-121289619D01*
X162971714Y-121289619D02*
X162733619Y-121289619D01*
X163733619Y-120765809D02*
X164066952Y-120765809D01*
X164209809Y-121289619D02*
X163733619Y-121289619D01*
X163733619Y-121289619D02*
X163733619Y-120289619D01*
X163733619Y-120289619D02*
X164209809Y-120289619D01*
D10*
X137906095Y-97921619D02*
X137906095Y-96921619D01*
X137906095Y-96921619D02*
X138287047Y-96921619D01*
X138287047Y-96921619D02*
X138382285Y-96969238D01*
X138382285Y-96969238D02*
X138429904Y-97016857D01*
X138429904Y-97016857D02*
X138477523Y-97112095D01*
X138477523Y-97112095D02*
X138477523Y-97254952D01*
X138477523Y-97254952D02*
X138429904Y-97350190D01*
X138429904Y-97350190D02*
X138382285Y-97397809D01*
X138382285Y-97397809D02*
X138287047Y-97445428D01*
X138287047Y-97445428D02*
X137906095Y-97445428D01*
X138810857Y-96921619D02*
X139048952Y-97921619D01*
X139048952Y-97921619D02*
X139239428Y-97207333D01*
X139239428Y-97207333D02*
X139429904Y-97921619D01*
X139429904Y-97921619D02*
X139668000Y-96921619D01*
X140048952Y-97921619D02*
X140048952Y-96921619D01*
X140048952Y-96921619D02*
X140382285Y-97635904D01*
X140382285Y-97635904D02*
X140715618Y-96921619D01*
X140715618Y-96921619D02*
X140715618Y-97921619D01*
X141096571Y-96921619D02*
X141715618Y-96921619D01*
X141715618Y-96921619D02*
X141382285Y-97302571D01*
X141382285Y-97302571D02*
X141525142Y-97302571D01*
X141525142Y-97302571D02*
X141620380Y-97350190D01*
X141620380Y-97350190D02*
X141667999Y-97397809D01*
X141667999Y-97397809D02*
X141715618Y-97493047D01*
X141715618Y-97493047D02*
X141715618Y-97731142D01*
X141715618Y-97731142D02*
X141667999Y-97826380D01*
X141667999Y-97826380D02*
X141620380Y-97874000D01*
X141620380Y-97874000D02*
X141525142Y-97921619D01*
X141525142Y-97921619D02*
X141239428Y-97921619D01*
X141239428Y-97921619D02*
X141144190Y-97874000D01*
X141144190Y-97874000D02*
X141096571Y-97826380D01*
X135366095Y-113923619D02*
X135366095Y-112923619D01*
X135366095Y-112923619D02*
X135747047Y-112923619D01*
X135747047Y-112923619D02*
X135842285Y-112971238D01*
X135842285Y-112971238D02*
X135889904Y-113018857D01*
X135889904Y-113018857D02*
X135937523Y-113114095D01*
X135937523Y-113114095D02*
X135937523Y-113256952D01*
X135937523Y-113256952D02*
X135889904Y-113352190D01*
X135889904Y-113352190D02*
X135842285Y-113399809D01*
X135842285Y-113399809D02*
X135747047Y-113447428D01*
X135747047Y-113447428D02*
X135366095Y-113447428D01*
X136270857Y-112923619D02*
X136508952Y-113923619D01*
X136508952Y-113923619D02*
X136699428Y-113209333D01*
X136699428Y-113209333D02*
X136889904Y-113923619D01*
X136889904Y-113923619D02*
X137128000Y-112923619D01*
X137508952Y-113923619D02*
X137508952Y-112923619D01*
X137508952Y-112923619D02*
X137842285Y-113637904D01*
X137842285Y-113637904D02*
X138175618Y-112923619D01*
X138175618Y-112923619D02*
X138175618Y-113923619D01*
X139175618Y-113923619D02*
X138604190Y-113923619D01*
X138889904Y-113923619D02*
X138889904Y-112923619D01*
X138889904Y-112923619D02*
X138794666Y-113066476D01*
X138794666Y-113066476D02*
X138699428Y-113161714D01*
X138699428Y-113161714D02*
X138604190Y-113209333D01*
X154924095Y-97667619D02*
X154924095Y-96667619D01*
X154924095Y-96667619D02*
X155305047Y-96667619D01*
X155305047Y-96667619D02*
X155400285Y-96715238D01*
X155400285Y-96715238D02*
X155447904Y-96762857D01*
X155447904Y-96762857D02*
X155495523Y-96858095D01*
X155495523Y-96858095D02*
X155495523Y-97000952D01*
X155495523Y-97000952D02*
X155447904Y-97096190D01*
X155447904Y-97096190D02*
X155400285Y-97143809D01*
X155400285Y-97143809D02*
X155305047Y-97191428D01*
X155305047Y-97191428D02*
X154924095Y-97191428D01*
X155828857Y-96667619D02*
X156066952Y-97667619D01*
X156066952Y-97667619D02*
X156257428Y-96953333D01*
X156257428Y-96953333D02*
X156447904Y-97667619D01*
X156447904Y-97667619D02*
X156686000Y-96667619D01*
X157066952Y-97667619D02*
X157066952Y-96667619D01*
X157066952Y-96667619D02*
X157400285Y-97381904D01*
X157400285Y-97381904D02*
X157733618Y-96667619D01*
X157733618Y-96667619D02*
X157733618Y-97667619D01*
X158638380Y-97000952D02*
X158638380Y-97667619D01*
X158400285Y-96620000D02*
X158162190Y-97334285D01*
X158162190Y-97334285D02*
X158781237Y-97334285D01*
X156860761Y-115796857D02*
X156765523Y-115749238D01*
X156765523Y-115749238D02*
X156670285Y-115654000D01*
X156670285Y-115654000D02*
X156527428Y-115511142D01*
X156527428Y-115511142D02*
X156432190Y-115463523D01*
X156432190Y-115463523D02*
X156336952Y-115463523D01*
X156384571Y-115701619D02*
X156289333Y-115654000D01*
X156289333Y-115654000D02*
X156194095Y-115558761D01*
X156194095Y-115558761D02*
X156146476Y-115368285D01*
X156146476Y-115368285D02*
X156146476Y-115034952D01*
X156146476Y-115034952D02*
X156194095Y-114844476D01*
X156194095Y-114844476D02*
X156289333Y-114749238D01*
X156289333Y-114749238D02*
X156384571Y-114701619D01*
X156384571Y-114701619D02*
X156575047Y-114701619D01*
X156575047Y-114701619D02*
X156670285Y-114749238D01*
X156670285Y-114749238D02*
X156765523Y-114844476D01*
X156765523Y-114844476D02*
X156813142Y-115034952D01*
X156813142Y-115034952D02*
X156813142Y-115368285D01*
X156813142Y-115368285D02*
X156765523Y-115558761D01*
X156765523Y-115558761D02*
X156670285Y-115654000D01*
X156670285Y-115654000D02*
X156575047Y-115701619D01*
X156575047Y-115701619D02*
X156384571Y-115701619D01*
X157765523Y-115701619D02*
X157194095Y-115701619D01*
X157479809Y-115701619D02*
X157479809Y-114701619D01*
X157479809Y-114701619D02*
X157384571Y-114844476D01*
X157384571Y-114844476D02*
X157289333Y-114939714D01*
X157289333Y-114939714D02*
X157194095Y-114987333D01*
X158146476Y-115654000D02*
X158289333Y-115701619D01*
X158289333Y-115701619D02*
X158527428Y-115701619D01*
X158527428Y-115701619D02*
X158622666Y-115654000D01*
X158622666Y-115654000D02*
X158670285Y-115606380D01*
X158670285Y-115606380D02*
X158717904Y-115511142D01*
X158717904Y-115511142D02*
X158717904Y-115415904D01*
X158717904Y-115415904D02*
X158670285Y-115320666D01*
X158670285Y-115320666D02*
X158622666Y-115273047D01*
X158622666Y-115273047D02*
X158527428Y-115225428D01*
X158527428Y-115225428D02*
X158336952Y-115177809D01*
X158336952Y-115177809D02*
X158241714Y-115130190D01*
X158241714Y-115130190D02*
X158194095Y-115082571D01*
X158194095Y-115082571D02*
X158146476Y-114987333D01*
X158146476Y-114987333D02*
X158146476Y-114892095D01*
X158146476Y-114892095D02*
X158194095Y-114796857D01*
X158194095Y-114796857D02*
X158241714Y-114749238D01*
X158241714Y-114749238D02*
X158336952Y-114701619D01*
X158336952Y-114701619D02*
X158575047Y-114701619D01*
X158575047Y-114701619D02*
X158717904Y-114749238D01*
X137001238Y-87015619D02*
X137334571Y-88015619D01*
X137334571Y-88015619D02*
X137667904Y-87015619D01*
X138144095Y-88015619D02*
X138048857Y-87968000D01*
X138048857Y-87968000D02*
X138001238Y-87920380D01*
X138001238Y-87920380D02*
X137953619Y-87825142D01*
X137953619Y-87825142D02*
X137953619Y-87539428D01*
X137953619Y-87539428D02*
X138001238Y-87444190D01*
X138001238Y-87444190D02*
X138048857Y-87396571D01*
X138048857Y-87396571D02*
X138144095Y-87348952D01*
X138144095Y-87348952D02*
X138286952Y-87348952D01*
X138286952Y-87348952D02*
X138382190Y-87396571D01*
X138382190Y-87396571D02*
X138429809Y-87444190D01*
X138429809Y-87444190D02*
X138477428Y-87539428D01*
X138477428Y-87539428D02*
X138477428Y-87825142D01*
X138477428Y-87825142D02*
X138429809Y-87920380D01*
X138429809Y-87920380D02*
X138382190Y-87968000D01*
X138382190Y-87968000D02*
X138286952Y-88015619D01*
X138286952Y-88015619D02*
X138144095Y-88015619D01*
X139334571Y-87348952D02*
X139334571Y-88015619D01*
X138906000Y-87348952D02*
X138906000Y-87872761D01*
X138906000Y-87872761D02*
X138953619Y-87968000D01*
X138953619Y-87968000D02*
X139048857Y-88015619D01*
X139048857Y-88015619D02*
X139191714Y-88015619D01*
X139191714Y-88015619D02*
X139286952Y-87968000D01*
X139286952Y-87968000D02*
X139334571Y-87920380D01*
X139667905Y-87348952D02*
X140048857Y-87348952D01*
X139810762Y-87015619D02*
X139810762Y-87872761D01*
X139810762Y-87872761D02*
X139858381Y-87968000D01*
X139858381Y-87968000D02*
X139953619Y-88015619D01*
X139953619Y-88015619D02*
X140048857Y-88015619D01*
X135016761Y-96492857D02*
X134921523Y-96445238D01*
X134921523Y-96445238D02*
X134826285Y-96350000D01*
X134826285Y-96350000D02*
X134683428Y-96207142D01*
X134683428Y-96207142D02*
X134588190Y-96159523D01*
X134588190Y-96159523D02*
X134492952Y-96159523D01*
X134540571Y-96397619D02*
X134445333Y-96350000D01*
X134445333Y-96350000D02*
X134350095Y-96254761D01*
X134350095Y-96254761D02*
X134302476Y-96064285D01*
X134302476Y-96064285D02*
X134302476Y-95730952D01*
X134302476Y-95730952D02*
X134350095Y-95540476D01*
X134350095Y-95540476D02*
X134445333Y-95445238D01*
X134445333Y-95445238D02*
X134540571Y-95397619D01*
X134540571Y-95397619D02*
X134731047Y-95397619D01*
X134731047Y-95397619D02*
X134826285Y-95445238D01*
X134826285Y-95445238D02*
X134921523Y-95540476D01*
X134921523Y-95540476D02*
X134969142Y-95730952D01*
X134969142Y-95730952D02*
X134969142Y-96064285D01*
X134969142Y-96064285D02*
X134921523Y-96254761D01*
X134921523Y-96254761D02*
X134826285Y-96350000D01*
X134826285Y-96350000D02*
X134731047Y-96397619D01*
X134731047Y-96397619D02*
X134540571Y-96397619D01*
X135302476Y-95397619D02*
X135921523Y-95397619D01*
X135921523Y-95397619D02*
X135588190Y-95778571D01*
X135588190Y-95778571D02*
X135731047Y-95778571D01*
X135731047Y-95778571D02*
X135826285Y-95826190D01*
X135826285Y-95826190D02*
X135873904Y-95873809D01*
X135873904Y-95873809D02*
X135921523Y-95969047D01*
X135921523Y-95969047D02*
X135921523Y-96207142D01*
X135921523Y-96207142D02*
X135873904Y-96302380D01*
X135873904Y-96302380D02*
X135826285Y-96350000D01*
X135826285Y-96350000D02*
X135731047Y-96397619D01*
X135731047Y-96397619D02*
X135445333Y-96397619D01*
X135445333Y-96397619D02*
X135350095Y-96350000D01*
X135350095Y-96350000D02*
X135302476Y-96302380D01*
X136302476Y-96350000D02*
X136445333Y-96397619D01*
X136445333Y-96397619D02*
X136683428Y-96397619D01*
X136683428Y-96397619D02*
X136778666Y-96350000D01*
X136778666Y-96350000D02*
X136826285Y-96302380D01*
X136826285Y-96302380D02*
X136873904Y-96207142D01*
X136873904Y-96207142D02*
X136873904Y-96111904D01*
X136873904Y-96111904D02*
X136826285Y-96016666D01*
X136826285Y-96016666D02*
X136778666Y-95969047D01*
X136778666Y-95969047D02*
X136683428Y-95921428D01*
X136683428Y-95921428D02*
X136492952Y-95873809D01*
X136492952Y-95873809D02*
X136397714Y-95826190D01*
X136397714Y-95826190D02*
X136350095Y-95778571D01*
X136350095Y-95778571D02*
X136302476Y-95683333D01*
X136302476Y-95683333D02*
X136302476Y-95588095D01*
X136302476Y-95588095D02*
X136350095Y-95492857D01*
X136350095Y-95492857D02*
X136397714Y-95445238D01*
X136397714Y-95445238D02*
X136492952Y-95397619D01*
X136492952Y-95397619D02*
X136731047Y-95397619D01*
X136731047Y-95397619D02*
X136873904Y-95445238D01*
X130397238Y-113177619D02*
X130730571Y-114177619D01*
X130730571Y-114177619D02*
X131063904Y-113177619D01*
X131397238Y-114177619D02*
X131397238Y-113510952D01*
X131397238Y-113177619D02*
X131349619Y-113225238D01*
X131349619Y-113225238D02*
X131397238Y-113272857D01*
X131397238Y-113272857D02*
X131444857Y-113225238D01*
X131444857Y-113225238D02*
X131397238Y-113177619D01*
X131397238Y-113177619D02*
X131397238Y-113272857D01*
X131873428Y-113510952D02*
X131873428Y-114177619D01*
X131873428Y-113606190D02*
X131921047Y-113558571D01*
X131921047Y-113558571D02*
X132016285Y-113510952D01*
X132016285Y-113510952D02*
X132159142Y-113510952D01*
X132159142Y-113510952D02*
X132254380Y-113558571D01*
X132254380Y-113558571D02*
X132301999Y-113653809D01*
X132301999Y-113653809D02*
X132301999Y-114177619D01*
D11*
X131540190Y-124215333D02*
X133064000Y-124215333D01*
X132302095Y-124977238D02*
X132302095Y-123453428D01*
X135540190Y-124215333D02*
X137064000Y-124215333D01*
D10*
X153146095Y-121971619D02*
X153146095Y-122781142D01*
X153146095Y-122781142D02*
X153193714Y-122876380D01*
X153193714Y-122876380D02*
X153241333Y-122924000D01*
X153241333Y-122924000D02*
X153336571Y-122971619D01*
X153336571Y-122971619D02*
X153527047Y-122971619D01*
X153527047Y-122971619D02*
X153622285Y-122924000D01*
X153622285Y-122924000D02*
X153669904Y-122876380D01*
X153669904Y-122876380D02*
X153717523Y-122781142D01*
X153717523Y-122781142D02*
X153717523Y-121971619D01*
X154146095Y-122924000D02*
X154288952Y-122971619D01*
X154288952Y-122971619D02*
X154527047Y-122971619D01*
X154527047Y-122971619D02*
X154622285Y-122924000D01*
X154622285Y-122924000D02*
X154669904Y-122876380D01*
X154669904Y-122876380D02*
X154717523Y-122781142D01*
X154717523Y-122781142D02*
X154717523Y-122685904D01*
X154717523Y-122685904D02*
X154669904Y-122590666D01*
X154669904Y-122590666D02*
X154622285Y-122543047D01*
X154622285Y-122543047D02*
X154527047Y-122495428D01*
X154527047Y-122495428D02*
X154336571Y-122447809D01*
X154336571Y-122447809D02*
X154241333Y-122400190D01*
X154241333Y-122400190D02*
X154193714Y-122352571D01*
X154193714Y-122352571D02*
X154146095Y-122257333D01*
X154146095Y-122257333D02*
X154146095Y-122162095D01*
X154146095Y-122162095D02*
X154193714Y-122066857D01*
X154193714Y-122066857D02*
X154241333Y-122019238D01*
X154241333Y-122019238D02*
X154336571Y-121971619D01*
X154336571Y-121971619D02*
X154574666Y-121971619D01*
X154574666Y-121971619D02*
X154717523Y-122019238D01*
X155479428Y-122447809D02*
X155622285Y-122495428D01*
X155622285Y-122495428D02*
X155669904Y-122543047D01*
X155669904Y-122543047D02*
X155717523Y-122638285D01*
X155717523Y-122638285D02*
X155717523Y-122781142D01*
X155717523Y-122781142D02*
X155669904Y-122876380D01*
X155669904Y-122876380D02*
X155622285Y-122924000D01*
X155622285Y-122924000D02*
X155527047Y-122971619D01*
X155527047Y-122971619D02*
X155146095Y-122971619D01*
X155146095Y-122971619D02*
X155146095Y-121971619D01*
X155146095Y-121971619D02*
X155479428Y-121971619D01*
X155479428Y-121971619D02*
X155574666Y-122019238D01*
X155574666Y-122019238D02*
X155622285Y-122066857D01*
X155622285Y-122066857D02*
X155669904Y-122162095D01*
X155669904Y-122162095D02*
X155669904Y-122257333D01*
X155669904Y-122257333D02*
X155622285Y-122352571D01*
X155622285Y-122352571D02*
X155574666Y-122400190D01*
X155574666Y-122400190D02*
X155479428Y-122447809D01*
X155479428Y-122447809D02*
X155146095Y-122447809D01*
X156717523Y-122876380D02*
X156669904Y-122924000D01*
X156669904Y-122924000D02*
X156527047Y-122971619D01*
X156527047Y-122971619D02*
X156431809Y-122971619D01*
X156431809Y-122971619D02*
X156288952Y-122924000D01*
X156288952Y-122924000D02*
X156193714Y-122828761D01*
X156193714Y-122828761D02*
X156146095Y-122733523D01*
X156146095Y-122733523D02*
X156098476Y-122543047D01*
X156098476Y-122543047D02*
X156098476Y-122400190D01*
X156098476Y-122400190D02*
X156146095Y-122209714D01*
X156146095Y-122209714D02*
X156193714Y-122114476D01*
X156193714Y-122114476D02*
X156288952Y-122019238D01*
X156288952Y-122019238D02*
X156431809Y-121971619D01*
X156431809Y-121971619D02*
X156527047Y-121971619D01*
X156527047Y-121971619D02*
X156669904Y-122019238D01*
X156669904Y-122019238D02*
X156717523Y-122066857D01*
X157146095Y-122971619D02*
X157146095Y-121971619D01*
X157146095Y-121971619D02*
X157527047Y-121971619D01*
X157527047Y-121971619D02*
X157622285Y-122019238D01*
X157622285Y-122019238D02*
X157669904Y-122066857D01*
X157669904Y-122066857D02*
X157717523Y-122162095D01*
X157717523Y-122162095D02*
X157717523Y-122304952D01*
X157717523Y-122304952D02*
X157669904Y-122400190D01*
X157669904Y-122400190D02*
X157622285Y-122447809D01*
X157622285Y-122447809D02*
X157527047Y-122495428D01*
X157527047Y-122495428D02*
X157146095Y-122495428D01*
X158146095Y-122971619D02*
X158146095Y-121971619D01*
X158146095Y-121971619D02*
X158384190Y-121971619D01*
X158384190Y-121971619D02*
X158527047Y-122019238D01*
X158527047Y-122019238D02*
X158622285Y-122114476D01*
X158622285Y-122114476D02*
X158669904Y-122209714D01*
X158669904Y-122209714D02*
X158717523Y-122400190D01*
X158717523Y-122400190D02*
X158717523Y-122543047D01*
X158717523Y-122543047D02*
X158669904Y-122733523D01*
X158669904Y-122733523D02*
X158622285Y-122828761D01*
X158622285Y-122828761D02*
X158527047Y-122924000D01*
X158527047Y-122924000D02*
X158384190Y-122971619D01*
X158384190Y-122971619D02*
X158146095Y-122971619D01*
X159003238Y-122304952D02*
X159384190Y-122304952D01*
X159146095Y-121971619D02*
X159146095Y-122828761D01*
X159146095Y-122828761D02*
X159193714Y-122924000D01*
X159193714Y-122924000D02*
X159288952Y-122971619D01*
X159288952Y-122971619D02*
X159384190Y-122971619D01*
X159860381Y-122971619D02*
X159765143Y-122924000D01*
X159765143Y-122924000D02*
X159717524Y-122876380D01*
X159717524Y-122876380D02*
X159669905Y-122781142D01*
X159669905Y-122781142D02*
X159669905Y-122495428D01*
X159669905Y-122495428D02*
X159717524Y-122400190D01*
X159717524Y-122400190D02*
X159765143Y-122352571D01*
X159765143Y-122352571D02*
X159860381Y-122304952D01*
X159860381Y-122304952D02*
X160003238Y-122304952D01*
X160003238Y-122304952D02*
X160098476Y-122352571D01*
X160098476Y-122352571D02*
X160146095Y-122400190D01*
X160146095Y-122400190D02*
X160193714Y-122495428D01*
X160193714Y-122495428D02*
X160193714Y-122781142D01*
X160193714Y-122781142D02*
X160146095Y-122876380D01*
X160146095Y-122876380D02*
X160098476Y-122924000D01*
X160098476Y-122924000D02*
X160003238Y-122971619D01*
X160003238Y-122971619D02*
X159860381Y-122971619D01*
X161050857Y-121971619D02*
X160860381Y-121971619D01*
X160860381Y-121971619D02*
X160765143Y-122019238D01*
X160765143Y-122019238D02*
X160717524Y-122066857D01*
X160717524Y-122066857D02*
X160622286Y-122209714D01*
X160622286Y-122209714D02*
X160574667Y-122400190D01*
X160574667Y-122400190D02*
X160574667Y-122781142D01*
X160574667Y-122781142D02*
X160622286Y-122876380D01*
X160622286Y-122876380D02*
X160669905Y-122924000D01*
X160669905Y-122924000D02*
X160765143Y-122971619D01*
X160765143Y-122971619D02*
X160955619Y-122971619D01*
X160955619Y-122971619D02*
X161050857Y-122924000D01*
X161050857Y-122924000D02*
X161098476Y-122876380D01*
X161098476Y-122876380D02*
X161146095Y-122781142D01*
X161146095Y-122781142D02*
X161146095Y-122543047D01*
X161146095Y-122543047D02*
X161098476Y-122447809D01*
X161098476Y-122447809D02*
X161050857Y-122400190D01*
X161050857Y-122400190D02*
X160955619Y-122352571D01*
X160955619Y-122352571D02*
X160765143Y-122352571D01*
X160765143Y-122352571D02*
X160669905Y-122400190D01*
X160669905Y-122400190D02*
X160622286Y-122447809D01*
X160622286Y-122447809D02*
X160574667Y-122543047D01*
X161765143Y-121971619D02*
X161860381Y-121971619D01*
X161860381Y-121971619D02*
X161955619Y-122019238D01*
X161955619Y-122019238D02*
X162003238Y-122066857D01*
X162003238Y-122066857D02*
X162050857Y-122162095D01*
X162050857Y-122162095D02*
X162098476Y-122352571D01*
X162098476Y-122352571D02*
X162098476Y-122590666D01*
X162098476Y-122590666D02*
X162050857Y-122781142D01*
X162050857Y-122781142D02*
X162003238Y-122876380D01*
X162003238Y-122876380D02*
X161955619Y-122924000D01*
X161955619Y-122924000D02*
X161860381Y-122971619D01*
X161860381Y-122971619D02*
X161765143Y-122971619D01*
X161765143Y-122971619D02*
X161669905Y-122924000D01*
X161669905Y-122924000D02*
X161622286Y-122876380D01*
X161622286Y-122876380D02*
X161574667Y-122781142D01*
X161574667Y-122781142D02*
X161527048Y-122590666D01*
X161527048Y-122590666D02*
X161527048Y-122352571D01*
X161527048Y-122352571D02*
X161574667Y-122162095D01*
X161574667Y-122162095D02*
X161622286Y-122066857D01*
X161622286Y-122066857D02*
X161669905Y-122019238D01*
X161669905Y-122019238D02*
X161765143Y-121971619D01*
X162384191Y-121971619D02*
X162717524Y-122971619D01*
X162717524Y-122971619D02*
X163050857Y-121971619D01*
X164717524Y-122971619D02*
X164384191Y-122495428D01*
X164146096Y-122971619D02*
X164146096Y-121971619D01*
X164146096Y-121971619D02*
X164527048Y-121971619D01*
X164527048Y-121971619D02*
X164622286Y-122019238D01*
X164622286Y-122019238D02*
X164669905Y-122066857D01*
X164669905Y-122066857D02*
X164717524Y-122162095D01*
X164717524Y-122162095D02*
X164717524Y-122304952D01*
X164717524Y-122304952D02*
X164669905Y-122400190D01*
X164669905Y-122400190D02*
X164622286Y-122447809D01*
X164622286Y-122447809D02*
X164527048Y-122495428D01*
X164527048Y-122495428D02*
X164146096Y-122495428D01*
X165527048Y-122924000D02*
X165431810Y-122971619D01*
X165431810Y-122971619D02*
X165241334Y-122971619D01*
X165241334Y-122971619D02*
X165146096Y-122924000D01*
X165146096Y-122924000D02*
X165098477Y-122828761D01*
X165098477Y-122828761D02*
X165098477Y-122447809D01*
X165098477Y-122447809D02*
X165146096Y-122352571D01*
X165146096Y-122352571D02*
X165241334Y-122304952D01*
X165241334Y-122304952D02*
X165431810Y-122304952D01*
X165431810Y-122304952D02*
X165527048Y-122352571D01*
X165527048Y-122352571D02*
X165574667Y-122447809D01*
X165574667Y-122447809D02*
X165574667Y-122543047D01*
X165574667Y-122543047D02*
X165098477Y-122638285D01*
X165908001Y-122304952D02*
X166146096Y-122971619D01*
X166146096Y-122971619D02*
X166384191Y-122304952D01*
X167288953Y-122971619D02*
X166717525Y-122971619D01*
X167003239Y-122971619D02*
X167003239Y-121971619D01*
X167003239Y-121971619D02*
X166908001Y-122114476D01*
X166908001Y-122114476D02*
X166812763Y-122209714D01*
X166812763Y-122209714D02*
X166717525Y-122257333D01*
X153669904Y-124591619D02*
X153098476Y-124591619D01*
X153384190Y-124591619D02*
X153384190Y-123591619D01*
X153384190Y-123591619D02*
X153288952Y-123734476D01*
X153288952Y-123734476D02*
X153193714Y-123829714D01*
X153193714Y-123829714D02*
X153098476Y-123877333D01*
X154288952Y-123591619D02*
X154384190Y-123591619D01*
X154384190Y-123591619D02*
X154479428Y-123639238D01*
X154479428Y-123639238D02*
X154527047Y-123686857D01*
X154527047Y-123686857D02*
X154574666Y-123782095D01*
X154574666Y-123782095D02*
X154622285Y-123972571D01*
X154622285Y-123972571D02*
X154622285Y-124210666D01*
X154622285Y-124210666D02*
X154574666Y-124401142D01*
X154574666Y-124401142D02*
X154527047Y-124496380D01*
X154527047Y-124496380D02*
X154479428Y-124544000D01*
X154479428Y-124544000D02*
X154384190Y-124591619D01*
X154384190Y-124591619D02*
X154288952Y-124591619D01*
X154288952Y-124591619D02*
X154193714Y-124544000D01*
X154193714Y-124544000D02*
X154146095Y-124496380D01*
X154146095Y-124496380D02*
X154098476Y-124401142D01*
X154098476Y-124401142D02*
X154050857Y-124210666D01*
X154050857Y-124210666D02*
X154050857Y-123972571D01*
X154050857Y-123972571D02*
X154098476Y-123782095D01*
X154098476Y-123782095D02*
X154146095Y-123686857D01*
X154146095Y-123686857D02*
X154193714Y-123639238D01*
X154193714Y-123639238D02*
X154288952Y-123591619D01*
X155241333Y-123591619D02*
X155336571Y-123591619D01*
X155336571Y-123591619D02*
X155431809Y-123639238D01*
X155431809Y-123639238D02*
X155479428Y-123686857D01*
X155479428Y-123686857D02*
X155527047Y-123782095D01*
X155527047Y-123782095D02*
X155574666Y-123972571D01*
X155574666Y-123972571D02*
X155574666Y-124210666D01*
X155574666Y-124210666D02*
X155527047Y-124401142D01*
X155527047Y-124401142D02*
X155479428Y-124496380D01*
X155479428Y-124496380D02*
X155431809Y-124544000D01*
X155431809Y-124544000D02*
X155336571Y-124591619D01*
X155336571Y-124591619D02*
X155241333Y-124591619D01*
X155241333Y-124591619D02*
X155146095Y-124544000D01*
X155146095Y-124544000D02*
X155098476Y-124496380D01*
X155098476Y-124496380D02*
X155050857Y-124401142D01*
X155050857Y-124401142D02*
X155003238Y-124210666D01*
X155003238Y-124210666D02*
X155003238Y-123972571D01*
X155003238Y-123972571D02*
X155050857Y-123782095D01*
X155050857Y-123782095D02*
X155098476Y-123686857D01*
X155098476Y-123686857D02*
X155146095Y-123639238D01*
X155146095Y-123639238D02*
X155241333Y-123591619D01*
X155908000Y-123591619D02*
X156146095Y-124591619D01*
X156146095Y-124591619D02*
X156336571Y-123877333D01*
X156336571Y-123877333D02*
X156527047Y-124591619D01*
X156527047Y-124591619D02*
X156765143Y-123591619D01*
X158241333Y-124067809D02*
X158384190Y-124115428D01*
X158384190Y-124115428D02*
X158431809Y-124163047D01*
X158431809Y-124163047D02*
X158479428Y-124258285D01*
X158479428Y-124258285D02*
X158479428Y-124401142D01*
X158479428Y-124401142D02*
X158431809Y-124496380D01*
X158431809Y-124496380D02*
X158384190Y-124544000D01*
X158384190Y-124544000D02*
X158288952Y-124591619D01*
X158288952Y-124591619D02*
X157908000Y-124591619D01*
X157908000Y-124591619D02*
X157908000Y-123591619D01*
X157908000Y-123591619D02*
X158241333Y-123591619D01*
X158241333Y-123591619D02*
X158336571Y-123639238D01*
X158336571Y-123639238D02*
X158384190Y-123686857D01*
X158384190Y-123686857D02*
X158431809Y-123782095D01*
X158431809Y-123782095D02*
X158431809Y-123877333D01*
X158431809Y-123877333D02*
X158384190Y-123972571D01*
X158384190Y-123972571D02*
X158336571Y-124020190D01*
X158336571Y-124020190D02*
X158241333Y-124067809D01*
X158241333Y-124067809D02*
X157908000Y-124067809D01*
X158908000Y-124591619D02*
X158908000Y-123924952D01*
X158908000Y-123591619D02*
X158860381Y-123639238D01*
X158860381Y-123639238D02*
X158908000Y-123686857D01*
X158908000Y-123686857D02*
X158955619Y-123639238D01*
X158955619Y-123639238D02*
X158908000Y-123591619D01*
X158908000Y-123591619D02*
X158908000Y-123686857D01*
X159384190Y-124210666D02*
X160146095Y-124210666D01*
X160622285Y-124591619D02*
X160622285Y-123591619D01*
X160622285Y-123591619D02*
X160860380Y-123591619D01*
X160860380Y-123591619D02*
X161003237Y-123639238D01*
X161003237Y-123639238D02*
X161098475Y-123734476D01*
X161098475Y-123734476D02*
X161146094Y-123829714D01*
X161146094Y-123829714D02*
X161193713Y-124020190D01*
X161193713Y-124020190D02*
X161193713Y-124163047D01*
X161193713Y-124163047D02*
X161146094Y-124353523D01*
X161146094Y-124353523D02*
X161098475Y-124448761D01*
X161098475Y-124448761D02*
X161003237Y-124544000D01*
X161003237Y-124544000D02*
X160860380Y-124591619D01*
X160860380Y-124591619D02*
X160622285Y-124591619D01*
X161622285Y-124591619D02*
X161622285Y-123924952D01*
X161622285Y-123591619D02*
X161574666Y-123639238D01*
X161574666Y-123639238D02*
X161622285Y-123686857D01*
X161622285Y-123686857D02*
X161669904Y-123639238D01*
X161669904Y-123639238D02*
X161622285Y-123591619D01*
X161622285Y-123591619D02*
X161622285Y-123686857D01*
X162098475Y-124591619D02*
X162098475Y-123924952D01*
X162098475Y-124115428D02*
X162146094Y-124020190D01*
X162146094Y-124020190D02*
X162193713Y-123972571D01*
X162193713Y-123972571D02*
X162288951Y-123924952D01*
X162288951Y-123924952D02*
X162384189Y-123924952D01*
X163098475Y-124544000D02*
X163003237Y-124591619D01*
X163003237Y-124591619D02*
X162812761Y-124591619D01*
X162812761Y-124591619D02*
X162717523Y-124544000D01*
X162717523Y-124544000D02*
X162669904Y-124448761D01*
X162669904Y-124448761D02*
X162669904Y-124067809D01*
X162669904Y-124067809D02*
X162717523Y-123972571D01*
X162717523Y-123972571D02*
X162812761Y-123924952D01*
X162812761Y-123924952D02*
X163003237Y-123924952D01*
X163003237Y-123924952D02*
X163098475Y-123972571D01*
X163098475Y-123972571D02*
X163146094Y-124067809D01*
X163146094Y-124067809D02*
X163146094Y-124163047D01*
X163146094Y-124163047D02*
X162669904Y-124258285D01*
X164003237Y-124544000D02*
X163907999Y-124591619D01*
X163907999Y-124591619D02*
X163717523Y-124591619D01*
X163717523Y-124591619D02*
X163622285Y-124544000D01*
X163622285Y-124544000D02*
X163574666Y-124496380D01*
X163574666Y-124496380D02*
X163527047Y-124401142D01*
X163527047Y-124401142D02*
X163527047Y-124115428D01*
X163527047Y-124115428D02*
X163574666Y-124020190D01*
X163574666Y-124020190D02*
X163622285Y-123972571D01*
X163622285Y-123972571D02*
X163717523Y-123924952D01*
X163717523Y-123924952D02*
X163907999Y-123924952D01*
X163907999Y-123924952D02*
X164003237Y-123972571D01*
X164288952Y-123924952D02*
X164669904Y-123924952D01*
X164431809Y-123591619D02*
X164431809Y-124448761D01*
X164431809Y-124448761D02*
X164479428Y-124544000D01*
X164479428Y-124544000D02*
X164574666Y-124591619D01*
X164574666Y-124591619D02*
X164669904Y-124591619D01*
X165003238Y-124591619D02*
X165003238Y-123924952D01*
X165003238Y-123591619D02*
X164955619Y-123639238D01*
X164955619Y-123639238D02*
X165003238Y-123686857D01*
X165003238Y-123686857D02*
X165050857Y-123639238D01*
X165050857Y-123639238D02*
X165003238Y-123591619D01*
X165003238Y-123591619D02*
X165003238Y-123686857D01*
X165622285Y-124591619D02*
X165527047Y-124544000D01*
X165527047Y-124544000D02*
X165479428Y-124496380D01*
X165479428Y-124496380D02*
X165431809Y-124401142D01*
X165431809Y-124401142D02*
X165431809Y-124115428D01*
X165431809Y-124115428D02*
X165479428Y-124020190D01*
X165479428Y-124020190D02*
X165527047Y-123972571D01*
X165527047Y-123972571D02*
X165622285Y-123924952D01*
X165622285Y-123924952D02*
X165765142Y-123924952D01*
X165765142Y-123924952D02*
X165860380Y-123972571D01*
X165860380Y-123972571D02*
X165907999Y-124020190D01*
X165907999Y-124020190D02*
X165955618Y-124115428D01*
X165955618Y-124115428D02*
X165955618Y-124401142D01*
X165955618Y-124401142D02*
X165907999Y-124496380D01*
X165907999Y-124496380D02*
X165860380Y-124544000D01*
X165860380Y-124544000D02*
X165765142Y-124591619D01*
X165765142Y-124591619D02*
X165622285Y-124591619D01*
X166384190Y-123924952D02*
X166384190Y-124591619D01*
X166384190Y-124020190D02*
X166431809Y-123972571D01*
X166431809Y-123972571D02*
X166527047Y-123924952D01*
X166527047Y-123924952D02*
X166669904Y-123924952D01*
X166669904Y-123924952D02*
X166765142Y-123972571D01*
X166765142Y-123972571D02*
X166812761Y-124067809D01*
X166812761Y-124067809D02*
X166812761Y-124591619D01*
X167717523Y-124591619D02*
X167717523Y-124067809D01*
X167717523Y-124067809D02*
X167669904Y-123972571D01*
X167669904Y-123972571D02*
X167574666Y-123924952D01*
X167574666Y-123924952D02*
X167384190Y-123924952D01*
X167384190Y-123924952D02*
X167288952Y-123972571D01*
X167717523Y-124544000D02*
X167622285Y-124591619D01*
X167622285Y-124591619D02*
X167384190Y-124591619D01*
X167384190Y-124591619D02*
X167288952Y-124544000D01*
X167288952Y-124544000D02*
X167241333Y-124448761D01*
X167241333Y-124448761D02*
X167241333Y-124353523D01*
X167241333Y-124353523D02*
X167288952Y-124258285D01*
X167288952Y-124258285D02*
X167384190Y-124210666D01*
X167384190Y-124210666D02*
X167622285Y-124210666D01*
X167622285Y-124210666D02*
X167717523Y-124163047D01*
X168336571Y-124591619D02*
X168241333Y-124544000D01*
X168241333Y-124544000D02*
X168193714Y-124448761D01*
X168193714Y-124448761D02*
X168193714Y-123591619D01*
D11*
X144494190Y-85607333D02*
X146018000Y-85607333D01*
X145256095Y-86369238D02*
X145256095Y-84845428D01*
X148494190Y-85607333D02*
X150018000Y-85607333D01*
D12*
%TO.C,Z4*%
X142639507Y-97174934D02*
X143486174Y-97174934D01*
X143486174Y-97174934D02*
X142639507Y-98444934D01*
X142639507Y-98444934D02*
X143486174Y-98444934D01*
X144514269Y-97598267D02*
X144514269Y-98444934D01*
X144211888Y-97114458D02*
X143909507Y-98021600D01*
X143909507Y-98021600D02*
X144695698Y-98021600D01*
%TO.C,Z3*%
X149531526Y-89420095D02*
X149531526Y-88573428D01*
X149531526Y-88573428D02*
X150801526Y-89420095D01*
X150801526Y-89420095D02*
X150801526Y-88573428D01*
X149531526Y-88210571D02*
X149531526Y-87424380D01*
X149531526Y-87424380D02*
X150015335Y-87847714D01*
X150015335Y-87847714D02*
X150015335Y-87666285D01*
X150015335Y-87666285D02*
X150075811Y-87545333D01*
X150075811Y-87545333D02*
X150136288Y-87484857D01*
X150136288Y-87484857D02*
X150257240Y-87424380D01*
X150257240Y-87424380D02*
X150559621Y-87424380D01*
X150559621Y-87424380D02*
X150680573Y-87484857D01*
X150680573Y-87484857D02*
X150741050Y-87545333D01*
X150741050Y-87545333D02*
X150801526Y-87666285D01*
X150801526Y-87666285D02*
X150801526Y-88029142D01*
X150801526Y-88029142D02*
X150741050Y-88150095D01*
X150741050Y-88150095D02*
X150680573Y-88210571D01*
%TO.C,Z2*%
X148756891Y-112576378D02*
X149603558Y-112576378D01*
X149603558Y-112576378D02*
X148756891Y-113846378D01*
X148756891Y-113846378D02*
X149603558Y-113846378D01*
X150026891Y-112697330D02*
X150087367Y-112636854D01*
X150087367Y-112636854D02*
X150208320Y-112576378D01*
X150208320Y-112576378D02*
X150510701Y-112576378D01*
X150510701Y-112576378D02*
X150631653Y-112636854D01*
X150631653Y-112636854D02*
X150692129Y-112697330D01*
X150692129Y-112697330D02*
X150752606Y-112818282D01*
X150752606Y-112818282D02*
X150752606Y-112939235D01*
X150752606Y-112939235D02*
X150692129Y-113120663D01*
X150692129Y-113120663D02*
X149966415Y-113846378D01*
X149966415Y-113846378D02*
X150752606Y-113846378D01*
%TO.C,Z1*%
X141640679Y-121369984D02*
X141640679Y-120523317D01*
X141640679Y-120523317D02*
X142910679Y-121369984D01*
X142910679Y-121369984D02*
X142910679Y-120523317D01*
X142910679Y-119374269D02*
X142910679Y-120099984D01*
X142910679Y-119737127D02*
X141640679Y-119737127D01*
X141640679Y-119737127D02*
X141822107Y-119858079D01*
X141822107Y-119858079D02*
X141943060Y-119979031D01*
X141943060Y-119979031D02*
X142003536Y-120099984D01*
%TO.C,S1*%
X165119050Y-96725619D02*
X165179526Y-96544190D01*
X165179526Y-96544190D02*
X165179526Y-96241809D01*
X165179526Y-96241809D02*
X165119050Y-96120857D01*
X165119050Y-96120857D02*
X165058573Y-96060381D01*
X165058573Y-96060381D02*
X164937621Y-95999904D01*
X164937621Y-95999904D02*
X164816669Y-95999904D01*
X164816669Y-95999904D02*
X164695716Y-96060381D01*
X164695716Y-96060381D02*
X164635240Y-96120857D01*
X164635240Y-96120857D02*
X164574764Y-96241809D01*
X164574764Y-96241809D02*
X164514288Y-96483714D01*
X164514288Y-96483714D02*
X164453811Y-96604666D01*
X164453811Y-96604666D02*
X164393335Y-96665143D01*
X164393335Y-96665143D02*
X164272383Y-96725619D01*
X164272383Y-96725619D02*
X164151430Y-96725619D01*
X164151430Y-96725619D02*
X164030478Y-96665143D01*
X164030478Y-96665143D02*
X163970002Y-96604666D01*
X163970002Y-96604666D02*
X163909526Y-96483714D01*
X163909526Y-96483714D02*
X163909526Y-96181333D01*
X163909526Y-96181333D02*
X163970002Y-95999904D01*
X165179526Y-94790380D02*
X165179526Y-95516095D01*
X165179526Y-95153238D02*
X163909526Y-95153238D01*
X163909526Y-95153238D02*
X164090954Y-95274190D01*
X164090954Y-95274190D02*
X164211907Y-95395142D01*
X164211907Y-95395142D02*
X164272383Y-95516095D01*
%TO.C,LED3*%
X163778861Y-101949968D02*
X163174099Y-101949968D01*
X163174099Y-101949968D02*
X163174099Y-100679968D01*
X164202194Y-101284730D02*
X164625528Y-101284730D01*
X164806956Y-101949968D02*
X164202194Y-101949968D01*
X164202194Y-101949968D02*
X164202194Y-100679968D01*
X164202194Y-100679968D02*
X164806956Y-100679968D01*
X165351242Y-101949968D02*
X165351242Y-100679968D01*
X165351242Y-100679968D02*
X165653623Y-100679968D01*
X165653623Y-100679968D02*
X165835052Y-100740444D01*
X165835052Y-100740444D02*
X165956004Y-100861396D01*
X165956004Y-100861396D02*
X166016481Y-100982349D01*
X166016481Y-100982349D02*
X166076957Y-101224253D01*
X166076957Y-101224253D02*
X166076957Y-101405682D01*
X166076957Y-101405682D02*
X166016481Y-101647587D01*
X166016481Y-101647587D02*
X165956004Y-101768539D01*
X165956004Y-101768539D02*
X165835052Y-101889492D01*
X165835052Y-101889492D02*
X165653623Y-101949968D01*
X165653623Y-101949968D02*
X165351242Y-101949968D01*
X166500290Y-100679968D02*
X167286481Y-100679968D01*
X167286481Y-100679968D02*
X166863147Y-101163777D01*
X166863147Y-101163777D02*
X167044576Y-101163777D01*
X167044576Y-101163777D02*
X167165528Y-101224253D01*
X167165528Y-101224253D02*
X167226004Y-101284730D01*
X167226004Y-101284730D02*
X167286481Y-101405682D01*
X167286481Y-101405682D02*
X167286481Y-101708063D01*
X167286481Y-101708063D02*
X167226004Y-101829015D01*
X167226004Y-101829015D02*
X167165528Y-101889492D01*
X167165528Y-101889492D02*
X167044576Y-101949968D01*
X167044576Y-101949968D02*
X166681719Y-101949968D01*
X166681719Y-101949968D02*
X166560766Y-101889492D01*
X166560766Y-101889492D02*
X166500290Y-101829015D01*
%TO.C,LED2*%
X163932809Y-81613526D02*
X163328047Y-81613526D01*
X163328047Y-81613526D02*
X163328047Y-80343526D01*
X164356142Y-80948288D02*
X164779476Y-80948288D01*
X164960904Y-81613526D02*
X164356142Y-81613526D01*
X164356142Y-81613526D02*
X164356142Y-80343526D01*
X164356142Y-80343526D02*
X164960904Y-80343526D01*
X165505190Y-81613526D02*
X165505190Y-80343526D01*
X165505190Y-80343526D02*
X165807571Y-80343526D01*
X165807571Y-80343526D02*
X165989000Y-80404002D01*
X165989000Y-80404002D02*
X166109952Y-80524954D01*
X166109952Y-80524954D02*
X166170429Y-80645907D01*
X166170429Y-80645907D02*
X166230905Y-80887811D01*
X166230905Y-80887811D02*
X166230905Y-81069240D01*
X166230905Y-81069240D02*
X166170429Y-81311145D01*
X166170429Y-81311145D02*
X166109952Y-81432097D01*
X166109952Y-81432097D02*
X165989000Y-81553050D01*
X165989000Y-81553050D02*
X165807571Y-81613526D01*
X165807571Y-81613526D02*
X165505190Y-81613526D01*
X166714714Y-80464478D02*
X166775190Y-80404002D01*
X166775190Y-80404002D02*
X166896143Y-80343526D01*
X166896143Y-80343526D02*
X167198524Y-80343526D01*
X167198524Y-80343526D02*
X167319476Y-80404002D01*
X167319476Y-80404002D02*
X167379952Y-80464478D01*
X167379952Y-80464478D02*
X167440429Y-80585430D01*
X167440429Y-80585430D02*
X167440429Y-80706383D01*
X167440429Y-80706383D02*
X167379952Y-80887811D01*
X167379952Y-80887811D02*
X166654238Y-81613526D01*
X166654238Y-81613526D02*
X167440429Y-81613526D01*
%TO.C,LED1*%
X116525620Y-111175430D02*
X116525620Y-111780192D01*
X116525620Y-111780192D02*
X115255620Y-111780192D01*
X115860382Y-110752097D02*
X115860382Y-110328763D01*
X116525620Y-110147335D02*
X116525620Y-110752097D01*
X116525620Y-110752097D02*
X115255620Y-110752097D01*
X115255620Y-110752097D02*
X115255620Y-110147335D01*
X116525620Y-109603049D02*
X115255620Y-109603049D01*
X115255620Y-109603049D02*
X115255620Y-109300668D01*
X115255620Y-109300668D02*
X115316096Y-109119239D01*
X115316096Y-109119239D02*
X115437048Y-108998287D01*
X115437048Y-108998287D02*
X115558001Y-108937810D01*
X115558001Y-108937810D02*
X115799905Y-108877334D01*
X115799905Y-108877334D02*
X115981334Y-108877334D01*
X115981334Y-108877334D02*
X116223239Y-108937810D01*
X116223239Y-108937810D02*
X116344191Y-108998287D01*
X116344191Y-108998287D02*
X116465144Y-109119239D01*
X116465144Y-109119239D02*
X116525620Y-109300668D01*
X116525620Y-109300668D02*
X116525620Y-109603049D01*
X116525620Y-107667810D02*
X116525620Y-108393525D01*
X116525620Y-108030668D02*
X115255620Y-108030668D01*
X115255620Y-108030668D02*
X115437048Y-108151620D01*
X115437048Y-108151620D02*
X115558001Y-108272572D01*
X115558001Y-108272572D02*
X115618477Y-108393525D01*
%TO.C,L1*%
X142419526Y-105113666D02*
X142419526Y-105718428D01*
X142419526Y-105718428D02*
X141149526Y-105718428D01*
X142419526Y-104025094D02*
X142419526Y-104750809D01*
X142419526Y-104387952D02*
X141149526Y-104387952D01*
X141149526Y-104387952D02*
X141330954Y-104508904D01*
X141330954Y-104508904D02*
X141451907Y-104629856D01*
X141451907Y-104629856D02*
X141512383Y-104750809D01*
%TO.C,J2*%
X147150667Y-79835526D02*
X147150667Y-80742669D01*
X147150667Y-80742669D02*
X147090190Y-80924097D01*
X147090190Y-80924097D02*
X146969238Y-81045050D01*
X146969238Y-81045050D02*
X146787809Y-81105526D01*
X146787809Y-81105526D02*
X146666857Y-81105526D01*
X147694952Y-79956478D02*
X147755428Y-79896002D01*
X147755428Y-79896002D02*
X147876381Y-79835526D01*
X147876381Y-79835526D02*
X148178762Y-79835526D01*
X148178762Y-79835526D02*
X148299714Y-79896002D01*
X148299714Y-79896002D02*
X148360190Y-79956478D01*
X148360190Y-79956478D02*
X148420667Y-80077430D01*
X148420667Y-80077430D02*
X148420667Y-80198383D01*
X148420667Y-80198383D02*
X148360190Y-80379811D01*
X148360190Y-80379811D02*
X147634476Y-81105526D01*
X147634476Y-81105526D02*
X148420667Y-81105526D01*
%TO.C,J1*%
X133942667Y-118697526D02*
X133942667Y-119604669D01*
X133942667Y-119604669D02*
X133882190Y-119786097D01*
X133882190Y-119786097D02*
X133761238Y-119907050D01*
X133761238Y-119907050D02*
X133579809Y-119967526D01*
X133579809Y-119967526D02*
X133458857Y-119967526D01*
X135212667Y-119967526D02*
X134486952Y-119967526D01*
X134849809Y-119967526D02*
X134849809Y-118697526D01*
X134849809Y-118697526D02*
X134728857Y-118878954D01*
X134728857Y-118878954D02*
X134607905Y-118999907D01*
X134607905Y-118999907D02*
X134486952Y-119060383D01*
%TO.C,IC4*%
X167824864Y-117991376D02*
X166554864Y-117991376D01*
X167703911Y-116660899D02*
X167764388Y-116721375D01*
X167764388Y-116721375D02*
X167824864Y-116902804D01*
X167824864Y-116902804D02*
X167824864Y-117023756D01*
X167824864Y-117023756D02*
X167764388Y-117205185D01*
X167764388Y-117205185D02*
X167643435Y-117326137D01*
X167643435Y-117326137D02*
X167522483Y-117386614D01*
X167522483Y-117386614D02*
X167280578Y-117447090D01*
X167280578Y-117447090D02*
X167099149Y-117447090D01*
X167099149Y-117447090D02*
X166857245Y-117386614D01*
X166857245Y-117386614D02*
X166736292Y-117326137D01*
X166736292Y-117326137D02*
X166615340Y-117205185D01*
X166615340Y-117205185D02*
X166554864Y-117023756D01*
X166554864Y-117023756D02*
X166554864Y-116902804D01*
X166554864Y-116902804D02*
X166615340Y-116721375D01*
X166615340Y-116721375D02*
X166675816Y-116660899D01*
X166978197Y-115572328D02*
X167824864Y-115572328D01*
X166494388Y-115874709D02*
X167401530Y-116177090D01*
X167401530Y-116177090D02*
X167401530Y-115390899D01*
%TO.C,IC3*%
X143894237Y-92789526D02*
X143894237Y-91519526D01*
X145224714Y-92668573D02*
X145164238Y-92729050D01*
X145164238Y-92729050D02*
X144982809Y-92789526D01*
X144982809Y-92789526D02*
X144861857Y-92789526D01*
X144861857Y-92789526D02*
X144680428Y-92729050D01*
X144680428Y-92729050D02*
X144559476Y-92608097D01*
X144559476Y-92608097D02*
X144498999Y-92487145D01*
X144498999Y-92487145D02*
X144438523Y-92245240D01*
X144438523Y-92245240D02*
X144438523Y-92063811D01*
X144438523Y-92063811D02*
X144498999Y-91821907D01*
X144498999Y-91821907D02*
X144559476Y-91700954D01*
X144559476Y-91700954D02*
X144680428Y-91580002D01*
X144680428Y-91580002D02*
X144861857Y-91519526D01*
X144861857Y-91519526D02*
X144982809Y-91519526D01*
X144982809Y-91519526D02*
X145164238Y-91580002D01*
X145164238Y-91580002D02*
X145224714Y-91640478D01*
X145648047Y-91519526D02*
X146434238Y-91519526D01*
X146434238Y-91519526D02*
X146010904Y-92003335D01*
X146010904Y-92003335D02*
X146192333Y-92003335D01*
X146192333Y-92003335D02*
X146313285Y-92063811D01*
X146313285Y-92063811D02*
X146373761Y-92124288D01*
X146373761Y-92124288D02*
X146434238Y-92245240D01*
X146434238Y-92245240D02*
X146434238Y-92547621D01*
X146434238Y-92547621D02*
X146373761Y-92668573D01*
X146373761Y-92668573D02*
X146313285Y-92729050D01*
X146313285Y-92729050D02*
X146192333Y-92789526D01*
X146192333Y-92789526D02*
X145829476Y-92789526D01*
X145829476Y-92789526D02*
X145708523Y-92729050D01*
X145708523Y-92729050D02*
X145648047Y-92668573D01*
%TO.C,IC2*%
X147704237Y-119459526D02*
X147704237Y-118189526D01*
X149034714Y-119338573D02*
X148974238Y-119399050D01*
X148974238Y-119399050D02*
X148792809Y-119459526D01*
X148792809Y-119459526D02*
X148671857Y-119459526D01*
X148671857Y-119459526D02*
X148490428Y-119399050D01*
X148490428Y-119399050D02*
X148369476Y-119278097D01*
X148369476Y-119278097D02*
X148308999Y-119157145D01*
X148308999Y-119157145D02*
X148248523Y-118915240D01*
X148248523Y-118915240D02*
X148248523Y-118733811D01*
X148248523Y-118733811D02*
X148308999Y-118491907D01*
X148308999Y-118491907D02*
X148369476Y-118370954D01*
X148369476Y-118370954D02*
X148490428Y-118250002D01*
X148490428Y-118250002D02*
X148671857Y-118189526D01*
X148671857Y-118189526D02*
X148792809Y-118189526D01*
X148792809Y-118189526D02*
X148974238Y-118250002D01*
X148974238Y-118250002D02*
X149034714Y-118310478D01*
X149518523Y-118310478D02*
X149578999Y-118250002D01*
X149578999Y-118250002D02*
X149699952Y-118189526D01*
X149699952Y-118189526D02*
X150002333Y-118189526D01*
X150002333Y-118189526D02*
X150123285Y-118250002D01*
X150123285Y-118250002D02*
X150183761Y-118310478D01*
X150183761Y-118310478D02*
X150244238Y-118431430D01*
X150244238Y-118431430D02*
X150244238Y-118552383D01*
X150244238Y-118552383D02*
X150183761Y-118733811D01*
X150183761Y-118733811D02*
X149458047Y-119459526D01*
X149458047Y-119459526D02*
X150244238Y-119459526D01*
%TO.C,IC1*%
X142140726Y-82046971D02*
X140870726Y-82046971D01*
X142019773Y-80716494D02*
X142080250Y-80776970D01*
X142080250Y-80776970D02*
X142140726Y-80958399D01*
X142140726Y-80958399D02*
X142140726Y-81079351D01*
X142140726Y-81079351D02*
X142080250Y-81260780D01*
X142080250Y-81260780D02*
X141959297Y-81381732D01*
X141959297Y-81381732D02*
X141838345Y-81442209D01*
X141838345Y-81442209D02*
X141596440Y-81502685D01*
X141596440Y-81502685D02*
X141415011Y-81502685D01*
X141415011Y-81502685D02*
X141173107Y-81442209D01*
X141173107Y-81442209D02*
X141052154Y-81381732D01*
X141052154Y-81381732D02*
X140931202Y-81260780D01*
X140931202Y-81260780D02*
X140870726Y-81079351D01*
X140870726Y-81079351D02*
X140870726Y-80958399D01*
X140870726Y-80958399D02*
X140931202Y-80776970D01*
X140931202Y-80776970D02*
X140991678Y-80716494D01*
X142140726Y-79506970D02*
X142140726Y-80232685D01*
X142140726Y-79869828D02*
X140870726Y-79869828D01*
X140870726Y-79869828D02*
X141052154Y-79990780D01*
X141052154Y-79990780D02*
X141173107Y-80111732D01*
X141173107Y-80111732D02*
X141233583Y-80232685D01*
%TO.C,D2*%
X120829526Y-101013381D02*
X119559526Y-101013381D01*
X119559526Y-101013381D02*
X119559526Y-100711000D01*
X119559526Y-100711000D02*
X119620002Y-100529571D01*
X119620002Y-100529571D02*
X119740954Y-100408619D01*
X119740954Y-100408619D02*
X119861907Y-100348142D01*
X119861907Y-100348142D02*
X120103811Y-100287666D01*
X120103811Y-100287666D02*
X120285240Y-100287666D01*
X120285240Y-100287666D02*
X120527145Y-100348142D01*
X120527145Y-100348142D02*
X120648097Y-100408619D01*
X120648097Y-100408619D02*
X120769050Y-100529571D01*
X120769050Y-100529571D02*
X120829526Y-100711000D01*
X120829526Y-100711000D02*
X120829526Y-101013381D01*
X119680478Y-99803857D02*
X119620002Y-99743381D01*
X119620002Y-99743381D02*
X119559526Y-99622428D01*
X119559526Y-99622428D02*
X119559526Y-99320047D01*
X119559526Y-99320047D02*
X119620002Y-99199095D01*
X119620002Y-99199095D02*
X119680478Y-99138619D01*
X119680478Y-99138619D02*
X119801430Y-99078142D01*
X119801430Y-99078142D02*
X119922383Y-99078142D01*
X119922383Y-99078142D02*
X120103811Y-99138619D01*
X120103811Y-99138619D02*
X120829526Y-99864333D01*
X120829526Y-99864333D02*
X120829526Y-99078142D01*
%TO.C,D1*%
X123622618Y-105489526D02*
X123622618Y-104219526D01*
X123622618Y-104219526D02*
X123924999Y-104219526D01*
X123924999Y-104219526D02*
X124106428Y-104280002D01*
X124106428Y-104280002D02*
X124227380Y-104400954D01*
X124227380Y-104400954D02*
X124287857Y-104521907D01*
X124287857Y-104521907D02*
X124348333Y-104763811D01*
X124348333Y-104763811D02*
X124348333Y-104945240D01*
X124348333Y-104945240D02*
X124287857Y-105187145D01*
X124287857Y-105187145D02*
X124227380Y-105308097D01*
X124227380Y-105308097D02*
X124106428Y-105429050D01*
X124106428Y-105429050D02*
X123924999Y-105489526D01*
X123924999Y-105489526D02*
X123622618Y-105489526D01*
X125557857Y-105489526D02*
X124832142Y-105489526D01*
X125194999Y-105489526D02*
X125194999Y-104219526D01*
X125194999Y-104219526D02*
X125074047Y-104400954D01*
X125074047Y-104400954D02*
X124953095Y-104521907D01*
X124953095Y-104521907D02*
X124832142Y-104582383D01*
%TO.C,C8*%
X124344333Y-87334573D02*
X124283857Y-87395050D01*
X124283857Y-87395050D02*
X124102428Y-87455526D01*
X124102428Y-87455526D02*
X123981476Y-87455526D01*
X123981476Y-87455526D02*
X123800047Y-87395050D01*
X123800047Y-87395050D02*
X123679095Y-87274097D01*
X123679095Y-87274097D02*
X123618618Y-87153145D01*
X123618618Y-87153145D02*
X123558142Y-86911240D01*
X123558142Y-86911240D02*
X123558142Y-86729811D01*
X123558142Y-86729811D02*
X123618618Y-86487907D01*
X123618618Y-86487907D02*
X123679095Y-86366954D01*
X123679095Y-86366954D02*
X123800047Y-86246002D01*
X123800047Y-86246002D02*
X123981476Y-86185526D01*
X123981476Y-86185526D02*
X124102428Y-86185526D01*
X124102428Y-86185526D02*
X124283857Y-86246002D01*
X124283857Y-86246002D02*
X124344333Y-86306478D01*
X125070047Y-86729811D02*
X124949095Y-86669335D01*
X124949095Y-86669335D02*
X124888618Y-86608859D01*
X124888618Y-86608859D02*
X124828142Y-86487907D01*
X124828142Y-86487907D02*
X124828142Y-86427430D01*
X124828142Y-86427430D02*
X124888618Y-86306478D01*
X124888618Y-86306478D02*
X124949095Y-86246002D01*
X124949095Y-86246002D02*
X125070047Y-86185526D01*
X125070047Y-86185526D02*
X125311952Y-86185526D01*
X125311952Y-86185526D02*
X125432904Y-86246002D01*
X125432904Y-86246002D02*
X125493380Y-86306478D01*
X125493380Y-86306478D02*
X125553857Y-86427430D01*
X125553857Y-86427430D02*
X125553857Y-86487907D01*
X125553857Y-86487907D02*
X125493380Y-86608859D01*
X125493380Y-86608859D02*
X125432904Y-86669335D01*
X125432904Y-86669335D02*
X125311952Y-86729811D01*
X125311952Y-86729811D02*
X125070047Y-86729811D01*
X125070047Y-86729811D02*
X124949095Y-86790288D01*
X124949095Y-86790288D02*
X124888618Y-86850764D01*
X124888618Y-86850764D02*
X124828142Y-86971716D01*
X124828142Y-86971716D02*
X124828142Y-87213621D01*
X124828142Y-87213621D02*
X124888618Y-87334573D01*
X124888618Y-87334573D02*
X124949095Y-87395050D01*
X124949095Y-87395050D02*
X125070047Y-87455526D01*
X125070047Y-87455526D02*
X125311952Y-87455526D01*
X125311952Y-87455526D02*
X125432904Y-87395050D01*
X125432904Y-87395050D02*
X125493380Y-87334573D01*
X125493380Y-87334573D02*
X125553857Y-87213621D01*
X125553857Y-87213621D02*
X125553857Y-86971716D01*
X125553857Y-86971716D02*
X125493380Y-86850764D01*
X125493380Y-86850764D02*
X125432904Y-86790288D01*
X125432904Y-86790288D02*
X125311952Y-86729811D01*
%TO.C,C7*%
X124602333Y-99526573D02*
X124541857Y-99587050D01*
X124541857Y-99587050D02*
X124360428Y-99647526D01*
X124360428Y-99647526D02*
X124239476Y-99647526D01*
X124239476Y-99647526D02*
X124058047Y-99587050D01*
X124058047Y-99587050D02*
X123937095Y-99466097D01*
X123937095Y-99466097D02*
X123876618Y-99345145D01*
X123876618Y-99345145D02*
X123816142Y-99103240D01*
X123816142Y-99103240D02*
X123816142Y-98921811D01*
X123816142Y-98921811D02*
X123876618Y-98679907D01*
X123876618Y-98679907D02*
X123937095Y-98558954D01*
X123937095Y-98558954D02*
X124058047Y-98438002D01*
X124058047Y-98438002D02*
X124239476Y-98377526D01*
X124239476Y-98377526D02*
X124360428Y-98377526D01*
X124360428Y-98377526D02*
X124541857Y-98438002D01*
X124541857Y-98438002D02*
X124602333Y-98498478D01*
X125025666Y-98377526D02*
X125872333Y-98377526D01*
X125872333Y-98377526D02*
X125328047Y-99647526D01*
%TO.C,C6*%
X124602333Y-102574573D02*
X124541857Y-102635050D01*
X124541857Y-102635050D02*
X124360428Y-102695526D01*
X124360428Y-102695526D02*
X124239476Y-102695526D01*
X124239476Y-102695526D02*
X124058047Y-102635050D01*
X124058047Y-102635050D02*
X123937095Y-102514097D01*
X123937095Y-102514097D02*
X123876618Y-102393145D01*
X123876618Y-102393145D02*
X123816142Y-102151240D01*
X123816142Y-102151240D02*
X123816142Y-101969811D01*
X123816142Y-101969811D02*
X123876618Y-101727907D01*
X123876618Y-101727907D02*
X123937095Y-101606954D01*
X123937095Y-101606954D02*
X124058047Y-101486002D01*
X124058047Y-101486002D02*
X124239476Y-101425526D01*
X124239476Y-101425526D02*
X124360428Y-101425526D01*
X124360428Y-101425526D02*
X124541857Y-101486002D01*
X124541857Y-101486002D02*
X124602333Y-101546478D01*
X125690904Y-101425526D02*
X125448999Y-101425526D01*
X125448999Y-101425526D02*
X125328047Y-101486002D01*
X125328047Y-101486002D02*
X125267571Y-101546478D01*
X125267571Y-101546478D02*
X125146618Y-101727907D01*
X125146618Y-101727907D02*
X125086142Y-101969811D01*
X125086142Y-101969811D02*
X125086142Y-102453621D01*
X125086142Y-102453621D02*
X125146618Y-102574573D01*
X125146618Y-102574573D02*
X125207095Y-102635050D01*
X125207095Y-102635050D02*
X125328047Y-102695526D01*
X125328047Y-102695526D02*
X125569952Y-102695526D01*
X125569952Y-102695526D02*
X125690904Y-102635050D01*
X125690904Y-102635050D02*
X125751380Y-102574573D01*
X125751380Y-102574573D02*
X125811857Y-102453621D01*
X125811857Y-102453621D02*
X125811857Y-102151240D01*
X125811857Y-102151240D02*
X125751380Y-102030288D01*
X125751380Y-102030288D02*
X125690904Y-101969811D01*
X125690904Y-101969811D02*
X125569952Y-101909335D01*
X125569952Y-101909335D02*
X125328047Y-101909335D01*
X125328047Y-101909335D02*
X125207095Y-101969811D01*
X125207095Y-101969811D02*
X125146618Y-102030288D01*
X125146618Y-102030288D02*
X125086142Y-102151240D01*
%TO.C,C5*%
X124348333Y-108162573D02*
X124287857Y-108223050D01*
X124287857Y-108223050D02*
X124106428Y-108283526D01*
X124106428Y-108283526D02*
X123985476Y-108283526D01*
X123985476Y-108283526D02*
X123804047Y-108223050D01*
X123804047Y-108223050D02*
X123683095Y-108102097D01*
X123683095Y-108102097D02*
X123622618Y-107981145D01*
X123622618Y-107981145D02*
X123562142Y-107739240D01*
X123562142Y-107739240D02*
X123562142Y-107557811D01*
X123562142Y-107557811D02*
X123622618Y-107315907D01*
X123622618Y-107315907D02*
X123683095Y-107194954D01*
X123683095Y-107194954D02*
X123804047Y-107074002D01*
X123804047Y-107074002D02*
X123985476Y-107013526D01*
X123985476Y-107013526D02*
X124106428Y-107013526D01*
X124106428Y-107013526D02*
X124287857Y-107074002D01*
X124287857Y-107074002D02*
X124348333Y-107134478D01*
X125497380Y-107013526D02*
X124892618Y-107013526D01*
X124892618Y-107013526D02*
X124832142Y-107618288D01*
X124832142Y-107618288D02*
X124892618Y-107557811D01*
X124892618Y-107557811D02*
X125013571Y-107497335D01*
X125013571Y-107497335D02*
X125315952Y-107497335D01*
X125315952Y-107497335D02*
X125436904Y-107557811D01*
X125436904Y-107557811D02*
X125497380Y-107618288D01*
X125497380Y-107618288D02*
X125557857Y-107739240D01*
X125557857Y-107739240D02*
X125557857Y-108041621D01*
X125557857Y-108041621D02*
X125497380Y-108162573D01*
X125497380Y-108162573D02*
X125436904Y-108223050D01*
X125436904Y-108223050D02*
X125315952Y-108283526D01*
X125315952Y-108283526D02*
X125013571Y-108283526D01*
X125013571Y-108283526D02*
X124892618Y-108223050D01*
X124892618Y-108223050D02*
X124832142Y-108162573D01*
%TO.C,C3*%
X124348333Y-111210573D02*
X124287857Y-111271050D01*
X124287857Y-111271050D02*
X124106428Y-111331526D01*
X124106428Y-111331526D02*
X123985476Y-111331526D01*
X123985476Y-111331526D02*
X123804047Y-111271050D01*
X123804047Y-111271050D02*
X123683095Y-111150097D01*
X123683095Y-111150097D02*
X123622618Y-111029145D01*
X123622618Y-111029145D02*
X123562142Y-110787240D01*
X123562142Y-110787240D02*
X123562142Y-110605811D01*
X123562142Y-110605811D02*
X123622618Y-110363907D01*
X123622618Y-110363907D02*
X123683095Y-110242954D01*
X123683095Y-110242954D02*
X123804047Y-110122002D01*
X123804047Y-110122002D02*
X123985476Y-110061526D01*
X123985476Y-110061526D02*
X124106428Y-110061526D01*
X124106428Y-110061526D02*
X124287857Y-110122002D01*
X124287857Y-110122002D02*
X124348333Y-110182478D01*
X124771666Y-110061526D02*
X125557857Y-110061526D01*
X125557857Y-110061526D02*
X125134523Y-110545335D01*
X125134523Y-110545335D02*
X125315952Y-110545335D01*
X125315952Y-110545335D02*
X125436904Y-110605811D01*
X125436904Y-110605811D02*
X125497380Y-110666288D01*
X125497380Y-110666288D02*
X125557857Y-110787240D01*
X125557857Y-110787240D02*
X125557857Y-111089621D01*
X125557857Y-111089621D02*
X125497380Y-111210573D01*
X125497380Y-111210573D02*
X125436904Y-111271050D01*
X125436904Y-111271050D02*
X125315952Y-111331526D01*
X125315952Y-111331526D02*
X124953095Y-111331526D01*
X124953095Y-111331526D02*
X124832142Y-111271050D01*
X124832142Y-111271050D02*
X124771666Y-111210573D01*
%TO.C,C2*%
X120692333Y-118830573D02*
X120631857Y-118891050D01*
X120631857Y-118891050D02*
X120450428Y-118951526D01*
X120450428Y-118951526D02*
X120329476Y-118951526D01*
X120329476Y-118951526D02*
X120148047Y-118891050D01*
X120148047Y-118891050D02*
X120027095Y-118770097D01*
X120027095Y-118770097D02*
X119966618Y-118649145D01*
X119966618Y-118649145D02*
X119906142Y-118407240D01*
X119906142Y-118407240D02*
X119906142Y-118225811D01*
X119906142Y-118225811D02*
X119966618Y-117983907D01*
X119966618Y-117983907D02*
X120027095Y-117862954D01*
X120027095Y-117862954D02*
X120148047Y-117742002D01*
X120148047Y-117742002D02*
X120329476Y-117681526D01*
X120329476Y-117681526D02*
X120450428Y-117681526D01*
X120450428Y-117681526D02*
X120631857Y-117742002D01*
X120631857Y-117742002D02*
X120692333Y-117802478D01*
X121176142Y-117802478D02*
X121236618Y-117742002D01*
X121236618Y-117742002D02*
X121357571Y-117681526D01*
X121357571Y-117681526D02*
X121659952Y-117681526D01*
X121659952Y-117681526D02*
X121780904Y-117742002D01*
X121780904Y-117742002D02*
X121841380Y-117802478D01*
X121841380Y-117802478D02*
X121901857Y-117923430D01*
X121901857Y-117923430D02*
X121901857Y-118044383D01*
X121901857Y-118044383D02*
X121841380Y-118225811D01*
X121841380Y-118225811D02*
X121115666Y-118951526D01*
X121115666Y-118951526D02*
X121901857Y-118951526D01*
%TO.C,Q3*%
X132975047Y-98752478D02*
X132854095Y-98692002D01*
X132854095Y-98692002D02*
X132733142Y-98571050D01*
X132733142Y-98571050D02*
X132551714Y-98389621D01*
X132551714Y-98389621D02*
X132430761Y-98329145D01*
X132430761Y-98329145D02*
X132309809Y-98329145D01*
X132370285Y-98631526D02*
X132249333Y-98571050D01*
X132249333Y-98571050D02*
X132128380Y-98450097D01*
X132128380Y-98450097D02*
X132067904Y-98208192D01*
X132067904Y-98208192D02*
X132067904Y-97784859D01*
X132067904Y-97784859D02*
X132128380Y-97542954D01*
X132128380Y-97542954D02*
X132249333Y-97422002D01*
X132249333Y-97422002D02*
X132370285Y-97361526D01*
X132370285Y-97361526D02*
X132612190Y-97361526D01*
X132612190Y-97361526D02*
X132733142Y-97422002D01*
X132733142Y-97422002D02*
X132854095Y-97542954D01*
X132854095Y-97542954D02*
X132914571Y-97784859D01*
X132914571Y-97784859D02*
X132914571Y-98208192D01*
X132914571Y-98208192D02*
X132854095Y-98450097D01*
X132854095Y-98450097D02*
X132733142Y-98571050D01*
X132733142Y-98571050D02*
X132612190Y-98631526D01*
X132612190Y-98631526D02*
X132370285Y-98631526D01*
X133337904Y-97361526D02*
X134124095Y-97361526D01*
X134124095Y-97361526D02*
X133700761Y-97845335D01*
X133700761Y-97845335D02*
X133882190Y-97845335D01*
X133882190Y-97845335D02*
X134003142Y-97905811D01*
X134003142Y-97905811D02*
X134063618Y-97966288D01*
X134063618Y-97966288D02*
X134124095Y-98087240D01*
X134124095Y-98087240D02*
X134124095Y-98389621D01*
X134124095Y-98389621D02*
X134063618Y-98510573D01*
X134063618Y-98510573D02*
X134003142Y-98571050D01*
X134003142Y-98571050D02*
X133882190Y-98631526D01*
X133882190Y-98631526D02*
X133519333Y-98631526D01*
X133519333Y-98631526D02*
X133398380Y-98571050D01*
X133398380Y-98571050D02*
X133337904Y-98510573D01*
D10*
%TO.C,R1*%
X141819333Y-118572619D02*
X141486000Y-118096428D01*
X141247905Y-118572619D02*
X141247905Y-117572619D01*
X141247905Y-117572619D02*
X141628857Y-117572619D01*
X141628857Y-117572619D02*
X141724095Y-117620238D01*
X141724095Y-117620238D02*
X141771714Y-117667857D01*
X141771714Y-117667857D02*
X141819333Y-117763095D01*
X141819333Y-117763095D02*
X141819333Y-117905952D01*
X141819333Y-117905952D02*
X141771714Y-118001190D01*
X141771714Y-118001190D02*
X141724095Y-118048809D01*
X141724095Y-118048809D02*
X141628857Y-118096428D01*
X141628857Y-118096428D02*
X141247905Y-118096428D01*
X142771714Y-118572619D02*
X142200286Y-118572619D01*
X142486000Y-118572619D02*
X142486000Y-117572619D01*
X142486000Y-117572619D02*
X142390762Y-117715476D01*
X142390762Y-117715476D02*
X142295524Y-117810714D01*
X142295524Y-117810714D02*
X142200286Y-117858333D01*
%TO.C,R13*%
X167251142Y-83012619D02*
X166917809Y-82536428D01*
X166679714Y-83012619D02*
X166679714Y-82012619D01*
X166679714Y-82012619D02*
X167060666Y-82012619D01*
X167060666Y-82012619D02*
X167155904Y-82060238D01*
X167155904Y-82060238D02*
X167203523Y-82107857D01*
X167203523Y-82107857D02*
X167251142Y-82203095D01*
X167251142Y-82203095D02*
X167251142Y-82345952D01*
X167251142Y-82345952D02*
X167203523Y-82441190D01*
X167203523Y-82441190D02*
X167155904Y-82488809D01*
X167155904Y-82488809D02*
X167060666Y-82536428D01*
X167060666Y-82536428D02*
X166679714Y-82536428D01*
X168203523Y-83012619D02*
X167632095Y-83012619D01*
X167917809Y-83012619D02*
X167917809Y-82012619D01*
X167917809Y-82012619D02*
X167822571Y-82155476D01*
X167822571Y-82155476D02*
X167727333Y-82250714D01*
X167727333Y-82250714D02*
X167632095Y-82298333D01*
X168536857Y-82012619D02*
X169155904Y-82012619D01*
X169155904Y-82012619D02*
X168822571Y-82393571D01*
X168822571Y-82393571D02*
X168965428Y-82393571D01*
X168965428Y-82393571D02*
X169060666Y-82441190D01*
X169060666Y-82441190D02*
X169108285Y-82488809D01*
X169108285Y-82488809D02*
X169155904Y-82584047D01*
X169155904Y-82584047D02*
X169155904Y-82822142D01*
X169155904Y-82822142D02*
X169108285Y-82917380D01*
X169108285Y-82917380D02*
X169060666Y-82965000D01*
X169060666Y-82965000D02*
X168965428Y-83012619D01*
X168965428Y-83012619D02*
X168679714Y-83012619D01*
X168679714Y-83012619D02*
X168584476Y-82965000D01*
X168584476Y-82965000D02*
X168536857Y-82917380D01*
%TO.C,C13*%
X139311142Y-90537380D02*
X139263523Y-90585000D01*
X139263523Y-90585000D02*
X139120666Y-90632619D01*
X139120666Y-90632619D02*
X139025428Y-90632619D01*
X139025428Y-90632619D02*
X138882571Y-90585000D01*
X138882571Y-90585000D02*
X138787333Y-90489761D01*
X138787333Y-90489761D02*
X138739714Y-90394523D01*
X138739714Y-90394523D02*
X138692095Y-90204047D01*
X138692095Y-90204047D02*
X138692095Y-90061190D01*
X138692095Y-90061190D02*
X138739714Y-89870714D01*
X138739714Y-89870714D02*
X138787333Y-89775476D01*
X138787333Y-89775476D02*
X138882571Y-89680238D01*
X138882571Y-89680238D02*
X139025428Y-89632619D01*
X139025428Y-89632619D02*
X139120666Y-89632619D01*
X139120666Y-89632619D02*
X139263523Y-89680238D01*
X139263523Y-89680238D02*
X139311142Y-89727857D01*
X140263523Y-90632619D02*
X139692095Y-90632619D01*
X139977809Y-90632619D02*
X139977809Y-89632619D01*
X139977809Y-89632619D02*
X139882571Y-89775476D01*
X139882571Y-89775476D02*
X139787333Y-89870714D01*
X139787333Y-89870714D02*
X139692095Y-89918333D01*
X140596857Y-89632619D02*
X141215904Y-89632619D01*
X141215904Y-89632619D02*
X140882571Y-90013571D01*
X140882571Y-90013571D02*
X141025428Y-90013571D01*
X141025428Y-90013571D02*
X141120666Y-90061190D01*
X141120666Y-90061190D02*
X141168285Y-90108809D01*
X141168285Y-90108809D02*
X141215904Y-90204047D01*
X141215904Y-90204047D02*
X141215904Y-90442142D01*
X141215904Y-90442142D02*
X141168285Y-90537380D01*
X141168285Y-90537380D02*
X141120666Y-90585000D01*
X141120666Y-90585000D02*
X141025428Y-90632619D01*
X141025428Y-90632619D02*
X140739714Y-90632619D01*
X140739714Y-90632619D02*
X140644476Y-90585000D01*
X140644476Y-90585000D02*
X140596857Y-90537380D01*
%TO.C,R10*%
X167251142Y-77678619D02*
X166917809Y-77202428D01*
X166679714Y-77678619D02*
X166679714Y-76678619D01*
X166679714Y-76678619D02*
X167060666Y-76678619D01*
X167060666Y-76678619D02*
X167155904Y-76726238D01*
X167155904Y-76726238D02*
X167203523Y-76773857D01*
X167203523Y-76773857D02*
X167251142Y-76869095D01*
X167251142Y-76869095D02*
X167251142Y-77011952D01*
X167251142Y-77011952D02*
X167203523Y-77107190D01*
X167203523Y-77107190D02*
X167155904Y-77154809D01*
X167155904Y-77154809D02*
X167060666Y-77202428D01*
X167060666Y-77202428D02*
X166679714Y-77202428D01*
X168203523Y-77678619D02*
X167632095Y-77678619D01*
X167917809Y-77678619D02*
X167917809Y-76678619D01*
X167917809Y-76678619D02*
X167822571Y-76821476D01*
X167822571Y-76821476D02*
X167727333Y-76916714D01*
X167727333Y-76916714D02*
X167632095Y-76964333D01*
X168822571Y-76678619D02*
X168917809Y-76678619D01*
X168917809Y-76678619D02*
X169013047Y-76726238D01*
X169013047Y-76726238D02*
X169060666Y-76773857D01*
X169060666Y-76773857D02*
X169108285Y-76869095D01*
X169108285Y-76869095D02*
X169155904Y-77059571D01*
X169155904Y-77059571D02*
X169155904Y-77297666D01*
X169155904Y-77297666D02*
X169108285Y-77488142D01*
X169108285Y-77488142D02*
X169060666Y-77583380D01*
X169060666Y-77583380D02*
X169013047Y-77631000D01*
X169013047Y-77631000D02*
X168917809Y-77678619D01*
X168917809Y-77678619D02*
X168822571Y-77678619D01*
X168822571Y-77678619D02*
X168727333Y-77631000D01*
X168727333Y-77631000D02*
X168679714Y-77583380D01*
X168679714Y-77583380D02*
X168632095Y-77488142D01*
X168632095Y-77488142D02*
X168584476Y-77297666D01*
X168584476Y-77297666D02*
X168584476Y-77059571D01*
X168584476Y-77059571D02*
X168632095Y-76869095D01*
X168632095Y-76869095D02*
X168679714Y-76773857D01*
X168679714Y-76773857D02*
X168727333Y-76726238D01*
X168727333Y-76726238D02*
X168822571Y-76678619D01*
%TO.C,R11*%
X166997142Y-104094619D02*
X166663809Y-103618428D01*
X166425714Y-104094619D02*
X166425714Y-103094619D01*
X166425714Y-103094619D02*
X166806666Y-103094619D01*
X166806666Y-103094619D02*
X166901904Y-103142238D01*
X166901904Y-103142238D02*
X166949523Y-103189857D01*
X166949523Y-103189857D02*
X166997142Y-103285095D01*
X166997142Y-103285095D02*
X166997142Y-103427952D01*
X166997142Y-103427952D02*
X166949523Y-103523190D01*
X166949523Y-103523190D02*
X166901904Y-103570809D01*
X166901904Y-103570809D02*
X166806666Y-103618428D01*
X166806666Y-103618428D02*
X166425714Y-103618428D01*
X167949523Y-104094619D02*
X167378095Y-104094619D01*
X167663809Y-104094619D02*
X167663809Y-103094619D01*
X167663809Y-103094619D02*
X167568571Y-103237476D01*
X167568571Y-103237476D02*
X167473333Y-103332714D01*
X167473333Y-103332714D02*
X167378095Y-103380333D01*
X168901904Y-104094619D02*
X168330476Y-104094619D01*
X168616190Y-104094619D02*
X168616190Y-103094619D01*
X168616190Y-103094619D02*
X168520952Y-103237476D01*
X168520952Y-103237476D02*
X168425714Y-103332714D01*
X168425714Y-103332714D02*
X168330476Y-103380333D01*
%TO.C,R12*%
X152608619Y-89034857D02*
X152132428Y-89368190D01*
X152608619Y-89606285D02*
X151608619Y-89606285D01*
X151608619Y-89606285D02*
X151608619Y-89225333D01*
X151608619Y-89225333D02*
X151656238Y-89130095D01*
X151656238Y-89130095D02*
X151703857Y-89082476D01*
X151703857Y-89082476D02*
X151799095Y-89034857D01*
X151799095Y-89034857D02*
X151941952Y-89034857D01*
X151941952Y-89034857D02*
X152037190Y-89082476D01*
X152037190Y-89082476D02*
X152084809Y-89130095D01*
X152084809Y-89130095D02*
X152132428Y-89225333D01*
X152132428Y-89225333D02*
X152132428Y-89606285D01*
X152608619Y-88082476D02*
X152608619Y-88653904D01*
X152608619Y-88368190D02*
X151608619Y-88368190D01*
X151608619Y-88368190D02*
X151751476Y-88463428D01*
X151751476Y-88463428D02*
X151846714Y-88558666D01*
X151846714Y-88558666D02*
X151894333Y-88653904D01*
X151703857Y-87701523D02*
X151656238Y-87653904D01*
X151656238Y-87653904D02*
X151608619Y-87558666D01*
X151608619Y-87558666D02*
X151608619Y-87320571D01*
X151608619Y-87320571D02*
X151656238Y-87225333D01*
X151656238Y-87225333D02*
X151703857Y-87177714D01*
X151703857Y-87177714D02*
X151799095Y-87130095D01*
X151799095Y-87130095D02*
X151894333Y-87130095D01*
X151894333Y-87130095D02*
X152037190Y-87177714D01*
X152037190Y-87177714D02*
X152608619Y-87749142D01*
X152608619Y-87749142D02*
X152608619Y-87130095D01*
%TO.C,R5*%
X167219333Y-86822619D02*
X166886000Y-86346428D01*
X166647905Y-86822619D02*
X166647905Y-85822619D01*
X166647905Y-85822619D02*
X167028857Y-85822619D01*
X167028857Y-85822619D02*
X167124095Y-85870238D01*
X167124095Y-85870238D02*
X167171714Y-85917857D01*
X167171714Y-85917857D02*
X167219333Y-86013095D01*
X167219333Y-86013095D02*
X167219333Y-86155952D01*
X167219333Y-86155952D02*
X167171714Y-86251190D01*
X167171714Y-86251190D02*
X167124095Y-86298809D01*
X167124095Y-86298809D02*
X167028857Y-86346428D01*
X167028857Y-86346428D02*
X166647905Y-86346428D01*
X168124095Y-85822619D02*
X167647905Y-85822619D01*
X167647905Y-85822619D02*
X167600286Y-86298809D01*
X167600286Y-86298809D02*
X167647905Y-86251190D01*
X167647905Y-86251190D02*
X167743143Y-86203571D01*
X167743143Y-86203571D02*
X167981238Y-86203571D01*
X167981238Y-86203571D02*
X168076476Y-86251190D01*
X168076476Y-86251190D02*
X168124095Y-86298809D01*
X168124095Y-86298809D02*
X168171714Y-86394047D01*
X168171714Y-86394047D02*
X168171714Y-86632142D01*
X168171714Y-86632142D02*
X168124095Y-86727380D01*
X168124095Y-86727380D02*
X168076476Y-86775000D01*
X168076476Y-86775000D02*
X167981238Y-86822619D01*
X167981238Y-86822619D02*
X167743143Y-86822619D01*
X167743143Y-86822619D02*
X167647905Y-86775000D01*
X167647905Y-86775000D02*
X167600286Y-86727380D01*
%TO.C,U1*%
X108383095Y-45077619D02*
X108383095Y-45887142D01*
X108383095Y-45887142D02*
X108430714Y-45982380D01*
X108430714Y-45982380D02*
X108478333Y-46030000D01*
X108478333Y-46030000D02*
X108573571Y-46077619D01*
X108573571Y-46077619D02*
X108764047Y-46077619D01*
X108764047Y-46077619D02*
X108859285Y-46030000D01*
X108859285Y-46030000D02*
X108906904Y-45982380D01*
X108906904Y-45982380D02*
X108954523Y-45887142D01*
X108954523Y-45887142D02*
X108954523Y-45077619D01*
X109954523Y-46077619D02*
X109383095Y-46077619D01*
X109668809Y-46077619D02*
X109668809Y-45077619D01*
X109668809Y-45077619D02*
X109573571Y-45220476D01*
X109573571Y-45220476D02*
X109478333Y-45315714D01*
X109478333Y-45315714D02*
X109383095Y-45363333D01*
%TO.C,C11*%
X157593380Y-118599357D02*
X157641000Y-118646976D01*
X157641000Y-118646976D02*
X157688619Y-118789833D01*
X157688619Y-118789833D02*
X157688619Y-118885071D01*
X157688619Y-118885071D02*
X157641000Y-119027928D01*
X157641000Y-119027928D02*
X157545761Y-119123166D01*
X157545761Y-119123166D02*
X157450523Y-119170785D01*
X157450523Y-119170785D02*
X157260047Y-119218404D01*
X157260047Y-119218404D02*
X157117190Y-119218404D01*
X157117190Y-119218404D02*
X156926714Y-119170785D01*
X156926714Y-119170785D02*
X156831476Y-119123166D01*
X156831476Y-119123166D02*
X156736238Y-119027928D01*
X156736238Y-119027928D02*
X156688619Y-118885071D01*
X156688619Y-118885071D02*
X156688619Y-118789833D01*
X156688619Y-118789833D02*
X156736238Y-118646976D01*
X156736238Y-118646976D02*
X156783857Y-118599357D01*
X157688619Y-117646976D02*
X157688619Y-118218404D01*
X157688619Y-117932690D02*
X156688619Y-117932690D01*
X156688619Y-117932690D02*
X156831476Y-118027928D01*
X156831476Y-118027928D02*
X156926714Y-118123166D01*
X156926714Y-118123166D02*
X156974333Y-118218404D01*
X157688619Y-116694595D02*
X157688619Y-117266023D01*
X157688619Y-116980309D02*
X156688619Y-116980309D01*
X156688619Y-116980309D02*
X156831476Y-117075547D01*
X156831476Y-117075547D02*
X156926714Y-117170785D01*
X156926714Y-117170785D02*
X156974333Y-117266023D01*
%TO.C,R2*%
X142327333Y-114508619D02*
X141994000Y-114032428D01*
X141755905Y-114508619D02*
X141755905Y-113508619D01*
X141755905Y-113508619D02*
X142136857Y-113508619D01*
X142136857Y-113508619D02*
X142232095Y-113556238D01*
X142232095Y-113556238D02*
X142279714Y-113603857D01*
X142279714Y-113603857D02*
X142327333Y-113699095D01*
X142327333Y-113699095D02*
X142327333Y-113841952D01*
X142327333Y-113841952D02*
X142279714Y-113937190D01*
X142279714Y-113937190D02*
X142232095Y-113984809D01*
X142232095Y-113984809D02*
X142136857Y-114032428D01*
X142136857Y-114032428D02*
X141755905Y-114032428D01*
X142708286Y-113603857D02*
X142755905Y-113556238D01*
X142755905Y-113556238D02*
X142851143Y-113508619D01*
X142851143Y-113508619D02*
X143089238Y-113508619D01*
X143089238Y-113508619D02*
X143184476Y-113556238D01*
X143184476Y-113556238D02*
X143232095Y-113603857D01*
X143232095Y-113603857D02*
X143279714Y-113699095D01*
X143279714Y-113699095D02*
X143279714Y-113794333D01*
X143279714Y-113794333D02*
X143232095Y-113937190D01*
X143232095Y-113937190D02*
X142660667Y-114508619D01*
X142660667Y-114508619D02*
X143279714Y-114508619D01*
%TO.C,C12*%
X156323380Y-118752857D02*
X156371000Y-118800476D01*
X156371000Y-118800476D02*
X156418619Y-118943333D01*
X156418619Y-118943333D02*
X156418619Y-119038571D01*
X156418619Y-119038571D02*
X156371000Y-119181428D01*
X156371000Y-119181428D02*
X156275761Y-119276666D01*
X156275761Y-119276666D02*
X156180523Y-119324285D01*
X156180523Y-119324285D02*
X155990047Y-119371904D01*
X155990047Y-119371904D02*
X155847190Y-119371904D01*
X155847190Y-119371904D02*
X155656714Y-119324285D01*
X155656714Y-119324285D02*
X155561476Y-119276666D01*
X155561476Y-119276666D02*
X155466238Y-119181428D01*
X155466238Y-119181428D02*
X155418619Y-119038571D01*
X155418619Y-119038571D02*
X155418619Y-118943333D01*
X155418619Y-118943333D02*
X155466238Y-118800476D01*
X155466238Y-118800476D02*
X155513857Y-118752857D01*
X156418619Y-117800476D02*
X156418619Y-118371904D01*
X156418619Y-118086190D02*
X155418619Y-118086190D01*
X155418619Y-118086190D02*
X155561476Y-118181428D01*
X155561476Y-118181428D02*
X155656714Y-118276666D01*
X155656714Y-118276666D02*
X155704333Y-118371904D01*
X155513857Y-117419523D02*
X155466238Y-117371904D01*
X155466238Y-117371904D02*
X155418619Y-117276666D01*
X155418619Y-117276666D02*
X155418619Y-117038571D01*
X155418619Y-117038571D02*
X155466238Y-116943333D01*
X155466238Y-116943333D02*
X155513857Y-116895714D01*
X155513857Y-116895714D02*
X155609095Y-116848095D01*
X155609095Y-116848095D02*
X155704333Y-116848095D01*
X155704333Y-116848095D02*
X155847190Y-116895714D01*
X155847190Y-116895714D02*
X156418619Y-117467142D01*
X156418619Y-117467142D02*
X156418619Y-116848095D01*
%TO.C,C15*%
X137273380Y-93606857D02*
X137321000Y-93654476D01*
X137321000Y-93654476D02*
X137368619Y-93797333D01*
X137368619Y-93797333D02*
X137368619Y-93892571D01*
X137368619Y-93892571D02*
X137321000Y-94035428D01*
X137321000Y-94035428D02*
X137225761Y-94130666D01*
X137225761Y-94130666D02*
X137130523Y-94178285D01*
X137130523Y-94178285D02*
X136940047Y-94225904D01*
X136940047Y-94225904D02*
X136797190Y-94225904D01*
X136797190Y-94225904D02*
X136606714Y-94178285D01*
X136606714Y-94178285D02*
X136511476Y-94130666D01*
X136511476Y-94130666D02*
X136416238Y-94035428D01*
X136416238Y-94035428D02*
X136368619Y-93892571D01*
X136368619Y-93892571D02*
X136368619Y-93797333D01*
X136368619Y-93797333D02*
X136416238Y-93654476D01*
X136416238Y-93654476D02*
X136463857Y-93606857D01*
X137368619Y-92654476D02*
X137368619Y-93225904D01*
X137368619Y-92940190D02*
X136368619Y-92940190D01*
X136368619Y-92940190D02*
X136511476Y-93035428D01*
X136511476Y-93035428D02*
X136606714Y-93130666D01*
X136606714Y-93130666D02*
X136654333Y-93225904D01*
X136368619Y-91749714D02*
X136368619Y-92225904D01*
X136368619Y-92225904D02*
X136844809Y-92273523D01*
X136844809Y-92273523D02*
X136797190Y-92225904D01*
X136797190Y-92225904D02*
X136749571Y-92130666D01*
X136749571Y-92130666D02*
X136749571Y-91892571D01*
X136749571Y-91892571D02*
X136797190Y-91797333D01*
X136797190Y-91797333D02*
X136844809Y-91749714D01*
X136844809Y-91749714D02*
X136940047Y-91702095D01*
X136940047Y-91702095D02*
X137178142Y-91702095D01*
X137178142Y-91702095D02*
X137273380Y-91749714D01*
X137273380Y-91749714D02*
X137321000Y-91797333D01*
X137321000Y-91797333D02*
X137368619Y-91892571D01*
X137368619Y-91892571D02*
X137368619Y-92130666D01*
X137368619Y-92130666D02*
X137321000Y-92225904D01*
X137321000Y-92225904D02*
X137273380Y-92273523D01*
%TO.C,R3*%
X144867333Y-112730619D02*
X144534000Y-112254428D01*
X144295905Y-112730619D02*
X144295905Y-111730619D01*
X144295905Y-111730619D02*
X144676857Y-111730619D01*
X144676857Y-111730619D02*
X144772095Y-111778238D01*
X144772095Y-111778238D02*
X144819714Y-111825857D01*
X144819714Y-111825857D02*
X144867333Y-111921095D01*
X144867333Y-111921095D02*
X144867333Y-112063952D01*
X144867333Y-112063952D02*
X144819714Y-112159190D01*
X144819714Y-112159190D02*
X144772095Y-112206809D01*
X144772095Y-112206809D02*
X144676857Y-112254428D01*
X144676857Y-112254428D02*
X144295905Y-112254428D01*
X145200667Y-111730619D02*
X145819714Y-111730619D01*
X145819714Y-111730619D02*
X145486381Y-112111571D01*
X145486381Y-112111571D02*
X145629238Y-112111571D01*
X145629238Y-112111571D02*
X145724476Y-112159190D01*
X145724476Y-112159190D02*
X145772095Y-112206809D01*
X145772095Y-112206809D02*
X145819714Y-112302047D01*
X145819714Y-112302047D02*
X145819714Y-112540142D01*
X145819714Y-112540142D02*
X145772095Y-112635380D01*
X145772095Y-112635380D02*
X145724476Y-112683000D01*
X145724476Y-112683000D02*
X145629238Y-112730619D01*
X145629238Y-112730619D02*
X145343524Y-112730619D01*
X145343524Y-112730619D02*
X145248286Y-112683000D01*
X145248286Y-112683000D02*
X145200667Y-112635380D01*
D12*
%TO.C,Q4*%
X151517047Y-98752478D02*
X151396095Y-98692002D01*
X151396095Y-98692002D02*
X151275142Y-98571050D01*
X151275142Y-98571050D02*
X151093714Y-98389621D01*
X151093714Y-98389621D02*
X150972761Y-98329145D01*
X150972761Y-98329145D02*
X150851809Y-98329145D01*
X150912285Y-98631526D02*
X150791333Y-98571050D01*
X150791333Y-98571050D02*
X150670380Y-98450097D01*
X150670380Y-98450097D02*
X150609904Y-98208192D01*
X150609904Y-98208192D02*
X150609904Y-97784859D01*
X150609904Y-97784859D02*
X150670380Y-97542954D01*
X150670380Y-97542954D02*
X150791333Y-97422002D01*
X150791333Y-97422002D02*
X150912285Y-97361526D01*
X150912285Y-97361526D02*
X151154190Y-97361526D01*
X151154190Y-97361526D02*
X151275142Y-97422002D01*
X151275142Y-97422002D02*
X151396095Y-97542954D01*
X151396095Y-97542954D02*
X151456571Y-97784859D01*
X151456571Y-97784859D02*
X151456571Y-98208192D01*
X151456571Y-98208192D02*
X151396095Y-98450097D01*
X151396095Y-98450097D02*
X151275142Y-98571050D01*
X151275142Y-98571050D02*
X151154190Y-98631526D01*
X151154190Y-98631526D02*
X150912285Y-98631526D01*
X152545142Y-97784859D02*
X152545142Y-98631526D01*
X152242761Y-97301050D02*
X151940380Y-98208192D01*
X151940380Y-98208192D02*
X152726571Y-98208192D01*
D10*
%TO.C,R15*%
X147947142Y-97998619D02*
X147613809Y-97522428D01*
X147375714Y-97998619D02*
X147375714Y-96998619D01*
X147375714Y-96998619D02*
X147756666Y-96998619D01*
X147756666Y-96998619D02*
X147851904Y-97046238D01*
X147851904Y-97046238D02*
X147899523Y-97093857D01*
X147899523Y-97093857D02*
X147947142Y-97189095D01*
X147947142Y-97189095D02*
X147947142Y-97331952D01*
X147947142Y-97331952D02*
X147899523Y-97427190D01*
X147899523Y-97427190D02*
X147851904Y-97474809D01*
X147851904Y-97474809D02*
X147756666Y-97522428D01*
X147756666Y-97522428D02*
X147375714Y-97522428D01*
X148899523Y-97998619D02*
X148328095Y-97998619D01*
X148613809Y-97998619D02*
X148613809Y-96998619D01*
X148613809Y-96998619D02*
X148518571Y-97141476D01*
X148518571Y-97141476D02*
X148423333Y-97236714D01*
X148423333Y-97236714D02*
X148328095Y-97284333D01*
X149804285Y-96998619D02*
X149328095Y-96998619D01*
X149328095Y-96998619D02*
X149280476Y-97474809D01*
X149280476Y-97474809D02*
X149328095Y-97427190D01*
X149328095Y-97427190D02*
X149423333Y-97379571D01*
X149423333Y-97379571D02*
X149661428Y-97379571D01*
X149661428Y-97379571D02*
X149756666Y-97427190D01*
X149756666Y-97427190D02*
X149804285Y-97474809D01*
X149804285Y-97474809D02*
X149851904Y-97570047D01*
X149851904Y-97570047D02*
X149851904Y-97808142D01*
X149851904Y-97808142D02*
X149804285Y-97903380D01*
X149804285Y-97903380D02*
X149756666Y-97951000D01*
X149756666Y-97951000D02*
X149661428Y-97998619D01*
X149661428Y-97998619D02*
X149423333Y-97998619D01*
X149423333Y-97998619D02*
X149328095Y-97951000D01*
X149328095Y-97951000D02*
X149280476Y-97903380D01*
%TO.C,C14*%
X139311142Y-89267380D02*
X139263523Y-89315000D01*
X139263523Y-89315000D02*
X139120666Y-89362619D01*
X139120666Y-89362619D02*
X139025428Y-89362619D01*
X139025428Y-89362619D02*
X138882571Y-89315000D01*
X138882571Y-89315000D02*
X138787333Y-89219761D01*
X138787333Y-89219761D02*
X138739714Y-89124523D01*
X138739714Y-89124523D02*
X138692095Y-88934047D01*
X138692095Y-88934047D02*
X138692095Y-88791190D01*
X138692095Y-88791190D02*
X138739714Y-88600714D01*
X138739714Y-88600714D02*
X138787333Y-88505476D01*
X138787333Y-88505476D02*
X138882571Y-88410238D01*
X138882571Y-88410238D02*
X139025428Y-88362619D01*
X139025428Y-88362619D02*
X139120666Y-88362619D01*
X139120666Y-88362619D02*
X139263523Y-88410238D01*
X139263523Y-88410238D02*
X139311142Y-88457857D01*
X140263523Y-89362619D02*
X139692095Y-89362619D01*
X139977809Y-89362619D02*
X139977809Y-88362619D01*
X139977809Y-88362619D02*
X139882571Y-88505476D01*
X139882571Y-88505476D02*
X139787333Y-88600714D01*
X139787333Y-88600714D02*
X139692095Y-88648333D01*
X141120666Y-88695952D02*
X141120666Y-89362619D01*
X140882571Y-88315000D02*
X140644476Y-89029285D01*
X140644476Y-89029285D02*
X141263523Y-89029285D01*
%TO.C,R14*%
X167251142Y-84790619D02*
X166917809Y-84314428D01*
X166679714Y-84790619D02*
X166679714Y-83790619D01*
X166679714Y-83790619D02*
X167060666Y-83790619D01*
X167060666Y-83790619D02*
X167155904Y-83838238D01*
X167155904Y-83838238D02*
X167203523Y-83885857D01*
X167203523Y-83885857D02*
X167251142Y-83981095D01*
X167251142Y-83981095D02*
X167251142Y-84123952D01*
X167251142Y-84123952D02*
X167203523Y-84219190D01*
X167203523Y-84219190D02*
X167155904Y-84266809D01*
X167155904Y-84266809D02*
X167060666Y-84314428D01*
X167060666Y-84314428D02*
X166679714Y-84314428D01*
X168203523Y-84790619D02*
X167632095Y-84790619D01*
X167917809Y-84790619D02*
X167917809Y-83790619D01*
X167917809Y-83790619D02*
X167822571Y-83933476D01*
X167822571Y-83933476D02*
X167727333Y-84028714D01*
X167727333Y-84028714D02*
X167632095Y-84076333D01*
X169060666Y-84123952D02*
X169060666Y-84790619D01*
X168822571Y-83743000D02*
X168584476Y-84457285D01*
X168584476Y-84457285D02*
X169203523Y-84457285D01*
%TO.C,R8*%
X163091971Y-89105533D02*
X162615780Y-89438866D01*
X163091971Y-89676961D02*
X162091971Y-89676961D01*
X162091971Y-89676961D02*
X162091971Y-89296009D01*
X162091971Y-89296009D02*
X162139590Y-89200771D01*
X162139590Y-89200771D02*
X162187209Y-89153152D01*
X162187209Y-89153152D02*
X162282447Y-89105533D01*
X162282447Y-89105533D02*
X162425304Y-89105533D01*
X162425304Y-89105533D02*
X162520542Y-89153152D01*
X162520542Y-89153152D02*
X162568161Y-89200771D01*
X162568161Y-89200771D02*
X162615780Y-89296009D01*
X162615780Y-89296009D02*
X162615780Y-89676961D01*
X162520542Y-88534104D02*
X162472923Y-88629342D01*
X162472923Y-88629342D02*
X162425304Y-88676961D01*
X162425304Y-88676961D02*
X162330066Y-88724580D01*
X162330066Y-88724580D02*
X162282447Y-88724580D01*
X162282447Y-88724580D02*
X162187209Y-88676961D01*
X162187209Y-88676961D02*
X162139590Y-88629342D01*
X162139590Y-88629342D02*
X162091971Y-88534104D01*
X162091971Y-88534104D02*
X162091971Y-88343628D01*
X162091971Y-88343628D02*
X162139590Y-88248390D01*
X162139590Y-88248390D02*
X162187209Y-88200771D01*
X162187209Y-88200771D02*
X162282447Y-88153152D01*
X162282447Y-88153152D02*
X162330066Y-88153152D01*
X162330066Y-88153152D02*
X162425304Y-88200771D01*
X162425304Y-88200771D02*
X162472923Y-88248390D01*
X162472923Y-88248390D02*
X162520542Y-88343628D01*
X162520542Y-88343628D02*
X162520542Y-88534104D01*
X162520542Y-88534104D02*
X162568161Y-88629342D01*
X162568161Y-88629342D02*
X162615780Y-88676961D01*
X162615780Y-88676961D02*
X162711018Y-88724580D01*
X162711018Y-88724580D02*
X162901494Y-88724580D01*
X162901494Y-88724580D02*
X162996732Y-88676961D01*
X162996732Y-88676961D02*
X163044352Y-88629342D01*
X163044352Y-88629342D02*
X163091971Y-88534104D01*
X163091971Y-88534104D02*
X163091971Y-88343628D01*
X163091971Y-88343628D02*
X163044352Y-88248390D01*
X163044352Y-88248390D02*
X162996732Y-88200771D01*
X162996732Y-88200771D02*
X162901494Y-88153152D01*
X162901494Y-88153152D02*
X162711018Y-88153152D01*
X162711018Y-88153152D02*
X162615780Y-88200771D01*
X162615780Y-88200771D02*
X162568161Y-88248390D01*
X162568161Y-88248390D02*
X162520542Y-88343628D01*
%TO.C,C1*%
X167499380Y-110402666D02*
X167547000Y-110450285D01*
X167547000Y-110450285D02*
X167594619Y-110593142D01*
X167594619Y-110593142D02*
X167594619Y-110688380D01*
X167594619Y-110688380D02*
X167547000Y-110831237D01*
X167547000Y-110831237D02*
X167451761Y-110926475D01*
X167451761Y-110926475D02*
X167356523Y-110974094D01*
X167356523Y-110974094D02*
X167166047Y-111021713D01*
X167166047Y-111021713D02*
X167023190Y-111021713D01*
X167023190Y-111021713D02*
X166832714Y-110974094D01*
X166832714Y-110974094D02*
X166737476Y-110926475D01*
X166737476Y-110926475D02*
X166642238Y-110831237D01*
X166642238Y-110831237D02*
X166594619Y-110688380D01*
X166594619Y-110688380D02*
X166594619Y-110593142D01*
X166594619Y-110593142D02*
X166642238Y-110450285D01*
X166642238Y-110450285D02*
X166689857Y-110402666D01*
X167594619Y-109450285D02*
X167594619Y-110021713D01*
X167594619Y-109735999D02*
X166594619Y-109735999D01*
X166594619Y-109735999D02*
X166737476Y-109831237D01*
X166737476Y-109831237D02*
X166832714Y-109926475D01*
X166832714Y-109926475D02*
X166880333Y-110021713D01*
%TO.C,C4*%
X158609380Y-108116666D02*
X158657000Y-108164285D01*
X158657000Y-108164285D02*
X158704619Y-108307142D01*
X158704619Y-108307142D02*
X158704619Y-108402380D01*
X158704619Y-108402380D02*
X158657000Y-108545237D01*
X158657000Y-108545237D02*
X158561761Y-108640475D01*
X158561761Y-108640475D02*
X158466523Y-108688094D01*
X158466523Y-108688094D02*
X158276047Y-108735713D01*
X158276047Y-108735713D02*
X158133190Y-108735713D01*
X158133190Y-108735713D02*
X157942714Y-108688094D01*
X157942714Y-108688094D02*
X157847476Y-108640475D01*
X157847476Y-108640475D02*
X157752238Y-108545237D01*
X157752238Y-108545237D02*
X157704619Y-108402380D01*
X157704619Y-108402380D02*
X157704619Y-108307142D01*
X157704619Y-108307142D02*
X157752238Y-108164285D01*
X157752238Y-108164285D02*
X157799857Y-108116666D01*
X158037952Y-107259523D02*
X158704619Y-107259523D01*
X157657000Y-107497618D02*
X158371285Y-107735713D01*
X158371285Y-107735713D02*
X158371285Y-107116666D01*
%TO.C,C16*%
X138543380Y-93606857D02*
X138591000Y-93654476D01*
X138591000Y-93654476D02*
X138638619Y-93797333D01*
X138638619Y-93797333D02*
X138638619Y-93892571D01*
X138638619Y-93892571D02*
X138591000Y-94035428D01*
X138591000Y-94035428D02*
X138495761Y-94130666D01*
X138495761Y-94130666D02*
X138400523Y-94178285D01*
X138400523Y-94178285D02*
X138210047Y-94225904D01*
X138210047Y-94225904D02*
X138067190Y-94225904D01*
X138067190Y-94225904D02*
X137876714Y-94178285D01*
X137876714Y-94178285D02*
X137781476Y-94130666D01*
X137781476Y-94130666D02*
X137686238Y-94035428D01*
X137686238Y-94035428D02*
X137638619Y-93892571D01*
X137638619Y-93892571D02*
X137638619Y-93797333D01*
X137638619Y-93797333D02*
X137686238Y-93654476D01*
X137686238Y-93654476D02*
X137733857Y-93606857D01*
X138638619Y-92654476D02*
X138638619Y-93225904D01*
X138638619Y-92940190D02*
X137638619Y-92940190D01*
X137638619Y-92940190D02*
X137781476Y-93035428D01*
X137781476Y-93035428D02*
X137876714Y-93130666D01*
X137876714Y-93130666D02*
X137924333Y-93225904D01*
X137638619Y-91797333D02*
X137638619Y-91987809D01*
X137638619Y-91987809D02*
X137686238Y-92083047D01*
X137686238Y-92083047D02*
X137733857Y-92130666D01*
X137733857Y-92130666D02*
X137876714Y-92225904D01*
X137876714Y-92225904D02*
X138067190Y-92273523D01*
X138067190Y-92273523D02*
X138448142Y-92273523D01*
X138448142Y-92273523D02*
X138543380Y-92225904D01*
X138543380Y-92225904D02*
X138591000Y-92178285D01*
X138591000Y-92178285D02*
X138638619Y-92083047D01*
X138638619Y-92083047D02*
X138638619Y-91892571D01*
X138638619Y-91892571D02*
X138591000Y-91797333D01*
X138591000Y-91797333D02*
X138543380Y-91749714D01*
X138543380Y-91749714D02*
X138448142Y-91702095D01*
X138448142Y-91702095D02*
X138210047Y-91702095D01*
X138210047Y-91702095D02*
X138114809Y-91749714D01*
X138114809Y-91749714D02*
X138067190Y-91797333D01*
X138067190Y-91797333D02*
X138019571Y-91892571D01*
X138019571Y-91892571D02*
X138019571Y-92083047D01*
X138019571Y-92083047D02*
X138067190Y-92178285D01*
X138067190Y-92178285D02*
X138114809Y-92225904D01*
X138114809Y-92225904D02*
X138210047Y-92273523D01*
D12*
%TO.C,Q2*%
X150501047Y-105864478D02*
X150380095Y-105804002D01*
X150380095Y-105804002D02*
X150259142Y-105683050D01*
X150259142Y-105683050D02*
X150077714Y-105501621D01*
X150077714Y-105501621D02*
X149956761Y-105441145D01*
X149956761Y-105441145D02*
X149835809Y-105441145D01*
X149896285Y-105743526D02*
X149775333Y-105683050D01*
X149775333Y-105683050D02*
X149654380Y-105562097D01*
X149654380Y-105562097D02*
X149593904Y-105320192D01*
X149593904Y-105320192D02*
X149593904Y-104896859D01*
X149593904Y-104896859D02*
X149654380Y-104654954D01*
X149654380Y-104654954D02*
X149775333Y-104534002D01*
X149775333Y-104534002D02*
X149896285Y-104473526D01*
X149896285Y-104473526D02*
X150138190Y-104473526D01*
X150138190Y-104473526D02*
X150259142Y-104534002D01*
X150259142Y-104534002D02*
X150380095Y-104654954D01*
X150380095Y-104654954D02*
X150440571Y-104896859D01*
X150440571Y-104896859D02*
X150440571Y-105320192D01*
X150440571Y-105320192D02*
X150380095Y-105562097D01*
X150380095Y-105562097D02*
X150259142Y-105683050D01*
X150259142Y-105683050D02*
X150138190Y-105743526D01*
X150138190Y-105743526D02*
X149896285Y-105743526D01*
X150924380Y-104594478D02*
X150984856Y-104534002D01*
X150984856Y-104534002D02*
X151105809Y-104473526D01*
X151105809Y-104473526D02*
X151408190Y-104473526D01*
X151408190Y-104473526D02*
X151529142Y-104534002D01*
X151529142Y-104534002D02*
X151589618Y-104594478D01*
X151589618Y-104594478D02*
X151650095Y-104715430D01*
X151650095Y-104715430D02*
X151650095Y-104836383D01*
X151650095Y-104836383D02*
X151589618Y-105017811D01*
X151589618Y-105017811D02*
X150863904Y-105743526D01*
X150863904Y-105743526D02*
X151650095Y-105743526D01*
D10*
%TO.C,JP1*%
X167632619Y-89733333D02*
X168346904Y-89733333D01*
X168346904Y-89733333D02*
X168489761Y-89780952D01*
X168489761Y-89780952D02*
X168585000Y-89876190D01*
X168585000Y-89876190D02*
X168632619Y-90019047D01*
X168632619Y-90019047D02*
X168632619Y-90114285D01*
X168632619Y-89257142D02*
X167632619Y-89257142D01*
X167632619Y-89257142D02*
X167632619Y-88876190D01*
X167632619Y-88876190D02*
X167680238Y-88780952D01*
X167680238Y-88780952D02*
X167727857Y-88733333D01*
X167727857Y-88733333D02*
X167823095Y-88685714D01*
X167823095Y-88685714D02*
X167965952Y-88685714D01*
X167965952Y-88685714D02*
X168061190Y-88733333D01*
X168061190Y-88733333D02*
X168108809Y-88780952D01*
X168108809Y-88780952D02*
X168156428Y-88876190D01*
X168156428Y-88876190D02*
X168156428Y-89257142D01*
X168632619Y-87733333D02*
X168632619Y-88304761D01*
X168632619Y-88019047D02*
X167632619Y-88019047D01*
X167632619Y-88019047D02*
X167775476Y-88114285D01*
X167775476Y-88114285D02*
X167870714Y-88209523D01*
X167870714Y-88209523D02*
X167918333Y-88304761D01*
%TO.C,C9*%
X148677333Y-122541380D02*
X148629714Y-122589000D01*
X148629714Y-122589000D02*
X148486857Y-122636619D01*
X148486857Y-122636619D02*
X148391619Y-122636619D01*
X148391619Y-122636619D02*
X148248762Y-122589000D01*
X148248762Y-122589000D02*
X148153524Y-122493761D01*
X148153524Y-122493761D02*
X148105905Y-122398523D01*
X148105905Y-122398523D02*
X148058286Y-122208047D01*
X148058286Y-122208047D02*
X148058286Y-122065190D01*
X148058286Y-122065190D02*
X148105905Y-121874714D01*
X148105905Y-121874714D02*
X148153524Y-121779476D01*
X148153524Y-121779476D02*
X148248762Y-121684238D01*
X148248762Y-121684238D02*
X148391619Y-121636619D01*
X148391619Y-121636619D02*
X148486857Y-121636619D01*
X148486857Y-121636619D02*
X148629714Y-121684238D01*
X148629714Y-121684238D02*
X148677333Y-121731857D01*
X149153524Y-122636619D02*
X149344000Y-122636619D01*
X149344000Y-122636619D02*
X149439238Y-122589000D01*
X149439238Y-122589000D02*
X149486857Y-122541380D01*
X149486857Y-122541380D02*
X149582095Y-122398523D01*
X149582095Y-122398523D02*
X149629714Y-122208047D01*
X149629714Y-122208047D02*
X149629714Y-121827095D01*
X149629714Y-121827095D02*
X149582095Y-121731857D01*
X149582095Y-121731857D02*
X149534476Y-121684238D01*
X149534476Y-121684238D02*
X149439238Y-121636619D01*
X149439238Y-121636619D02*
X149248762Y-121636619D01*
X149248762Y-121636619D02*
X149153524Y-121684238D01*
X149153524Y-121684238D02*
X149105905Y-121731857D01*
X149105905Y-121731857D02*
X149058286Y-121827095D01*
X149058286Y-121827095D02*
X149058286Y-122065190D01*
X149058286Y-122065190D02*
X149105905Y-122160428D01*
X149105905Y-122160428D02*
X149153524Y-122208047D01*
X149153524Y-122208047D02*
X149248762Y-122255666D01*
X149248762Y-122255666D02*
X149439238Y-122255666D01*
X149439238Y-122255666D02*
X149534476Y-122208047D01*
X149534476Y-122208047D02*
X149582095Y-122160428D01*
X149582095Y-122160428D02*
X149629714Y-122065190D01*
%TO.C,C10*%
X147439142Y-123811380D02*
X147391523Y-123859000D01*
X147391523Y-123859000D02*
X147248666Y-123906619D01*
X147248666Y-123906619D02*
X147153428Y-123906619D01*
X147153428Y-123906619D02*
X147010571Y-123859000D01*
X147010571Y-123859000D02*
X146915333Y-123763761D01*
X146915333Y-123763761D02*
X146867714Y-123668523D01*
X146867714Y-123668523D02*
X146820095Y-123478047D01*
X146820095Y-123478047D02*
X146820095Y-123335190D01*
X146820095Y-123335190D02*
X146867714Y-123144714D01*
X146867714Y-123144714D02*
X146915333Y-123049476D01*
X146915333Y-123049476D02*
X147010571Y-122954238D01*
X147010571Y-122954238D02*
X147153428Y-122906619D01*
X147153428Y-122906619D02*
X147248666Y-122906619D01*
X147248666Y-122906619D02*
X147391523Y-122954238D01*
X147391523Y-122954238D02*
X147439142Y-123001857D01*
X148391523Y-123906619D02*
X147820095Y-123906619D01*
X148105809Y-123906619D02*
X148105809Y-122906619D01*
X148105809Y-122906619D02*
X148010571Y-123049476D01*
X148010571Y-123049476D02*
X147915333Y-123144714D01*
X147915333Y-123144714D02*
X147820095Y-123192333D01*
X149010571Y-122906619D02*
X149105809Y-122906619D01*
X149105809Y-122906619D02*
X149201047Y-122954238D01*
X149201047Y-122954238D02*
X149248666Y-123001857D01*
X149248666Y-123001857D02*
X149296285Y-123097095D01*
X149296285Y-123097095D02*
X149343904Y-123287571D01*
X149343904Y-123287571D02*
X149343904Y-123525666D01*
X149343904Y-123525666D02*
X149296285Y-123716142D01*
X149296285Y-123716142D02*
X149248666Y-123811380D01*
X149248666Y-123811380D02*
X149201047Y-123859000D01*
X149201047Y-123859000D02*
X149105809Y-123906619D01*
X149105809Y-123906619D02*
X149010571Y-123906619D01*
X149010571Y-123906619D02*
X148915333Y-123859000D01*
X148915333Y-123859000D02*
X148867714Y-123811380D01*
X148867714Y-123811380D02*
X148820095Y-123716142D01*
X148820095Y-123716142D02*
X148772476Y-123525666D01*
X148772476Y-123525666D02*
X148772476Y-123287571D01*
X148772476Y-123287571D02*
X148820095Y-123097095D01*
X148820095Y-123097095D02*
X148867714Y-123001857D01*
X148867714Y-123001857D02*
X148915333Y-122954238D01*
X148915333Y-122954238D02*
X149010571Y-122906619D01*
D12*
%TO.C,Q1*%
X132975047Y-105864478D02*
X132854095Y-105804002D01*
X132854095Y-105804002D02*
X132733142Y-105683050D01*
X132733142Y-105683050D02*
X132551714Y-105501621D01*
X132551714Y-105501621D02*
X132430761Y-105441145D01*
X132430761Y-105441145D02*
X132309809Y-105441145D01*
X132370285Y-105743526D02*
X132249333Y-105683050D01*
X132249333Y-105683050D02*
X132128380Y-105562097D01*
X132128380Y-105562097D02*
X132067904Y-105320192D01*
X132067904Y-105320192D02*
X132067904Y-104896859D01*
X132067904Y-104896859D02*
X132128380Y-104654954D01*
X132128380Y-104654954D02*
X132249333Y-104534002D01*
X132249333Y-104534002D02*
X132370285Y-104473526D01*
X132370285Y-104473526D02*
X132612190Y-104473526D01*
X132612190Y-104473526D02*
X132733142Y-104534002D01*
X132733142Y-104534002D02*
X132854095Y-104654954D01*
X132854095Y-104654954D02*
X132914571Y-104896859D01*
X132914571Y-104896859D02*
X132914571Y-105320192D01*
X132914571Y-105320192D02*
X132854095Y-105562097D01*
X132854095Y-105562097D02*
X132733142Y-105683050D01*
X132733142Y-105683050D02*
X132612190Y-105743526D01*
X132612190Y-105743526D02*
X132370285Y-105743526D01*
X134124095Y-105743526D02*
X133398380Y-105743526D01*
X133761237Y-105743526D02*
X133761237Y-104473526D01*
X133761237Y-104473526D02*
X133640285Y-104654954D01*
X133640285Y-104654954D02*
X133519333Y-104775907D01*
X133519333Y-104775907D02*
X133398380Y-104836383D01*
D10*
%TO.C,R9*%
X116192619Y-106188166D02*
X115716428Y-106521499D01*
X116192619Y-106759594D02*
X115192619Y-106759594D01*
X115192619Y-106759594D02*
X115192619Y-106378642D01*
X115192619Y-106378642D02*
X115240238Y-106283404D01*
X115240238Y-106283404D02*
X115287857Y-106235785D01*
X115287857Y-106235785D02*
X115383095Y-106188166D01*
X115383095Y-106188166D02*
X115525952Y-106188166D01*
X115525952Y-106188166D02*
X115621190Y-106235785D01*
X115621190Y-106235785D02*
X115668809Y-106283404D01*
X115668809Y-106283404D02*
X115716428Y-106378642D01*
X115716428Y-106378642D02*
X115716428Y-106759594D01*
X116192619Y-105711975D02*
X116192619Y-105521499D01*
X116192619Y-105521499D02*
X116145000Y-105426261D01*
X116145000Y-105426261D02*
X116097380Y-105378642D01*
X116097380Y-105378642D02*
X115954523Y-105283404D01*
X115954523Y-105283404D02*
X115764047Y-105235785D01*
X115764047Y-105235785D02*
X115383095Y-105235785D01*
X115383095Y-105235785D02*
X115287857Y-105283404D01*
X115287857Y-105283404D02*
X115240238Y-105331023D01*
X115240238Y-105331023D02*
X115192619Y-105426261D01*
X115192619Y-105426261D02*
X115192619Y-105616737D01*
X115192619Y-105616737D02*
X115240238Y-105711975D01*
X115240238Y-105711975D02*
X115287857Y-105759594D01*
X115287857Y-105759594D02*
X115383095Y-105807213D01*
X115383095Y-105807213D02*
X115621190Y-105807213D01*
X115621190Y-105807213D02*
X115716428Y-105759594D01*
X115716428Y-105759594D02*
X115764047Y-105711975D01*
X115764047Y-105711975D02*
X115811666Y-105616737D01*
X115811666Y-105616737D02*
X115811666Y-105426261D01*
X115811666Y-105426261D02*
X115764047Y-105331023D01*
X115764047Y-105331023D02*
X115716428Y-105283404D01*
X115716428Y-105283404D02*
X115621190Y-105235785D01*
%TO.C,R7*%
X153503333Y-95966619D02*
X153170000Y-95490428D01*
X152931905Y-95966619D02*
X152931905Y-94966619D01*
X152931905Y-94966619D02*
X153312857Y-94966619D01*
X153312857Y-94966619D02*
X153408095Y-95014238D01*
X153408095Y-95014238D02*
X153455714Y-95061857D01*
X153455714Y-95061857D02*
X153503333Y-95157095D01*
X153503333Y-95157095D02*
X153503333Y-95299952D01*
X153503333Y-95299952D02*
X153455714Y-95395190D01*
X153455714Y-95395190D02*
X153408095Y-95442809D01*
X153408095Y-95442809D02*
X153312857Y-95490428D01*
X153312857Y-95490428D02*
X152931905Y-95490428D01*
X153836667Y-94966619D02*
X154503333Y-94966619D01*
X154503333Y-94966619D02*
X154074762Y-95966619D01*
%TO.C,R4*%
X146899333Y-112730619D02*
X146566000Y-112254428D01*
X146327905Y-112730619D02*
X146327905Y-111730619D01*
X146327905Y-111730619D02*
X146708857Y-111730619D01*
X146708857Y-111730619D02*
X146804095Y-111778238D01*
X146804095Y-111778238D02*
X146851714Y-111825857D01*
X146851714Y-111825857D02*
X146899333Y-111921095D01*
X146899333Y-111921095D02*
X146899333Y-112063952D01*
X146899333Y-112063952D02*
X146851714Y-112159190D01*
X146851714Y-112159190D02*
X146804095Y-112206809D01*
X146804095Y-112206809D02*
X146708857Y-112254428D01*
X146708857Y-112254428D02*
X146327905Y-112254428D01*
X147756476Y-112063952D02*
X147756476Y-112730619D01*
X147518381Y-111683000D02*
X147280286Y-112397285D01*
X147280286Y-112397285D02*
X147899333Y-112397285D01*
%TO.C,R6*%
X153503333Y-94696619D02*
X153170000Y-94220428D01*
X152931905Y-94696619D02*
X152931905Y-93696619D01*
X152931905Y-93696619D02*
X153312857Y-93696619D01*
X153312857Y-93696619D02*
X153408095Y-93744238D01*
X153408095Y-93744238D02*
X153455714Y-93791857D01*
X153455714Y-93791857D02*
X153503333Y-93887095D01*
X153503333Y-93887095D02*
X153503333Y-94029952D01*
X153503333Y-94029952D02*
X153455714Y-94125190D01*
X153455714Y-94125190D02*
X153408095Y-94172809D01*
X153408095Y-94172809D02*
X153312857Y-94220428D01*
X153312857Y-94220428D02*
X152931905Y-94220428D01*
X154360476Y-93696619D02*
X154170000Y-93696619D01*
X154170000Y-93696619D02*
X154074762Y-93744238D01*
X154074762Y-93744238D02*
X154027143Y-93791857D01*
X154027143Y-93791857D02*
X153931905Y-93934714D01*
X153931905Y-93934714D02*
X153884286Y-94125190D01*
X153884286Y-94125190D02*
X153884286Y-94506142D01*
X153884286Y-94506142D02*
X153931905Y-94601380D01*
X153931905Y-94601380D02*
X153979524Y-94649000D01*
X153979524Y-94649000D02*
X154074762Y-94696619D01*
X154074762Y-94696619D02*
X154265238Y-94696619D01*
X154265238Y-94696619D02*
X154360476Y-94649000D01*
X154360476Y-94649000D02*
X154408095Y-94601380D01*
X154408095Y-94601380D02*
X154455714Y-94506142D01*
X154455714Y-94506142D02*
X154455714Y-94268047D01*
X154455714Y-94268047D02*
X154408095Y-94172809D01*
X154408095Y-94172809D02*
X154360476Y-94125190D01*
X154360476Y-94125190D02*
X154265238Y-94077571D01*
X154265238Y-94077571D02*
X154074762Y-94077571D01*
X154074762Y-94077571D02*
X153979524Y-94125190D01*
X153979524Y-94125190D02*
X153931905Y-94172809D01*
X153931905Y-94172809D02*
X153884286Y-94268047D01*
D11*
%TO.C,Z4*%
X145176000Y-96891000D02*
X142626000Y-96891000D01*
X144326000Y-95641000D02*
X142626000Y-95641000D01*
%TO.C,Z3*%
X150839000Y-89620000D02*
X150839000Y-92170000D01*
X149589000Y-90470000D02*
X149589000Y-92170000D01*
%TO.C,Z2*%
X148648000Y-114183000D02*
X151198000Y-114183000D01*
X149498000Y-115433000D02*
X151198000Y-115433000D01*
%TO.C,Z1*%
X143239000Y-121334000D02*
X143239000Y-118784000D01*
X144489000Y-120484000D02*
X144489000Y-118784000D01*
%TO.C,S1*%
X162992000Y-98758000D02*
X161592000Y-98758000D01*
X161592000Y-98758000D02*
X161592000Y-92758000D01*
X161592000Y-92758000D02*
X162992000Y-92758000D01*
X165992000Y-98758000D02*
X167592000Y-98758000D01*
X167592000Y-98758000D02*
X167592000Y-92758000D01*
X167592000Y-92758000D02*
X165992000Y-92758000D01*
D13*
X164592000Y-100258000D02*
X164592000Y-100258000D01*
X164592000Y-100158000D02*
X164592000Y-100158000D01*
X164592000Y-100258000D02*
X164592000Y-100258000D01*
X164592000Y-100258000D02*
G75*
G03*
X164592000Y-100158000I0J50000D01*
G01*
X164592000Y-100158000D02*
G75*
G03*
X164592000Y-100258000I0J-50000D01*
G01*
X164592000Y-100258000D02*
G75*
G03*
X164592000Y-100158000I0J50000D01*
G01*
%TO.C,LED3*%
X163146000Y-102616000D02*
X163146000Y-102616000D01*
X163246000Y-102616000D02*
X163246000Y-102616000D01*
X163146000Y-102616000D02*
G75*
G03*
X163246000Y-102616000I50000J0D01*
G01*
X163246000Y-102616000D02*
G75*
G03*
X163146000Y-102616000I-50000J0D01*
G01*
D11*
%TO.C,LED2*%
X165608000Y-78423000D02*
X163283000Y-78423000D01*
X163283000Y-78423000D02*
X163283000Y-80073000D01*
X163283000Y-80073000D02*
X165608000Y-80073000D01*
D13*
%TO.C,LED1*%
X114554000Y-108144000D02*
X114554000Y-108144000D01*
X114554000Y-108244000D02*
X114554000Y-108244000D01*
X114554000Y-108144000D02*
G75*
G03*
X114554000Y-108244000I0J-50000D01*
G01*
X114554000Y-108244000D02*
G75*
G03*
X114554000Y-108144000I0J50000D01*
G01*
D11*
%TO.C,L1*%
X139032000Y-109952000D02*
X136832000Y-109952000D01*
X136832000Y-109952000D02*
X136832000Y-99852000D01*
X136832000Y-99852000D02*
X139032000Y-99852000D01*
X144632000Y-99852000D02*
X146832000Y-99852000D01*
X146832000Y-99852000D02*
X146832000Y-109952000D01*
X146832000Y-109952000D02*
X144632000Y-109952000D01*
D13*
X141832000Y-111602000D02*
X141832000Y-111602000D01*
X141832000Y-111502000D02*
X141832000Y-111502000D01*
X141832000Y-111602000D02*
G75*
G03*
X141832000Y-111502000I0J50000D01*
G01*
X141832000Y-111502000D02*
G75*
G03*
X141832000Y-111602000I0J-50000D01*
G01*
%TO.C,J2*%
X142324000Y-76718000D02*
X152824000Y-76718000D01*
X152824000Y-76718000D02*
X152824000Y-84318000D01*
X152824000Y-84318000D02*
X142324000Y-84318000D01*
X142324000Y-84318000D02*
X142324000Y-76718000D01*
%TO.C,J1*%
X139616000Y-123180000D02*
X129116000Y-123180000D01*
X129116000Y-123180000D02*
X129116000Y-115580000D01*
X129116000Y-115580000D02*
X139616000Y-115580000D01*
X139616000Y-115580000D02*
X139616000Y-123180000D01*
%TO.C,IC4*%
X165910000Y-111047000D02*
X165910000Y-110547000D01*
X165910000Y-110547000D02*
X159410000Y-110547000D01*
X159410000Y-110547000D02*
X159410000Y-111047000D01*
D11*
X165060000Y-106947000D02*
X165060000Y-106947000D01*
X164860000Y-106947000D02*
X164860000Y-106947000D01*
X164860000Y-106947000D02*
G75*
G03*
X165060000Y-106947000I100000J0D01*
G01*
X165060000Y-106947000D02*
G75*
G03*
X164860000Y-106947000I-100000J0D01*
G01*
%TO.C,IC3*%
X143536000Y-89750000D02*
X146732000Y-89750000D01*
X146732000Y-89750000D02*
X146732000Y-94654000D01*
X146732000Y-94654000D02*
X143536000Y-94654000D01*
X143536000Y-94654000D02*
X143536000Y-89750000D01*
X141659000Y-89622000D02*
X143186000Y-89622000D01*
%TO.C,IC2*%
X150542000Y-121324000D02*
X147346000Y-121324000D01*
X147346000Y-121324000D02*
X147346000Y-116420000D01*
X147346000Y-116420000D02*
X150542000Y-116420000D01*
X150542000Y-116420000D02*
X150542000Y-121324000D01*
X152419000Y-121452000D02*
X150892000Y-121452000D01*
%TO.C,IC1*%
X135724000Y-82370000D02*
X135724000Y-79174000D01*
X135724000Y-79174000D02*
X140628000Y-79174000D01*
X140628000Y-79174000D02*
X140628000Y-82370000D01*
X140628000Y-82370000D02*
X135724000Y-82370000D01*
X135596000Y-84247000D02*
X135596000Y-82720000D01*
%TO.C,D2*%
X118432000Y-97376000D02*
X118432000Y-102776000D01*
X122052000Y-102776000D02*
X122052000Y-97376000D01*
%TO.C,D1*%
X126720000Y-105802000D02*
X123160000Y-105802000D01*
X125960000Y-104002000D02*
X123160000Y-104002000D01*
D14*
%TO.C,C8*%
X134331000Y-86868000D02*
X134331000Y-86868000D01*
X134281000Y-86868000D02*
X134281000Y-86868000D01*
D11*
X132706000Y-89868000D02*
X127206000Y-95368000D01*
X127206000Y-95368000D02*
X115706000Y-95368000D01*
X115706000Y-95368000D02*
X115706000Y-89868000D01*
X132706000Y-83868000D02*
X127206000Y-78368000D01*
X127206000Y-78368000D02*
X115706000Y-78368000D01*
X115706000Y-78368000D02*
X115706000Y-83868000D01*
D14*
X134331000Y-86868000D02*
G75*
G03*
X134281000Y-86868000I-25000J0D01*
G01*
X134281000Y-86868000D02*
G75*
G03*
X134331000Y-86868000I25000J0D01*
G01*
D11*
%TO.C,C7*%
X124814000Y-97910000D02*
X124814000Y-100210000D01*
%TO.C,C6*%
X124814000Y-100958000D02*
X124814000Y-103258000D01*
%TO.C,C5*%
X124560000Y-106546000D02*
X124560000Y-108846000D01*
%TO.C,C3*%
X124560000Y-109594000D02*
X124560000Y-111894000D01*
%TO.C,C2*%
X127229000Y-123514000D02*
X115754000Y-123514000D01*
X123479000Y-113214000D02*
X115754000Y-113214000D01*
%TO.C,G\u002A\u002A\u002A*%
G36*
X157687564Y-90826540D02*
G01*
X157687564Y-92078357D01*
X158491804Y-92078357D01*
X159296045Y-92078357D01*
X159296045Y-92742729D01*
X159296045Y-93407102D01*
X157191033Y-93407102D01*
X155086022Y-93407102D01*
X155086022Y-92742729D01*
X155086022Y-92078357D01*
X155904249Y-92078357D01*
X156722476Y-92078357D01*
X156722476Y-90826540D01*
X156722476Y-89574723D01*
X157205020Y-89574723D01*
X157687564Y-89574723D01*
X157687564Y-90826540D01*
G37*
G36*
X157687564Y-86112994D02*
G01*
X157687564Y-87364811D01*
X158491804Y-87364811D01*
X159296045Y-87364811D01*
X159296045Y-88022190D01*
X159296045Y-88679568D01*
X157191033Y-88679568D01*
X155086022Y-88679568D01*
X155086022Y-88022190D01*
X155086022Y-87364811D01*
X155904249Y-87364811D01*
X156722476Y-87364811D01*
X156722476Y-86112994D01*
X156722476Y-84861176D01*
X157205020Y-84861176D01*
X157687564Y-84861176D01*
X157687564Y-86112994D01*
G37*
G36*
X159296045Y-79521794D02*
G01*
X159296045Y-80126795D01*
X157956810Y-81425573D01*
X157794412Y-81583123D01*
X157637584Y-81735383D01*
X157487496Y-81881212D01*
X157345318Y-82019467D01*
X157212221Y-82149007D01*
X157089375Y-82268689D01*
X156977952Y-82377371D01*
X156879120Y-82473912D01*
X156794052Y-82557169D01*
X156723917Y-82626000D01*
X156669886Y-82679264D01*
X156633129Y-82715818D01*
X156614817Y-82734520D01*
X156612913Y-82736762D01*
X156625902Y-82738660D01*
X156665270Y-82740448D01*
X156729423Y-82742112D01*
X156816765Y-82743637D01*
X156925703Y-82745008D01*
X157054642Y-82746210D01*
X157201987Y-82747228D01*
X157366144Y-82748048D01*
X157545518Y-82748656D01*
X157738515Y-82749035D01*
X157943541Y-82749172D01*
X157952148Y-82749172D01*
X159296045Y-82749172D01*
X159296045Y-83357642D01*
X159296045Y-83966113D01*
X157187537Y-83962571D01*
X155079029Y-83959029D01*
X155075384Y-83354907D01*
X155071740Y-82750785D01*
X156264261Y-81607781D01*
X156421727Y-81456828D01*
X156576147Y-81308746D01*
X156726016Y-81164979D01*
X156869834Y-81026971D01*
X157006096Y-80896166D01*
X157133301Y-80774006D01*
X157249945Y-80661936D01*
X157354526Y-80561398D01*
X157445541Y-80473838D01*
X157521487Y-80400698D01*
X157580862Y-80343422D01*
X157622162Y-80303453D01*
X157633643Y-80292285D01*
X157810504Y-80119794D01*
X156444767Y-80116229D01*
X155079029Y-80112663D01*
X155075382Y-79514728D01*
X155071735Y-78916793D01*
X157183890Y-78916793D01*
X159296045Y-78916793D01*
X159296045Y-79521794D01*
G37*
D13*
%TO.C,Q3*%
X135246000Y-103505000D02*
X135246000Y-103505000D01*
X135146000Y-103505000D02*
X135146000Y-103505000D01*
D11*
X134291000Y-104050000D02*
X128401000Y-104050000D01*
X134291000Y-99150000D02*
X128401000Y-99150000D01*
D13*
X135146000Y-103505000D02*
G75*
G03*
X135246000Y-103505000I50000J0D01*
G01*
X135246000Y-103505000D02*
G75*
G03*
X135146000Y-103505000I-50000J0D01*
G01*
D15*
%TO.C,R1*%
X143104776Y-116317500D02*
X143614224Y-116317500D01*
X143104776Y-117362500D02*
X143614224Y-117362500D01*
%TO.C,R13*%
X164603276Y-82027500D02*
X165112724Y-82027500D01*
X164603276Y-83072500D02*
X165112724Y-83072500D01*
%TO.C,C13*%
X142945665Y-88540000D02*
X143177335Y-88540000D01*
X142945665Y-89260000D02*
X143177335Y-89260000D01*
%TO.C,TP6*%
X134812000Y-113538000D02*
G75*
G03*
X134812000Y-113538000I-700000J0D01*
G01*
%TO.C,R10*%
X164603276Y-76693500D02*
X165112724Y-76693500D01*
X164603276Y-77738500D02*
X165112724Y-77738500D01*
%TO.C,TP10*%
X154624000Y-97028000D02*
G75*
G03*
X154624000Y-97028000I-700000J0D01*
G01*
%TO.C,R11*%
X164729276Y-104379500D02*
X165238724Y-104379500D01*
X164729276Y-105424500D02*
X165238724Y-105424500D01*
%TO.C,R12*%
X152768500Y-91081776D02*
X152768500Y-91591224D01*
X151723500Y-91081776D02*
X151723500Y-91591224D01*
%TO.C,R5*%
X164603276Y-85837500D02*
X165112724Y-85837500D01*
X164603276Y-86882500D02*
X165112724Y-86882500D01*
%TO.C,TP3*%
X155894000Y-115062000D02*
G75*
G03*
X155894000Y-115062000I-700000J0D01*
G01*
%TO.C,TP1*%
X157672000Y-113284000D02*
G75*
G03*
X157672000Y-113284000I-700000J0D01*
G01*
%TO.C,C11*%
X155042000Y-117810233D02*
X155042000Y-118102767D01*
X154022000Y-117810233D02*
X154022000Y-118102767D01*
%TO.C,R2*%
X143104776Y-114793500D02*
X143614224Y-114793500D01*
X143104776Y-115838500D02*
X143614224Y-115838500D01*
%TO.C,TP9*%
X140908000Y-96012000D02*
G75*
G03*
X140908000Y-96012000I-700000J0D01*
G01*
%TO.C,C12*%
X152902000Y-117777335D02*
X152902000Y-117545665D01*
X153622000Y-117777335D02*
X153622000Y-117545665D01*
%TO.C,C15*%
X139036000Y-93364267D02*
X139036000Y-93071733D01*
X140056000Y-93364267D02*
X140056000Y-93071733D01*
%TO.C,R3*%
X145273500Y-114705224D02*
X145273500Y-114195776D01*
X146318500Y-114705224D02*
X146318500Y-114195776D01*
D13*
%TO.C,Q4*%
X156328000Y-103505000D02*
X156328000Y-103505000D01*
X156228000Y-103505000D02*
X156228000Y-103505000D01*
D11*
X155373000Y-104050000D02*
X149483000Y-104050000D01*
X155373000Y-99150000D02*
X149483000Y-99150000D01*
D13*
X156228000Y-103505000D02*
G75*
G03*
X156328000Y-103505000I50000J0D01*
G01*
X156328000Y-103505000D02*
G75*
G03*
X156228000Y-103505000I-50000J0D01*
G01*
D15*
%TO.C,R15*%
X147061776Y-95743500D02*
X147571224Y-95743500D01*
X147061776Y-96788500D02*
X147571224Y-96788500D01*
%TO.C,TP8*%
X140654000Y-86106000D02*
G75*
G03*
X140654000Y-86106000I-700000J0D01*
G01*
%TO.C,C14*%
X143210233Y-87120000D02*
X143502767Y-87120000D01*
X143210233Y-88140000D02*
X143502767Y-88140000D01*
%TO.C,R14*%
X165112724Y-84850500D02*
X164603276Y-84850500D01*
X165112724Y-83805500D02*
X164603276Y-83805500D01*
%TO.C,R8*%
X163307500Y-89258224D02*
X163307500Y-88748776D01*
X164352500Y-89258224D02*
X164352500Y-88748776D01*
%TO.C,TP5*%
X138114000Y-86106000D02*
G75*
G03*
X138114000Y-86106000I-700000J0D01*
G01*
%TO.C,C1*%
X166622000Y-107995767D02*
X166622000Y-107703233D01*
X167642000Y-107995767D02*
X167642000Y-107703233D01*
%TO.C,C4*%
X158498000Y-110190233D02*
X158498000Y-110482767D01*
X157478000Y-110190233D02*
X157478000Y-110482767D01*
%TO.C,C16*%
X141176000Y-92848165D02*
X141176000Y-93079835D01*
X140456000Y-92848165D02*
X140456000Y-93079835D01*
D13*
%TO.C,Q2*%
X156328000Y-110617000D02*
X156328000Y-110617000D01*
X156228000Y-110617000D02*
X156228000Y-110617000D01*
D11*
X155373000Y-111162000D02*
X149483000Y-111162000D01*
X155373000Y-106262000D02*
X149483000Y-106262000D01*
D13*
X156228000Y-110617000D02*
G75*
G03*
X156328000Y-110617000I50000J0D01*
G01*
X156328000Y-110617000D02*
G75*
G03*
X156228000Y-110617000I-50000J0D01*
G01*
D15*
%TO.C,JP1*%
X166070000Y-87500000D02*
X166670000Y-87500000D01*
X167370000Y-88200000D02*
X167370000Y-89600000D01*
X165370000Y-89600000D02*
X165370000Y-88200000D01*
X166670000Y-90300000D02*
X166070000Y-90300000D01*
X167370000Y-88200000D02*
G75*
G03*
X166670000Y-87500000I-699999J1D01*
G01*
X166070000Y-87500000D02*
G75*
G03*
X165370000Y-88200000I-1J-699999D01*
G01*
X166670000Y-90300000D02*
G75*
G03*
X167370000Y-89600000I0J700000D01*
G01*
X165370000Y-89600000D02*
G75*
G03*
X166070000Y-90300000I700000J0D01*
G01*
%TO.C,TP4*%
X138622000Y-95758000D02*
G75*
G03*
X138622000Y-95758000I-700000J0D01*
G01*
%TO.C,C9*%
X151245835Y-122534000D02*
X151014165Y-122534000D01*
X151245835Y-121814000D02*
X151014165Y-121814000D01*
%TO.C,C10*%
X151276267Y-123954000D02*
X150983733Y-123954000D01*
X151276267Y-122934000D02*
X150983733Y-122934000D01*
D13*
%TO.C,Q1*%
X135246000Y-110617000D02*
X135246000Y-110617000D01*
X135146000Y-110617000D02*
X135146000Y-110617000D01*
D11*
X134291000Y-111162000D02*
X128401000Y-111162000D01*
X134291000Y-106262000D02*
X128401000Y-106262000D01*
D13*
X135146000Y-110617000D02*
G75*
G03*
X135246000Y-110617000I50000J0D01*
G01*
X135246000Y-110617000D02*
G75*
G03*
X135146000Y-110617000I-50000J0D01*
G01*
D15*
%TO.C,R9*%
X114822500Y-105766776D02*
X114822500Y-106276224D01*
X113777500Y-105766776D02*
X113777500Y-106276224D01*
%TO.C,TP2*%
X129732000Y-113538000D02*
G75*
G03*
X129732000Y-113538000I-700000J0D01*
G01*
%TO.C,R7*%
X151381224Y-96788500D02*
X150871776Y-96788500D01*
X151381224Y-95743500D02*
X150871776Y-95743500D01*
%TO.C,R4*%
X146897500Y-114705224D02*
X146897500Y-114195776D01*
X147942500Y-114705224D02*
X147942500Y-114195776D01*
%TO.C,R6*%
X151381224Y-95264500D02*
X150871776Y-95264500D01*
X151381224Y-94219500D02*
X150871776Y-94219500D01*
%TO.C,TP7*%
X154116000Y-113538000D02*
G75*
G03*
X154116000Y-113538000I-700000J0D01*
G01*
%TD*%
%LPC*%
D16*
%TO.C,Z4*%
X144626000Y-96266000D03*
X142326000Y-96266000D03*
%TD*%
D17*
%TO.C,Z3*%
X150214000Y-90170000D03*
X150214000Y-92470000D03*
%TD*%
D16*
%TO.C,Z2*%
X149198000Y-114808000D03*
X151498000Y-114808000D03*
%TD*%
D17*
%TO.C,Z1*%
X143864000Y-120784000D03*
X143864000Y-118484000D03*
%TD*%
D18*
%TO.C,S1*%
X164592000Y-98758000D03*
X164592000Y-92758000D03*
%TD*%
D19*
%TO.C,LED3*%
X164146000Y-102616000D03*
X165746000Y-102616000D03*
%TD*%
D20*
%TO.C,LED2*%
X164108000Y-79248000D03*
X165608000Y-79248000D03*
%TD*%
D19*
%TO.C,LED1*%
X114554000Y-109144000D03*
X114554000Y-110744000D03*
%TD*%
D21*
%TO.C,L1*%
X141832000Y-109352000D03*
X141832000Y-100452000D03*
%TD*%
D22*
%TO.C,J2*%
X145074000Y-80818000D03*
X150074000Y-80818000D03*
%TD*%
%TO.C,J1*%
X136866000Y-119080000D03*
X131866000Y-119080000D03*
%TD*%
D23*
%TO.C,IC4*%
X164960000Y-108567000D03*
X160360000Y-108567000D03*
D24*
X162660000Y-114797000D03*
%TD*%
D25*
%TO.C,IC3*%
X142423000Y-90297000D03*
X142423000Y-91567000D03*
X142423000Y-92837000D03*
X142423000Y-94107000D03*
X147845000Y-94107000D03*
X147845000Y-92837000D03*
X147845000Y-91567000D03*
X147845000Y-90297000D03*
%TD*%
%TO.C,IC2*%
X151655000Y-120777000D03*
X151655000Y-119507000D03*
X151655000Y-118237000D03*
X151655000Y-116967000D03*
X146233000Y-116967000D03*
X146233000Y-118237000D03*
X146233000Y-119507000D03*
X146233000Y-120777000D03*
%TD*%
D26*
%TO.C,IC1*%
X136271000Y-83483000D03*
X137541000Y-83483000D03*
X138811000Y-83483000D03*
X140081000Y-83483000D03*
X140081000Y-78061000D03*
X138811000Y-78061000D03*
X137541000Y-78061000D03*
X136271000Y-78061000D03*
%TD*%
D27*
%TO.C,D2*%
X120242000Y-102276000D03*
X120242000Y-97876000D03*
%TD*%
D28*
%TO.C,D1*%
X126160000Y-104902000D03*
X122960000Y-104902000D03*
%TD*%
D29*
%TO.C,C8*%
X130456000Y-86868000D03*
X117956000Y-86868000D03*
%TD*%
D30*
%TO.C,C7*%
X123264000Y-99060000D03*
X126364000Y-99060000D03*
%TD*%
%TO.C,C6*%
X123264000Y-102108000D03*
X126364000Y-102108000D03*
%TD*%
%TO.C,C5*%
X123010000Y-107696000D03*
X126110000Y-107696000D03*
%TD*%
%TO.C,C3*%
X123010000Y-110744000D03*
X126110000Y-110744000D03*
%TD*%
D31*
%TO.C,C2*%
X125204000Y-118364000D03*
X116604000Y-118364000D03*
%TD*%
D32*
%TO.C,Q3*%
X134016000Y-103505000D03*
X134016000Y-102235000D03*
X134016000Y-100965000D03*
X134016000Y-99695000D03*
D33*
X128396000Y-99695000D03*
X128396000Y-100965000D03*
X128396000Y-102235000D03*
X128396000Y-103505000D03*
D34*
X130656000Y-101600000D03*
D35*
X128906000Y-99517000D03*
X128906000Y-103683000D03*
%TD*%
D36*
%TO.C,R1*%
X142447000Y-116840000D03*
X144272000Y-116840000D03*
%TD*%
%TO.C,R13*%
X163945500Y-82550000D03*
X165770500Y-82550000D03*
%TD*%
D37*
%TO.C,C13*%
X142494000Y-88900000D03*
X143629000Y-88900000D03*
%TD*%
D38*
%TO.C,TP6*%
X134112000Y-113538000D03*
%TD*%
D36*
%TO.C,R10*%
X163945500Y-77216000D03*
X165770500Y-77216000D03*
%TD*%
D38*
%TO.C,TP10*%
X153924000Y-97028000D03*
%TD*%
D36*
%TO.C,R11*%
X164071500Y-104902000D03*
X165896500Y-104902000D03*
%TD*%
D39*
%TO.C,R12*%
X152246000Y-90424000D03*
X152246000Y-92249000D03*
%TD*%
D36*
%TO.C,R5*%
X163945500Y-86360000D03*
X165770500Y-86360000D03*
%TD*%
D40*
%TO.C,U1*%
X109220000Y-78740000D03*
D41*
X111760000Y-78740000D03*
X109220000Y-81280000D03*
X111760000Y-81280000D03*
X109220000Y-83820000D03*
X111760000Y-83820000D03*
X109220000Y-86360000D03*
X111760000Y-86360000D03*
X109220000Y-88900000D03*
X111760000Y-88900000D03*
X109220000Y-91440000D03*
X111760000Y-91440000D03*
X109220000Y-93980000D03*
X111760000Y-93980000D03*
X109220000Y-96520000D03*
X111760000Y-96520000D03*
X109220000Y-99060000D03*
X111760000Y-99060000D03*
X109220000Y-101600000D03*
X111760000Y-101600000D03*
X109220000Y-104140000D03*
X111760000Y-104140000D03*
X109220000Y-106680000D03*
X111760000Y-106680000D03*
X109220000Y-109220000D03*
X111760000Y-109220000D03*
X109220000Y-111760000D03*
X111760000Y-111760000D03*
X109220000Y-114300000D03*
X111760000Y-114300000D03*
X109220000Y-116840000D03*
X111760000Y-116840000D03*
X109220000Y-119380000D03*
X111760000Y-119380000D03*
X109220000Y-121920000D03*
X111760000Y-121920000D03*
X109220000Y-124460000D03*
X111760000Y-124460000D03*
D40*
X170180000Y-78740000D03*
D41*
X172720000Y-78740000D03*
X170180000Y-81280000D03*
X172720000Y-81280000D03*
X170180000Y-83820000D03*
X172720000Y-83820000D03*
X170180000Y-86360000D03*
X172720000Y-86360000D03*
X170180000Y-88900000D03*
X172720000Y-88900000D03*
X170180000Y-91440000D03*
X172720000Y-91440000D03*
X170180000Y-93980000D03*
X172720000Y-93980000D03*
X170180000Y-96520000D03*
X172720000Y-96520000D03*
X170180000Y-99060000D03*
X172720000Y-99060000D03*
X170180000Y-101600000D03*
X172720000Y-101600000D03*
X170180000Y-104140000D03*
X172720000Y-104140000D03*
X170180000Y-106680000D03*
X172720000Y-106680000D03*
X170180000Y-109220000D03*
X172720000Y-109220000D03*
X170180000Y-111760000D03*
X172720000Y-111760000D03*
X170180000Y-114300000D03*
X172720000Y-114300000D03*
X170180000Y-116840000D03*
X172720000Y-116840000D03*
X170180000Y-119380000D03*
X172720000Y-119380000D03*
X170180000Y-121920000D03*
X172720000Y-121920000D03*
X170180000Y-124460000D03*
X172720000Y-124460000D03*
%TD*%
D38*
%TO.C,TP3*%
X155194000Y-115062000D03*
%TD*%
%TO.C,TP1*%
X156972000Y-113284000D03*
%TD*%
D42*
%TO.C,C11*%
X154532000Y-117094000D03*
X154532000Y-118819000D03*
%TD*%
D36*
%TO.C,R2*%
X142447000Y-115316000D03*
X144272000Y-115316000D03*
%TD*%
D38*
%TO.C,TP9*%
X140208000Y-96012000D03*
%TD*%
D43*
%TO.C,C12*%
X153262000Y-118229000D03*
X153262000Y-117094000D03*
%TD*%
D44*
%TO.C,C15*%
X139546000Y-94080500D03*
X139546000Y-92355500D03*
%TD*%
D45*
%TO.C,R3*%
X145796000Y-115363000D03*
X145796000Y-113538000D03*
%TD*%
D32*
%TO.C,Q4*%
X155098000Y-103505000D03*
X155098000Y-102235000D03*
X155098000Y-100965000D03*
X155098000Y-99695000D03*
D33*
X149478000Y-99695000D03*
X149478000Y-100965000D03*
X149478000Y-102235000D03*
X149478000Y-103505000D03*
D34*
X151738000Y-101600000D03*
D35*
X149988000Y-99517000D03*
X149988000Y-103683000D03*
%TD*%
D36*
%TO.C,R15*%
X146404000Y-96266000D03*
X148229000Y-96266000D03*
%TD*%
D38*
%TO.C,TP8*%
X139954000Y-86106000D03*
%TD*%
D46*
%TO.C,C14*%
X142494000Y-87630000D03*
X144219000Y-87630000D03*
%TD*%
D47*
%TO.C,R14*%
X165770500Y-84328000D03*
X163945500Y-84328000D03*
%TD*%
D45*
%TO.C,R8*%
X163830000Y-89916000D03*
X163830000Y-88091000D03*
%TD*%
D38*
%TO.C,TP5*%
X137414000Y-86106000D03*
%TD*%
D44*
%TO.C,C1*%
X167132000Y-108712000D03*
X167132000Y-106987000D03*
%TD*%
D42*
%TO.C,C4*%
X157988000Y-109474000D03*
X157988000Y-111199000D03*
%TD*%
D48*
%TO.C,C16*%
X140816000Y-92396500D03*
X140816000Y-93531500D03*
%TD*%
D32*
%TO.C,Q2*%
X155098000Y-110617000D03*
X155098000Y-109347000D03*
X155098000Y-108077000D03*
X155098000Y-106807000D03*
D33*
X149478000Y-106807000D03*
X149478000Y-108077000D03*
X149478000Y-109347000D03*
X149478000Y-110617000D03*
D34*
X151738000Y-108712000D03*
D35*
X149988000Y-106629000D03*
X149988000Y-110795000D03*
%TD*%
D49*
%TO.C,JP1*%
X166370000Y-88250000D03*
D50*
X166370000Y-89550000D03*
%TD*%
D38*
%TO.C,TP4*%
X137922000Y-95758000D03*
%TD*%
D51*
%TO.C,C9*%
X151697500Y-122174000D03*
X150562500Y-122174000D03*
%TD*%
D52*
%TO.C,C10*%
X151992500Y-123444000D03*
X150267500Y-123444000D03*
%TD*%
D32*
%TO.C,Q1*%
X134016000Y-110617000D03*
X134016000Y-109347000D03*
X134016000Y-108077000D03*
X134016000Y-106807000D03*
D33*
X128396000Y-106807000D03*
X128396000Y-108077000D03*
X128396000Y-109347000D03*
X128396000Y-110617000D03*
D34*
X130656000Y-108712000D03*
D35*
X128906000Y-106629000D03*
X128906000Y-110795000D03*
%TD*%
D39*
%TO.C,R9*%
X114300000Y-105109000D03*
X114300000Y-106934000D03*
%TD*%
D38*
%TO.C,TP2*%
X129032000Y-113538000D03*
%TD*%
D47*
%TO.C,R7*%
X152039000Y-96266000D03*
X150214000Y-96266000D03*
%TD*%
D45*
%TO.C,R4*%
X147420000Y-115363000D03*
X147420000Y-113538000D03*
%TD*%
D47*
%TO.C,R6*%
X152039000Y-94742000D03*
X150214000Y-94742000D03*
%TD*%
D38*
%TO.C,TP7*%
X153416000Y-113538000D03*
%TD*%
%LPD*%
M02*
